<?xml version="1.0" encoding="UTF-8"?>
<svg version="1.1" xmlns="http://www.w3.org/2000/svg" width="128" height="128">
<path d="M0 0 C6.12274216 3.14913382 10.05196347 7.5230779 12.25390625 14.12890625 C12.32245575 16.02361441 12.33870997 17.92058965 12.31640625 19.81640625 C12.30738281 20.81027344 12.29835938 21.80414062 12.2890625 22.828125 C12.27746094 23.58738281 12.26585938 24.34664062 12.25390625 25.12890625 C13.05828125 25.41765625 13.86265625 25.70640625 14.69140625 26.00390625 C17.25390625 27.12890625 17.25390625 27.12890625 18.25390625 29.12890625 C18.83241865 36.30245997 18.83241865 36.30245997 16.50390625 39.62890625 C14.25390625 41.12890625 14.25390625 41.12890625 10.25390625 41.12890625 C10.16109375 42.14984375 10.16109375 42.14984375 10.06640625 43.19140625 C8.63631932 48.36172054 5.68960023 52.17177693 1.25390625 55.12890625 C0.53008158 57.18815764 0.53008158 57.18815764 0.25390625 59.12890625 C3.90818616 60.17959433 7.57474808 61.16912586 11.25390625 62.12890625 C12.42953125 62.43828125 13.60515625 62.74765625 14.81640625 63.06640625 C18.36176869 63.13086739 19.57724716 62.65019838 22.69140625 61.19140625 C30.9446695 57.5750909 41.37151044 57.68537922 49.81640625 60.75390625 C58.38383673 64.86512289 63.83201611 71.12091914 67.3671875 79.890625 C69.62198746 88.12511473 69.65388454 98.58663834 65.51171875 106.17578125 C65.09664063 106.8203125 64.6815625 107.46484375 64.25390625 108.12890625 C63.60035156 109.18851563 63.60035156 109.18851563 62.93359375 110.26953125 C58.26160571 117.16262837 52.25095089 120.95139771 44.25390625 123.12890625 C41.5819275 123.31545097 39.04447751 123.41424526 36.37890625 123.37890625 C35.32316406 123.37310547 35.32316406 123.37310547 34.24609375 123.3671875 C29.26627709 123.28419056 24.96283198 122.69854816 20.25390625 121.12890625 C20.25390625 121.78890625 20.25390625 122.44890625 20.25390625 123.12890625 C-4.82609375 123.12890625 -29.90609375 123.12890625 -55.74609375 123.12890625 C-55.82859375 116.52890625 -55.91109375 109.92890625 -55.99609375 103.12890625 C-56.03250977 101.06125 -56.06892578 98.99359375 -56.10644531 96.86328125 C-56.1181412 95.20183344 -56.12833089 93.54037406 -56.13671875 91.87890625 C-56.15718262 91.03457031 -56.17764648 90.19023438 -56.19873047 89.3203125 C-56.20273615 82.43053601 -54.29257333 77.52001025 -50.16796875 72.02734375 C-41.88970583 64.48406679 -30.41355658 61.6648098 -19.74609375 59.12890625 C-21.15509949 54.64570617 -23.42044199 52.37344456 -26.74609375 49.12890625 C-29.74609375 44.78407866 -29.74609375 44.78407866 -29.74609375 41.12890625 C-30.69484375 41.02578125 -31.64359375 40.92265625 -32.62109375 40.81640625 C-35.74609375 40.12890625 -35.74609375 40.12890625 -37.74609375 37.12890625 C-38.42215009 30.0303147 -38.42215009 30.0303147 -35.87109375 26.62890625 C-33.74609375 25.12890625 -33.74609375 25.12890625 -31.74609375 25.12890625 C-31.80410156 24.43925781 -31.86210937 23.74960937 -31.921875 23.0390625 C-32.26756125 15.83891176 -31.32708573 10.81801848 -26.74609375 5.12890625 C-19.38138528 -1.60730412 -9.49268147 -3.01119199 0 0 Z " fill="#010202" transform="translate(57.74609375,2.87109375)"/>
<path d="M0 0 C6.89677014 4.84737403 10.36534717 10.09604152 13 18 C14.02310679 26.52101796 12.33061043 33.60627487 8 41 C2.57817438 47.82021503 -5.105338 51.1440386 -13.609375 52.37890625 C-21.81319965 52.77381085 -28.01773814 49.83467825 -34.3125 44.75 C-39.14312912 40.28503604 -42.64403542 34.23734759 -43.203125 27.58203125 C-43.3662059 17.94666812 -41.24683883 10.6030211 -34.50390625 3.40234375 C-24.95414118 -5.57399432 -11.14048364 -6.91689369 0 0 Z " fill="#76CAF3" transform="translate(109,70)"/>
<path d="M0 0 C1.18142578 -0.01891296 1.18142578 -0.01891296 2.38671875 -0.03820801 C3.22847656 -0.03011108 4.07023437 -0.02201416 4.9375 -0.01367188 C5.81019531 -0.01749878 6.68289062 -0.02132568 7.58203125 -0.02526855 C9.42449092 -0.02798678 11.26698924 -0.02063182 13.109375 -0.00390625 C15.92795934 0.01750565 18.74399485 -0.00370989 21.5625 -0.02929688 C23.35417229 -0.02665358 25.14584299 -0.02152857 26.9375 -0.01367188 C27.77925781 -0.0217688 28.62101562 -0.02986572 29.48828125 -0.03820801 C30.27589844 -0.02559937 31.06351563 -0.01299072 31.875 0 C32.90947266 0.00477356 32.90947266 0.00477356 33.96484375 0.00964355 C35.9375 0.51757812 35.9375 0.51757812 39.9375 4.51757812 C39.9375 11.11757813 39.9375 17.71757813 39.9375 24.51757812 C24.0975 24.51757812 8.2575 24.51757812 -8.0625 24.51757812 C-8.0625 0.03720429 -8.0625 0.03720429 0 0 Z " fill="#000000" transform="translate(86.0625,1.482421875)"/>
<path d="M0 0 C1.32 0 2.64 0 4 0 C4.33 0.99 4.66 1.98 5 3 C5.99 3 6.98 3 8 3 C8.33 3.99 8.66 4.98 9 6 C8.34 6.309375 7.68 6.61875 7 6.9375 C4.55823502 9.45557014 4.72857594 10.28107372 4.75 13.6875 C4.81423833 15.1259798 4.89163547 16.56416999 5 18 C8.67230705 14.92000054 9.56802365 12.7517398 10 8 C11.32 8 12.64 8 14 8 C14 9.32 14 10.64 14 12 C15.32 12 16.64 12 18 12 C18 13.32 18 14.64 18 16 C16.906875 16.268125 15.81375 16.53625 14.6875 16.8125 C11.2149991 17.930763 10.28172966 18.43744207 8 21 C14.19863615 21.62314211 14.19863615 21.62314211 19.5625 19 C20.036875 18.34 20.51125 17.68 21 17 C21.66 17.33 22.32 17.66 23 18 C23 18.99 23 19.98 23 21 C23.99 21.33 24.98 21.66 26 22 C26 23.32 26 24.64 26 26 C25.01 26.33 24.02 26.66 23 27 C23 27.99 23 28.98 23 30 C22.01 30.33 21.02 30.66 20 31 C19.690625 30.34 19.38125 29.68 19.0625 29 C16.54442986 26.55823502 15.71892628 26.72857594 12.3125 26.75 C10.8740202 26.81423833 9.43583001 26.89163547 8 27 C11.07999946 30.67230705 13.2482602 31.56802365 18 32 C18 33.32 18 34.64 18 36 C16.68 36 15.36 36 14 36 C14 37.32 14 38.64 14 40 C12.68 40 11.36 40 10 40 C9.731875 38.906875 9.46375 37.81375 9.1875 36.6875 C8.069237 33.2149991 7.56255793 32.28172966 5 30 C4.37685789 36.19863615 4.37685789 36.19863615 7 41.5625 C7.66 42.036875 8.32 42.51125 9 43 C8.67 43.66 8.34 44.32 8 45 C7.01 45 6.02 45 5 45 C4.67 45.99 4.34 46.98 4 48 C2.68 48 1.36 48 0 48 C-0.33 47.01 -0.66 46.02 -1 45 C-1.99 45 -2.98 45 -4 45 C-4.33 44.01 -4.66 43.02 -5 42 C-4.34 41.690625 -3.68 41.38125 -3 41.0625 C-0.55823502 38.54442986 -0.72857594 37.71892628 -0.75 34.3125 C-0.81423833 32.8740202 -0.89163547 31.43583001 -1 30 C-4.67230705 33.07999946 -5.56802365 35.2482602 -6 40 C-7.32 40 -8.64 40 -10 40 C-10 38.68 -10 37.36 -10 36 C-11.32 36 -12.64 36 -14 36 C-14 34.68 -14 33.36 -14 32 C-12.906875 31.731875 -11.81375 31.46375 -10.6875 31.1875 C-7.2149991 30.069237 -6.28172966 29.56255793 -4 27 C-10.19863615 26.37685789 -10.19863615 26.37685789 -15.5625 29 C-16.2740625 29.99 -16.2740625 29.99 -17 31 C-17.4021875 30.0409375 -17.4021875 30.0409375 -17.8125 29.0625 C-18.88667752 26.66868314 -18.88667752 26.66868314 -22 26 C-22 24.68 -22 23.36 -22 22 C-21.01 21.67 -20.02 21.34 -19 21 C-19 20.01 -19 19.02 -19 18 C-18.01 17.67 -17.02 17.34 -16 17 C-15.690625 17.66 -15.38125 18.32 -15.0625 19 C-12.54442986 21.44176498 -11.71892628 21.27142406 -8.3125 21.25 C-6.8740202 21.18576167 -5.43583001 21.10836453 -4 21 C-7.07999946 17.32769295 -9.2482602 16.43197635 -14 16 C-14 14.68 -14 13.36 -14 12 C-12.68 12 -11.36 12 -10 12 C-10 10.68 -10 9.36 -10 8 C-8.68 8 -7.36 8 -6 8 C-5.731875 9.093125 -5.46375 10.18625 -5.1875 11.3125 C-4.069237 14.7850009 -3.56255793 15.71827034 -1 18 C-0.37685789 11.80136385 -0.37685789 11.80136385 -3 6.4375 C-3.66 5.963125 -4.32 5.48875 -5 5 C-4.67 4.34 -4.34 3.68 -4 3 C-3.01 3 -2.02 3 -1 3 C-0.67 2.01 -0.34 1.02 0 0 Z " fill="#010203" transform="translate(92,70)"/>
<path d="M0 0 C2.75 0.3125 2.75 0.3125 5.1875 2.3125 C7.61519931 4.53531296 7.61519931 4.53531296 10.75 4.8125 C13.89180598 4.54627842 13.89180598 4.54627842 16.25 2.25 C17.075 1.610625 17.9 0.97125 18.75 0.3125 C21.72 0.8075 21.72 0.8075 24.75 1.3125 C24.75 10.5525 24.75 19.7925 24.75 29.3125 C15.51 29.3125 6.27 29.3125 -3.25 29.3125 C-3.270625 24.713125 -3.29125 20.11375 -3.3125 15.375 C-3.321604 13.92230713 -3.33070801 12.46961426 -3.34008789 10.97290039 C-3.34258545 9.83844482 -3.34508301 8.70398926 -3.34765625 7.53515625 C-3.35289307 6.36734619 -3.35812988 5.19953613 -3.36352539 3.99633789 C-3.21336005 0.44630001 -3.21336005 0.44630001 0 0 Z " fill="#6EAD66" transform="translate(37.25,66.6875)"/>
<path d="M0 0 C10.56 0 21.12 0 32 0 C32 13.9 32 13.9 29 18 C24.97633139 22.02366861 21.42616777 24.12418448 15.6875 24.3125 C11.05773338 24.25237316 8.5630849 23.06591027 5 20 C-1.18123467 13.15052374 0 10.40834686 0 0 Z " fill="#F2DED4" transform="translate(32,32)"/>
<path d="M0 0 C13.53 0 27.06 0 41 0 C43.475 5.94 43.475 5.94 46 12 C47.94206113 14.38177308 49.92556113 16.73259007 52 19 C52 19.99 52 20.98 52 22 C48.04 22 44.08 22 40 22 C39.67 17.71 39.34 13.42 39 9 C30.42 9 21.84 9 13 9 C12.67 13.29 12.34 17.58 12 22 C8.04 22 4.08 22 0 22 C0 14.74 0 7.48 0 0 Z " fill="#3563A4" transform="translate(22,100)"/>
<path d="M0 0 C0 15.84 0 31.68 0 48 C-3.96 48 -7.92 48 -12 48 C-12.09951569 43.16200639 -12.17177037 38.32461975 -12.21972656 33.48583984 C-12.23973571 31.8428305 -12.26695213 30.19989141 -12.30175781 28.55712891 C-12.35075305 26.18374212 -12.37307504 23.81130351 -12.390625 21.4375 C-12.41127014 20.71320801 -12.43191528 19.98891602 -12.45318604 19.24267578 C-12.45581284 13.15550069 -10.73036124 7.88367586 -6.48150635 3.39624023 C-2.57381098 0 -2.57381098 0 0 0 Z " fill="#6DAC65" transform="translate(18,74)"/>
<path d="M0 0 C5.21957127 2.36284859 8.01519286 5.42118358 11.04296875 10.265625 C11.95337013 12.69336201 11.93583883 14.69396363 11.79296875 17.265625 C11.06207031 16.77835938 10.33117187 16.29109375 9.578125 15.7890625 C4.48308654 13.24976831 -1.21394136 13.83305412 -6.76953125 13.890625 C-7.89294922 13.87902344 -9.01636719 13.86742187 -10.17382812 13.85546875 C-11.80094727 13.86126953 -11.80094727 13.86126953 -13.4609375 13.8671875 C-14.44392822 13.87057129 -15.42691895 13.87395508 -16.43969727 13.87744141 C-19.63955168 14.32629615 -21.56715745 15.44670409 -24.20703125 17.265625 C-23.70862305 11.03552246 -22.3113035 6.93445635 -17.48046875 2.78125 C-11.84105988 -1.21801207 -6.61407642 -2.20079003 0 0 Z " fill="#3462A1" transform="translate(54.20703125,6.734375)"/>
<path d="M0 0 C1.15628906 0.00607269 1.15628906 0.00607269 2.3359375 0.01226807 C3.12742187 0.01035461 3.91890625 0.00844116 4.734375 0.00646973 C6.4088574 0.00510789 8.08335035 0.00880425 9.7578125 0.01715088 C12.32576131 0.02785067 14.89301053 0.01725582 17.4609375 0.00445557 C19.08593905 0.00577716 20.71094016 0.00833956 22.3359375 0.01226807 C23.10679688 0.0082196 23.87765625 0.00417114 24.671875 0 C30.10601618 0.04797174 30.10601618 0.04797174 32.3359375 2.27789307 C32.3359375 4.25789307 32.3359375 6.23789307 32.3359375 8.27789307 C19.1359375 8.27789307 5.9359375 8.27789307 -7.6640625 8.27789307 C-7.6640625 0.69075803 -7.1224345 0.06287573 0 0 Z " fill="#4C80BC" transform="translate(89.6640625,5.72210693359375)"/>
<path d="M0 0 C0.33 0 0.66 0 1 0 C1.09796875 0.83402344 1.1959375 1.66804688 1.296875 2.52734375 C2.36683695 10.57972978 3.48939122 18.2943574 9.25 24.375 C12.11865344 28.67798016 11.24463156 32.92389508 11 38 C7.04 38 3.08 38 -1 38 C-1.02471455 33.0703976 -1.04286691 28.14083126 -1.05493164 23.21118164 C-1.05996113 21.53409192 -1.06678548 19.85700658 -1.07543945 18.17993164 C-1.08756559 15.769683 -1.09324215 13.35949232 -1.09765625 10.94921875 C-1.10281754 10.19912033 -1.10797882 9.44902191 -1.11329651 8.67619324 C-1.11363785 5.51048768 -1.00887343 3.02662028 0 0 Z " fill="#639D54" transform="translate(7,84)"/>
<path d="M0 0 C0 8.58 0 17.16 0 26 C-2.64 26 -5.28 26 -8 26 C-8 18.08 -8 10.16 -8 2 C-4 0 -4 0 0 0 Z " fill="#74868F" transform="translate(30,70)"/>
<path d="M0 0 C6.6 0 13.2 0 20 0 C20 3.3 20 6.6 20 10 C13.4 10 6.8 10 0 10 C0 6.7 0 3.4 0 0 Z " fill="#1D417B" transform="translate(38,112)"/>
<path d="M0 0 C13.2 0 26.4 0 40 0 C40 1.32 40 2.64 40 4 C26.8 4 13.6 4 0 4 C0 2.68 0 1.36 0 0 Z " fill="#8EA4AC" transform="translate(82,18)"/>
<path d="M0 0 C1.11052734 -0.01224609 2.22105469 -0.02449219 3.36523438 -0.03710938 C4.96141602 -0.04000977 4.96141602 -0.04000977 6.58984375 -0.04296875 C7.56687256 -0.04707764 8.54390137 -0.05118652 9.55053711 -0.05541992 C12.0625 0.1875 12.0625 0.1875 15.0625 2.1875 C15.0625 2.8475 15.0625 3.5075 15.0625 4.1875 C5.1625 4.1875 -4.7375 4.1875 -14.9375 4.1875 C-14.6075 3.1975 -14.2775 2.2075 -13.9375 1.1875 C-9.83314327 -0.86467837 -4.51074872 0.00260888 0 0 Z " fill="#15366F" transform="translate(47.9375,23.8125)"/>
<path d="M0 0 C3.96 0 7.92 0 12 0 C11.6875 3.375 11.6875 3.375 11 7 C8 9 8 9 4.9375 8.8125 C2 8 2 8 0 5 C0 3.35 0 1.7 0 0 Z " fill="#EDD9CF" transform="translate(42,59)"/>
<path d="M0 0 C4 1.33333333 8 2.66666667 12 4 C12 4.99 12 5.98 12 7 C8.04 7 4.08 7 0 7 C0 4.69 0 2.38 0 0 Z " fill="#285298" transform="translate(22,115)"/>
<path d="M0 0 C1.32 0 2.64 0 4 0 C4 3.3 4 6.6 4 10 C2.68 10 1.36 10 0 10 C0 6.7 0 3.4 0 0 Z " fill="#000000" transform="translate(114,32)"/>
<path d="M0 0 C1.32 0 2.64 0 4 0 C4 3.3 4 6.6 4 10 C2.68 10 1.36 10 0 10 C0 6.7 0 3.4 0 0 Z " fill="#000000" transform="translate(100,32)"/>
<path d="M0 0 C1.32 0 2.64 0 4 0 C4 3.3 4 6.6 4 10 C2.68 10 1.36 10 0 10 C0 6.7 0 3.4 0 0 Z " fill="#000000" transform="translate(86,32)"/>
<path d="M0 0 C1.98 0.99 1.98 0.99 4 2 C3.67 3.65 3.34 5.3 3 7 C2.01 7.33 1.02 7.66 0 8 C0 5.36 0 2.72 0 0 Z " fill="#BE9B94" transform="translate(68,32)"/>
<path d="M0 0 C0.66 0 1.32 0 2 0 C2 2.64 2 5.28 2 8 C0.68 7.34 -0.64 6.68 -2 6 C-1.125 1.125 -1.125 1.125 0 0 Z " fill="#BF9B94" transform="translate(26,32)"/>
<path d="M0 0 C2.475 0.495 2.475 0.495 5 1 C3.68 3.31 2.36 5.62 1 8 C0.67 8 0.34 8 0 8 C0 5.36 0 2.72 0 0 Z " fill="#6F8089" transform="translate(66,70)"/>
<path d="M0 0 C1.46534385 3.80989402 0.55203911 6.3241179 -1 10 C-1.99 10.495 -1.99 10.495 -3 11 C-2.53199289 6.94393835 -2.12046792 3.53411321 0 0 Z " fill="#22457E" transform="translate(33,13)"/>
<path d="M0 0 C1.74627478 2.61941217 2.38722388 4.03824877 3 7 C1.68 7 0.36 7 -1 7 C-1.04254356 5.00045254 -1.04080783 2.99958364 -1 1 C-0.67 0.67 -0.34 0.34 0 0 Z " fill="#3563A2" transform="translate(83,7)"/>
</svg>
