<?xml version="1.0" encoding="UTF-8"?>
<svg version="1.1" xmlns="http://www.w3.org/2000/svg" width="128" height="128">
<path d="M0 0 C1.26714844 -0.01417969 2.53429687 -0.02835937 3.83984375 -0.04296875 C7.0625 0.1875 7.0625 0.1875 9.0625 2.1875 C9.0625 3.5075 9.0625 4.8275 9.0625 6.1875 C10.031875 6.3525 11.00125 6.5175 12 6.6875 C18.35004779 8.54228069 23.18993441 13.32434287 26.74609375 18.76171875 C29.03455825 23.09878036 30.33581728 26.22370556 30.0625 31.1875 C31.5475 31.6825 31.5475 31.6825 33.0625 32.1875 C33.34776928 35.56635612 33.52337248 38.82041991 33.0625 42.1875 C30.5625 44.3125 30.5625 44.3125 28.0625 45.1875 C28.7225 45.6825 29.3825 46.1775 30.0625 46.6875 C32.52222146 49.76215183 32.58735428 51.4533558 32.39453125 55.28125 C31.93779429 57.9034575 31.00828018 59.39139521 29.0625 61.1875 C28.4025 61.1875 27.7425 61.1875 27.0625 61.1875 C26.99933594 61.83976562 26.93617187 62.49203125 26.87109375 63.1640625 C26.02487737 69.2033752 24.75793293 72.36263695 19.9140625 76.12890625 C17.96974549 77.24053053 16.25191406 77.75829768 14.0625 78.1875 C13.87159847 80.58002708 13.87159847 80.58002708 15.0625 83.1875 C17.80095124 84.91525695 20.79134233 85.98383063 23.8125 87.125 C30.17029663 89.54197189 34.19017457 91.46286142 38.0625 97.1875 C38.3925 98.1775 38.7225 99.1675 39.0625 100.1875 C39.3925 96.5575 39.7225 92.9275 40.0625 89.1875 C38.928125 89.208125 37.79375 89.22875 36.625 89.25 C33.0625 89.1875 33.0625 89.1875 32.0625 88.1875 C31.9641279 86.85706375 31.93171408 85.52156656 31.9296875 84.1875 C31.92839844 83.383125 31.92710938 82.57875 31.92578125 81.75 C31.92964844 80.904375 31.93351562 80.05875 31.9375 79.1875 C31.93363281 78.341875 31.92976563 77.49625 31.92578125 76.625 C31.92707031 75.820625 31.92835937 75.01625 31.9296875 74.1875 C31.93081543 73.445 31.93194336 72.7025 31.93310547 71.9375 C32.0625 70.1875 32.0625 70.1875 33.0625 69.1875 C35.05007028 69.08766942 37.0411752 69.05669247 39.03125 69.0546875 C40.24167969 69.05339844 41.45210938 69.05210938 42.69921875 69.05078125 C43.97410156 69.05464844 45.24898438 69.05851562 46.5625 69.0625 C48.47482422 69.05669922 48.47482422 69.05669922 50.42578125 69.05078125 C51.63621094 69.05207031 52.84664063 69.05335937 54.09375 69.0546875 C55.21330078 69.05581543 56.33285156 69.05694336 57.48632812 69.05810547 C60.0625 69.1875 60.0625 69.1875 61.0625 70.1875 C61.1608721 71.51793625 61.19328592 72.85343344 61.1953125 74.1875 C61.19660156 74.991875 61.19789062 75.79625 61.19921875 76.625 C61.19535156 77.470625 61.19148438 78.31625 61.1875 79.1875 C61.19136719 80.033125 61.19523437 80.87875 61.19921875 81.75 C61.19792969 82.554375 61.19664063 83.35875 61.1953125 84.1875 C61.19418457 84.93 61.19305664 85.6725 61.19189453 86.4375 C61.0625 88.1875 61.0625 88.1875 60.0625 89.1875 C57.7525 89.1875 55.4425 89.1875 53.0625 89.1875 C53.0625 99.4175 53.0625 109.6475 53.0625 120.1875 C53.7225 120.1875 54.3825 120.1875 55.0625 120.1875 C56.1875 123.9375 56.1875 123.9375 55.0625 126.1875 C18.7625 126.1875 -17.5375 126.1875 -54.9375 126.1875 C-55.4325 123.7125 -55.4325 123.7125 -55.9375 121.1875 C-54.9375 120.1875 -54.9375 120.1875 -51.33984375 120.08984375 C-49.85153133 120.0965178 -48.36323568 120.10847817 -46.875 120.125 C-46.11638672 120.12951172 -45.35777344 120.13402344 -44.57617188 120.13867188 C-42.69658129 120.1504932 -40.81703101 120.16842922 -38.9375 120.1875 C-38.95844727 119.62353516 -38.97939453 119.05957031 -39.00097656 118.47851562 C-39.08498501 115.88169751 -39.13642229 113.28516638 -39.1875 110.6875 C-39.23777344 109.3571875 -39.23777344 109.3571875 -39.2890625 108 C-39.37637387 102.06282658 -39.03240164 96.78489198 -34.9375 92.1875 C-31.71047319 90.14873346 -28.32031186 88.82410581 -24.75 87.5 C-22.91634779 86.8055313 -21.08903674 86.09401169 -19.26953125 85.36328125 C-18.46233643 85.06333252 -17.6551416 84.76338379 -16.82348633 84.4543457 C-14.66380582 83.2957163 -14.66380582 83.2957163 -14.16674805 80.55151367 C-14.09109619 79.77138916 -14.01544434 78.99126465 -13.9375 78.1875 C-15.236875 77.9090625 -15.236875 77.9090625 -16.5625 77.625 C-20.9668628 75.74906769 -23.52207856 73.32019782 -25.9375 69.1875 C-26.39453125 67.01953125 -26.39453125 67.01953125 -26.5625 64.875 C-26.68625 63.658125 -26.81 62.44125 -26.9375 61.1875 C-28.83918356 59.73530623 -28.83918356 59.73530623 -30.9375 59.1875 C-32.53137042 55.99975917 -32.46413137 52.64822041 -31.9375 49.1875 C-29.9375 46.6875 -29.9375 46.6875 -27.9375 45.1875 C-29.5875 44.5275 -31.2375 43.8675 -32.9375 43.1875 C-33.91238967 32.18207878 -30.68857677 22.58239504 -23.75 13.9453125 C-19.7669913 10.08248079 -14.60759795 6.1875 -8.9375 6.1875 C-8.793125 5.383125 -8.64875 4.57875 -8.5 3.75 C-7.41381796 -1.19816261 -4.62269046 0.02346543 0 0 Z " fill="#060605" transform="translate(63.9375,0.8125)"/>
<path d="M0 0 C0.67740234 -0.03738281 1.35480469 -0.07476562 2.05273438 -0.11328125 C5.78561857 -0.1789625 7.36632293 0.08126527 10.15625 2.6328125 C11.69854055 5.3947716 12.12026833 6.5448861 11.875 9.625 C11.67354783 13.64732828 11.97918046 17.35194532 12.56640625 21.33203125 C12.6875 23.375 12.6875 23.375 12.08984375 25.44921875 C11.89068359 26.40248047 11.89068359 26.40248047 11.6875 27.375 C12.3475 28.365 13.0075 29.355 13.6875 30.375 C13.82129676 32.68299409 13.68555509 34.91146707 13.5625 37.21875 C13.52259779 39.67539791 13.52259779 39.67539791 15.6875 42.375 C15.77734375 44.42578125 15.77734375 44.42578125 15.625 46.6875 C15.52609242 50.09431651 15.64527277 51.29223463 17.25 54.4375 C18.79713727 57.59904137 18.74622507 58.17302315 18.125 61.4375 C17.980625 62.736875 17.83625 64.03625 17.6875 65.375 C18.65236328 66.51195313 18.65236328 66.51195313 19.63671875 67.671875 C22.2813306 71.15772528 22.16274439 73.23832136 22.0625 77.5625 C22.04316406 79.40908203 22.04316406 79.40908203 22.0234375 81.29296875 C21.6875 84.375 21.6875 84.375 19.6875 86.375 C16.99780273 86.61791992 16.99780273 86.61791992 13.62109375 86.60546875 C12.41388672 86.60353516 11.20667969 86.60160156 9.96289062 86.59960938 C8.69638672 86.58736328 7.42988281 86.57511719 6.125 86.5625 C4.85462891 86.56185547 3.58425781 86.56121094 2.27539062 86.56054688 C-7.17239947 86.51510053 -7.17239947 86.51510053 -8.3125 85.375 C-8.41291457 82.76349712 -8.44867057 80.17841635 -8.44189453 77.56640625 C-8.44364685 76.74856659 -8.44539917 75.93072693 -8.44720459 75.08810425 C-8.45162385 72.3712149 -8.44868486 69.65439007 -8.4453125 66.9375 C-8.44598552 65.05802396 -8.44695553 63.17854801 -8.44821167 61.29907227 C-8.44968874 57.35464654 -8.44753379 53.41024342 -8.44287109 49.46582031 C-8.4371738 44.39787497 -8.44045276 39.32998258 -8.44644356 34.26203918 C-8.45004892 30.37943113 -8.4489107 26.49683572 -8.44631577 22.61422729 C-8.44564643 20.74502557 -8.44647516 18.87582272 -8.44879532 17.00662231 C-8.45132143 14.39891496 -8.44748184 11.79129459 -8.44189453 9.18359375 C-8.44391876 8.40329803 -8.44594299 7.62300232 -8.44802856 6.81906128 C-8.41909462 -0.43250833 -6.66312459 0.13712698 0 0 Z " fill="#030201" transform="translate(8.3125,3.625)"/>
<path d="M0 0 C13.86 0 27.72 0 42 0 C42.495 2.97 42.495 2.97 43 6 C45.44309577 7.91744593 45.44309577 7.91744593 48 9 C47.75 10.875 47.75 10.875 47 13 C46.34386719 13.28488281 45.68773437 13.56976563 45.01171875 13.86328125 C42.81641597 14.80565297 42.81641597 14.80565297 42.34765625 16.98828125 C42.15853489 18.52974986 41.97101774 20.07141619 41.78515625 21.61328125 C39.9044431 27.33027497 34.53347926 30.11347316 29.5 32.8125 C28.3965625 33.41707031 27.293125 34.02164063 26.15625 34.64453125 C22.90244702 36.04189466 21.45048979 36.63354972 18 36 C15.30692773 34.74007223 12.82308721 33.21268464 10.3125 31.625 C9.63638672 31.2125 8.96027344 30.8 8.26367188 30.375 C5.61576517 28.74146551 3.20713661 27.20713661 1 25 C0.67180571 23.36463871 0.40842194 21.71577298 0.1875 20.0625 C-0.51150381 15.82540724 -0.51150381 15.82540724 -3.625 12.875 C-4.800625 12.441875 -4.800625 12.441875 -6 12 C-5.75 10.125 -5.75 10.125 -5 8 C-4.34 7.71125 -3.68 7.4225 -3 7.125 C-2.34 6.75375 -1.68 6.3825 -1 6 C-0.67 4.02 -0.34 2.04 0 0 Z " fill="#F6B59B" transform="translate(43,44)"/>
<path d="M0 0 C2.31 0 4.62 0 7 0 C7.31710938 0.90492188 7.31710938 0.90492188 7.640625 1.828125 C9.50793529 4.8115288 11.53411927 5.39005044 14.75 6.75 C21.69894079 10.041165 24.93390718 13.86781435 28.3125 20.625 C29 23 29 23 29.5 26.25 C29.7475 27.61125 29.7475 27.61125 30 29 C30.66 29.33 31.32 29.66 32 30 C32 30.66 32 31.32 32 32 C13.52 32 -4.96 32 -24 32 C-23.34 30.68 -22.68 29.36 -22 28 C-21.66789619 26.55034052 -21.37699904 25.09070872 -21.125 23.625 C-19.5501384 16.27965316 -15.20749974 11.07818297 -9 7 C-6.05535694 5.74805781 -3.09598522 4.80032271 0 4 C0 2.68 0 1.36 0 0 Z " fill="#F2CC48" transform="translate(60,7)"/>
<path d="M0 0 C4 1 4 1 5.8125 2.0625 C9.02159429 3.43782612 11.54027103 3.2982525 15 3 C17.0302589 2.06295743 19.03696582 1.07074592 21 0 C21.99 0 22.98 0 24 0 C24 4.95 24 9.9 24 15 C22.35 15.33 20.7 15.66 19 16 C19 16.99 19 17.98 19 19 C21.97 19 24.94 19 28 19 C28.33 13.72 28.66 8.44 29 3 C31.475 3.99 31.475 3.99 34 5 C34 13.91 34 22.82 34 32 C19.48 32 4.96 32 -10 32 C-10 23.09 -10 14.18 -10 5 C-8.68 4.67 -7.36 4.34 -6 4 C-5.93941406 4.99902344 -5.87882812 5.99804688 -5.81640625 7.02734375 C-5.73261719 8.31769531 -5.64882813 9.60804687 -5.5625 10.9375 C-5.48128906 12.22527344 -5.40007813 13.51304688 -5.31640625 14.83984375 C-5.35080812 17.86023957 -5.35080812 17.86023957 -4 19 C-2.31391034 19.07205511 -0.62499341 19.08386068 1.0625 19.0625 C1.98160156 19.05347656 2.90070312 19.04445313 3.84765625 19.03515625 C4.55792969 19.02355469 5.26820312 19.01195313 6 19 C5.67 18.01 5.34 17.02 5 16 C3.35 15.67 1.7 15.34 0 15 C0 10.05 0 5.1 0 0 Z " fill="#103257" transform="translate(52,89)"/>
<path d="M0 0 C2.64 0 5.28 0 8 0 C9.0467425 3.40191313 9 6.45757467 9 10 C9.185625 11.155 9.37125 12.31 9.5625 13.5 C10 17 10 17 9.4375 20.25 C8.64815075 23.20730963 8.64815075 23.20730963 11 26 C11.37890625 28.234375 11.37890625 28.234375 11.5625 30.75 C11.90332131 34.863773 12.37197914 38.91786441 13 43 C13.144375 44.03125 13.28875 45.0625 13.4375 46.125 C13.90470394 49.02615886 13.90470394 49.02615886 15.125 51.6875 C16 54 16 54 15 57 C10.05 57 5.1 57 0 57 C0 38.19 0 19.38 0 0 Z " fill="#D1D0D4" transform="translate(5,9)"/>
<path d="M0 0 C4 1 4 1 5.8125 2.0625 C9.02159429 3.43782612 11.54027103 3.2982525 15 3 C17.0302589 2.06295743 19.03696582 1.07074592 21 0 C21.99 0 22.98 0 24 0 C24 4.95 24 9.9 24 15 C14.99582638 17.28464107 14.99582638 17.28464107 10 16 C9.360625 16.185625 8.72125 16.37125 8.0625 16.5625 C6 17 6 17 0 15 C0 10.05 0 5.1 0 0 Z " fill="#E7E6E8" transform="translate(52,89)"/>
<path d="M0 0 C2.41854446 -0.13536629 4.82949783 -0.23420279 7.25 -0.3125 C8.27287109 -0.3753418 8.27287109 -0.3753418 9.31640625 -0.43945312 C12.90523345 -0.52656058 14.67148561 -0.26704707 17.484375 2.01953125 C19 5 19 5 19 13 C12.73 13 6.46 13 0 13 C0 8.71 0 4.42 0 0 Z " fill="#F45E48" transform="translate(5,71)"/>
<path d="M0 0 C3.97261972 0 6.02374066 1.64791218 8.8125 4.25 C11.13953223 6.69288016 11.93097109 7.5365202 12.4375 10.9375 C12.293125 11.618125 12.14875 12.29875 12 13 C8.98968256 13.93423645 8.13349732 14.04449911 5 13 C4.030625 13.825 3.06125 14.65 2.0625 15.5 C-1 18 -1 18 -3.375 17.8125 C-3.91125 17.544375 -4.4475 17.27625 -5 17 C-5.25 14.75 -5.25 14.75 -5 12 C-4.34 11.38125 -3.68 10.7625 -3 10.125 C-0.60294033 8.03761379 -0.60294033 8.03761379 -0.8125 4.3125 C-0.874375 3.219375 -0.93625 2.12625 -1 1 C-0.67 0.67 -0.34 0.34 0 0 Z " fill="#000000" transform="translate(116,23)"/>
<path d="M0 0 C1.15609756 3.59674797 1.15609756 3.59674797 0.25 5.9375 C0.1675 6.618125 0.085 7.29875 0 8 C0.825 8.825 1.65 9.65 2.5 10.5 C3.325 11.325 4.15 12.15 5 13 C4.8125 15.3125 4.8125 15.3125 4 17 C2.3125 17.8125 2.3125 17.8125 0 18 C-1.175625 16.7625 -1.175625 16.7625 -2.375 15.5 C-3.24125 14.675 -4.1075 13.85 -5 13 C-8.15625647 13.1506293 -8.15625647 13.1506293 -11 14 C-11.66 13.67 -12.32 13.34 -13 13 C-12.49644826 8.70853664 -11.24742814 6.70201177 -8.1875 3.6875 C-7.50042969 2.99011719 -6.81335938 2.29273437 -6.10546875 1.57421875 C-4 0 -4 0 0 0 Z " fill="#000000" transform="translate(16,97)"/>
<path d="M0 0 C5.61 0 11.22 0 17 0 C17 2.64 17 5.28 17 8 C11.39 8 5.78 8 0 8 C0 5.36 0 2.72 0 0 Z " fill="#103358" transform="translate(102,76)"/>
<path d="M0 0 C-0.125 2.3125 -0.125 2.3125 -1 5 C-2.96466413 6.06775224 -4.96855359 7.06553465 -7 8 C-9.52347652 10.70372485 -10.7503778 13.53950775 -12 17 C-13.32 17 -14.64 17 -16 17 C-16.32289152 12.96385598 -16.23629571 10.48204325 -14.4375 6.8125 C-10.54131465 2.31690152 -6.24365973 -0.75680724 0 0 Z " fill="#0C0A03" transform="translate(60,16)"/>
<path d="M0 0 C0 7.92 0 15.84 0 24 C-1.65 24 -3.3 24 -5 24 C-5.08703823 20.56265937 -5.14040272 17.12560163 -5.1875 13.6875 C-5.21263672 12.71103516 -5.23777344 11.73457031 -5.26367188 10.72851562 C-5.27333984 9.79072266 -5.28300781 8.85292969 -5.29296875 7.88671875 C-5.3086792 7.02264404 -5.32438965 6.15856934 -5.34057617 5.26831055 C-4.84603352 1.97455014 -3.46431598 0 0 0 Z " fill="#E9E8EA" transform="translate(36,97)"/>
<path d="M0 0 C4 2 4 2 5 4 C5.08372659 5.52148326 5.10730027 7.04655778 5.09765625 8.5703125 C5.09282227 9.91416016 5.09282227 9.91416016 5.08789062 11.28515625 C5.07951172 12.22230469 5.07113281 13.15945312 5.0625 14.125 C5.05798828 15.06988281 5.05347656 16.01476562 5.04882812 16.98828125 C5.03702357 19.32558387 5.02055759 21.66276061 5 24 C3.35 24 1.7 24 0 24 C0 16.08 0 8.16 0 0 Z " fill="#EAE9EB" transform="translate(92,97)"/>
<path d="M0 0 C2.64 0 5.28 0 8 0 C8.6875 2.3125 8.6875 2.3125 9 5 C7.875 6.875 7.875 6.875 6 8 C2.65807308 7.75546876 1.39456443 7.39456443 -1 5 C-0.625 2.375 -0.625 2.375 0 0 Z " fill="#0F0B0A" transform="translate(60,64)"/>
<path d="M0 0 C1.23556641 0.01740234 1.23556641 0.01740234 2.49609375 0.03515625 C3.32238281 0.04417969 4.14867187 0.05320312 5 0.0625 C5.63808594 0.07410156 6.27617187 0.08570312 6.93359375 0.09765625 C7.49609375 2.03515625 7.49609375 2.03515625 7.93359375 4.09765625 C6.93359375 5.09765625 6.93359375 5.09765625 4.8671875 5.1953125 C4.04347656 5.18371094 3.21976563 5.17210938 2.37109375 5.16015625 C1.54480469 5.15113281 0.71851563 5.14210938 -0.1328125 5.1328125 C-0.77089844 5.12121094 -1.40898437 5.10960938 -2.06640625 5.09765625 C-2.62890625 3.16015625 -2.62890625 3.16015625 -3.06640625 1.09765625 C-2.06640625 0.09765625 -2.06640625 0.09765625 0 0 Z " fill="#120705" transform="translate(10.06640625,75.90234375)"/>
<path d="M0 0 C0.495 0.165 0.99 0.33 1.5 0.5 C6.25659235 1.45131847 11.35968313 1.54677229 16 0 C14.23018408 2.46235259 12.86770703 3.83710915 9.8359375 4.40625 C7.44929828 4.49953883 5.34462127 4.46181934 3 4 C0.9375 2 0.9375 2 0 0 Z " fill="#E3A78F" transform="translate(56,83)"/>
<path d="M0 0 C1.65 0.33 3.3 0.66 5 1 C4.67 2.65 4.34 4.3 4 6 C2.0625 5.6875 2.0625 5.6875 0 5 C-0.33 4.01 -0.66 3.02 -1 2 C-0.67 1.34 -0.34 0.68 0 0 Z " fill="#000000" transform="translate(123,121)"/>
<path d="M0 0 C1.32 0 2.64 0 4 0 C4.625 1.875 4.625 1.875 5 4 C4.34 4.66 3.68 5.32 3 6 C0.875 5.625 0.875 5.625 -1 5 C-0.67 3.35 -0.34 1.7 0 0 Z " fill="#000000" transform="translate(1,121)"/>
<path d="M0 0 C1.98 0.495 1.98 0.495 4 1 C3.67 2.32 3.34 3.64 3 5 C1.68 5 0.36 5 -1 5 C-0.67 3.35 -0.34 1.7 0 0 Z " fill="#0A0706" transform="translate(72,52)"/>
<path d="M0 0 C1.98 0.495 1.98 0.495 4 1 C3.67 2.32 3.34 3.64 3 5 C1.68 5 0.36 5 -1 5 C-0.67 3.35 -0.34 1.7 0 0 Z " fill="#0A0706" transform="translate(53,52)"/>
<path d="M0 0 C1.32 0 2.64 0 4 0 C3.67 1.65 3.34 3.3 3 5 C2.01 5 1.02 5 0 5 C0 3.35 0 1.7 0 0 Z " fill="#030405" transform="translate(62,104)"/>
</svg>
