<?xml version="1.0" encoding="UTF-8"?>
<svg version="1.1" xmlns="http://www.w3.org/2000/svg" width="128" height="128">
<path d="M0 0 C4.48512032 0.47919037 7.77244768 2.13809554 11.75787354 4.17085266 C12.57483704 4.57568375 13.39180054 4.98051483 14.23352051 5.39761353 C16.92444699 6.73498983 19.60632102 8.089501 22.28814697 9.44502258 C24.15767214 10.3803039 26.02761244 11.31475585 27.89794922 12.24841309 C31.81212057 14.2055884 35.7220303 16.1709568 39.62896729 18.14253235 C44.64161554 20.67157456 49.66295602 23.18275132 54.68741226 25.68823719 C58.54741463 27.61490066 62.40338845 29.54951117 66.25811005 31.48671532 C68.10865021 32.41583873 69.96027807 33.342799 71.81299591 34.2675724 C74.3976232 35.55951605 76.97681342 36.8617117 79.55474854 38.16694641 C80.32359375 38.5488916 81.09243896 38.93083679 81.88458252 39.32435608 C85.30155162 41.06738151 87.2310831 42.11333302 89.39752197 45.36299133 C89.93921238 48.85232177 89.99064983 52.17673562 88.39752197 55.36299133 C85.16682245 56.97834109 81.8976847 56.78246074 78.39752197 56.36299133 C76.71515726 55.73699516 75.04512578 55.07546865 73.39752197 54.36299133 C71.74752197 54.36299133 70.09752197 54.36299133 68.39752197 54.36299133 C71.03752197 56.34299133 73.67752197 58.32299133 76.39752197 60.36299133 C75.81688218 65.15326959 74.06083985 68.40606191 71.39752197 72.36299133 C69.52252197 73.42549133 69.52252197 73.42549133 67.39752197 73.36299133 C66.44877197 72.97111633 65.50002197 72.57924133 64.52252197 72.17549133 C63.49127197 71.90736633 62.46002197 71.63924133 61.39752197 71.36299133 C60.53127197 71.98174133 59.66502197 72.60049133 58.77252197 73.23799133 C53.69187391 76.43691789 49.26386654 76.22619732 43.39752197 75.36299133 C38.2301398 73.46821449 33.47979098 70.97848515 28.64752197 68.36299133 C27.35442157 67.68627095 26.06015484 67.01177435 24.76470947 66.33955383 C21.62847412 64.70607443 18.50901398 63.04322255 15.39752197 61.36299133 C14.99775146 61.98294983 14.59798096 62.60290833 14.18609619 63.24165344 C13.65516357 64.05384338 13.12423096 64.86603333 12.57720947 65.70283508 C12.05368896 66.50841858 11.53016846 67.31400208 10.99078369 68.14399719 C9.11989828 70.74964805 7.04932427 72.56912508 4.39752197 74.36299133 C4.55607666 74.93275696 4.71463135 75.50252258 4.87799072 76.08955383 C6.07632632 81.33339832 6.17283539 85.84107981 3.71002197 90.67549133 C0.6108409 94.27724231 -2.0603464 96.84894746 -6.60247803 98.36299133 C-9.17513621 98.43328254 -11.71889234 98.45669966 -14.28997803 98.42549133 C-14.99187256 98.42097961 -15.69376709 98.4164679 -16.41693115 98.41181946 C-18.14548341 98.4000606 -19.87399168 98.38212587 -21.60247803 98.36299133 C-21.55607178 98.96627258 -21.50966553 99.56955383 -21.46185303 100.19111633 C-21.16434415 106.77881283 -21.16434415 106.77881283 -23.47747803 109.86299133 C-27.32585907 112.5794956 -29.91023603 112.4498847 -34.60247803 112.36299133 C-34.60247803 115.66299133 -34.60247803 118.96299133 -34.60247803 122.36299133 C-35.92247803 122.36299133 -37.24247803 122.36299133 -38.60247803 122.36299133 C-38.60247803 82.43299133 -38.60247803 42.50299133 -38.60247803 1.36299133 C-37.28247803 1.36299133 -35.96247803 1.36299133 -34.60247803 1.36299133 C-34.60247803 23.80299133 -34.60247803 46.24299133 -34.60247803 69.36299133 C-31.96247803 69.36299133 -29.32247803 69.36299133 -26.60247803 69.36299133 C-23.60247803 71.30049133 -23.60247803 71.30049133 -21.60247803 74.36299133 C-21.19989371 77.48955529 -21.36554594 80.18810142 -21.60247803 83.36299133 C-15.66247803 82.86799133 -15.66247803 82.86799133 -9.60247803 82.36299133 C-8.54877642 78.3736115 -8.54877642 78.3736115 -8.60247803 74.36299133 C-10.20847828 72.42115189 -11.87334435 71.12288706 -13.93841553 69.68721008 C-15.60247803 68.36299133 -15.60247803 68.36299133 -16.60247803 65.36299133 C-17.40359041 58.08731491 -16.06267487 52.75817657 -12.60247803 46.36299133 C-13.42747803 46.13611633 -14.25247803 45.90924133 -15.10247803 45.67549133 C-20.13670674 43.78765556 -24.78289359 41.18257577 -28.60247803 37.36299133 C-29.04540406 32.27144747 -28.30751242 28.87716147 -26.08294678 24.31611633 C-25.55507568 23.2242804 -25.02720459 22.13244446 -24.4833374 21.00752258 C-23.92452881 19.88732727 -23.36572021 18.76713196 -22.78997803 17.61299133 C-21.96916748 15.90949524 -21.96916748 15.90949524 -21.1317749 14.17158508 C-16.48877147 4.68297443 -16.48877147 4.68297443 -13.60247803 2.36299133 C-11.41107178 2.14033508 -11.41107178 2.14033508 -9.03997803 2.30049133 C-6.71526697 2.49210572 -6.71526697 2.49210572 -4.60247803 2.36299133 C-2.60247803 0.36299133 -2.60247803 0.36299133 0 0 Z " fill="#44C6F3" transform="translate(38.60247802734375,2.6370086669921875)"/>
<path d="M0 0 C1.32 0 2.64 0 4 0 C4 22.44 4 44.88 4 68 C6.64 68 9.28 68 12 68 C15 69.9375 15 69.9375 17 73 C17.40258432 76.12656396 17.23693208 78.82511009 17 82 C22.94 81.505 22.94 81.505 29 81 C30.05370161 77.01062017 30.05370161 77.01062017 30 73 C28.39399975 71.05816055 26.72913368 69.75989572 24.6640625 68.32421875 C23 67 23 67 22 64 C21.19888761 56.72432358 22.53980316 51.39518523 26 45 C25.175 44.773125 24.35 44.54625 23.5 44.3125 C18.46577129 42.42466423 13.81958443 39.81958443 10 36 C9.55707397 30.90845614 10.29496561 27.51417013 12.51953125 22.953125 C13.04740234 21.86128906 13.57527344 20.76945312 14.11914062 19.64453125 C14.67794922 18.52433594 15.23675781 17.40414063 15.8125 16.25 C16.35970703 15.11433594 16.90691406 13.97867187 17.47070312 12.80859375 C22.26133981 3.01827441 22.26133981 3.01827441 25 1 C26.32 1 27.64 1 29 1 C28.28789115 4.66392375 26.75940714 7.664263 25.05859375 10.97265625 C24.18364258 12.69258789 24.18364258 12.69258789 23.29101562 14.44726562 C22.36241746 16.26087621 21.43186238 18.07345104 20.49926758 19.88500977 C19.59727129 21.64077868 18.70282189 23.40041825 17.80859375 25.16015625 C17.27032959 26.20824463 16.73206543 27.25633301 16.17749023 28.33618164 C14.79785284 30.97190481 14.79785284 30.97190481 15 34 C16.0516333 34.52319824 17.1032666 35.04639648 18.18676758 35.58544922 C53.23244301 53.02850878 53.23244301 53.02850878 64.125 58.8125 C64.84308838 59.19245117 65.56117676 59.57240234 66.30102539 59.96386719 C68.80561838 61.29203767 71.30807873 62.62322049 73.79785156 63.97900391 C81.90656541 68.64890783 81.90656541 68.64890783 91 69 C95.61138158 66.84116849 97.39168987 64.22691847 99.8125 59.8125 C100.71935547 58.18248047 100.71935547 58.18248047 101.64453125 56.51953125 C102.09183594 55.68808594 102.53914063 54.85664062 103 54 C108.28798182 54.41474367 111.11690718 55.35224614 115 59 C114.41936021 63.79027826 112.66331788 67.04307058 110 71 C108.125 72.0625 108.125 72.0625 106 72 C105.05125 71.608125 104.1025 71.21625 103.125 70.8125 C102.09375 70.544375 101.0625 70.27625 100 70 C99.13375 70.61875 98.2675 71.2375 97.375 71.875 C92.29435194 75.07392656 87.86634457 74.86320598 82 74 C76.83261782 72.10522316 72.08226901 69.61549381 67.25 67 C65.95689959 66.32327962 64.66263287 65.64878302 63.3671875 64.9765625 C60.23095215 63.34308309 57.11149201 61.68023122 54 60 C53.60022949 60.6199585 53.20045898 61.23991699 52.78857422 61.87866211 C52.2576416 62.69085205 51.72670898 63.50304199 51.1796875 64.33984375 C50.65616699 65.14542725 50.13264648 65.95101074 49.59326172 66.78100586 C47.72237631 69.38665671 45.65180229 71.20613374 43 73 C43.15855469 73.56976563 43.31710938 74.13953125 43.48046875 74.7265625 C44.67880435 79.97040699 44.77531342 84.47808848 42.3125 89.3125 C39.21331893 92.91425097 36.54213163 95.48595612 32 97 C29.42734182 97.07029121 26.88358569 97.09370832 24.3125 97.0625 C23.61060547 97.05798828 22.90871094 97.05347656 22.18554688 97.04882812 C20.45699462 97.03706927 18.72848635 97.01913454 17 97 C17.04640625 97.60328125 17.0928125 98.2065625 17.140625 98.828125 C17.43813387 105.4158215 17.43813387 105.4158215 15.125 108.5 C11.27661896 111.21650426 8.692242 111.08689337 4 111 C4 114.3 4 117.6 4 121 C2.68 121 1.36 121 0 121 C0 81.07 0 41.14 0 0 Z " fill="#2F3F66" transform="translate(0,4)"/>
<path d="M0 0 C1.32 0 2.64 0 4 0 C3.6060185 5.12175954 1.73366838 8.50258369 -0.94140625 12.75390625 C-2.29052858 15.61643517 -2.7997404 16.89202681 -2 20 C-0.43196541 21.26884331 -0.43196541 21.26884331 1.55078125 22.39941406 C2.27870377 22.83483017 3.00662628 23.27024628 3.75660706 23.71885681 C7.07570529 25.61430723 10.4364644 27.4055893 13.83984375 29.14453125 C14.56506729 29.51801193 15.29029083 29.89149261 16.03749084 30.27629089 C17.56521618 31.0619551 19.0938292 31.84589543 20.62329102 32.62817383 C22.90304355 33.79486647 25.17924379 34.96826439 27.45507812 36.14257812 C35.01555445 40.03187219 42.61301578 43.84630211 50.2734375 47.53515625 C50.96674667 47.87601761 51.66005585 48.21687897 52.37437439 48.56806946 C59.19079952 51.80697749 64.26400348 52.10696193 71.375 50 C72.24125 49.67 73.1075 49.34 74 49 C75.32 49 76.64 49 78 49 C77.67 49.99 77.34 50.98 77 52 C75.515 52.495 75.515 52.495 74 53 C72.41761052 55.44839847 72.41761052 55.44839847 71 58.375 C66.96190476 66.34603175 66.96190476 66.34603175 62 68 C56.57914117 68.40636244 53.232646 67.54198537 48.421875 65.0703125 C47.81739532 64.76448746 47.21291565 64.45866241 46.59011841 64.14356995 C44.63624073 63.15074719 42.69331499 62.13831829 40.75 61.125 C39.39397861 60.43090016 38.03736542 59.73795533 36.68017578 59.04614258 C32.77645102 57.05042798 28.88601026 55.02995498 25 53 C24.03223633 52.49484863 23.06447266 51.98969727 22.06738281 51.46923828 C18.93216947 49.82746785 15.79914503 48.18235017 12.67919922 46.51171875 C8.63842559 44.35325934 4.5679324 42.29094634 0.4375 40.30859375 C-0.49046387 39.8597583 -1.41842773 39.41092285 -2.37451172 38.94848633 C-4.16720092 38.08587598 -5.96552065 37.2348414 -7.77001953 36.3972168 C-8.97053955 35.81774292 -8.97053955 35.81774292 -10.1953125 35.2265625 C-10.90703613 34.89221191 -11.61875977 34.55786133 -12.35205078 34.21337891 C-14 33 -14 33 -14.9050293 31.23413086 C-15.04427893 27.95836381 -13.81107428 25.93169648 -12.32421875 23.02734375 C-11.74349609 21.88072266 -11.16277344 20.73410156 -10.56445312 19.55273438 C-9.93889901 18.34760593 -9.31324694 17.14252833 -8.6875 15.9375 C-8.07251121 14.7290527 -7.45856692 13.52007325 -6.84570312 12.31054688 C-2.39891582 3.59837372 -2.39891582 3.59837372 0 0 Z " fill="#C6D5ED" transform="translate(29,6)"/>
<path d="M0 0 C1.32 0 2.64 0 4 0 C4 22.44 4 44.88 4 68 C6.64 68 9.28 68 12 68 C15 69.9375 15 69.9375 17 73 C17.40258432 76.12656396 17.23693208 78.82511009 17 82 C22.94 81.505 22.94 81.505 29 81 C29.33 79.35 29.66 77.7 30 76 C31.485 76.495 31.485 76.495 33 77 C33.3626943 82.44041451 33.3626943 82.44041451 31.90625 84.6875 C29.06322767 86.64499078 26.71512984 86.28856821 23.3125 86.1875 C21.54326172 86.14689453 21.54326172 86.14689453 19.73828125 86.10546875 C18.83464844 86.07066406 17.93101563 86.03585938 17 86 C17 88.31 17 90.62 17 93 C27.04395419 92.89871565 27.04395419 92.89871565 36 89 C39.02063186 85.25025011 39.53629326 81.72980877 40 77 C40.99 76.67 41.98 76.34 43 76 C44.55030118 77.55030118 44.24405099 79.03676001 44.3125 81.1875 C44.25294747 85.87726146 43.10841207 88.38752111 40 92 C34.86338052 96.63548587 31.03328143 97.14407811 24.3125 97.0625 C23.61060547 97.05798828 22.90871094 97.05347656 22.18554688 97.04882812 C20.45699462 97.03706927 18.72848635 97.01913454 17 97 C17.04640625 97.60328125 17.0928125 98.2065625 17.140625 98.828125 C17.43813387 105.4158215 17.43813387 105.4158215 15.125 108.5 C11.27661896 111.21650426 8.692242 111.08689337 4 111 C4 114.3 4 117.6 4 121 C2.68 121 1.36 121 0 121 C0 81.07 0 41.14 0 0 Z " fill="#2C3C65" transform="translate(0,4)"/>
<path d="M0 0 C4.48512032 0.47919037 7.77244768 2.13809554 11.75787354 4.17085266 C12.57483704 4.57568375 13.39180054 4.98051483 14.23352051 5.39761353 C16.92444699 6.73498983 19.60632102 8.089501 22.28814697 9.44502258 C24.15767214 10.3803039 26.02761244 11.31475585 27.89794922 12.24841309 C31.81212057 14.2055884 35.7220303 16.1709568 39.62896729 18.14253235 C44.64161554 20.67157456 49.66295602 23.18275132 54.68741226 25.68823719 C58.54741463 27.61490066 62.40338845 29.54951117 66.25811005 31.48671532 C68.10865021 32.41583873 69.96027807 33.342799 71.81299591 34.2675724 C74.3976232 35.55951605 76.97681342 36.8617117 79.55474854 38.16694641 C80.32359375 38.5488916 81.09243896 38.93083679 81.88458252 39.32435608 C85.30155162 41.06738151 87.2310831 42.11333302 89.39752197 45.36299133 C89.93921238 48.85232177 89.99064983 52.17673562 88.39752197 55.36299133 C83.40142194 57.86104135 78.35087433 56.45969859 73.33502197 54.80049133 C67.85714497 53.00543318 63.83938207 53.54903797 58.39752197 55.36299133 C50.67069794 56.27473709 45.25447231 54.51140986 38.46002197 50.98799133 C37.5128833 50.51554993 36.56574463 50.04310852 35.58990479 49.55635071 C32.83027737 48.17177155 30.08182868 46.76710253 27.33605957 45.3553009 C24.43570475 43.8706509 21.52529217 42.40607403 18.61601257 40.93901062 C14.622017 38.92250243 10.63458603 36.89316064 6.64752197 34.86299133 C5.86305695 34.46477173 5.07859192 34.06655212 4.27035522 33.65626526 C2.02297803 32.51274868 -0.22001169 31.36106579 -2.46185303 30.20674133 C-3.47757133 29.69166519 -3.47757133 29.69166519 -4.5138092 29.16618347 C-10.73493752 25.94189343 -10.73493752 25.94189343 -12.60247803 23.36299133 C-12.60247803 17.82549845 -10.59266691 14.14619068 -7.80560303 9.44502258 C-6.48684299 7.16288264 -5.56693048 4.8112168 -4.60247803 2.36299133 C-2.60247803 0.36299133 -2.60247803 0.36299133 0 0 Z M-0.60247803 5.36299133 C-1.97213011 7.60478511 -3.32300611 9.85471471 -4.66497803 12.11299133 C-5.24989014 13.06431946 -5.24989014 13.06431946 -5.84661865 14.03486633 C-7.96647738 17.48542226 -7.96647738 17.48542226 -8.51968384 21.39651489 C-7.17753161 24.27407052 -5.40353604 24.88639508 -2.57952881 26.27973938 C-1.50816681 26.81676987 -0.43680481 27.35380035 0.66702271 27.90710449 C1.83363434 28.47391434 3.00024597 29.04072418 4.20220947 29.62471008 C5.40486572 30.22077734 6.60693591 30.8180284 7.80844116 31.41641235 C10.9740905 32.98870952 14.14796412 34.54367275 17.32366943 36.09553528 C19.91342811 37.36454136 22.49722457 38.64540869 25.08076286 39.92702007 C30.41962551 42.57526919 35.76318416 45.21404957 41.11578369 47.83442688 C42.06540985 48.29979355 43.01503601 48.76516022 43.99343872 49.24462891 C49.72556431 51.91117295 54.89628903 52.07762932 60.89752197 50.36299133 C67.56175927 48.45892353 72.38152325 48.94233077 78.53814697 51.80439758 C80.82962966 52.4928052 82.15961615 52.11061031 84.39752197 51.36299133 C84.72752197 50.04299133 85.05752197 48.72299133 85.39752197 47.36299133 C80.31008064 44.08561833 75.17296506 41.1017148 69.75982666 38.39888 C69.0433194 38.03726776 68.32681213 37.67565552 67.58859253 37.30308533 C65.25093785 36.12486013 62.9103897 34.95253735 60.56939697 33.78096008 C58.93125704 32.95867278 57.29317613 32.1362679 55.65515137 31.31375122 C52.23735526 29.59889212 48.81794351 27.88730457 45.39752197 26.1776886 C41.01308051 23.98557002 36.63427025 21.78244506 32.25675583 19.57653332 C28.8829211 17.87851414 25.50548904 16.18775227 22.12699127 14.49903297 C20.5101578 13.68943598 18.89462131 12.87724342 17.2804184 12.06241417 C15.02987505 10.92736741 12.77451143 9.80252761 10.51763916 8.68013 C9.52013138 8.17294685 9.52013138 8.17294685 8.50247192 7.65551758 C5.12360549 5.98907004 3.2557655 5.36299133 -0.60247803 5.36299133 Z " fill="#2E416A" transform="translate(38.60247802734375,2.6370086669921875)"/>
<path d="M0 0 C0.33 0.66 0.66 1.32 1 2 C2.98935565 2.69778831 4.99142239 3.35964041 7 4 C8.80869746 4.85822378 10.59772012 5.75887256 12.3671875 6.6953125 C13.40246582 7.23905518 14.43774414 7.78279785 15.50439453 8.34301758 C17.17284424 9.22509888 17.17284424 9.22509888 18.875 10.125 C21.285689 11.38301894 23.69701979 12.63971888 26.109375 13.89453125 C26.73977692 14.22275375 27.37017883 14.55097626 28.01968384 14.8891449 C30.01280754 15.92670341 32.00633663 16.96347887 34 18 C35.04208618 18.54210114 35.04208618 18.54210114 36.10522461 19.09515381 C40.40206183 21.32765375 44.70726932 23.54272351 49.02301025 25.73846436 C50.41285419 26.44862097 51.80008517 27.16391721 53.18450928 27.88458252 C63.53449363 33.38184793 63.53449363 33.38184793 75 35 C78.21355313 33.98366543 80.57844079 32.3412524 83 30 C84.12213894 27.34148231 84.12213894 27.34148231 84 25 C86.31 24.67 88.62 24.34 91 24 C90.505 25.485 90.505 25.485 90 27 C88.515 27.495 88.515 27.495 87 28 C85.41761052 30.44839847 85.41761052 30.44839847 84 33.375 C79.96190476 41.34603175 79.96190476 41.34603175 75 43 C69.57914117 43.40636244 66.232646 42.54198537 61.421875 40.0703125 C60.81739532 39.76448746 60.21291565 39.45866241 59.59011841 39.14356995 C57.63624073 38.15074719 55.69331499 37.13831829 53.75 36.125 C52.39397861 35.43090016 51.03736542 34.73795533 49.68017578 34.04614258 C45.77645102 32.05042798 41.88601026 30.02995498 38 28 C37.03223633 27.49484863 36.06447266 26.98969727 35.06738281 26.46923828 C31.93216947 24.82746785 28.79914503 23.18235017 25.67919922 21.51171875 C21.63842559 19.35325934 17.5679324 17.29094634 13.4375 15.30859375 C12.50953613 14.8597583 11.58157227 14.41092285 10.62548828 13.94848633 C8.83279908 13.08587598 7.03447935 12.2348414 5.22998047 11.3972168 C4.42963379 11.01090088 3.62928711 10.62458496 2.8046875 10.2265625 C2.09296387 9.89221191 1.38124023 9.55786133 0.64794922 9.21337891 C-1 8 -1 8 -1.79638672 6.00146484 C-2.05619943 3.44757446 -1.31173045 2.16049721 0 0 Z " fill="#AEC7E6" transform="translate(16,31)"/>
<path d="M0 0 C8.93236524 4.09447728 17.76023445 8.32382649 26.4375 12.9375 C32.90645022 16.37600508 39.39422183 19.76719445 45.9375 23.0625 C46.68894287 23.44462646 47.44038574 23.82675293 48.21459961 24.22045898 C48.91593018 24.57180908 49.61726074 24.92315918 50.33984375 25.28515625 C50.95206787 25.59332275 51.56429199 25.90148926 52.19506836 26.21899414 C57.58816582 28.55262308 62.86024364 28.61135896 68.5 27 C72.84502088 25.75856546 76.77794444 25.42861429 81.1875 26.5625 C83.0317881 27.1850791 83.0317881 27.1850791 84.875 26.3125 C87 26 87 26 90.25 27.9375 C91.1575 28.618125 92.065 29.29875 93 30 C92.67 31.32 92.34 32.64 92 34 C88.80999744 35.0656867 87.28015724 34.97114748 84.25 33.5625 C78.75647212 31.34062787 74.27215373 31.35081322 68.5 33 C59.9986611 35.42895397 54.70763355 33.43829535 47.125 29.5625 C46.16770996 29.08675537 45.21041992 28.61101074 44.22412109 28.12084961 C42.05781029 27.04242488 39.89476259 25.95742961 37.734375 24.8671875 C34.27826531 23.12977665 30.79922392 21.44206124 27.31594849 19.75990295 C24.19028006 18.24859901 21.070957 16.72448549 17.95257568 15.19821167 C16.40208785 14.44167037 14.84954874 13.68931852 13.29498291 12.94119263 C11.0986294 11.88177401 8.91190367 10.80457007 6.7265625 9.72265625 C6.06096313 9.40631226 5.39536377 9.08996826 4.70959473 8.76403809 C0.24302567 6.52112286 0.24302567 6.52112286 -0.98291016 3.89233398 C-1 2 -1 2 0 0 Z " fill="#41B4E5" transform="translate(31,20)"/>
<path d="M0 0 C2.82034055 1.25393045 5.62963992 2.5308948 8.4375 3.8125 C9.23994141 4.16892578 10.04238281 4.52535156 10.86914062 4.89257812 C11.63291016 5.24384766 12.39667969 5.59511719 13.18359375 5.95703125 C13.89056396 6.27647705 14.59753418 6.59592285 15.32592773 6.92504883 C17 8 17 8 18 11 C17.109375 13.19140625 17.109375 13.19140625 15.75 15.5625 C15.31171875 16.34753906 14.8734375 17.13257812 14.421875 17.94140625 C13 20 13 20 10 22 C6.93473649 22.54531842 4.06591671 22.54325893 1 22 C-2.55388666 19.18650639 -4.71348318 16.95786495 -5.375 12.4375 C-4.84518777 7.5808879 -2.54937284 4.09720635 0 0 Z " fill="#F1CE7E" transform="translate(31,51)"/>
<path d="M0 0 C6 0 6 0 7.85229492 1.10546875 C9.52936396 3.87382776 9.37171456 6.09234503 9.36328125 9.3125 C9.36263672 10.55257812 9.36199219 11.79265625 9.36132812 13.0703125 C9.34521484 14.36710937 9.32910156 15.66390625 9.3125 17 C9.31572266 18.29679687 9.31894531 19.59359375 9.32226562 20.9296875 C9.26698067 30.599529 9.26698067 30.599529 7 34 C4.69 34 2.38 34 0 34 C0 22.78 0 11.56 0 0 Z " fill="#FDD67F" transform="translate(4,76)"/>
<path d="M0 0 C3.63 0 7.26 0 11 0 C11 1.32 11 2.64 11 4 C10.34 4 9.68 4 9 4 C9.12375 5.546875 9.12375 5.546875 9.25 7.125 C8.95335558 11.72298851 7.99123659 13.53646289 5 17 C-0.56531714 21.28101318 -7.32229653 20.26750444 -14 20 C-14 17.69 -14 15.38 -14 13 C-13.08476562 12.95101562 -12.16953125 12.90203125 -11.2265625 12.8515625 C-10.03804687 12.77679688 -8.84953125 12.70203125 -7.625 12.625 C-6.44164062 12.55539063 -5.25828125 12.48578125 -4.0390625 12.4140625 C-0.89437681 12.29782654 -0.89437681 12.29782654 1 10 C1.39764263 8.01178687 1.73775349 6.01055661 2 4 C1.34 4 0.68 4 0 4 C0 2.68 0 1.36 0 0 Z " fill="#C0CFE7" transform="translate(31,77)"/>
<path d="M0 0 C2 3 2 3 1.75 6.0625 C1 9 1 9 -1 11 C-4.5 11.25 -4.5 11.25 -8 11 C-10 9 -10 9 -10.3125 5.5625 C-10 2 -10 2 -8.9375 0 C-5.77203476 -1.63378851 -3.34979714 -0.85267564 0 0 Z " fill="#4B5878" transform="translate(41,58)"/>
<path d="M0 0 C1.67542976 0.28604898 3.34385343 0.61781233 5 1 C4.39816251 3.02045442 3.72693904 5.02111039 3 7 C2.01 7.495 2.01 7.495 1 8 C0.01 7.67 -0.98 7.34 -2 7 C-1.125 1.125 -1.125 1.125 0 0 Z " fill="#6FBBA7" transform="translate(105,63)"/>
<path d="M0 0 C-0.33 0.99 -0.66 1.98 -1 3 C-1.99 3.33 -2.98 3.66 -4 4 C-4.66 4.66 -5.32 5.32 -6 6 C-6.33 4.35 -6.66 2.7 -7 1 C-4 0 -4 0 0 0 Z " fill="#A1B8D8" transform="translate(107,55)"/>
</svg>
