<?xml version="1.0" encoding="UTF-8"?>
<svg version="1.1" xmlns="http://www.w3.org/2000/svg" width="128" height="128">
<path d="M0 0 C4.29 0 8.58 0 13 0 C13.495 1.98 13.495 1.98 14 4 C14.763125 4.144375 15.52625 4.28875 16.3125 4.4375 C19 5 19 5 22 6 C22.928125 5.6596875 22.928125 5.6596875 23.875 5.3125 C26 5 26 5 28.5625 6.6875 C32.69565217 10.60869565 32.69565217 10.60869565 34 13 C33.835 13.721875 33.67 14.44375 33.5 15.1875 C32.84088334 18.89503121 33.89191169 21.23176449 35.171875 24.7109375 C35.92580906 26.79492505 36.51511817 28.85461639 37.0625 31 C37.371875 31.99 37.68125 32.98 38 34 C38.66 34.33 39.32 34.66 40 35 C40 35.66 40 36.32 40 37 C38.68 37 37.36 37 36 37 C36.96776098 40.79547921 36.96776098 40.79547921 39 44 C39.45681382 50.16698656 39.45681382 50.16698656 37.9375 52.9375 C34.98831309 54.55479605 32.29132441 54.18630138 29 54 C29.0825 55.155 29.165 56.31 29.25 57.5 C29.24135555 62.38411495 27.7235869 65.98445521 25 70 C24.113125 70.804375 23.22625 71.60875 22.3125 72.4375 C19.08095736 76.0183986 19.11235305 79.31181382 19 84 C19.7425 83.87625 20.485 83.7525 21.25 83.625 C22.61125 83.810625 22.61125 83.810625 24 84 C24.58394531 84.92554687 25.16789062 85.85109375 25.76953125 86.8046875 C28.34808652 90.49865984 30.40174208 91.59642863 34.4375 93.5 C39.60911119 96.12933768 42.93182311 98.06900142 46 103 C48.02274647 111.09098587 47 119.66000266 47 128 C20.6 128 -5.8 128 -33 128 C-33 103.16289593 -33 103.16289593 -28.2734375 98.1796875 C-27.64695312 97.74914062 -27.02046875 97.31859375 -26.375 96.875 C-25.32892578 96.14603516 -25.32892578 96.14603516 -24.26171875 95.40234375 C-21.95122853 93.96976001 -19.59537143 92.69839189 -17.1875 91.4375 C-13.4407667 89.46486093 -12.10707158 87.68737527 -10 84 C-7.3125 83.6875 -7.3125 83.6875 -5 84 C-4.88770247 77.06963815 -6.58527687 73.71911752 -11.34375 68.765625 C-14.59182623 65.30305317 -15.08486713 62.27067396 -15.125 57.6875 C-15.08375 56.470625 -15.0425 55.25375 -15 54 C-16.093125 54.061875 -17.18625 54.12375 -18.3125 54.1875 C-22 54 -22 54 -23.9375 52.9375 C-25.59162584 49.92115289 -25.30575763 47.36333392 -25 44 C-24.34 43.34 -23.68 42.68 -23 42 C-22.35232207 39.42938689 -22.35232207 39.42938689 -22 37 C-23.32 37 -24.64 37 -26 37 C-26 36.34 -26 35.68 -26 35 C-25.01 34.34 -24.02 33.68 -23 33 C-21.13202339 27.50369023 -19.94076379 21.86594073 -20.125 16.0625 C-19.94544391 11.66337591 -18.11976264 9.98110653 -15 7 C-12.375 5.5625 -12.375 5.5625 -10 5 C-9.01 5.33 -8.02 5.66 -7 6 C-3.84569108 5.42079493 -3.84569108 5.42079493 -1 4 C-0.67 2.68 -0.34 1.36 0 0 Z " fill="#F5C7A7" transform="translate(57,0)"/>
<path d="M0 0 C2.85444664 0.63432148 4.33371309 1.48084655 6.75 3.0625 C10.19777205 5.30741128 12.56828961 6.79823308 16.8125 6.625 C20.29818962 5.08616712 24.08872849 3.34877151 26.8125 0.625 C29.125 0.1875 29.125 0.1875 31.8125 0.625 C32.68648437 2.01525391 32.68648437 2.01525391 33.578125 3.43359375 C36.15988802 7.12118184 38.21699861 8.22272882 42.25 10.125 C47.42161119 12.75433768 50.74432311 14.69400142 53.8125 19.625 C55.83524647 27.71598587 54.8125 36.28500266 54.8125 44.625 C28.4125 44.625 2.0125 44.625 -25.1875 44.625 C-25.1875 19.78789593 -25.1875 19.78789593 -20.4609375 14.8046875 C-19.83445312 14.37414062 -19.20796875 13.94359375 -18.5625 13.5 C-17.86511719 13.01402344 -17.16773438 12.52804688 -16.44921875 12.02734375 C-14.13872853 10.59476001 -11.78287143 9.32339189 -9.375 8.0625 C-5.34896331 5.94280889 -3.90131896 1.11466256 0 0 Z " fill="#0D3757" transform="translate(49.1875,83.375)"/>
<path d="M0 0 C4.29 0 8.58 0 13 0 C13.495 1.98 13.495 1.98 14 4 C14.763125 4.144375 15.52625 4.28875 16.3125 4.4375 C19 5 19 5 22 6 C22.928125 5.6596875 22.928125 5.6596875 23.875 5.3125 C26 5 26 5 28.5625 6.6875 C32.69565217 10.60869565 32.69565217 10.60869565 34 13 C33.835 13.721875 33.67 14.44375 33.5 15.1875 C32.84088334 18.89503121 33.89191169 21.23176449 35.171875 24.7109375 C35.92580906 26.79492505 36.51511817 28.85461639 37.0625 31 C37.371875 31.99 37.68125 32.98 38 34 C38.66 34.33 39.32 34.66 40 35 C40 35.66 40 36.32 40 37 C38.68 37 37.36 37 36 37 C36 38.65 36 40.3 36 42 C28.25 41.25 28.25 41.25 26 39 C26 38.01 26 37.02 26 36 C13.46 36 0.92 36 -12 36 C-12.33 37.32 -12.66 38.64 -13 40 C-15.04698414 42.04698414 -19.30411241 41.70045693 -22 42 C-22 40.35 -22 38.7 -22 37 C-23.32 37 -24.64 37 -26 37 C-26 36.34 -26 35.68 -26 35 C-25.01 34.34 -24.02 33.68 -23 33 C-21.13202339 27.50369023 -19.94076379 21.86594073 -20.125 16.0625 C-19.94544391 11.66337591 -18.11976264 9.98110653 -15 7 C-12.375 5.5625 -12.375 5.5625 -10 5 C-9.01 5.33 -8.02 5.66 -7 6 C-3.84569108 5.42079493 -3.84569108 5.42079493 -1 4 C-0.67 2.68 -0.34 1.36 0 0 Z " fill="#F7B000" transform="translate(57,0)"/>
<path d="M0 0 C4.18827665 0.93072814 7.31582333 3.21097636 10.8125 5.625 C11.8025 6.285 12.7925 6.945 13.8125 7.625 C12.45397869 10.71193704 10.96739047 12.71141734 8.4375 14.9375 C7.85226563 15.46988281 7.26703125 16.00226563 6.6640625 16.55078125 C4.8125 17.625 4.8125 17.625 2.6640625 17.484375 C0.8125 16.625 0.8125 16.625 -0.4375 13.5625 C-0.685 12.593125 -0.9325 11.62375 -1.1875 10.625 C-1.8475 10.625 -2.5075 10.625 -3.1875 10.625 C-3.06632812 11.47731201 -2.94515625 12.32962402 -2.8203125 13.20776367 C-2.37029166 16.38495406 -1.9233711 19.56256111 -1.47851562 22.74047852 C-1.28573809 24.11304807 -1.09174339 25.48544727 -0.89648438 26.85766602 C-0.61524874 28.83564217 -0.33882278 30.81430029 -0.0625 32.79296875 C0.10507812 33.98172607 0.27265625 35.1704834 0.4453125 36.39526367 C0.8125 39.625 0.8125 39.625 0.8125 44.625 C-7.7675 44.625 -16.3475 44.625 -25.1875 44.625 C-25.249375 41.304375 -25.31125 37.98375 -25.375 34.5625 C-25.40231201 33.52988037 -25.42962402 32.49726074 -25.45776367 31.43334961 C-25.51582953 24.96056697 -25.12362335 19.72055086 -20.4609375 14.8046875 C-19.83445312 14.37414062 -19.20796875 13.94359375 -18.5625 13.5 C-17.86511719 13.01402344 -17.16773438 12.52804688 -16.44921875 12.02734375 C-14.13872853 10.59476001 -11.78287143 9.32339189 -9.375 8.0625 C-5.34896331 5.94280889 -3.90131896 1.11466256 0 0 Z " fill="#0B2E4A" transform="translate(49.1875,83.375)"/>
<path d="M0 0 C0.86044922 1.39798828 0.86044922 1.39798828 1.73828125 2.82421875 C4.34146875 6.47947166 6.41577371 7.60304702 10.4375 9.5 C15.60911119 12.12933768 18.93182311 14.06900142 22 19 C22.98372238 22.03994501 23.11707016 24.80049369 23.09765625 27.984375 C23.09515869 28.82709961 23.09266113 29.66982422 23.09008789 30.53808594 C23.08098389 31.59801758 23.07187988 32.65794922 23.0625 33.75 C23.041875 37.1325 23.02125 40.515 23 44 C14.42 44 5.84 44 -3 44 C-1.79693066 32.31304069 -0.51060589 20.65094968 1 9 C-0.65 11.64 -2.3 14.28 -4 17 C-7.86790003 16.03302499 -8.94476825 15.47299793 -11.75 12.9375 C-12.36359375 12.38964844 -12.9771875 11.84179688 -13.609375 11.27734375 C-14.06828125 10.85582031 -14.5271875 10.43429688 -15 10 C-14.0943894 6.03795362 -12.47351586 4.35342382 -9.1875 2.1875 C-3.46849658 -1.0598184 -3.46849658 -1.0598184 0 0 Z " fill="#0B2E4A" transform="translate(81,84)"/>
<path d="M0 0 C0 0.66 0 1.32 0 2 C-1.32 2 -2.64 2 -4 2 C-4 3.65 -4 5.3 -4 7 C-11.75 6.25 -11.75 6.25 -14 4 C-14 3.01 -14 2.02 -14 1 C-26.54 1 -39.08 1 -52 1 C-52.33 2.32 -52.66 3.64 -53 5 C-55.04698414 7.04698414 -59.30411241 6.70045693 -62 7 C-62 5.35 -62 3.7 -62 2 C-63.32 2 -64.64 2 -66 2 C-66 1.34 -66 0.68 -66 0 C-63.81304997 -0.97693686 -61.62478242 -1.95056408 -59.43359375 -2.91796875 C-57.44712069 -3.80119995 -55.47181592 -4.70951404 -53.5 -5.625 C-35.18038587 -12.82199126 -17.06925454 -8.53462727 0 0 Z " fill="#F29300" transform="translate(97,35)"/>
<path d="M0 0 C0.99 0.33 1.98 0.66 3 1 C3 4.63 3 8.26 3 12 C3.66 12 4.32 12 5 12 C5 13.98 5 15.96 5 18 C0.71 18 -3.58 18 -8 18 C-8 16.02 -8 14.04 -8 12 C-7.34 12 -6.68 12 -6 12 C-6 9.69 -6 7.38 -6 5 C-5.38125 4.9175 -4.7625 4.835 -4.125 4.75 C-1.81562433 4.18741541 -1.81562433 4.18741541 -0.75 1.9375 C-0.5025 1.298125 -0.255 0.65875 0 0 Z " fill="#1E425A" transform="translate(92,110)"/>
<path d="M0 0 C0.78375 0.33 1.5675 0.66 2.375 1 C9.08607475 2.85133096 15.53203651 2.72335305 22 0 C22 1.98 22 3.96 22 6 C18.23562305 8.43577332 14.83305537 8.23476404 10.4375 8.1875 C9.42913086 8.1865332 9.42913086 8.1865332 8.40039062 8.18554688 C5.33586829 8.1581579 2.9272839 7.9757613 0 7 C0 4.69 0 2.38 0 0 Z " fill="#F3AB7D" transform="translate(53,75)"/>
<path d="M0 0 C0 4.29 0 8.58 0 13 C-6.34507042 13.35915493 -6.34507042 13.35915493 -8.9375 11.9375 C-10.63335287 8.84506242 -10.43060657 6.44485259 -10 3 C-6.8598114 -0.74407102 -5.2274159 0 0 0 Z " fill="#F1A97B" transform="translate(42,41)"/>
<path d="M0 0 C7.75 0.75 7.75 0.75 10 3 C10.54587156 9.00458716 10.54587156 9.00458716 8.9375 11.9375 C5.98831309 13.55479605 3.29132441 13.18630138 0 13 C0 8.71 0 4.42 0 0 Z " fill="#F2AA7C" transform="translate(86,41)"/>
<path d="M0 0 C4.29 0 8.58 0 13 0 C13 1.98 13 3.96 13 6 C8.71 6 4.42 6 0 6 C0 4.02 0 2.04 0 0 Z " fill="#0D3757" transform="translate(31,122)"/>
<path d="M0 0 C3.3 0 6.6 0 10 0 C10 1.98 10 3.96 10 6 C2.25 5.25 2.25 5.25 0 3 C0 2.01 0 1.02 0 0 Z " fill="#683C31" transform="translate(83,36)"/>
<path d="M0 0 C3.3 0 6.6 0 10 0 C9 4 9 4 8 5 C5.34536879 5.45459858 2.67810862 5.70243238 0 6 C0 4.02 0 2.04 0 0 Z " fill="#663B30" transform="translate(35,36)"/>
<path d="M0 0 C0.99 0.33 1.98 0.66 3 1 C3 4.63 3 8.26 3 12 C2.01 12 1.02 12 0 12 C0 8.04 0 4.08 0 0 Z " fill="#BCBDBF" transform="translate(92,110)"/>
<path d="M0 0 C3.3 0 6.6 0 10 0 C10 0.99 10 1.98 10 3 C6.7 3 3.4 3 0 3 C0 2.01 0 1.02 0 0 Z " fill="#B57559" transform="translate(59,63)"/>
<path d="M0 0 C0.99 0 1.98 0 3 0 C3 2.64 3 5.28 3 8 C2.01 8 1.02 8 0 8 C0 5.36 0 2.72 0 0 Z " fill="#E4A607" transform="translate(87,114)"/>
<path d="M0 0 C0.99 0.33 1.98 0.66 3 1 C3 2.32 3 3.64 3 5 C1.68 5 0.36 5 -1 5 C-0.67 3.35 -0.34 1.7 0 0 Z " fill="#6D4F3B" transform="translate(75,45)"/>
<path d="M0 0 C0.99 0.33 1.98 0.66 3 1 C3 2.32 3 3.64 3 5 C1.68 5 0.36 5 -1 5 C-0.67 3.35 -0.34 1.7 0 0 Z " fill="#6E4F3B" transform="translate(52,45)"/>
</svg>
