<?xml version="1.0" encoding="UTF-8"?>
<svg version="1.1" xmlns="http://www.w3.org/2000/svg" width="128" height="128">
<path d="M0 0 C7.92 0 15.84 0 24 0 C24 4.95 24 9.9 24 15 C26.31 15 28.62 15 31 15 C31.0825 14.113125 31.165 13.22625 31.25 12.3125 C32.4161689 7.16192069 34.8544174 4.90184162 38.9375 1.6875 C44.28321483 -1.10606711 50.16924937 -0.90246201 56 0 C61.66975698 2.10051778 65.07899358 5.27824384 67.625 10.75 C69.34887258 16.00069447 69.43922825 20.6674748 68 26 C65.30425208 31.19894241 61.84124795 34.42152892 56.75 37.25 C50.2712092 39.01694295 44.66674193 38.58745103 38.79296875 35.26953125 C35.01217336 32.59249748 32.47212052 29.67058028 31.1875 25.125 C31.125625 24.42375 31.06375 23.7225 31 23 C28.69 23 26.38 23 24 23 C24 30.26 24 37.52 24 45 C28.11855469 44.94779297 28.11855469 44.94779297 32.3203125 44.89453125 C34.99120037 44.87110854 37.66207662 44.85290743 40.33300781 44.83520508 C42.18364619 44.82015529 44.03424911 44.79971067 45.88476562 44.77368164 C48.55087045 44.7371302 51.21650208 44.72023546 53.8828125 44.70703125 C55.11597702 44.68380547 55.11597702 44.68380547 56.37405396 44.66011047 C62.18419065 44.65842338 66.47786053 45.62591065 70.86328125 49.75390625 C71.34152344 50.35074219 71.81976563 50.94757812 72.3125 51.5625 C72.80363281 52.16191406 73.29476562 52.76132812 73.80078125 53.37890625 C75.7880568 56.0652885 76.13318086 57.77656099 76.17700195 61.06323242 C76.19625481 62.32045357 76.19625481 62.32045357 76.21589661 63.60307312 C76.22328354 64.51136368 76.23067047 65.41965424 76.23828125 66.35546875 C76.246353 67.29046707 76.25442474 68.22546539 76.26274109 69.188797 C76.2765882 71.17182559 76.28730754 73.15487808 76.29516602 75.13793945 C76.31233335 78.15818127 76.35620827 81.17731551 76.40039062 84.19726562 C76.41052163 86.12499196 76.41903645 88.0527276 76.42578125 89.98046875 C76.44328934 90.87863815 76.46079742 91.77680756 76.47883606 92.70219421 C76.45839908 98.66729622 75.449851 102.10158402 72 107 C68.90444746 109.93680625 66.02741383 111.6191724 62 113 C61.67 115.31 61.34 117.62 61 120 C63.64 120 66.28 120 69 120 C69 122.64 69 125.28 69 128 C56.46 128 43.92 128 31 128 C31 125.36 31 122.72 31 120 C33.31 120 35.62 120 38 120 C38 117.69 38 115.38 38 113 C20.84 113 3.68 113 -14 113 C-14 115.31 -14 117.62 -14 120 C-11.69 120 -9.38 120 -7 120 C-7 122.64 -7 125.28 -7 128 C-19.54 128 -32.08 128 -45 128 C-45 125.36 -45 122.72 -45 120 C-42.36 120 -39.72 120 -37 120 C-36.86043273 116.62653665 -36.86043273 116.62653665 -38 113 C-39.89432218 111.70318599 -41.80886069 110.91298352 -43.92578125 110.03125 C-47.2917615 108.3577683 -48.85530234 106.05456939 -51 103 C-51.90771207 100.2768638 -52.13961745 98.61430833 -52.17700195 95.80737305 C-52.18983719 94.96607346 -52.20267242 94.12477386 -52.21589661 93.25798035 C-52.22328354 92.35171402 -52.23067047 91.44544769 -52.23828125 90.51171875 C-52.246353 89.5757637 -52.25442474 88.63980865 -52.26274109 87.67549133 C-52.27657102 85.69424283 -52.28729805 83.7129706 -52.29516602 81.73168945 C-52.31237566 78.70933655 -52.35627112 75.68807861 -52.40039062 72.66601562 C-52.41051826 70.73959136 -52.41903414 68.81315782 -52.42578125 66.88671875 C-52.44328934 65.98652512 -52.46079742 65.08633148 -52.47883606 64.15885925 C-52.45596864 57.50900567 -51.08340042 54.17386693 -46.40234375 49.35546875 C-40.96335241 45.01877966 -36.91905054 44.86061519 -30.17578125 44.90234375 C-29.41213257 44.90335083 -28.64848389 44.90435791 -27.86169434 44.90539551 C-25.01194759 44.91062336 -22.16222227 44.92458464 -19.3125 44.9375 C-12.939375 44.958125 -6.56625 44.97875 0 45 C0 30.15 0 15.3 0 0 Z " fill="#FF7A4D" transform="translate(52,0)"/>
<path d="M0 0 C7.1532973 -0.07425173 14.30636938 -0.12865107 21.45996094 -0.16479492 C23.89261789 -0.17986534 26.32524774 -0.20032523 28.7578125 -0.22631836 C32.25788061 -0.2627774 35.7575889 -0.2797442 39.2578125 -0.29296875 C40.88470505 -0.31619453 40.88470505 -0.31619453 42.54446411 -0.33988953 C49.08437825 -0.34134151 53.88737999 0.07009143 58.86328125 4.75390625 C59.34152344 5.35074219 59.81976563 5.94757812 60.3125 6.5625 C61.04919922 7.46162109 61.04919922 7.46162109 61.80078125 8.37890625 C63.7880568 11.0652885 64.13318086 12.77656099 64.17700195 16.06323242 C64.19625481 17.32045357 64.19625481 17.32045357 64.21589661 18.60307312 C64.22328354 19.51136368 64.23067047 20.41965424 64.23828125 21.35546875 C64.246353 22.29046707 64.25442474 23.22546539 64.26274109 24.188797 C64.2765882 26.17182559 64.28730754 28.15487808 64.29516602 30.13793945 C64.31233335 33.15818127 64.35620827 36.17731551 64.40039062 39.19726562 C64.41052163 41.12499196 64.41903645 43.0527276 64.42578125 44.98046875 C64.45204338 46.32772285 64.45204338 46.32772285 64.47883606 47.70219421 C64.45839908 53.66729622 63.449851 57.10158402 60 62 C56.90444746 64.93680625 54.02741383 66.6191724 50 68 C49.67 70.31 49.34 72.62 49 75 C51.64 75 54.28 75 57 75 C57 77.64 57 80.28 57 83 C44.46 83 31.92 83 19 83 C19 80.36 19 77.72 19 75 C21.31 75 23.62 75 26 75 C26 72.69 26 70.38 26 68 C17.42 68 8.84 68 0 68 C0 58.1 0 48.2 0 38 C4.95 38 9.9 38 15 38 C15 35.36 15 32.72 15 30 C10.05 30 5.1 30 0 30 C0 27.69 0 25.38 0 23 C4.95 23 9.9 23 15 23 C15 20.36 15 17.72 15 15 C10.05 15 5.1 15 0 15 C0 10.05 0 5.1 0 0 Z " fill="#FF9533" transform="translate(64,45)"/>
<path d="M0 0 C0 24.75 0 49.5 0 75 C2.31 75 4.62 75 7 75 C7 77.64 7 80.28 7 83 C-5.54 83 -18.08 83 -31 83 C-31 80.36 -31 77.72 -31 75 C-28.36 75 -25.72 75 -23 75 C-22.86043273 71.62653665 -22.86043273 71.62653665 -24 68 C-25.89432218 66.70318599 -27.80886069 65.91298352 -29.92578125 65.03125 C-33.2917615 63.3577683 -34.85530234 61.05456939 -37 58 C-37.90771207 55.2768638 -38.13961745 53.61430833 -38.17700195 50.80737305 C-38.18983719 49.96607346 -38.20267242 49.12477386 -38.21589661 48.25798035 C-38.22328354 47.35171402 -38.23067047 46.44544769 -38.23828125 45.51171875 C-38.246353 44.5757637 -38.25442474 43.63980865 -38.26274109 42.67549133 C-38.27657102 40.69424283 -38.28729805 38.7129706 -38.29516602 36.73168945 C-38.31237566 33.70933655 -38.35627112 30.68807861 -38.40039062 27.66601562 C-38.41051826 25.73959136 -38.41903414 23.81315782 -38.42578125 21.88671875 C-38.44328934 20.98652512 -38.46079742 20.08633148 -38.47883606 19.15885925 C-38.45596864 12.50900567 -37.08340042 9.17386693 -32.40234375 4.35546875 C-22.02609434 -3.91786078 -17.20161343 0 0 0 Z " fill="#FFBC40" transform="translate(38,45)"/>
<path d="M0 0 C8.58 0 17.16 0 26 0 C26 22.44 26 44.88 26 68 C17.42 68 8.84 68 0 68 C0 58.1 0 48.2 0 38 C4.95 38 9.9 38 15 38 C15 35.36 15 32.72 15 30 C10.05 30 5.1 30 0 30 C0 27.69 0 25.38 0 23 C4.95 23 9.9 23 15 23 C15 20.36 15 17.72 15 15 C10.05 15 5.1 15 0 15 C0 10.05 0 5.1 0 0 Z " fill="#FF4433" transform="translate(64,45)"/>
<path d="M0 0 C5.21635219 3.02135251 7.90884968 6.63675287 9.78125 12.33984375 C10.94414719 18.24111308 10.31580362 23.04608409 7.5546875 28.37109375 C3.54590153 33.04801071 -0.48050344 36.462164 -6.73046875 37.25390625 C-12.54167198 37.55293901 -16.9421036 36.39272233 -21.6953125 32.99609375 C-26.48120823 28.34083041 -27.87424756 24.92357329 -28.0078125 18.30859375 C-27.93834961 12.13271149 -27.71391045 8.71794634 -23.6953125 3.99609375 C-17.20697206 -2.22123493 -8.31299718 -3.09629026 0 0 Z " fill="#FE4534" transform="translate(110.6953125,1.00390625)"/>
<path d="M0 0 C7.92 0 15.84 0 24 0 C24 4.95 24 9.9 24 15 C26.31 15 28.62 15 31 15 C31 17.64 31 20.28 31 23 C28.69 23 26.38 23 24 23 C24 30.26 24 37.52 24 45 C16.08 45 8.16 45 0 45 C0 30.15 0 15.3 0 0 Z " fill="#014181" transform="translate(52,0)"/>
<path d="M0 0 C3.26086581 1.17855262 5.0143524 3.03495081 7.0859375 5.75390625 C8.06637714 8.69522516 8.20214952 10.5789229 8.18359375 13.640625 C8.18037109 14.57841797 8.17714844 15.51621094 8.17382812 16.48242188 C8.16544922 17.45888672 8.15707031 18.43535156 8.1484375 19.44140625 C8.14392578 20.42947266 8.13941406 21.41753906 8.13476562 22.43554688 C8.12298053 24.87506099 8.10652761 27.31445314 8.0859375 29.75390625 C10.7259375 29.75390625 13.3659375 29.75390625 16.0859375 29.75390625 C16.0859375 32.39390625 16.0859375 35.03390625 16.0859375 37.75390625 C3.5459375 37.75390625 -8.9940625 37.75390625 -21.9140625 37.75390625 C-21.9140625 35.11390625 -21.9140625 32.47390625 -21.9140625 29.75390625 C-19.6040625 29.75390625 -17.2940625 29.75390625 -14.9140625 29.75390625 C-14.92042725 29.0582959 -14.92679199 28.36268555 -14.93334961 27.64599609 C-14.9420722 24.47255812 -14.89731079 21.30200737 -14.8515625 18.12890625 C-14.86251953 17.03449219 -14.87347656 15.94007812 -14.88476562 14.8125 C-14.71721864 6.9138563 -14.71721864 6.9138563 -12.45605469 3.64819336 C-8.33212941 -0.12169683 -5.45347999 -1.03299706 0 0 Z " fill="#FFBD3F" transform="translate(104.9140625,90.24609375)"/>
<path d="M0 0 C3.23870861 2.75684066 4.7127211 4.44407334 5.48876953 8.6472168 C5.7154351 11.73154186 5.79536201 14.78254477 5.8125 17.875 C5.83763672 18.94492188 5.86277344 20.01484375 5.88867188 21.1171875 C5.94733201 23.74516165 5.9837667 26.37147825 6 29 C8.31 29 10.62 29 13 29 C13 31.64 13 34.28 13 37 C0.46 37 -12.08 37 -25 37 C-25 34.36 -25 31.72 -25 29 C-22.36 29 -19.72 29 -17 29 C-17.01571045 28.39526855 -17.0314209 27.79053711 -17.04760742 27.16748047 C-17.1103188 24.40341704 -17.14910411 21.63950379 -17.1875 18.875 C-17.22520508 17.44800781 -17.22520508 17.44800781 -17.26367188 15.9921875 C-17.32032017 10.55395093 -17.10819282 6.68101329 -14 2 C-9.98324284 -1.66233741 -4.96640446 -1.98145932 0 0 Z " fill="#FFDE3F" transform="translate(32,91)"/>
<path d="M0 0 C0 22.44 0 44.88 0 68 C-9.02587872 64.61529548 -9.02587872 64.61529548 -11.4375 61.5 C-11.91058594 60.9121875 -12.38367188 60.324375 -12.87109375 59.71875 C-14.79486908 56.7898187 -15.13162079 54.21472096 -15.17700195 50.80737305 C-15.18983719 49.96607346 -15.20267242 49.12477386 -15.21589661 48.25798035 C-15.22328354 47.35171402 -15.23067047 46.44544769 -15.23828125 45.51171875 C-15.246353 44.5757637 -15.25442474 43.63980865 -15.26274109 42.67549133 C-15.27657102 40.69424283 -15.28729805 38.7129706 -15.29516602 36.73168945 C-15.31237566 33.70933655 -15.35627112 30.68807861 -15.40039062 27.66601562 C-15.41051826 25.73959136 -15.41903414 23.81315782 -15.42578125 21.88671875 C-15.44328934 20.98652512 -15.46079742 20.08633148 -15.47883606 19.15885925 C-15.45596864 12.50900567 -14.08340042 9.17386693 -9.40234375 4.35546875 C-3.93979933 0 -3.93979933 0 0 0 Z " fill="#FF794C" transform="translate(15,45)"/>
<path d="M0 0 C7.88571429 2.25306122 7.88571429 2.25306122 10.875 6 C11.44992188 6.70125 12.02484375 7.4025 12.6171875 8.125 C14.69584215 10.94351478 15.13103208 12.61539803 15.17700195 16.06323242 C15.18983719 16.90137985 15.20267242 17.73952728 15.21589661 18.60307312 C15.22328354 19.51136368 15.23067047 20.41965424 15.23828125 21.35546875 C15.246353 22.29046707 15.25442474 23.22546539 15.26274109 24.188797 C15.2765882 26.17182559 15.28730754 28.15487808 15.29516602 30.13793945 C15.31233335 33.15818127 15.35620827 36.17731551 15.40039062 39.19726562 C15.41052163 41.12499196 15.41903645 43.0527276 15.42578125 44.98046875 C15.44328934 45.87863815 15.46079742 46.77680756 15.47883606 47.70219421 C15.45839599 53.66819624 14.44561454 57.09859251 11 62 C7.29908776 65.60351981 5.18021903 66.27326032 0 68 C0 45.56 0 23.12 0 0 Z " fill="#FF4332" transform="translate(113,45)"/>
<path d="M0 0 C3.96 0 7.92 0 12 0 C12 14.85 12 29.7 12 45 C8.04 45 4.08 45 0 45 C0 30.15 0 15.3 0 0 Z " fill="#366AB3" transform="translate(52,0)"/>
<path d="M0 0 C-1.98 2.31 -3.96 4.62 -6 7 C-5.34 8.32 -4.68 9.64 -4 11 C0.29558621 11.01647499 0.29558621 11.01647499 3.25 8.5 C4.1575 7.675 5.065 6.85 6 6 C7.41000664 8.82001327 7.24548451 10.87007255 7 14 C5.55466834 17.45273673 4.34714641 18.77628342 1.1875 20.8125 C-3.29690649 22.48316124 -6.27206116 22.76350786 -10.6875 20.8125 C-14.26262324 18.01037638 -15.76692757 15.56491487 -16.4375 11.0625 C-15.8806713 7.16469912 -14.43417323 5.06010349 -12 2 C-7.7975546 -0.80163026 -4.99895065 -0.14489712 0 0 Z " fill="#BFDDE6" transform="translate(106,8)"/>
<path d="M0 0 C12.54 0 25.08 0 38 0 C38 2.64 38 5.28 38 8 C25.46 8 12.92 8 0 8 C0 5.36 0 2.72 0 0 Z " fill="#092B4C" transform="translate(83,120)"/>
<path d="M0 0 C12.54 0 25.08 0 38 0 C38 2.64 38 5.28 38 8 C25.46 8 12.92 8 0 8 C0 5.36 0 2.72 0 0 Z " fill="#09457D" transform="translate(7,120)"/>
<path d="M0 0 C9.9 0 19.8 0 30 0 C30 2.64 30 5.28 30 8 C20.1 8 10.2 8 0 8 C0 5.36 0 2.72 0 0 Z " fill="#4367A6" transform="translate(49,75)"/>
<path d="M0 0 C9.9 0 19.8 0 30 0 C30 2.64 30 5.28 30 8 C20.1 8 10.2 8 0 8 C0 5.36 0 2.72 0 0 Z " fill="#4367A6" transform="translate(49,60)"/>
<path d="M0 0 C4.95 0 9.9 0 15 0 C15 2.31 15 4.62 15 7 C10.05 7 5.1 7 0 7 C0 4.69 0 2.38 0 0 Z " fill="#004080" transform="translate(64,75)"/>
<path d="M0 0 C4.95 0 9.9 0 15 0 C15 2.31 15 4.62 15 7 C10.05 7 5.1 7 0 7 C0 4.69 0 2.38 0 0 Z " fill="#004080" transform="translate(64,60)"/>
<path d="M0 0 C1.921875 0.80859375 1.921875 0.80859375 3.921875 2.80859375 C3.80867197 6.09148151 2.63902637 7.11213862 0.359375 9.55859375 C-0.8471875 10.67234375 -0.8471875 10.67234375 -2.078125 11.80859375 C-4.69999994 10.75984377 -5.87183861 10.15928062 -7.328125 7.68359375 C-7.575625 7.06484375 -7.823125 6.44609375 -8.078125 5.80859375 C-7.17784912 4.77327649 -6.25719465 3.7556521 -5.328125 2.74609375 C-4.56242187 1.89337891 -4.56242187 1.89337891 -3.78125 1.0234375 C-2.078125 -0.19140625 -2.078125 -0.19140625 0 0 Z " fill="#0E4A86" transform="translate(107.078125,9.19140625)"/>
<path d="M0 0 C2.31 0 4.62 0 7 0 C7 2.64 7 5.28 7 8 C4.69 8 2.38 8 0 8 C0 5.36 0 2.72 0 0 Z " fill="#04264C" transform="translate(76,15)"/>
</svg>
