<?xml version="1.0" encoding="UTF-8"?>
<svg version="1.1" xmlns="http://www.w3.org/2000/svg" width="128" height="128">
<path d="M0 0 C2.86942113 2.26533247 3.83907612 3.51722837 5 7 C5.10837645 9.45495426 5.16401274 11.88066779 5.16796875 14.3359375 C5.17296135 15.41048691 5.17296135 15.41048691 5.17805481 16.50674438 C5.18311354 18.02141682 5.18546346 19.53610038 5.18530273 21.05078125 C5.18748541 23.35956356 5.2056412 25.66786494 5.22460938 27.9765625 C5.22754435 29.45051921 5.22952845 30.92447817 5.23046875 32.3984375 C5.23765427 33.08505463 5.24483978 33.77167175 5.25224304 34.47909546 C5.22964638 39.25767828 4.6120197 42.94833857 1.625 46.75 C-1.90587234 49.46605565 -5.95504257 49.10918432 -10.25 49.0625 C-11.32765625 49.05347656 -12.4053125 49.04445312 -13.515625 49.03515625 C-14.33546875 49.02355469 -15.1553125 49.01195312 -16 49 C-15.97905273 49.75619629 -15.95810547 50.51239258 -15.93652344 51.29150391 C-15.85309415 54.735866 -15.80125376 58.18001507 -15.75 61.625 C-15.69972656 63.40970703 -15.69972656 63.40970703 -15.6484375 65.23046875 C-15.53786855 75.12638958 -15.53786855 75.12638958 -17.76953125 78.76953125 C-20.65487746 81.65487746 -22.1125814 81.96734596 -26.03515625 82.171875 C-29.02938901 81.90995404 -30.73287484 80.9337244 -33 79 C-35.68073901 75.19714583 -35.30590152 70.93823777 -35.30078125 66.47265625 C-35.30506638 65.6467247 -35.3093515 64.82079315 -35.31376648 63.96983337 C-35.31950066 62.22574784 -35.32001676 60.48163839 -35.31567383 58.73754883 C-35.31251515 56.07526676 -35.33597905 53.41409779 -35.36132812 50.75195312 C-35.36360141 49.0546889 -35.36430448 47.35742169 -35.36328125 45.66015625 C-35.372491 44.86730728 -35.38170074 44.07445831 -35.39118958 43.25758362 C-35.35309137 38.68552179 -34.96233826 35.7078101 -32 32 C-28.31912647 29.54608431 -25.55644412 29.77197241 -21.3125 29.875 C-20.61060547 29.88402344 -19.90871094 29.89304687 -19.18554688 29.90234375 C-17.45688475 29.92586296 -15.72839855 29.96173287 -14 30 C-14.02094727 29.26885986 -14.04189453 28.53771973 -14.06347656 27.78442383 C-14.14680314 24.46058999 -14.19871332 21.13697616 -14.25 17.8125 C-14.28351563 16.66201172 -14.31703125 15.51152344 -14.3515625 14.32617188 C-14.36445312 13.21435547 -14.37734375 12.10253906 -14.390625 10.95703125 C-14.41157227 9.93585205 -14.43251953 8.91467285 -14.45410156 7.86254883 C-13.87764322 4.22869178 -12.56203669 2.59413444 -10 0 C-6.19426871 -1.2685771 -3.89430952 -0.88817586 0 0 Z " fill="#1A7AA2" transform="translate(113,35)"/>
<path d="M0 0 C2.64365079 1.87613927 2.95241281 2.85723843 4 6 C4.08239169 7.84610532 4.10743359 9.69505164 4.09765625 11.54296875 C4.09443359 12.61611328 4.09121094 13.68925781 4.08789062 14.79492188 C4.07951172 15.91447266 4.07113281 17.03402344 4.0625 18.1875 C4.05798828 19.31865234 4.05347656 20.44980469 4.04882812 21.61523438 C4.03703498 24.41020927 4.0205765 27.2050782 4 30 C5.53720703 29.93039063 5.53720703 29.93039063 7.10546875 29.859375 C8.46611656 29.82183989 9.82679605 29.78544159 11.1875 29.75 C11.86103516 29.71648437 12.53457031 29.68296875 13.22851562 29.6484375 C16.84777691 29.57781777 18.83110351 29.89446788 21.92578125 31.828125 C25.73305686 35.81465088 25.17549856 40.229043 25.203125 45.4296875 C25.20882507 46.257034 25.21452515 47.08438049 25.22039795 47.9367981 C25.22984023 49.68685632 25.23637887 51.43693227 25.24023438 53.18701172 C25.24993847 55.85806431 25.28096785 58.52834675 25.3125 61.19921875 C25.31903058 62.90103711 25.32428084 64.60286096 25.328125 66.3046875 C25.3404718 67.10067352 25.3528186 67.89665955 25.36553955 68.71676636 C25.34713443 73.3208259 24.92716413 76.22787198 22 80 C19.35057347 82.15879198 17.21683717 82.09478727 13.9375 81.8125 C11.41365467 81.4137512 10.17047669 81.12098346 8.0625 79.625 C5.79465068 76.15652457 5.88275698 73.03481884 5.90234375 69.01953125 C5.90556641 67.85615234 5.90878906 66.69277344 5.91210938 65.49414062 C5.92048828 64.27919922 5.92886719 63.06425781 5.9375 61.8125 C5.94201172 60.58595703 5.94652344 59.35941406 5.95117188 58.09570312 C5.96296935 55.06375332 5.97943079 52.03190094 6 49 C4.78763672 49.03480469 4.78763672 49.03480469 3.55078125 49.0703125 C2.48214844 49.08835938 1.41351562 49.10640625 0.3125 49.125 C-0.74324219 49.14820313 -1.79898437 49.17140625 -2.88671875 49.1953125 C-6.81561213 48.94883236 -9.69756041 48.06986109 -12.75 45.5625 C-15.65766631 41.92791712 -15.17760585 37.63647686 -15.203125 33.2265625 C-15.20882507 32.46580414 -15.21452515 31.70504578 -15.22039795 30.92123413 C-15.22983748 29.31241238 -15.23637778 27.70357138 -15.24023438 26.09472656 C-15.24993701 23.64093085 -15.2809678 21.18797411 -15.3125 18.734375 C-15.31903085 17.16927579 -15.324281 15.60417061 -15.328125 14.0390625 C-15.3404718 13.30869781 -15.3528186 12.57833313 -15.36553955 11.82583618 C-15.34613094 7.35918654 -14.71530398 4.56937833 -12 1 C-8.42670627 -1.91157267 -4.21123114 -1.10208815 0 0 Z " fill="#0A4468" transform="translate(25,35)"/>
<path d="M0 0 C1.48558914 0.00666183 1.48558914 0.00666183 3.00119019 0.01345825 C4.68270676 0.01368484 4.68270676 0.01368484 6.39819336 0.01391602 C7.61280243 0.02423859 8.8274115 0.03456116 10.0788269 0.04519653 C11.31897552 0.04802643 12.55912415 0.05085632 13.83685303 0.05377197 C17.13476073 0.06308729 20.43247413 0.08106014 23.73031616 0.10317993 C27.0951601 0.12363429 30.46003247 0.1327728 33.82492065 0.14285278 C40.42786163 0.16494385 47.03067212 0.19844421 53.6335144 0.24050903 C54.86759647 2.70867317 54.8354902 4.48712104 54.8835144 7.24050903 C54.90929565 8.12738403 54.9350769 9.01425903 54.9616394 9.92800903 C54.85335815 10.69113403 54.7450769 11.45425903 54.6335144 12.24050903 C47.12454541 17.24648836 36.65817198 14.24050903 27.6335144 14.24050903 C27.6335144 31.73050903 27.6335144 49.22050903 27.6335144 67.24050903 C25.6535144 67.73550903 25.6535144 67.73550903 23.6335144 68.24050903 C22.6335144 67.24050903 22.6335144 67.24050903 22.51325989 65.10816956 C22.5154805 64.16885086 22.51770111 63.22953217 22.51998901 62.26174927 C22.52006454 61.20072495 22.52014008 60.13970062 22.5202179 59.04652405 C22.52537918 57.89237503 22.53054047 56.73822601 22.53585815 55.54910278 C22.5372731 54.37412735 22.53868805 53.19915192 22.54014587 51.98857117 C22.54576448 48.21835839 22.55832015 44.448204 22.5710144 40.67800903 C22.57602701 38.12918176 22.58059033 35.58035357 22.58468628 33.03152466 C22.59573996 26.76783271 22.61249619 20.50417504 22.6335144 14.24050903 C21.9221936 14.25098267 21.2108728 14.2614563 20.47799683 14.27224731 C17.25903854 14.31378905 14.04013665 14.33982943 10.8210144 14.36550903 C9.70146362 14.38226685 8.58191284 14.39902466 7.42843628 14.41629028 C6.35529175 14.4227356 5.28214722 14.42918091 4.17648315 14.43582153 C2.6918457 14.45153198 2.6918457 14.45153198 1.17721558 14.46755981 C-1.3664856 14.24050903 -1.3664856 14.24050903 -4.3664856 12.24050903 C-4.72976685 9.92800903 -4.72976685 9.92800903 -4.6789856 7.24050903 C-4.67511841 6.35363403 -4.67125122 5.46675903 -4.66726685 4.55300903 C-4.24047046 1.27166543 -3.29243036 0.33461401 0 0 Z M0.6335144 5.24050903 C0.6335144 6.56050903 0.6335144 7.88050903 0.6335144 9.24050903 C16.8035144 9.24050903 32.9735144 9.24050903 49.6335144 9.24050903 C49.6335144 7.92050903 49.6335144 6.60050903 49.6335144 5.24050903 C33.4635144 5.24050903 17.2935144 5.24050903 0.6335144 5.24050903 Z " fill="#14658C" transform="translate(39.366485595703125,48.759490966796875)"/>
<path d="M0 0 C1.01900391 0.00064453 2.03800781 0.00128906 3.08789062 0.00195312 C4.15072266 0.01806641 5.21355469 0.03417969 6.30859375 0.05078125 C7.90864258 0.04594727 7.90864258 0.04594727 9.54101562 0.04101562 C17.47912847 0.09631597 17.47912847 0.09631597 19.74609375 2.36328125 C20.046875 4.45703125 20.046875 4.45703125 20.05859375 6.86328125 C20.08373047 8.054375 20.08373047 8.054375 20.109375 9.26953125 C19.98949219 9.96046875 19.86960937 10.65140625 19.74609375 11.36328125 C16.65720853 13.42253806 16.03673448 13.60231865 12.55859375 13.48828125 C10.67140625 13.42640625 10.67140625 13.42640625 8.74609375 13.36328125 C8.74609375 14.02328125 8.74609375 14.68328125 8.74609375 15.36328125 C9.88046875 15.48703125 11.01484375 15.61078125 12.18359375 15.73828125 C13.35921875 15.94453125 14.53484375 16.15078125 15.74609375 16.36328125 C17.18817316 19.24744008 16.84004262 21.78049653 16.80859375 24.98828125 C16.79957031 26.17679688 16.79054688 27.3653125 16.78125 28.58984375 C16.76964844 29.50507812 16.75804688 30.4203125 16.74609375 31.36328125 C14.80859375 31.92578125 14.80859375 31.92578125 12.74609375 32.36328125 C11.74609375 31.36328125 11.74609375 31.36328125 11.6484375 28.859375 C11.68098958 26.02734375 11.71354167 23.1953125 11.74609375 20.36328125 C8.11609375 20.36328125 4.48609375 20.36328125 0.74609375 20.36328125 C0.74609375 23.99328125 0.74609375 27.62328125 0.74609375 31.36328125 C-0.57390625 31.69328125 -1.89390625 32.02328125 -3.25390625 32.36328125 C-5.18732572 30.42986178 -4.42839758 26.98849004 -4.44140625 24.42578125 C-4.45558594 23.15863281 -4.46976562 21.89148438 -4.484375 20.5859375 C-4.25390625 17.36328125 -4.25390625 17.36328125 -2.25390625 15.36328125 C0.87109375 15.23828125 0.87109375 15.23828125 3.74609375 15.36328125 C3.74609375 14.70328125 3.74609375 14.04328125 3.74609375 13.36328125 C3.13121094 13.39808594 2.51632813 13.43289062 1.8828125 13.46875 C0.67044922 13.50935547 0.67044922 13.50935547 -0.56640625 13.55078125 C-1.76716797 13.60298828 -1.76716797 13.60298828 -2.9921875 13.65625 C-5.25390625 13.36328125 -5.25390625 13.36328125 -7.0234375 12.0703125 C-9.06726891 9.23490194 -8.6144315 6.7281836 -8.25390625 3.36328125 C-5.93273177 0.06906283 -3.89056502 -0.01240208 0 0 Z M-3.25390625 5.36328125 C-3.25390625 6.35328125 -3.25390625 7.34328125 -3.25390625 8.36328125 C2.68609375 8.36328125 8.62609375 8.36328125 14.74609375 8.36328125 C14.74609375 7.37328125 14.74609375 6.38328125 14.74609375 5.36328125 C8.80609375 5.36328125 2.86609375 5.36328125 -3.25390625 5.36328125 Z " fill="#177199" transform="translate(106.25390625,84.63671875)"/>
<path d="M0 0 C1.01900391 0.00064453 2.03800781 0.00128906 3.08789062 0.00195312 C4.15072266 0.01806641 5.21355469 0.03417969 6.30859375 0.05078125 C7.90864258 0.04594727 7.90864258 0.04594727 9.54101562 0.04101562 C17.47912847 0.09631597 17.47912847 0.09631597 19.74609375 2.36328125 C20.046875 4.45703125 20.046875 4.45703125 20.05859375 6.86328125 C20.08373047 8.054375 20.08373047 8.054375 20.109375 9.26953125 C19.98949219 9.96046875 19.86960937 10.65140625 19.74609375 11.36328125 C16.65720853 13.42253806 16.03673448 13.60231865 12.55859375 13.48828125 C10.67140625 13.42640625 10.67140625 13.42640625 8.74609375 13.36328125 C8.74609375 14.02328125 8.74609375 14.68328125 8.74609375 15.36328125 C10.16921875 15.30140625 10.16921875 15.30140625 11.62109375 15.23828125 C14.74609375 15.36328125 14.74609375 15.36328125 16.74609375 17.36328125 C16.94140625 20.62109375 16.94140625 20.62109375 16.87109375 24.48828125 C16.85304688 25.76960938 16.835 27.0509375 16.81640625 28.37109375 C16.79320313 29.35851562 16.77 30.3459375 16.74609375 31.36328125 C14.80859375 31.92578125 14.80859375 31.92578125 12.74609375 32.36328125 C11.74609375 31.36328125 11.74609375 31.36328125 11.6484375 28.859375 C11.68098958 26.02734375 11.71354167 23.1953125 11.74609375 20.36328125 C8.11609375 20.36328125 4.48609375 20.36328125 0.74609375 20.36328125 C0.74609375 23.99328125 0.74609375 27.62328125 0.74609375 31.36328125 C-0.57390625 31.69328125 -1.89390625 32.02328125 -3.25390625 32.36328125 C-5.18732572 30.42986178 -4.42839758 26.98849004 -4.44140625 24.42578125 C-4.45558594 23.15863281 -4.46976562 21.89148438 -4.484375 20.5859375 C-4.25390625 17.36328125 -4.25390625 17.36328125 -2.25390625 15.36328125 C0.87109375 15.23828125 0.87109375 15.23828125 3.74609375 15.36328125 C3.74609375 14.70328125 3.74609375 14.04328125 3.74609375 13.36328125 C3.13121094 13.4096875 2.51632812 13.45609375 1.8828125 13.50390625 C-4.70218211 13.797973 -4.70218211 13.797973 -7.31640625 11.73828125 C-8.51159426 8.71047162 -8.66603946 6.59165805 -8.25390625 3.36328125 C-5.89882133 0.09021839 -3.90280345 -0.01244109 0 0 Z M-3.25390625 5.36328125 C-3.25390625 6.35328125 -3.25390625 7.34328125 -3.25390625 8.36328125 C2.68609375 8.36328125 8.62609375 8.36328125 14.74609375 8.36328125 C14.74609375 7.37328125 14.74609375 6.38328125 14.74609375 5.36328125 C8.80609375 5.36328125 2.86609375 5.36328125 -3.25390625 5.36328125 Z " fill="#022C4E" transform="translate(9.25390625,84.63671875)"/>
<path d="M0 0 C3.0625 2.4375 3.0625 2.4375 5 5 C5.33 5.33 5.66 5.66 6 6 C6.54061124 10.78573887 6.70334561 14.74960781 4.3125 19 C0.62029705 22.19325661 -2.15164578 23.23824378 -7 22.9375 C-10.06338842 22.42210951 -11.25485984 21.82647841 -13.9375 20 C-16.65076306 16.05343554 -17.30278 12.75797147 -17 8 C-13.79652135 0.24420958 -7.80982307 -1.40273521 0 0 Z " fill="#14648B" transform="translate(25,10)"/>
<path d="M0 0 C3.18407594 1.79104272 4.52721167 3.20485599 6.375 6.3125 C7.48573543 11.08866236 6.83117971 14.66417547 4.25 18.8125 C1.78218313 21.2117664 0.34621742 22.2218099 -3 23 C-6.92774999 22.85972321 -9.40380795 22.34446652 -12.8125 20.375 C-15.64294784 17.30194234 -16.37104268 15.12316466 -17 11 C-16.38685095 6.98046736 -15.57761349 4.70396644 -13 1.5625 C-8.65626924 -0.69985977 -4.80031454 -0.78163016 0 0 Z " fill="#2CB5E3" transform="translate(113,10)"/>
</svg>
