<?xml version="1.0" encoding="UTF-8"?>
<svg version="1.1" xmlns="http://www.w3.org/2000/svg" width="512" height="512">
<path d="M0 0 C1.19670822 -0.00686325 2.39341644 -0.0137265 3.62638855 -0.02079773 C6.87675553 -0.03585386 10.12675827 -0.03758939 13.37714481 -0.03185534 C16.10767788 -0.02873949 18.83816043 -0.03488267 21.56868625 -0.04089409 C28.02125771 -0.05488917 34.47369665 -0.05342163 40.92626953 -0.04199219 C47.54228352 -0.03053083 54.15789118 -0.04456441 60.77385163 -0.07138866 C66.48978818 -0.09368034 72.20559846 -0.10015257 77.92157531 -0.09431225 C81.3196243 -0.09097157 84.71741343 -0.09316101 88.11542511 -0.11056328 C113.06938532 -0.20926807 132.55751875 2.45717761 151.51464844 20.40405273 C156.7248035 25.74492853 160.4293845 31.68790753 163.82714844 38.27905273 C164.31574341 39.21406616 164.31574341 39.21406616 164.81420898 40.16796875 C170.05188913 50.8571953 170.94157432 61.39148898 170.70214844 73.15405273 C170.68861328 74.43538086 170.67507813 75.71670898 170.66113281 77.03686523 C170.62617549 80.15971968 170.57710934 83.28164814 170.51464844 86.40405273 C171.47072998 86.7044043 172.42681152 87.00475586 173.41186523 87.31420898 C178.06976051 88.95028141 180.30111665 91.97698917 182.51464844 96.40405273 C182.81449569 100.98158288 182.79282071 105.56786896 182.82714844 110.15405273 C182.85615234 111.43022461 182.88515625 112.70639648 182.91503906 114.02124023 C182.99429039 125.70166616 182.99429039 125.70166616 178.51464844 130.40405273 C176.26464844 132.27905273 176.26464844 132.27905273 174.51464844 133.40405273 C174.91683594 134.33217773 174.91683594 134.33217773 175.32714844 135.27905273 C179.83800133 147.14971825 181.74898669 158.34921313 176.51464844 170.40405273 C171.81247591 179.56726074 164.29711967 186.14322899 154.51464844 189.40405273 C152.18497733 189.7620864 149.85181106 190.0987227 147.51464844 190.40405273 C147.4025 191.7150293 147.4025 191.7150293 147.28808594 193.05249023 C144.3074391 220.93030481 130.87015881 243.87816339 109.20605469 261.41577148 C106.51464844 263.40405273 106.51464844 263.40405273 103.87695312 264.55883789 C101.14877537 266.26200626 101.14877537 266.26200626 100.94702148 269.77392578 C100.94781108 271.15479411 100.97595099 272.5358236 101.02636719 273.91577148 C101.03344193 274.64399612 101.04051666 275.37222076 101.04780579 276.12251282 C101.07577762 278.4465751 101.13851193 280.76822004 101.20214844 283.09155273 C101.22722813 284.66768979 101.25004189 286.24386465 101.27050781 287.82006836 C101.32561218 291.68232672 101.41189616 295.54278006 101.51464844 299.40405273 C105.53656321 300.42800897 105.53656321 300.42800897 109.34277344 299.44311523 C109.81199219 298.97647461 110.28121094 298.50983398 110.76464844 298.02905273 C116.15479613 292.88391176 122.12051715 294.14502677 129.26464844 294.09155273 C130.54082031 294.06254883 131.81699219 294.03354492 133.13183594 294.00366211 C144.84074098 293.92421756 144.84074098 293.92421756 149.51464844 298.40405273 C152.66209177 302.29694317 153.73190595 304.46562246 153.51464844 309.40405273 C154.81402344 309.48655273 156.11339844 309.56905273 157.45214844 309.65405273 C176.04398505 311.62074913 192.57548065 317.68716272 206.51464844 330.40405273 C207.12308594 330.9209668 207.73152344 331.43788086 208.35839844 331.97045898 C221.25412677 343.6645399 229.26902475 362.42787913 230.79163742 379.51193047 C230.89950262 382.67296488 230.92054018 385.82108805 230.90283203 388.98388672 C230.91071747 390.75718102 230.91071747 390.75718102 230.91876221 392.56629944 C230.93183986 396.42772085 230.92327149 400.28872177 230.91308594 404.15014648 C230.91375594 406.85246611 230.91801881 409.55477851 230.92178345 412.25709534 C230.92721288 417.89784218 230.92011839 423.53847044 230.90576172 429.17919922 C230.88938493 435.68858568 230.89477121 442.19769091 230.91124094 448.70707077 C230.92487027 454.32014345 230.92677009 459.93313171 230.91892493 465.54621559 C230.9142634 468.88859282 230.91477187 472.23073197 230.92353439 475.57311821 C230.93115089 479.29226653 230.91954345 483.01087257 230.90283203 486.72998047 C230.90890472 487.82877533 230.91497742 488.92757019 230.92123413 490.05966187 C230.8658 496.71733434 230.29073079 501.42088359 225.57714844 506.48608398 C224.89652344 507.05713867 224.21589844 507.62819336 223.51464844 508.21655273 C222.83402344 508.80049805 222.15339844 509.38444336 221.45214844 509.98608398 C217.45964492 512.908017 213.33044355 512.55823703 208.60253906 512.56518555 C207.7973735 512.57015045 206.99220795 512.57511536 206.16264343 512.58023071 C203.49871976 512.59483849 200.83485558 512.60165085 198.17089844 512.60717773 C196.32149249 512.61292887 194.47208657 512.6186866 192.62268066 512.62445068 C188.74568402 512.63495572 184.86870809 512.64080212 180.99169922 512.64428711 C176.01807163 512.64978092 171.04471656 512.67382987 166.07117462 512.70225906 C162.25196524 512.72085616 158.43282201 512.7260894 154.61357117 512.72762299 C152.77950037 512.730655 150.94543089 512.73870194 149.11140442 512.75180817 C146.5496423 512.76881305 143.98855305 512.76700263 141.42675781 512.76049805 C140.28583931 512.77432022 140.28583931 512.77432022 139.12187195 512.78842163 C136.18122447 512.76496449 134.03831152 512.73809267 131.5201416 511.1317749 C130.51464844 509.40405273 130.51464844 509.40405273 130.51464844 505.40405273 C123.91464844 505.40405273 117.31464844 505.40405273 110.51464844 505.40405273 C110.18464844 507.05405273 109.85464844 508.70405273 109.51464844 510.40405273 C106.89021481 513.02848636 105.00947391 512.65493099 101.43566698 512.69018793 C100.57605932 512.68845497 99.71645166 512.686722 98.83079529 512.68493652 C97.46568356 512.69384989 97.46568356 512.69384989 96.07299381 512.70294333 C93.00459922 512.7203719 89.93636018 512.72333839 86.86791992 512.72631836 C84.67535567 512.73557112 82.48279466 512.74561995 80.29023743 512.75640869 C74.31886889 512.78270147 68.34754537 512.79555608 62.37612796 512.80443001 C58.64626948 512.81028621 54.91642338 512.81849496 51.18657112 512.82743835 C39.51952566 512.8548043 27.85250608 512.87415982 16.18543094 512.88184214 C14.84196372 512.88272907 13.49849651 512.88362219 12.1550293 512.88452148 C11.48862338 512.88496434 10.82221747 512.8854072 10.13561744 512.88586348 C-0.65093313 512.8937513 -11.43721279 512.92863058 -22.22365881 512.97524053 C-33.30127936 513.02272141 -44.37878736 513.04707937 -55.45651382 513.04992437 C-61.67484286 513.05202058 -67.89279032 513.06383664 -74.11102486 513.0995636 C-79.96423461 513.13253666 -85.81677629 513.13683107 -91.67004585 513.11928558 C-93.81582428 513.11774523 -95.96163867 513.1264255 -98.10732651 513.14620209 C-118.07539624 513.31941501 -118.07539624 513.31941501 -123.97554684 508.13277435 C-124.4737824 507.56229622 -124.97201796 506.99181808 -125.48535156 506.40405273 C-125.94269715 505.89873268 -126.40004274 505.39341263 -126.87124729 504.87277985 C-130.59225816 499.69648173 -130.04710814 493.48434722 -130.00292969 487.37280273 C-130.00993896 486.17667862 -130.01694824 484.9805545 -130.02416992 483.7481842 C-130.0387179 480.48094588 -130.03536132 477.21436013 -130.02265358 473.94713211 C-130.01247062 470.50950073 -130.02193558 467.07191058 -130.02819824 463.63427734 C-130.03546719 457.85416946 -130.02591513 452.07426622 -130.00683594 446.29418945 C-129.98515087 439.64870598 -129.99206005 433.00371511 -130.01414156 426.35824394 C-130.03241633 420.62538942 -130.03479308 414.89268152 -130.02438688 409.15980721 C-130.018207 405.74830212 -130.01715997 402.33702668 -130.03053284 398.92553711 C-130.10401155 371.60287523 -130.10401155 371.60287523 -125.48535156 359.40405273 C-125.20516174 358.65649216 -124.92497192 357.90893158 -124.6362915 357.13871765 C-121.25226258 348.97134596 -116.38620701 341.92488549 -110.48535156 335.40405273 C-109.80859375 334.63448242 -109.13183594 333.86491211 -108.43457031 333.07202148 C-94.60165955 318.22756332 -76.01927693 312.23509121 -56.48535156 309.40405273 C-55.49535156 309.40405273 -54.50535156 309.40405273 -53.48535156 309.40405273 C-53.29972656 308.20780273 -53.11410156 307.01155273 -52.92285156 305.77905273 C-51.68748453 300.70232543 -48.6883239 298.26881454 -44.48535156 295.40405273 C-40.07523934 293.19899662 -34.14037608 294.12932594 -29.29785156 294.09155273 C-28.07775391 294.06254883 -26.85765625 294.03354492 -25.60058594 294.00366211 C-18.73648872 293.95519211 -13.94179037 294.02152952 -8.48535156 298.40405273 C-7.99035156 299.88905273 -7.99035156 299.88905273 -7.48535156 301.40405273 C-4.51535156 299.91905273 -4.51535156 299.91905273 -1.48535156 298.40405273 C-1.15535156 287.51405273 -0.82535156 276.62405273 -0.48535156 265.40405273 C-2.13535156 264.74405273 -3.78535156 264.08405273 -5.48535156 263.40405273 C-9.33185818 260.61845576 -12.90053447 257.5167738 -16.48535156 254.40405273 C-17.43474609 253.58420898 -17.43474609 253.58420898 -18.40332031 252.74780273 C-35.23546604 237.07511598 -45.53872427 213.17043907 -46.48535156 190.40405273 C-47.39414063 190.2919043 -47.39414063 190.2919043 -48.32128906 190.17749023 C-58.14576819 188.63580274 -65.72217459 184.29082208 -72.01660156 176.55639648 C-78.41126801 167.185489 -79.33961398 157.48698353 -78.48535156 146.40405273 C-77.50080878 142.85074833 -76.12439524 139.69530509 -74.48535156 136.40405273 C-74.15535156 135.41405273 -73.82535156 134.42405273 -73.48535156 133.40405273 C-74.43410156 132.66155273 -75.38285156 131.91905273 -76.36035156 131.15405273 C-78.94396762 129.13209234 -80.25936708 127.45849256 -81.48535156 124.40405273 C-81.91760193 119.76917617 -81.80957172 115.11945349 -81.79785156 110.46655273 C-81.81396484 109.19102539 -81.83007812 107.91549805 -81.84667969 106.60131836 C-81.84732422 105.37219727 -81.84796875 104.14307617 -81.84863281 102.87670898 C-81.85161377 101.75530518 -81.85459473 100.63390137 -81.85766602 99.47851562 C-81.28619978 94.7595161 -79.44482882 92.24652057 -75.92285156 89.15405273 C-73.48535156 87.40405273 -73.48535156 87.40405273 -71.48535156 86.40405273 C-71.44796875 85.0853418 -71.41058594 83.76663086 -71.37207031 82.40795898 C-70.83894527 66.76278944 -70.21960144 51.39199608 -62.48535156 37.40405273 C-62.05480469 36.57776367 -61.62425781 35.75147461 -61.18066406 34.90014648 C-51.85712933 18.07037616 -36.79049814 7.29656614 -18.54278564 1.84434509 C-12.31003795 0.17635107 -6.42356443 -0.02615165 0 0 Z " fill="#010000" transform="translate(129.4853515625,-0.404052734375)"/>
<path d="M0 0 C1.19753906 -0.01546875 2.39507812 -0.0309375 3.62890625 -0.046875 C10.3996929 -0.01688259 15.19191422 0.10513328 20.5 4.5 C25.05698981 10.64801669 25.03391305 15.84801065 24.890625 23.33984375 C24.88496521 24.46193741 24.87930542 25.58403107 24.87347412 26.74012756 C24.85117341 30.30636151 24.80098649 33.87157228 24.75 37.4375 C24.72992695 39.86261565 24.7116776 42.28774712 24.6953125 44.71289062 C24.65473951 50.6426336 24.57643164 56.57017832 24.5 62.5 C33.74 62.5 42.98 62.5 52.5 62.5 C52.46519531 58.88804687 52.43039062 55.27609375 52.39453125 51.5546875 C52.37112349 48.04981273 52.35291379 44.54494672 52.33520508 41.04003906 C52.32013466 38.60738211 52.29967477 36.17475226 52.27368164 33.7421875 C52.2372226 30.24211939 52.2202558 26.7424111 52.20703125 23.2421875 C52.19154739 22.15759247 52.17606354 21.07299744 52.16011047 19.95553589 C52.15887615 14.39595565 52.26230576 10.25375359 55.5 5.5 C62.13162933 -0.48464111 67.59747506 0.25226441 76.25 0.1875 C77.52617187 0.15849609 78.80234375 0.12949219 80.1171875 0.09960938 C91.78339826 0.0204545 91.78339826 0.0204545 96.5 4.5 C100.34382645 8.75937525 101.62785937 11.73983097 101.61352539 17.43041992 C101.61344986 18.43123093 101.61337433 19.43204193 101.61329651 20.46318054 C101.60813522 21.54138565 101.60297394 22.61959076 101.59765625 23.73046875 C101.59553383 25.38880486 101.59553383 25.38880486 101.59336853 27.0806427 C101.58776514 30.61628917 101.57521204 34.15187262 101.5625 37.6875 C101.55748544 40.08268138 101.55292246 42.47786375 101.54882812 44.87304688 C101.53779461 50.74871947 101.52105316 56.62435523 101.5 62.5 C104.44494629 62.4420166 104.44494629 62.4420166 107.38989258 62.3840332 C112.29483674 62.65359799 115.75994216 64.85647145 119.375 68 C123.99990439 73.44106399 122.76135554 80.52392517 122.8125 87.3125 C122.84150391 88.58416016 122.87050781 89.85582031 122.90039062 91.16601562 C122.97936762 102.7634835 122.97936762 102.7634835 118.5 107.5 C115.84200077 109.91636294 115.14705667 110.5 111.5 110.5 C111.52356567 112.4505127 111.52356567 112.4505127 111.54760742 114.44042969 C111.60236155 119.31585368 111.63651393 124.1912511 111.66479492 129.06689453 C111.67977873 131.16752714 111.70017281 133.26812901 111.72631836 135.36865234 C111.96187443 154.79509986 110.7784496 169.39982402 96.96875 184.19921875 C91.51795777 189.27915012 85.56558273 192.29136632 78.5 194.5 C78.470271 195.49012085 78.470271 195.49012085 78.43994141 196.50024414 C78.34406648 199.52136364 78.23464247 202.54185008 78.125 205.5625 C78.0940625 206.60083984 78.063125 207.63917969 78.03125 208.70898438 C77.52972913 221.87390715 77.52972913 221.87390715 73.984375 226.4609375 C73.12585938 227.16089844 73.12585938 227.16089844 72.25 227.875 C71.68796875 228.35710937 71.1259375 228.83921875 70.546875 229.3359375 C67.9272794 230.82570752 65.46059816 231.0595846 62.5 231.5 C62.50553076 232.34980029 62.50553076 232.34980029 62.51117325 233.21676826 C62.59958107 247.01343301 62.66548162 260.81004801 62.70724869 274.6069355 C62.728126 281.27909324 62.75644684 287.95100685 62.80175781 294.62304688 C62.8452094 301.06156296 62.86913605 307.49988239 62.87950897 313.93853378 C62.88690148 316.39534476 62.90133718 318.85214493 62.92292023 321.30887222 C62.95194397 324.7492832 62.95595628 328.18888089 62.95410156 331.62939453 C62.96848267 332.64575485 62.98286377 333.66211517 62.99768066 334.70927429 C62.96299531 340.65276288 62.41032213 343.94962788 58.5 348.5 C53.69541613 353.24136566 48.71936214 353.01972728 42.3125 353.046875 C41.054375 353.03140625 39.79625 353.0159375 38.5 353 C37.241875 353.01546875 35.98375 353.0309375 34.6875 353.046875 C23.30461628 352.99864244 23.30461628 352.99864244 18.5 348.5 C14.40279284 344.07058686 13.37286014 340.84028242 13.37974548 334.91888428 C13.37837082 334.00465698 13.37699615 333.09042969 13.37557983 332.14849854 C13.38097275 330.65525055 13.38097275 330.65525055 13.38647461 329.13183594 C13.38632858 328.07786621 13.38618256 327.02389648 13.3860321 325.93798828 C13.3867289 322.4534296 13.39451047 318.96892434 13.40234375 315.484375 C13.40420876 313.06870554 13.40563227 310.6530357 13.40663147 308.23736572 C13.41045014 301.87844804 13.42027492 295.51955319 13.43133545 289.16064453 C13.44156351 282.67220366 13.44613209 276.18375911 13.45117188 269.6953125 C13.46189774 256.96353193 13.47877425 244.23176718 13.5 231.5 C12.56542969 231.38011719 11.63085938 231.26023437 10.66796875 231.13671875 C5.71022789 230.14028008 3.64598589 227.16414697 0.8671875 223.12890625 C-1.19143121 217.664744 -0.81478166 212.40815663 -0.6875 206.625 C-0.67396484 205.4596875 -0.66042969 204.294375 -0.64648438 203.09375 C-0.61125821 200.22868882 -0.56199715 197.36458623 -0.5 194.5 C-1.09603027 194.3153418 -1.69206055 194.13068359 -2.30615234 193.94042969 C-14.76971964 189.9571495 -23.26646753 182.56061958 -30.140625 171.515625 C-33.82478673 163.3427145 -34.91870863 155.39058672 -34.80078125 146.50390625 C-34.80841183 144.46158526 -34.8168997 142.41926732 -34.82617188 140.37695312 C-34.82394996 137.20133806 -34.81218933 134.02633295 -34.78491211 130.85083008 C-34.76426795 127.75539213 -34.78015713 124.66180494 -34.80078125 121.56640625 C-34.78227615 120.61536514 -34.76377106 119.66432404 -34.7447052 118.6844635 C-34.77299766 116.15089782 -34.85006905 113.94952159 -35.5 111.5 C-38.27711996 108.96943265 -38.27711996 108.96943265 -41.5 107.5 C-46.68139223 100.77819386 -46.70491249 95.37651926 -46.75 87.1875 C-46.7809375 85.80014648 -46.7809375 85.80014648 -46.8125 84.38476562 C-46.85346845 77.17943906 -45.87307784 72.38617575 -41.1875 66.6875 C-35.82218582 62.3203838 -31.08819467 62.42551887 -24.5 62.5 C-24.50888245 61.89136108 -24.51776489 61.28272217 -24.5269165 60.65563965 C-24.6157068 54.29623852 -24.67586542 47.93701475 -24.71972656 41.57714844 C-24.73978826 39.20663291 -24.76704426 36.83616655 -24.80175781 34.46582031 C-24.85051418 31.05000649 -24.87302399 27.63484945 -24.890625 24.21875 C-24.91127014 23.16635132 -24.93191528 22.11395264 -24.95318604 21.02966309 C-24.95509574 14.706004 -24.28339107 9.71741346 -20.5 4.5 C-14.38710472 -0.69267449 -7.7320745 -0.0998761 0 0 Z " fill="#010102" transform="translate(389.5,159.5)"/>
<path d="M0 0 C0.79794039 0.00223072 1.59588078 0.00446144 2.41800117 0.00675976 C3.68004214 0.00441978 3.68004214 0.00441978 4.96757889 0.00203252 C7.80898055 -0.00198111 10.65032951 0.00121356 13.49173164 0.00434887 C15.51978779 0.00299499 17.54784369 0.00121514 19.57589912 -0.00096118 C25.10053035 -0.0055371 30.62514299 -0.00374531 36.14977455 -0.0005821 C41.91756937 0.00194069 47.68536255 -0.00039581 53.45315742 -0.00196826 C63.14114863 -0.0037902 72.82913222 -0.00138303 82.51712227 0.00337231 C93.73529673 0.00881498 104.95345302 0.00705234 116.17162704 0.00154591 C125.78432369 -0.00298455 135.39701485 -0.00363611 145.00971222 -0.00101542 C150.75927593 0.00054772 156.50883108 0.00074009 162.25839424 -0.00255191 C167.66240736 -0.00542965 173.06639693 -0.00345674 178.47040749 0.00234234 C180.45988361 0.00367047 182.4493617 0.00327495 184.43883705 0.00107968 C187.14253097 -0.00162978 189.84614816 0.00174678 192.54983711 0.00675976 C193.3477775 0.00452904 194.14571789 0.00229832 194.96783829 0 C200.36976931 0.01959357 200.36976931 0.01959357 201.48391914 1.13374341 C201.57967224 2.63925514 201.60580101 4.1492537 201.60417366 5.65780652 C201.60623566 7.12393132 201.60623566 7.12393132 201.60833931 8.6196748 C201.60474403 9.70076519 201.60114876 10.78185559 201.59744453 11.8957063 C201.59759056 13.02726651 201.59773659 14.15882672 201.59788704 15.32467663 C201.59718733 19.08527011 201.58939225 22.84581477 201.58157539 26.60639966 C201.57971142 29.20571884 201.57828742 31.80503837 201.57728767 34.40435803 C201.57385255 40.55962917 201.5659617 46.71488 201.55593818 52.87014347 C201.54477608 59.87607686 201.53926635 66.88201108 201.53424275 73.88795114 C201.52377906 88.30322474 201.50618022 102.71848344 201.48391914 117.13374341 C200.89377022 117.14832592 200.30362129 117.16290844 199.69558907 117.17793286 C197.02020685 117.25243184 194.34607022 117.34908336 191.67141914 117.44624341 C190.74264961 117.468802 189.81388008 117.49136059 188.85696602 117.51460278 C187.96429024 117.550052 187.07161446 117.58550122 186.15188789 117.62202466 C185.32970772 117.64820874 184.50752754 117.67439282 183.66043282 117.70137036 C180.97480452 118.23488104 180.101663 118.94660344 178.48391914 121.13374341 C178.15391914 122.45374341 177.82391914 123.77374341 177.48391914 125.13374341 C170.88391914 125.13374341 164.28391914 125.13374341 157.48391914 125.13374341 C156.49391914 123.15374341 155.50391914 121.17374341 154.48391914 119.13374341 C151.67809859 117.73083313 149.34707132 117.99283165 146.20715523 117.97552502 C145.55616155 117.97058704 144.90516788 117.96564907 144.23444712 117.96056145 C142.0433558 117.94514884 139.85229387 117.93681571 137.66116524 117.92842114 C136.09438504 117.91884557 134.52760745 117.90883568 132.9608326 117.89842236 C128.69870687 117.87133244 124.43657002 117.85034505 120.17440557 117.83042037 C115.72340768 117.80858599 111.27244422 117.78118486 106.82147408 117.75436413 C98.38901769 117.70440273 89.95654222 117.65947672 81.52404845 117.61634177 C71.92561301 117.56699882 62.32721212 117.5120698 52.72881007 117.45666218 C32.98054526 117.34278922 13.23224749 117.23596178 -6.51608086 117.13374341 C-6.53941055 102.02649649 -6.55706038 86.91925098 -6.56789303 71.8119899 C-6.57305584 64.79789707 -6.58009824 57.7838154 -6.59152031 50.76972973 C-6.60252773 44.00706273 -6.60835705 37.24440976 -6.6109581 30.48173344 C-6.61281289 27.8952206 -6.61643452 25.30870843 -6.62181091 22.72220051 C-6.62901737 19.11335485 -6.63007197 15.50455793 -6.62960625 11.8957063 C-6.63320152 10.8146159 -6.6367968 9.73352551 -6.64050102 8.6196748 C-6.63912636 7.64225827 -6.63775169 6.66484173 -6.63633537 5.65780652 C-6.63725717 4.80330442 -6.63817896 3.94880232 -6.63912868 3.06840622 C-6.3768995 -1.05458446 -3.44962796 0.01251229 0 0 Z " fill="#FEE076" transform="translate(82.51608085632324,379.8662565946579)"/>
<path d="M0 0 C53.79 0 107.58 0 163 0 C163 83.24434622 163 83.24434622 140.3125 107.3125 C122.56264526 124.04414602 99.87692895 130.72171779 75.8828125 130.33203125 C54.91660298 129.50144943 36.35122847 119.95384616 22 105 C21.32582031 104.32195312 20.65164062 103.64390625 19.95703125 102.9453125 C-5.73001803 75.61383843 0 33.72493079 0 0 Z " fill="#D58777" transform="translate(98,134)"/>
<path d="M0 0 C2.46691992 12.90273871 4.15887292 25.82421338 5.625 38.875 C5.84330728 40.77609256 6.06205549 42.67713453 6.28125 44.578125 C7.28988933 53.37624479 8.28228375 62.17234917 9 71 C8.22809326 71.01458252 7.45618652 71.02916504 6.66088867 71.04418945 C3.16924907 71.11858033 -0.3214249 71.2152709 -3.8125 71.3125 C-5.02744141 71.33505859 -6.24238281 71.35761719 -7.49414062 71.38085938 C-8.65751953 71.41630859 -9.82089844 71.45175781 -11.01953125 71.48828125 C-12.62985229 71.52755737 -12.62985229 71.52755737 -14.27270508 71.56762695 C-17.00493609 71.78870411 -17.00493609 71.78870411 -18.8503418 73.34838867 C-20.65805774 75.94537281 -20.3765137 77.92513813 -20 81 C-19.01896157 83.27891657 -19.01896157 83.27891657 -17 85 C-14.46107992 85.4054013 -12.34734347 85.54749984 -9.80574036 85.51898193 C-9.06813766 85.52648319 -8.33053496 85.53398444 -7.57058066 85.541713 C-5.0920992 85.5620581 -2.61452663 85.55387459 -0.13598633 85.54589844 C1.63784189 85.55462978 3.41166222 85.56511403 5.18547058 85.57722473 C10.00751549 85.60515919 14.82930436 85.60848778 19.65141845 85.60750484 C24.68835082 85.61062757 29.72516677 85.63623236 34.76203918 85.65948486 C44.3029993 85.70009762 53.84389097 85.72039796 63.38492423 85.73345876 C74.24579186 85.74931096 85.10654272 85.78771904 95.96734273 85.82805204 C118.31152608 85.91052318 140.65569798 85.96377008 163 86 C163 91.94 163 97.88 163 104 C85.78 104 8.56 104 -71 104 C-71 98.06 -71 92.12 -71 86 C-69.31390625 85.95101562 -67.6278125 85.90203125 -65.890625 85.8515625 C-63.67706684 85.77652663 -61.46352598 85.70097915 -59.25 85.625 C-57.58324219 85.57859375 -57.58324219 85.57859375 -55.8828125 85.53125 C-54.81289062 85.49257812 -53.74296875 85.45390625 -52.640625 85.4140625 C-51.65610352 85.3826416 -50.67158203 85.3512207 -49.65722656 85.31884766 C-46.93023791 84.99162906 -45.24891228 84.57088394 -43 83 C-41.99917465 79.57756686 -41.99917465 79.57756686 -42 76 C-43.72226496 72.75150023 -43.72226496 72.75150023 -47 72 C-49.05893621 71.77674186 -51.12233653 71.59294241 -53.1875 71.4375 C-54.81751953 71.31181641 -54.81751953 71.31181641 -56.48046875 71.18359375 C-57.31191406 71.12300781 -58.14335938 71.06242187 -59 71 C-59.08840346 67.06264583 -59.1408564 63.12555276 -59.1875 59.1875 C-59.21263672 58.08728516 -59.23777344 56.98707031 -59.26367188 55.85351562 C-59.40357913 40.04399537 -53.99402919 26.44352953 -43 15 C-30.03286198 3.76443732 -16.85311823 -0.42452418 0 0 Z " fill="#E9F5FE" transform="translate(134,15)"/>
<path d="M0 0 C37.62 0 75.24 0 114 0 C114 51.6 114 51.6 104.25 62 C98.10925346 66.76577862 91.98191694 69.24494183 84.17578125 69.09765625 C83.20165283 69.08355713 82.22752441 69.06945801 81.22387695 69.05493164 C80.48999756 69.0368042 79.75611816 69.01867676 79 69 C78.98541748 68.25838623 78.97083496 67.51677246 78.95581055 66.75268555 C78.88140543 63.39709369 78.78471994 60.04250506 78.6875 56.6875 C78.66494141 55.52025391 78.64238281 54.35300781 78.61914062 53.15039062 C78.58369141 52.03212891 78.54824219 50.91386719 78.51171875 49.76171875 C78.48553467 48.73006592 78.45935059 47.69841309 78.43237305 46.63549805 C78.20238962 43.9843201 78.20238962 43.9843201 76.65161133 42.16723633 C74.0279271 40.31301101 72.11599281 40.55485817 69 41 C66.31961137 43.08474671 65.14446975 44.29677605 64.45410156 47.65722656 C64.4331543 48.64174805 64.41220703 49.62626953 64.390625 50.640625 C64.35839844 51.71054687 64.32617188 52.78046875 64.29296875 53.8828125 C64.27878906 54.99398437 64.26460938 56.10515625 64.25 57.25 C64.20552734 58.93996094 64.20552734 58.93996094 64.16015625 60.6640625 C64.0895225 63.44232338 64.04248981 66.2211662 64 69 C59.05 69 54.1 69 49 69 C48.96261719 67.23011719 48.92523438 65.46023438 48.88671875 63.63671875 C48.821071 61.32029088 48.75462326 59.00388558 48.6875 56.6875 C48.65366211 54.93663086 48.65366211 54.93663086 48.61914062 53.15039062 C48.58369141 52.03212891 48.54824219 50.91386719 48.51171875 49.76171875 C48.48553467 48.73006592 48.45935059 47.69841309 48.43237305 46.63549805 C48.20238962 43.9843201 48.20238962 43.9843201 46.65161133 42.16723633 C44.0279271 40.31301101 42.11599281 40.55485817 39 41 C36.31961137 43.08474671 35.14446975 44.29677605 34.45410156 47.65722656 C34.4331543 48.64174805 34.41220703 49.62626953 34.390625 50.640625 C34.35839844 51.71054687 34.32617188 52.78046875 34.29296875 53.8828125 C34.27878906 54.99398437 34.26460938 56.10515625 34.25 57.25 C34.20552734 58.93996094 34.20552734 58.93996094 34.16015625 60.6640625 C34.08951088 63.44278021 34.03678723 66.22066148 34 69 C23.72230091 69.40239513 16.53333678 67.83054963 8.5703125 60.87890625 C-7.17849443 44.23593628 0 23.00461368 0 0 Z " fill="#E8F4FD" transform="translate(371,271)"/>
<path d="M0 0 C19.07824764 2.38478095 35.42105599 6.83048791 48 22 C58.40749165 36.0794459 62.35639209 50.28513667 62.1953125 67.5703125 C62.1924826 68.73255341 62.18965271 69.89479431 62.18673706 71.09225464 C62.17562659 74.76994537 62.150539 78.44738405 62.125 82.125 C62.1149584 84.63280896 62.10583462 87.14062177 62.09765625 89.6484375 C62.07742688 95.76579801 62.03826019 101.88262 62 108 C46.82 108 31.64 108 16 108 C15.98582031 104.1225 15.97164063 100.245 15.95703125 96.25 C15.92638736 92.48021839 15.8873043 88.71061172 15.84741211 84.94091797 C15.82426482 82.32802551 15.80984413 79.71504018 15.80444336 77.10205078 C15.79513064 73.33828064 15.75408396 69.57596477 15.70703125 65.8125 C15.7109639 64.65073242 15.71489655 63.48896484 15.71894836 62.29199219 C15.58833785 54.97432147 14.89736862 50.58235598 10 45 C6.7 43.35 3.4 41.7 0 40 C0 26.8 0 13.6 0 0 Z " fill="#F9626D" transform="translate(283,325)"/>
<path d="M0 0 C0 13.2 0 26.4 0 40 C-3.3 41.65 -6.6 43.3 -10 45 C-15.65079951 51.46624494 -15.73586749 57.23545008 -15.70703125 65.59375 C-15.72215256 66.78101685 -15.73727386 67.96828369 -15.75285339 69.19152832 C-15.7956343 72.96121355 -15.80455982 76.73009648 -15.8125 80.5 C-15.83565154 83.06512535 -15.86101822 85.63023173 -15.88867188 88.1953125 C-15.95557546 94.46397544 -15.97663775 100.73042075 -16 107 C-31.18 107 -46.36 107 -62 107 C-62.06917646 99.52894272 -62.12882071 92.05901395 -62.16479492 84.58789062 C-62.17980477 82.05074277 -62.20021897 79.51362052 -62.22631836 76.9765625 C-62.26304605 73.31243538 -62.27980508 69.64865377 -62.29296875 65.984375 C-62.30845261 64.86512634 -62.32393646 63.74587769 -62.33988953 62.5927124 C-62.34354915 45.14654143 -56.12469273 29.9401174 -43.82421875 17.625 C-31.57817303 6.24278324 -16.76821048 0 0 0 Z " fill="#FB7F86" transform="translate(77,325)"/>
<path d="M0 0 C2.46691992 12.90273871 4.15887292 25.82421338 5.625 38.875 C5.84330728 40.77609256 6.06205549 42.67713453 6.28125 44.578125 C7.28988933 53.37624479 8.28228375 62.17234917 9 71 C8.22809326 71.01458252 7.45618652 71.02916504 6.66088867 71.04418945 C3.16924907 71.11858033 -0.3214249 71.2152709 -3.8125 71.3125 C-5.02744141 71.33505859 -6.24238281 71.35761719 -7.49414062 71.38085938 C-8.65751953 71.41630859 -9.82089844 71.45175781 -11.01953125 71.48828125 C-12.62985229 71.52755737 -12.62985229 71.52755737 -14.27270508 71.56762695 C-17.00177444 71.78456022 -17.00177444 71.78456022 -18.8112793 73.34448242 C-20.19998496 75.10586484 -20.19998496 75.10586484 -21 78 C-24.27036728 78.14510162 -27.53991007 78.23399373 -30.8125 78.3125 C-31.74126953 78.35439453 -32.67003906 78.39628906 -33.62695312 78.43945312 C-36.17672132 78.48547782 -38.49512676 78.4849824 -41 78 C-42.94921875 75.54296875 -42.94921875 75.54296875 -44 73 C-47.16245541 71.9458482 -49.86948218 71.68724328 -53.1875 71.4375 C-54.81751953 71.31181641 -54.81751953 71.31181641 -56.48046875 71.18359375 C-57.31191406 71.12300781 -58.14335938 71.06242187 -59 71 C-59.08840346 67.06264583 -59.1408564 63.12555276 -59.1875 59.1875 C-59.21263672 58.08728516 -59.23777344 56.98707031 -59.26367188 55.85351562 C-59.40357913 40.04399537 -53.99402919 26.44352953 -43 15 C-30.03286198 3.76443732 -16.85311823 -0.42452418 0 0 Z " fill="#FDDF76" transform="translate(134,15)"/>
<path d="M0 0 C2.07530583 -0.02299355 4.15068559 -0.03937613 6.22607422 -0.05297852 C7.38178925 -0.06281265 8.53750427 -0.07264679 9.72824097 -0.08277893 C22.9518936 0.25179333 35.17093945 7.33898616 44.6875 16.0625 C59.7663358 31.95348136 60 49.03438787 60 71 C37.56 71 15.12 71 -8 71 C-6.875 56.375 -6.875 56.375 -6.24389648 51.19995117 C-6.10382675 50.03972946 -5.96375702 48.87950775 -5.81944275 47.68412781 C-5.67148758 46.48254532 -5.52353241 45.28096283 -5.37109375 44.04296875 C-5.21713638 42.77399246 -5.06317902 41.50501617 -4.90455627 40.19758606 C-4.50053966 36.8717233 -4.09409552 33.54617673 -3.68640137 30.22076416 C-3.26865811 26.80823811 -2.85420699 23.39531231 -2.43945312 19.98242188 C-1.62928704 13.32124809 -0.8159104 6.66047248 0 0 Z " fill="#FEE076" transform="translate(225,15)"/>
<path d="M0 0 C19.8 0 39.6 0 60 0 C60 5.56874127 59.97438836 10.31988856 59.265625 15.71313477 C59.10545898 16.95374161 58.94529297 18.19434845 58.78027344 19.47254944 C58.60364032 20.79551836 58.42687961 22.11847026 58.25 23.44140625 C58.07013592 24.81853294 57.89078255 26.19572643 57.71191406 27.57298279 C57.24351985 31.16894418 56.76826781 34.76396572 56.29150391 38.35882568 C55.80471418 42.03879704 55.32446035 45.71962103 54.84375 49.40039062 C53.90283721 56.60121243 52.95115845 63.80049482 52 71 C37.48 71 22.96 71 8 71 C4.51707887 47.78052578 4.51707887 47.78052578 3.61328125 40.68359375 C3.50654587 39.85013931 3.39981049 39.01668488 3.2898407 38.15797424 C3.07109491 36.44068413 2.85361003 34.72323289 2.63745117 33.00561523 C2.30849543 30.40585156 1.96966691 27.80748026 1.63085938 25.20898438 C1.41606293 23.51309719 1.20184868 21.81713614 0.98828125 20.12109375 C0.88832352 19.36565781 0.78836578 18.61022186 0.68537903 17.83189392 C-0.06129365 11.75875929 0 6.25066985 0 0 Z " fill="#FDC143" transform="translate(150,15)"/>
<path d="M0 0 C1.03511719 0.3609375 2.07023438 0.721875 3.13671875 1.09375 C13.3878303 4.36888042 23.05006668 5.49445057 33.8125 5.5 C35.59756958 5.50870117 35.59756958 5.50870117 37.41870117 5.51757812 C45.91739106 5.4002982 53.76539378 4.04764102 62 2 C62.8763208 1.78794922 63.7526416 1.57589844 64.65551758 1.35742188 C66.4405617 0.91916222 68.22108693 0.4625174 70 0 C70.0093457 0.80630859 70.01869141 1.61261719 70.02832031 2.44335938 C70.0823104 6.12950585 70.16590448 9.81442241 70.25 13.5 C70.26417969 14.7684375 70.27835937 16.036875 70.29296875 17.34375 C70.4827036 24.62956808 70.92295033 29.86965357 75 36 C76.92091465 37.55882342 78.86085214 38.73595808 81 40 C81 40.66 81 41.32 81 42 C77.90094757 43.13943118 74.79495465 44.25870838 71.6875 45.375 C70.82576172 45.69210937 69.96402344 46.00921875 69.07617188 46.3359375 C57.8710296 50.33479868 47.30688439 51.39083993 35.4375 51.375 C34.77903076 51.37478851 34.12056152 51.37457703 33.44213867 51.37435913 C17.07856936 51.32205164 3.13056429 47.93546252 -12 42 C-11.22011719 41.2265625 -10.44023437 40.453125 -9.63671875 39.65625 C-3.69258043 33.66808102 -0.82856713 29.13794396 -0.5859375 20.60546875 C-0.54726562 19.40341797 -0.50859375 18.20136719 -0.46875 16.96289062 C-0.4378125 15.71701172 -0.406875 14.47113281 -0.375 13.1875 C-0.33632812 11.92228516 -0.29765625 10.65707031 -0.2578125 9.35351562 C-0.16369343 6.23582149 -0.07805639 3.11813086 0 0 Z " fill="#B85C4B" transform="translate(145,273)"/>
<path d="M0 0 C2.8875 1.093125 5.775 2.18625 8.75 3.3125 C42.96867334 16.01879501 76.3081161 12.25159415 110 0 C110 12.54 110 25.08 110 38 C73.7 38 37.4 38 0 38 C0 25.46 0 12.92 0 0 Z " fill="#FB7F86" transform="translate(125,327)"/>
<path d="M0 0 C45.54 0 91.08 0 138 0 C138 5.94 138 11.88 138 18 C92.46 18 46.92 18 0 18 C0 12.06 0 6.12 0 0 Z " fill="#60B7FF" transform="translate(359,238)"/>
<path d="M0 0 C15.18 0 30.36 0 46 0 C46 16.5 46 33 46 50 C38.966875 50.061875 31.93375 50.12375 24.6875 50.1875 C21.3611145 50.22846802 21.3611145 50.22846802 17.9675293 50.27026367 C16.21143133 50.27902482 14.45532728 50.28666964 12.69921875 50.29296875 C11.3295697 50.3159906 11.3295697 50.3159906 9.93225098 50.33947754 C9.05959595 50.33984009 8.18694092 50.34020264 7.2878418 50.34057617 C6.15199898 50.35056892 6.15199898 50.35056892 4.99320984 50.36076355 C2.38231878 49.888202 1.52690646 49.15599133 0 47 C-0.36076355 44.85493469 -0.36076355 44.85493469 -0.34057617 42.3449707 C-0.34034958 41.40422195 -0.34012299 40.46347321 -0.33988953 39.49421692 C-0.32440567 38.48163315 -0.30892181 37.46904938 -0.29296875 36.42578125 C-0.28872391 35.38681198 -0.28447906 34.34784271 -0.28010559 33.27738953 C-0.26329849 29.95549724 -0.22564196 26.63420925 -0.1875 23.3125 C-0.17245582 21.06185771 -0.15876695 18.81120593 -0.14648438 16.56054688 C-0.1159388 11.03994387 -0.05721978 5.52064918 0 0 Z " fill="#C76C58" transform="translate(15,447)"/>
<path d="M0 0 C15.18 0 30.36 0 46 0 C46.0688109 6.63897756 46.12856348 13.27672164 46.16479492 19.91577148 C46.17989602 22.17492868 46.20037842 24.43405649 46.22631836 26.69311523 C46.26264308 29.93741093 46.27971308 33.18131956 46.29296875 36.42578125 C46.30845261 37.43836502 46.32393646 38.45094879 46.33988953 39.49421692 C46.34011612 40.43496567 46.34034271 41.37571442 46.34057617 42.3449707 C46.34723801 43.17325882 46.35389984 44.00154694 46.36076355 44.85493469 C46 47 46 47 44.7467041 48.76965332 C42.56600241 50.30570003 41.3650636 50.36391552 38.7121582 50.34057617 C37.83950317 50.34021362 36.96684814 50.33985107 36.06774902 50.33947754 C35.15464966 50.32412964 34.24155029 50.30878174 33.30078125 50.29296875 C32.45849976 50.28994751 31.61621826 50.28692627 30.74841309 50.28381348 C27.60298403 50.26812097 24.45772967 50.22623689 21.3125 50.1875 C10.7628125 50.0946875 10.7628125 50.0946875 0 50 C0 33.5 0 17 0 0 Z " fill="#C96D58" transform="translate(299,447)"/>
<path d="M0 0 C26.84179182 -0.02332561 53.68358214 -0.04097751 80.52538204 -0.05181217 C92.98754655 -0.05697585 105.44970476 -0.06401991 117.91186523 -0.07543945 C128.76961778 -0.08538411 139.62736577 -0.0918529 150.48512274 -0.09408849 C156.2380575 -0.09539597 161.99097924 -0.09848417 167.74390984 -0.10573006 C173.15200976 -0.11248683 178.56009122 -0.11461767 183.96819496 -0.11310768 C185.95928421 -0.11338416 187.95037404 -0.11539131 189.94145966 -0.11920547 C192.64739253 -0.12413737 195.35325453 -0.12300016 198.05918884 -0.12025452 C199.2571226 -0.12462378 199.2571226 -0.12462378 200.47925705 -0.12908131 C205.88587879 -0.11412121 205.88587879 -0.11412121 207 1 C207.09575309 2.50551174 207.12188187 4.0155103 207.12025452 5.52406311 C207.12231651 6.99018791 207.12231651 6.99018791 207.12442017 8.4859314 C207.12082489 9.56702179 207.11722961 10.64811218 207.11352539 11.76196289 C207.11367142 12.8935231 207.11381744 14.02508331 207.1139679 15.19093323 C207.11326819 18.95152671 207.10547311 22.71207137 207.09765625 26.47265625 C207.09579227 29.07197543 207.09436828 31.67129497 207.09336853 34.27061462 C207.08993341 40.42588577 207.08204256 46.5811366 207.07201904 52.73640007 C207.06085694 59.74233346 207.05534721 66.74826767 207.05032361 73.75420773 C207.03985992 88.16948159 207.02206058 102.58473954 207 117 C201.06 117 195.12 117 189 117 C189 78.72 189 40.44 189 1 C126.63 1 64.26 1 0 1 C0 0.67 0 0.34 0 0 Z " fill="#F6CB5A" transform="translate(77,380)"/>
<path d="M0 0 C2.8805498 0.17006936 4.06659233 0.50239551 6.625 2 C8.68927466 5.59004288 7.88300448 8.60936388 7.0625 12.5 C6.01506428 16.05351758 4.77609983 19.52294383 3.5 23 C3.17064453 23.9178125 2.84128906 24.835625 2.50195312 25.78125 C1.69611112 28.02359298 0.88286271 30.26293768 0.0625 32.5 C1.58230469 32.43039062 1.58230469 32.43039062 3.1328125 32.359375 C4.48434532 32.32183242 5.83591028 32.28543494 7.1875 32.25 C7.85265625 32.21648437 8.5178125 32.18296875 9.203125 32.1484375 C14.34245783 32.04766627 17.10055342 33.30661148 21.0625 36.5 C23.29811803 39.22162195 23.06193256 40.5066638 22.7578125 44.078125 C22.13059114 48.69975609 20.875738 53.05293656 19.5 57.5 C19.14905273 58.66208984 19.14905273 58.66208984 18.79101562 59.84765625 C18.22059962 61.7335214 17.64237197 63.6170209 17.0625 65.5 C17.660625 65.16742188 18.25875 64.83484375 18.875 64.4921875 C21.99023112 63.07920767 23.81757172 63.55356259 27.0625 64.5 C29.5 66.125 29.5 66.125 31.0625 68.5 C30.95898849 74.40015632 30.95898849 74.40015632 28.76879883 77.0871582 C25.53701946 79.76312146 21.59217279 81.08393656 17.75 82.6875 C16.90759766 83.05552734 16.06519531 83.42355469 15.19726562 83.80273438 C10.72242205 85.68853632 7.00654507 87.20523165 2.0625 86.5 C-3.24113045 83.09767103 -6.43442067 78.67340607 -9.875 73.5 C-10.2769458 72.90687012 -10.6788916 72.31374023 -11.09301758 71.70263672 C-13.55553616 67.82798833 -14.53758602 65.0764802 -13.9375 60.5 C-11.84639337 57.44376723 -10.64443151 56.63536986 -7 55.9375 C-2.99326432 56.67343104 -1.52815185 58.4521743 1.0625 61.5 C1.25585938 60.90832031 1.44921875 60.31664062 1.6484375 59.70703125 C1.90882813 58.91683594 2.16921875 58.12664062 2.4375 57.3125 C2.82035156 56.14654297 2.82035156 56.14654297 3.2109375 54.95703125 C4.08456922 52.43632321 5.05370398 49.96935722 6.0625 47.5 C4.89332031 47.55800781 3.72414062 47.61601562 2.51953125 47.67578125 C0.9713942 47.72269449 -0.57678617 47.76819298 -2.125 47.8125 C-3.27838867 47.8753418 -3.27838867 47.8753418 -4.45507812 47.93945312 C-8.84464937 48.03364993 -10.40036038 47.94164813 -13.92578125 45.04296875 C-14.58964844 44.20378906 -15.25351563 43.36460937 -15.9375 42.5 C-16.2675 42.17 -16.5975 41.84 -16.9375 41.5 C-17.79821409 34.05898789 -15.30147174 27.64320914 -12.82983398 20.72607422 C-12.12339694 18.74550565 -11.4383459 16.75846399 -10.75585938 14.76953125 C-5.85411814 0.74338008 -5.85411814 0.74338008 0 0 Z " fill="#050402" transform="translate(172.9375,395.5)"/>
<path d="M0 0 C5.61 0 11.22 0 17 0 C17.09135331 7.25134427 17.16431023 14.50235994 17.20724869 21.75416374 C17.22788563 25.12368608 17.25801614 28.49246958 17.30175781 31.86181641 C17.65879751 60.09945593 14.47998124 85.91772138 -5.6875 107.3125 C-16.67076285 117.66571522 -30.22677954 124.87489567 -45 128 C-42.24996228 125.07808493 -39.49275661 122.55471233 -36.25 120.1875 C-17.57983489 106.30724617 -5.90069825 86.84444355 -1.43023682 63.96466064 C-0.59795572 58.22960748 -0.6380403 52.46537008 -0.5859375 46.6796875 C-0.56718422 45.32633336 -0.54760787 43.97299041 -0.5272522 42.61965942 C-0.4763634 39.09186456 -0.43650918 35.56403197 -0.39910889 32.03607178 C-0.35879475 28.42239381 -0.30782886 24.80886689 -0.2578125 21.1953125 C-0.1615669 14.13031383 -0.07798824 7.06522727 0 0 Z " fill="#C96D58" transform="translate(244,134)"/>
<path d="M0 0 C7.9885057 2.09534576 13.55729922 5.91417105 20 11 C20.85464844 11.65613281 21.70929688 12.31226563 22.58984375 12.98828125 C29.06749821 18.39507549 33.4640486 25.33151493 37.3125 32.75 C37.63774658 33.35618164 37.96299316 33.96236328 38.2980957 34.58691406 C43.88169783 45.85561199 44.43066272 58.0303673 44.1875 70.375 C44.125625 74.87125 44.06375 79.3675 44 84 C34.76 84 25.52 84 16 84 C15.98582031 80.1946875 15.97164063 76.389375 15.95703125 72.46875 C15.92638587 68.76846548 15.88730321 65.0683591 15.84741211 61.36816406 C15.82426722 58.80377538 15.80984469 56.23929212 15.80444336 53.67480469 C15.79512884 49.98052259 15.75407853 46.2877211 15.70703125 42.59375 C15.7109639 41.4538562 15.71489655 40.3139624 15.71894836 39.13952637 C15.59341785 32.23441492 14.6964371 27.26188864 10 22 C7.43380845 20.06452287 7.43380845 20.06452287 4.6875 19 C3.140625 18.34 1.59375 17.68 0 17 C0 11.39 0 5.78 0 0 Z " fill="#FC7F86" transform="translate(283,348)"/>
<path d="M0 0 C5.94 0 11.88 0 18 0 C18 34.98 18 69.96 18 106 C12.06 106 6.12 106 0 106 C0 71.02 0 36.04 0 0 Z " fill="#E8F4FD" transform="translate(419,391)"/>
<path d="M0 0 C1.73636719 0.52400391 1.73636719 0.52400391 3.5078125 1.05859375 C5.04681839 1.51841868 6.58588407 1.97804352 8.125 2.4375 C8.88554687 2.66759766 9.64609375 2.89769531 10.4296875 3.13476562 C11.17734375 3.35712891 11.925 3.57949219 12.6953125 3.80859375 C13.37609863 4.01282959 14.05688477 4.21706543 14.75830078 4.42749023 C19.72722647 5.69650905 24.5586153 6.14470509 29.67578125 6.28125 C30.91521484 6.31863281 32.15464844 6.35601562 33.43164062 6.39453125 C36.0383971 6.46537415 38.64516825 6.53567877 41.25195312 6.60546875 C43.10143555 6.66154297 43.10143555 6.66154297 44.98828125 6.71875 C46.11790283 6.74904297 47.24752441 6.77933594 48.41137695 6.81054688 C51 7 51 7 52 8 C52.08737645 9.85369611 52.10698153 11.71067541 52.09765625 13.56640625 C52.09282227 15.2534668 52.09282227 15.2534668 52.08789062 16.97460938 C52.07532227 18.75061523 52.07532227 18.75061523 52.0625 20.5625 C52.05798828 21.75037109 52.05347656 22.93824219 52.04882812 24.16210938 C52.03699675 27.10812226 52.02051287 30.05403681 52 33 C38.16445546 39.91777227 11.60213773 33.21062217 -2.1953125 28.62109375 C-5.49335605 27.48879215 -8.75354742 26.27352802 -12 25 C-11.22011719 24.2265625 -10.44023437 23.453125 -9.63671875 22.65625 C-2.47038765 15.43683497 -0.73319721 9.93675167 0 0 Z " fill="#C86C58" transform="translate(145,290)"/>
<path d="M0 0 C5.61 0 11.22 0 17 0 C17.14950341 6.33127775 17.25775867 12.66150442 17.32958984 18.99414062 C17.35956618 21.14341149 17.40036221 23.29256209 17.45263672 25.44140625 C18.03606873 50.05994902 18.03606873 50.05994902 9.05224609 60.19799805 C3.52560141 65.72389407 -3.76385148 69.20833314 -11.625 69.25 C-12.73875 69.1675 -13.8525 69.085 -15 69 C-14.62488281 68.5875 -14.24976563 68.175 -13.86328125 67.75 C-4.60951694 57.30746496 -0.5866642 47.42215598 -0.48828125 33.3984375 C-0.47033005 32.435961 -0.45237885 31.4734845 -0.43388367 30.48184204 C-0.38025521 27.44627092 -0.34603867 24.41085263 -0.3125 21.375 C-0.27928494 19.30076019 -0.24479149 17.22654043 -0.20898438 15.15234375 C-0.12455663 10.1016737 -0.05752103 5.05104522 0 0 Z " fill="#D6EAFC" transform="translate(468,271)"/>
<path d="M0 0 C11.3091698 0.6524521 20.63806823 5.56177 29 13 C29.60328125 13.49886719 30.2065625 13.99773438 30.828125 14.51171875 C40.1432522 22.84078519 46.33602001 35.81146352 47.23291016 48.22314453 C47.29309924 51.55018166 47.26350327 54.86089544 47.1875 58.1875 C47.16719727 59.90163086 47.16719727 59.90163086 47.14648438 61.65039062 C47.11154615 64.43380276 47.05775701 67.21696785 47 70 C41.06 70 35.12 70 29 70 C28.94392578 67.41091797 28.94392578 67.41091797 28.88671875 64.76953125 C28.30423507 42.59965382 26.07109523 25.82635618 10.25390625 9.12890625 C7.47938815 6.50826091 4.57571499 4.22071616 1.43359375 2.05859375 C0.96050781 1.70925781 0.48742187 1.35992188 0 1 C0 0.67 0 0.34 0 0 Z " fill="#FCCE5A" transform="translate(238,16)"/>
<path d="M0 0 C5.94 0 11.88 0 18 0 C18 18.48 18 36.96 18 56 C12.06 56 6.12 56 0 56 C0 37.52 0 19.04 0 0 Z " fill="#FDC143" transform="translate(250,309)"/>
<path d="M0 0 C5.94 0 11.88 0 18 0 C18 18.48 18 36.96 18 56 C12.06 56 6.12 56 0 56 C0 37.52 0 19.04 0 0 Z " fill="#F9BF42" transform="translate(92,309)"/>
<path d="M0 0 C15.18 0 30.36 0 46 0 C46 6.93 46 13.86 46 21 C30.82 21 15.64 21 0 21 C0 14.07 0 7.14 0 0 Z " fill="#5EB5FD" transform="translate(405,355)"/>
<path d="M0 0 C15.18 0 30.36 0 46 0 C46.0688109 6.63897756 46.12856348 13.27672164 46.16479492 19.91577148 C46.17989602 22.17492868 46.20037842 24.43405649 46.22631836 26.69311523 C46.26264308 29.93741093 46.27971308 33.18131956 46.29296875 36.42578125 C46.30845261 37.43836502 46.32393646 38.45094879 46.33988953 39.49421692 C46.34011612 40.43496567 46.34034271 41.37571442 46.34057617 42.3449707 C46.34723801 43.17325882 46.35389984 44.00154694 46.36076355 44.85493469 C46 47 46 47 43 50 C37.72 50 32.44 50 27 50 C27.33 33.83 27.66 17.66 28 1 C18.76 1 9.52 1 0 1 C0 0.67 0 0.34 0 0 Z " fill="#B55A49" transform="translate(299,447)"/>
<path d="M0 0 C5.94 0 11.88 0 18 0 C18 15.84 18 31.68 18 48 C12.06 48 6.12 48 0 48 C0 32.16 0 16.32 0 0 Z " fill="#8998A4" transform="translate(457,175)"/>
<path d="M0 0 C5.94 0 11.88 0 18 0 C18 15.84 18 31.68 18 48 C12.06 48 6.12 48 0 48 C0 32.16 0 16.32 0 0 Z " fill="#8897A3" transform="translate(381,175)"/>
<path d="M0 0 C2.95355715 0.85102494 4.9378847 1.67441739 7.5625 3.125 C11.98794093 5.45283309 15.76007513 5.92710777 20.6875 5.0625 C23.05141666 4.17652787 25.28343464 3.13907695 27.5546875 2.0390625 C30.69876004 0.59946885 33.22750023 -0.00403846 36.6875 0.0625 C39.6875 2.0625 39.6875 2.0625 41.6875 5.0625 C41.8125 8.625 41.8125 8.625 40.6875 12.0625 C34.032883 18.25531974 25.13087792 21.31902846 16.125 21.6875 C7.31097799 21.32425546 -0.80120802 18.03689598 -7.3125 12.0625 C-8.4375 8.625 -8.4375 8.625 -8.3125 5.0625 C-5.81005877 1.30883816 -4.56801364 0.08618894 0 0 Z " fill="#050303" transform="translate(163.3125,215.9375)"/>
<path d="M0 0 C7.54354696 1.50870939 11.54321595 5.0151757 16 11 C18.04021328 17.12063983 18.09323014 24.49048038 15.4375 30.4375 C13.14869905 34.31956521 10.09905028 37.11249266 6 39 C3.03 39.495 3.03 39.495 0 40 C0 26.8 0 13.6 0 0 Z " fill="#B25848" transform="translate(276,134)"/>
<path d="M0 0 C0 12.87 0 25.74 0 39 C-6.90300618 37.61939876 -11.03158829 34.81088857 -15 29 C-17.65787385 24.34872076 -17.77000553 19.20746005 -17 14 C-14.0955666 6.81994147 -8.05901494 0 0 0 Z " fill="#B75B4A" transform="translate(83,135)"/>
<path d="M0 0 C5.94 0 11.88 0 18 0 C18 5.94 18 11.88 18 18 C-27.54 18 -73.08 18 -120 18 C-120 17.67 -120 17.34 -120 17 C-80.4 17 -40.8 17 0 17 C0 11.39 0 5.78 0 0 Z " fill="#2F9BE9" transform="translate(479,238)"/>
<path d="M0 0 C5.61 0 11.22 0 17 0 C17 6.93 17 13.86 17 21 C11.39 21 5.78 21 0 21 C0 14.07 0 7.14 0 0 Z " fill="#25A4FC" transform="translate(434,355)"/>
<path d="M0 0 C5.94 0 11.88 0 18 0 C18 5.94 18 11.88 18 18 C12.06 18 6.12 18 0 18 C0 12.06 0 6.12 0 0 Z " fill="#D5E8FA" transform="translate(279,101)"/>
<path d="M0 0 C3.78723855 1.1922788 4.49444292 1.68084544 6.375 5.0625 C6.80859375 8.33984375 6.80859375 8.33984375 6.8125 12 C6.83183594 13.20527344 6.85117188 14.41054687 6.87109375 15.65234375 C6.29040656 19.64399662 5.26798622 21.29327789 2.375 24.0625 C-1.125 24.6875 -1.125 24.6875 -4.625 24.0625 C-7.47805194 21.3166289 -8.53179326 19.61788359 -9.19140625 15.6875 C-9.17954903 4.68400102 -9.17954903 4.68400102 -6.5625 1.625 C-3.625 0.0625 -3.625 0.0625 0 0 Z " fill="#050302" transform="translate(139.625,141.9375)"/>
<path d="M0 0 C2.85798897 1.65128251 3.63941186 2.12332793 5 5 C5.93360377 11.2588797 6.30949034 16.92022122 2.875 22.375 C-0.51228779 24.28955397 -2.17663624 24.73213349 -6 24 C-8.1484375 22.46484375 -8.1484375 22.46484375 -10 20 C-10.42819773 17.16503573 -10.60597632 14.82340346 -10.5625 12 C-10.58634766 11.2884375 -10.61019531 10.576875 -10.63476562 9.84375 C-10.62398415 5.99116924 -10.33114815 4.34311081 -7.62109375 1.53515625 C-4.62912011 -0.21722175 -3.38690914 -0.76205456 0 0 Z " fill="#060403" transform="translate(224,142)"/>
<path d="M0 0 C3.25 2.0625 3.25 2.0625 5 5 C5.0625 8.625 5.0625 8.625 4 12 C0.98263595 14.942101 -1.34217345 15.4543096 -5.5 15.5 C-9.37266869 15.38625005 -10.58045888 15.33173019 -13.6875 12.875 C-15.21751965 9.52352838 -15.6191438 7.63746981 -15 4 C-11.9021635 -1.6056089 -5.63232882 -0.9484276 0 0 Z " fill="#060303" transform="translate(185,189)"/>
<path d="M0 0 C0 3.63 0 7.26 0 11 C-9.405 9.515 -9.405 9.515 -19 8 C-16.15211382 5.15211382 -12.65221906 4.22404654 -8.9375 2.875 C-8.19177734 2.59785156 -7.44605469 2.32070313 -6.67773438 2.03515625 C-1.15875154 0 -1.15875154 0 0 0 Z " fill="#F5616B" transform="translate(235,327)"/>
</svg>
