<?xml version="1.0" encoding="UTF-8"?>
<svg version="1.1" xmlns="http://www.w3.org/2000/svg" width="128" height="128">
<path d="M0 0 C1.22477051 -0.0157608 2.44954102 -0.03152161 3.71142578 -0.04776001 C5.0261084 -0.03763885 6.34079102 -0.0275177 7.6953125 -0.01708984 C9.06624786 -0.02046099 10.4371803 -0.0253161 11.80810547 -0.03158569 C14.67639724 -0.03894328 17.54390859 -0.02828944 20.41210938 -0.00488281 C24.08114743 0.02360667 27.74835686 0.00719637 31.41732788 -0.02274513 C34.24680252 -0.04084967 37.07584656 -0.03504616 39.90533447 -0.02210617 C41.91330153 -0.01716856 43.9212856 -0.03230198 45.92919922 -0.04776001 C56.05060127 0.08248596 56.05060127 0.08248596 59.125 2.93847656 C61.49372148 6.7228366 61.9388361 9.81760157 62.02563477 14.23193359 C62.0555526 15.58288116 62.0555526 15.58288116 62.08607483 16.96112061 C62.10278732 17.92479553 62.11949982 18.88847046 62.13671875 19.88134766 C62.15749985 20.87450989 62.17828094 21.86767212 62.19969177 22.89093018 C62.26500999 26.05954148 62.32398989 29.22823476 62.3828125 32.39697266 C62.42601457 34.54672067 62.46962941 36.69646044 62.51367188 38.84619141 C62.62067321 44.11303214 62.72247241 49.3799542 62.8203125 54.64697266 C63.64015625 54.43476074 64.46 54.22254883 65.3046875 54.00390625 C66.38234375 53.72885254 67.46 53.45379883 68.5703125 53.17041016 C69.63765625 52.89632324 70.705 52.62223633 71.8046875 52.33984375 C81.22492275 50.17544708 91.36311745 52.16905345 99.5703125 57.27197266 C107.89886958 63.37857349 114.56343686 71.43379267 116.8203125 81.64697266 C117.60330934 94.71403473 117.1092336 105.20115155 108.5703125 115.76806641 C100.77200364 124.14080427 91.94380493 128.64613542 80.49047852 129.11621094 C72.87579005 129.22112627 66.62118057 128.35247845 59.8203125 124.64697266 C59.1603125 124.31697266 58.5003125 123.98697266 57.8203125 123.64697266 C57.44528091 124.45961075 57.07024933 125.27224884 56.68385315 126.10951233 C54.8203125 128.64697266 54.8203125 128.64697266 52.19517517 129.26170349 C51.14197586 129.25663284 50.08877655 129.25156219 49.00366211 129.24633789 C47.2118174 129.25545448 47.2118174 129.25545448 45.3837738 129.26475525 C43.44777061 129.23545677 43.44777061 129.23545677 41.47265625 129.20556641 C40.13652507 129.20131601 38.80038651 129.1989877 37.46424866 129.19850159 C34.66552209 129.19233678 31.86759612 129.16964064 29.0690918 129.1340332 C25.47864777 129.08871603 21.88892805 129.07400519 18.29822445 129.07029629 C15.54013399 129.06587167 12.78219613 129.05057576 10.02417183 129.03141975 C8.05543574 129.01820255 6.08666817 129.00998316 4.11790466 129.0018158 C2.92649368 128.9858284 1.7350827 128.969841 0.50756836 128.95336914 C-0.54483536 128.94272934 -1.59723907 128.93208954 -2.68153381 128.92112732 C-5.1796875 128.64697266 -5.1796875 128.64697266 -7.1796875 126.64697266 C-7.84635417 124.64697266 -8.51302083 122.64697266 -9.1796875 120.64697266 C-9.8396875 119.98697266 -10.4996875 119.32697266 -11.1796875 118.64697266 C-11.43974972 116.65008068 -11.43974972 116.65008068 -11.45384216 114.15019226 C-11.46381729 113.20386932 -11.47379242 112.25754639 -11.48406982 111.282547 C-11.4847345 110.24095932 -11.48539917 109.19937164 -11.48608398 108.1262207 C-11.4944075 107.03180664 -11.50273102 105.93739258 -11.51130676 104.80981445 C-11.5354884 101.17607103 -11.54418924 97.54250686 -11.55078125 93.90869141 C-11.5597419 91.39003951 -11.56886363 88.87138818 -11.57814026 86.35273743 C-11.59465541 81.06578948 -11.60236808 75.77890908 -11.60522461 70.49194336 C-11.60885786 64.38424583 -11.63873386 58.27705147 -11.68062919 52.16950768 C-11.71952498 46.29299396 -11.73081761 40.41667958 -11.73195076 34.5400486 C-11.7361631 32.04054856 -11.74863768 29.54104848 -11.76946831 27.0416317 C-11.79628009 23.54594364 -11.79158622 20.05164608 -11.77905273 16.5559082 C-11.79388702 15.52039322 -11.80872131 14.48487823 -11.82400513 13.41798401 C-11.77687985 8.8096226 -11.68181158 6.38020851 -9.02845764 2.50559998 C-5.71057889 0.34091143 -3.93755779 0.01456743 0 0 Z " fill="#080606" transform="translate(11.1796875,-0.64697265625)"/>
<path d="M0 0 C21.12 0 42.24 0 64 0 C64 15 64 15 60.8125 18.4375 C60.17441406 18.85257813 59.53632812 19.26765625 58.87890625 19.6953125 C53.31106469 23.5615476 50.21318999 31.53905794 49 38 C47.98688261 50.75417645 49.84459857 59.56208768 57 70 C57.99 71.485 57.99 71.485 59 73 C51.45501767 73.02312851 43.91003899 73.04091769 36.36502934 73.05181217 C32.86191115 73.05703989 29.35881715 73.0641355 25.85571289 73.07543945 C21.83219159 73.08834206 17.80869586 73.09322912 13.78515625 73.09765625 C12.52163834 73.10281754 11.25812042 73.10797882 9.95631409 73.11329651 C8.795186 73.11337204 7.63405792 73.11344757 6.43774414 73.11352539 C4.8955294 73.11685631 4.8955294 73.11685631 3.32215881 73.12025452 C1 73 1 73 0 72 C-0.09436529 69.76070114 -0.11742327 67.5183825 -0.11352539 65.27709961 C-0.11367142 64.5746965 -0.11381744 63.8722934 -0.1139679 63.14860535 C-0.11326872 60.81648722 -0.10547617 58.484448 -0.09765625 56.15234375 C-0.09579208 54.53951562 -0.09436818 52.92668693 -0.09336853 51.31385803 C-0.08954323 47.06084643 -0.07971285 42.80786876 -0.06866455 38.55487061 C-0.05665612 33.45628308 -0.05204825 28.35768422 -0.04621124 23.25908661 C-0.03650109 15.50603411 -0.01734464 7.75305613 0 0 Z " fill="#FEA980" transform="translate(4,44)"/>
<path d="M0 0 C1.32 0.33 2.64 0.66 4 1 C4 1.66 4 2.32 4 3 C4.75925781 2.96519531 5.51851562 2.93039062 6.30078125 2.89453125 C7.79158203 2.85392578 7.79158203 2.85392578 9.3125 2.8125 C10.29863281 2.77769531 11.28476562 2.74289062 12.30078125 2.70703125 C15 3 15 3 16.65039062 4.03515625 C18.73095758 7.06417268 18.36859741 10.18862566 18.29296875 13.73046875 C18.28994751 14.39582642 18.28692627 15.06118408 18.28381348 15.7467041 C18.26814229 18.22712767 18.22625802 20.70732975 18.1875 23.1875 C18.125625 28.735625 18.06375 34.28375 18 40 C-3.12 40 -24.24 40 -46 40 C-46.0928125 31.6778125 -46.0928125 31.6778125 -46.1875 23.1875 C-46.21481201 21.43977295 -46.24212402 19.6920459 -46.27026367 17.89135742 C-46.27902638 16.50440156 -46.28667083 15.11743799 -46.29296875 13.73046875 C-46.3159906 12.65230896 -46.3159906 12.65230896 -46.33947754 11.55236816 C-46.34215206 6.46275674 -46.34215206 6.46275674 -44.7467041 4.30493164 C-42.56488344 2.67493214 -41.41625462 2.63563412 -38.7121582 2.65942383 C-37.85149246 2.65965042 -36.99082672 2.65987701 -36.1040802 2.66011047 C-34.71644722 2.68333626 -34.71644722 2.68333626 -33.30078125 2.70703125 C-31.87550362 2.71339851 -31.87550362 2.71339851 -30.4214325 2.71989441 C-27.38483412 2.73669516 -24.34889798 2.77435008 -21.3125 2.8125 C-19.25456687 2.82754503 -17.19662335 2.84123375 -15.13867188 2.85351562 C-10.09219252 2.88660329 -5.04620856 2.93839538 0 3 C0 2.01 0 1.02 0 0 Z " fill="#FEA980" transform="translate(50,1)"/>
<path d="M0 0 C8.57610017 5.08169471 13.68772037 11.12091764 17.3125 20.4375 C19.54947971 29.31462833 19.1848362 39.09076827 15.3125 47.4375 C11.59716417 53.44731972 7.29701412 57.72710124 1.3125 61.4375 C0.9825 61.4375 0.6525 61.4375 0.3125 61.4375 C0.2310778 59.20894426 0.17311921 56.97952345 0.125 54.75 C0.09019531 53.50863281 0.05539063 52.26726562 0.01953125 50.98828125 C0.33378198 47.17956246 1.24226571 45.56397628 3.3125 42.4375 C3.86922814 40.24230783 3.86922814 40.24230783 4 38.125 C4.103125 36.908125 4.20625 35.69125 4.3125 34.4375 C5.983125 34.251875 5.983125 34.251875 7.6875 34.0625 C11.34353677 33.7909187 11.34353677 33.7909187 13.3125 31.4375 C13.63301241 28.42468336 13.7976593 26.31685123 12.3125 23.625 C9.66582219 22.05353505 7.29149336 21.93618709 4.25 21.74609375 C2.3125 21.4375 2.3125 21.4375 -0.6875 19.4375 C-2.68233401 19.13179005 -2.68233401 19.13179005 -4.84765625 19.171875 C-5.64107422 19.16929688 -6.43449219 19.16671875 -7.25195312 19.1640625 C-8.07630859 19.17179687 -8.90066406 19.17953125 -9.75 19.1875 C-10.57822266 19.17976563 -11.40644531 19.17203125 -12.25976562 19.1640625 C-13.05189453 19.16664062 -13.84402344 19.16921875 -14.66015625 19.171875 C-15.74695679 19.17525879 -15.74695679 19.17525879 -16.85571289 19.17871094 C-18.93624747 19.28542179 -18.93624747 19.28542179 -20.6875 21.4375 C-23.0625 21.75 -23.0625 21.75 -25.6875 21.4375 C-26.265 20.9425 -26.8425 20.4475 -27.4375 19.9375 C-30.98053328 17.57547781 -34.5651251 17.6291912 -38.6875 18.4375 C-41.44319447 20.61909145 -43.12338747 22.30927494 -44.6875 25.4375 C-42.3775 25.7675 -40.0675 26.0975 -37.6875 26.4375 C-37.6875 27.7575 -37.6875 29.0775 -37.6875 30.4375 C-39.9975 30.4375 -42.3075 30.4375 -44.6875 30.4375 C-43.71011169 34.87169985 -43.71011169 34.87169985 -40.5 37.8125 C-35.99366756 38.81390721 -32.07785763 38.90095254 -27.6875 37.4375 C-27.33816406 38.07558594 -26.98882812 38.71367188 -26.62890625 39.37109375 C-26.17386719 40.19738281 -25.71882813 41.02367187 -25.25 41.875 C-24.79753906 42.69871094 -24.34507813 43.52242187 -23.87890625 44.37109375 C-22.85087603 46.36058798 -22.85087603 46.36058798 -21.6875 47.4375 C-21.61424832 50.30017567 -21.59511795 53.138219 -21.625 56 C-21.62951172 56.80630859 -21.63402344 57.61261719 -21.63867188 58.44335938 C-21.65049482 60.44143756 -21.66843086 62.43947783 -21.6875 64.4375 C-30.75626324 63.60786551 -36.20054388 60.32346553 -42.5 53.6875 C-49.73090889 44.75816832 -50.7138402 35.71487669 -49.6875 24.4375 C-47.95219651 15.64862475 -43.13082564 8.26552982 -35.765625 3.0859375 C-25.0320714 -3.8142041 -11.86391585 -5.63160563 0 0 Z " fill="#92B3F1" transform="translate(105.6875,58.5625)"/>
<path d="M0 0 C1.24394531 -0.02578125 2.48789063 -0.0515625 3.76953125 -0.078125 C7.1875 0.25 7.1875 0.25 9.609375 1.30859375 C12.03280323 4.28989036 11.68106126 6.78397078 11.625 10.5625 C11.62371094 11.85800781 11.62242188 13.15351562 11.62109375 14.48828125 C11.1875 18.25 11.1875 18.25 9.703125 21.14453125 C7.66439192 25.32183228 7.62810334 29.03524048 7.5 33.625 C7.46583984 34.45644531 7.43167969 35.28789063 7.39648438 36.14453125 C7.31462854 38.17923351 7.24937299 40.21459208 7.1875 42.25 C1.79289047 44.52141454 -3.07407749 44.45413361 -8.8125 44.25 C-8.82708252 43.66508789 -8.84166504 43.08017578 -8.85668945 42.47753906 C-8.9313357 39.81770603 -9.02793899 37.15910552 -9.125 34.5 C-9.14755859 33.57960937 -9.17011719 32.65921875 -9.19335938 31.7109375 C-9.22880859 30.82148437 -9.26425781 29.93203125 -9.30078125 29.015625 C-9.32696533 28.19868164 -9.35314941 27.38173828 -9.38012695 26.54003906 C-9.90235923 23.77406572 -11.0989327 22.44615703 -12.8125 20.25 C-13.5 16.5 -13.5 16.5 -13.8125 13.25 C-11.8325 13.25 -9.8525 13.25 -7.8125 13.25 C-7.82410156 12.39535156 -7.83570312 11.54070312 -7.84765625 10.66015625 C-7.85667969 9.55542969 -7.86570312 8.45070313 -7.875 7.3125 C-7.88660156 6.21035156 -7.89820312 5.10820313 -7.91015625 3.97265625 C-7.72322329 -1.23903459 -4.53870429 0.05609109 0 0 Z " fill="#F8D2A3" transform="translate(95.8125,79.75)"/>
<path d="M0 0 C0 0.66 0 1.32 0 2 C-2.5 3.5 -2.5 3.5 -5 5 C-11.88150535 10.99926107 -16.18896165 18.41071615 -19 27 C-16.69 27.33 -14.38 27.66 -12 28 C-12 29.32 -12 30.64 -12 32 C-14.31 32 -16.62 32 -19 32 C-18.02261169 36.43419985 -18.02261169 36.43419985 -14.8125 39.375 C-10.30616756 40.37640721 -6.39035763 40.46345254 -2 39 C-1.65066406 39.63808594 -1.30132812 40.27617188 -0.94140625 40.93359375 C-0.48636719 41.75988281 -0.03132813 42.58617187 0.4375 43.4375 C0.88996094 44.26121094 1.34242187 45.08492187 1.80859375 45.93359375 C2.83662397 47.92308798 2.83662397 47.92308798 4 49 C4.07325168 51.86267567 4.09238205 54.700719 4.0625 57.5625 C4.05798828 58.36880859 4.05347656 59.17511719 4.04882812 60.00585938 C4.03700518 62.00393756 4.01906914 64.00197783 4 66 C-5.06876324 65.17036551 -10.51304388 61.88596553 -16.8125 55.25 C-24.04340889 46.32066832 -25.0263402 37.27737669 -24 26 C-22.26300202 17.20254259 -17.42322618 9.70952851 -9.97265625 4.61328125 C-2.66278653 0 -2.66278653 0 0 0 Z " fill="#8FB2F1" transform="translate(80,57)"/>
<path d="M0 0 C21.12 0 42.24 0 64 0 C64 0.33 64 0.66 64 1 C44.53 1 25.06 1 5 1 C5 3.31 5 5.62 5 8 C6.32 8 7.64 8 9 8 C9 18.89 9 29.78 9 41 C7.68 41 6.36 41 5 41 C5 51.23 5 61.46 5 72 C22.49 71.67 39.98 71.34 58 71 C58.33 71.66 58.66 72.32 59 73 C51.45501767 73.02312851 43.91003899 73.04091769 36.36502934 73.05181217 C32.86191115 73.05703989 29.35881715 73.0641355 25.85571289 73.07543945 C21.83219159 73.08834206 17.80869586 73.09322912 13.78515625 73.09765625 C12.52163834 73.10281754 11.25812042 73.10797882 9.95631409 73.11329651 C8.795186 73.11337204 7.63405792 73.11344757 6.43774414 73.11352539 C4.8955294 73.11685631 4.8955294 73.11685631 3.32215881 73.12025452 C1 73 1 73 0 72 C-0.09436529 69.76070114 -0.11742327 67.5183825 -0.11352539 65.27709961 C-0.11367142 64.5746965 -0.11381744 63.8722934 -0.1139679 63.14860535 C-0.11326872 60.81648722 -0.10547617 58.484448 -0.09765625 56.15234375 C-0.09579208 54.53951562 -0.09436818 52.92668693 -0.09336853 51.31385803 C-0.08954323 47.06084643 -0.07971285 42.80786876 -0.06866455 38.55487061 C-0.05665612 33.45628308 -0.05204825 28.35768422 -0.04621124 23.25908661 C-0.03650109 15.50603411 -0.01734464 7.75305613 0 0 Z " fill="#E48456" transform="translate(4,44)"/>
<path d="M0 0 C0 0.66 0 1.32 0 2 C-2.5 3.5 -2.5 3.5 -5 5 C-11.88150535 10.99926107 -16.18896165 18.41071615 -19 27 C-16.69 27.33 -14.38 27.66 -12 28 C-12 29.32 -12 30.64 -12 32 C-14.31 32 -16.62 32 -19 32 C-18.67 32.680625 -18.34 33.36125 -18 34.0625 C-17 37 -17 37 -17.25 40.125 C-16.80899655 46.96055349 -13.39142107 52.59691346 -8.59765625 57.4140625 C-7.01337281 58.79061209 -5.40169421 60.13660905 -3.7578125 61.44140625 C-2.88769531 62.21291016 -2.88769531 62.21291016 -2 63 C-2 63.66 -2 64.32 -2 65 C-10.55987124 61.97886897 -16.69014922 56.50347622 -21.33203125 48.78515625 C-25.34476936 40.26340499 -25.49024681 29.90007522 -22.75 20.9375 C-19.46981728 12.76769911 -10.00462782 0 0 0 Z " fill="#588CE6" transform="translate(80,57)"/>
<path d="M0 0 C-0.66 3.3 -1.32 6.6 -2 10 C-0.68 10 0.64 10 2 10 C2 15.28 2 20.56 2 26 C0.68 26 -0.64 26 -2 26 C-2 28.97 -2 31.94 -2 35 C17.47 35 36.94 35 57 35 C57 35.33 57 35.66 57 36 C35.88 36 14.76 36 -7 36 C-7.0928125 27.6778125 -7.0928125 27.6778125 -7.1875 19.1875 C-7.21481201 17.43977295 -7.24212402 15.6920459 -7.27026367 13.89135742 C-7.27902638 12.50440156 -7.28667083 11.11743799 -7.29296875 9.73046875 C-7.3159906 8.65230896 -7.3159906 8.65230896 -7.33947754 7.55236816 C-7.34102516 4.60724792 -7.3061334 2.49376165 -5.73168945 -0.0456543 C-4 -1 -4 -1 0 0 Z " fill="#F08D5D" transform="translate(11,5)"/>
<path d="M0 0 C18.48 0 36.96 0 56 0 C56 1.32 56 2.64 56 4 C42.8 4 29.6 4 16 4 C16 4.99 16 5.98 16 7 C15.01 7 14.02 7 13 7 C13 6.01 13 5.02 13 4 C8.71 4 4.42 4 0 4 C0 2.68 0 1.36 0 0 Z " fill="#B3BDC1" transform="translate(8,120)"/>
<path d="M0 0 C1.93166016 0.01740234 1.93166016 0.01740234 3.90234375 0.03515625 C5.19269531 0.04417969 6.48304687 0.05320312 7.8125 0.0625 C8.81152344 0.07410156 9.81054688 0.08570312 10.83984375 0.09765625 C10.83984375 0.42765625 10.83984375 0.75765625 10.83984375 1.09765625 C6.87984375 1.09765625 2.91984375 1.09765625 -1.16015625 1.09765625 C-1.16015625 15.28765625 -1.16015625 29.47765625 -1.16015625 44.09765625 C-2.48015625 44.09765625 -3.80015625 44.09765625 -5.16015625 44.09765625 C-5.17473877 43.51274414 -5.18932129 42.92783203 -5.2043457 42.32519531 C-5.27899195 39.66536228 -5.37559524 37.00676177 -5.47265625 34.34765625 C-5.49521484 33.42726562 -5.51777344 32.506875 -5.54101562 31.55859375 C-5.57646484 30.66914062 -5.61191406 29.7796875 -5.6484375 28.86328125 C-5.67462158 28.04633789 -5.70080566 27.22939453 -5.7277832 26.38769531 C-6.25001548 23.62172197 -7.44658895 22.29381328 -9.16015625 20.09765625 C-9.84765625 16.34765625 -9.84765625 16.34765625 -10.16015625 13.09765625 C-8.18015625 13.09765625 -6.20015625 13.09765625 -4.16015625 13.09765625 C-4.17175781 12.24300781 -4.18335937 11.38835937 -4.1953125 10.5078125 C-4.20433594 9.40308594 -4.21335937 8.29835938 -4.22265625 7.16015625 C-4.23425781 6.05800781 -4.24585937 4.95585938 -4.2578125 3.8203125 C-4.11749553 -0.09172464 -3.97435676 0.12281696 0 0 Z " fill="#E6A574" transform="translate(92.16015625,79.90234375)"/>
<path d="M0 0 C3.4375 0.1875 3.4375 0.1875 7 1 C8.4375 3.0625 8.4375 3.0625 9 5 C10.98 5 12.96 5 15 5 C15 6.98 15 8.96 15 11 C13.88625 11.28875 12.7725 11.5775 11.625 11.875 C7.99708908 12.69241329 7.99708908 12.69241329 6 15 C2.375 15.125 2.375 15.125 -1 15 C-1.33 14.34 -1.66 13.68 -2 13 C-1.01 12.67 -0.02 12.34 1 12 C2.44525427 9.76309357 2.44525427 9.76309357 3 7 C2.36784258 4.25141979 2.36784258 4.25141979 1 2 C0.34 1.67 -0.32 1.34 -1 1 C-0.67 0.67 -0.34 0.34 0 0 Z " fill="#EAD21A" transform="translate(69,79)"/>
<path d="M0 0 C1.32 0 2.64 0 4 0 C4 10.89 4 21.78 4 33 C2.68 33 1.36 33 0 33 C0 22.11 0 11.22 0 0 Z " fill="#130C09" transform="translate(9,52)"/>
<path d="M0 0 C1.32 0 2.64 0 4 0 C4 4.95 4 9.9 4 15 C2.68 15 1.36 15 0 15 C0 10.05 0 5.1 0 0 Z " fill="#120B08" transform="translate(9,16)"/>
<path d="M0 0 C1.65 0 3.3 0 5 0 C5.38218767 1.65614657 5.71395102 3.32457024 6 5 C5 6 5 6 2.4375 6.0625 C1.2309375 6.0315625 1.2309375 6.0315625 0 6 C0 4.02 0 2.04 0 0 Z " fill="#D7C018" transform="translate(110,84)"/>
<path d="M0 0 C2.31 0 4.62 0 7 0 C7 0.99 7 1.98 7 3 C4.69 3 2.38 3 0 3 C0 2.01 0 1.02 0 0 Z " fill="#90B4F5" transform="translate(61,85)"/>
<path d="M0 0 C1.98 0 3.96 0 6 0 C6 0.99 6 1.98 6 3 C4.02 3 2.04 3 0 3 C0 2.01 0 1.02 0 0 Z " fill="#AABDC4" transform="translate(8,121)"/>
</svg>
