<?xml version="1.0" encoding="UTF-8"?>
<svg version="1.1" xmlns="http://www.w3.org/2000/svg" width="128" height="128">
<path d="M0 0 C1.23685547 -0.020625 2.47371094 -0.04125 3.74804688 -0.0625 C5.53758789 -0.07023438 5.53758789 -0.07023438 7.36328125 -0.078125 C9.0016394 -0.09214355 9.0016394 -0.09214355 10.6730957 -0.10644531 C15.29350612 0.43990596 18.72622976 2.69647571 21.6875 6.25 C23.16883788 10.69401364 23.32421834 15.34703628 23.67382812 20.00195312 C24.15391141 24.88350792 24.88605198 26.91899066 28.6875 30.25 C29.41603147 32.99270672 29.25559165 35.47771277 28.6875 38.25 C26.9375 40.75 26.9375 40.75 24.6875 42.25 C23.3675 42.25 22.0475 42.25 20.6875 42.25 C20.790625 43.24 20.89375 44.23 21 45.25 C21.01999934 50.18983818 18.41267093 53.3349657 15.6875 57.25 C14.67743014 58.91058323 13.67512089 60.57596811 12.6875 62.25 C13.44933594 62.29898438 14.21117188 62.34796875 14.99609375 62.3984375 C33.32565166 63.72567141 33.32565166 63.72567141 38.6875 69.25 C40.52495374 72.27437632 40.93346453 74.50059659 40.91455078 78.01855469 C40.91430908 78.9722998 40.91406738 79.92604492 40.91381836 80.90869141 C40.90358643 81.90304199 40.89335449 82.89739258 40.8828125 83.921875 C40.88079834 84.84178223 40.87878418 85.76168945 40.87670898 86.70947266 C40.86625959 90.13969929 40.83833698 93.56985475 40.8125 97 C40.77125 104.6725 40.73 112.345 40.6875 120.25 C19.5675 120.25 -1.5525 120.25 -23.3125 120.25 C-23.6425 111.01 -23.9725 101.77 -24.3125 92.25 C-30.48203209 100.0595343 -36.58352188 107.87265509 -42.4375 115.921875 C-44.57334624 118.57388408 -46.18184866 120.08519319 -49.6171875 120.5859375 C-56.59070069 120.69191794 -56.59070069 120.69191794 -60.375 118.375 C-63.21655189 115.25845922 -63.43987019 113.58530816 -63.45776367 109.46484375 C-63.46414352 108.4704126 -63.47052338 107.47598145 -63.47709656 106.45141602 C-63.47820938 105.37432373 -63.4793222 104.29723145 -63.48046875 103.1875 C-63.48379715 102.085271 -63.48712555 100.98304199 -63.49055481 99.84741211 C-63.49562393 97.51383889 -63.49796314 95.18025841 -63.49780273 92.84667969 C-63.49999093 89.26485346 -63.51815169 85.68333425 -63.53710938 82.1015625 C-63.54004287 79.83854273 -63.54202796 77.57552148 -63.54296875 75.3125 C-63.55015427 74.23540771 -63.55733978 73.15831543 -63.56474304 72.04858398 C-63.56166641 71.05415283 -63.55858978 70.05972168 -63.55541992 69.03515625 C-63.55684494 68.15738525 -63.55826996 67.27961426 -63.55973816 66.37524414 C-63.3125 64.25 -63.3125 64.25 -61.3125 62.25 C-59.9925 62.25 -58.6725 62.25 -57.3125 62.25 C-57.3125 59.61 -57.3125 56.97 -57.3125 54.25 C-55.3325 54.25 -53.3525 54.25 -51.3125 54.25 C-51.3125 52.93 -51.3125 51.61 -51.3125 50.25 C-52.01632813 50.20101562 -52.72015625 50.15203125 -53.4453125 50.1015625 C-76.1825565 48.3799435 -76.1825565 48.3799435 -79.3125 45.25 C-79.48420903 42.52302777 -79.5449568 39.91093532 -79.5 37.1875 C-79.49935547 36.44177734 -79.49871094 35.69605469 -79.49804688 34.92773438 C-79.45278159 29.39028159 -79.45278159 29.39028159 -78.3125 28.25 C-75.97952567 28.20907063 -73.64544775 28.20758277 -71.3125 28.25 C-71.3125 25.61 -71.3125 22.97 -71.3125 20.25 C-56.7925 20.25 -42.2725 20.25 -27.3125 20.25 C-26.8175 24.21 -26.8175 24.21 -26.3125 28.25 C-25.3225 27.59 -24.3325 26.93 -23.3125 26.25 C-22.92119707 23.32258337 -22.67007744 20.50245168 -22.5 17.5625 C-21.68960822 7.56340629 -21.68960822 7.56340629 -18.3125 3.6875 C-12.59371784 -0.9590105 -7.15623659 0.02955596 0 0 Z M-75.3125 32.25 C-75.3125 35.55 -75.3125 38.85 -75.3125 42.25 C-74.53011963 42.36593506 -73.74773926 42.48187012 -72.94165039 42.60131836 C-69.41878266 43.12577773 -65.89689534 43.65655177 -62.375 44.1875 C-61.14330078 44.36990234 -59.91160156 44.55230469 -58.64257812 44.74023438 C-57.47275391 44.91748047 -56.30292969 45.09472656 -55.09765625 45.27734375 C-53.47162476 45.52085571 -53.47162476 45.52085571 -51.81274414 45.76928711 C-49.3125 46.25 -49.3125 46.25 -48.3125 47.25 C-47.94489269 49.57817964 -47.61008419 51.9118385 -47.3125 54.25 C-45.3325 54.25 -43.3525 54.25 -41.3125 54.25 C-41.33570313 54.83007812 -41.35890625 55.41015625 -41.3828125 56.0078125 C-41.49500423 60.86411166 -41.18764915 64.67932395 -39.3125 69.25 C-38.71566406 69.07984375 -38.11882813 68.9096875 -37.50390625 68.734375 C-28.83321678 66.31225075 -20.0822457 64.27536917 -11.3125 62.25 C-11.9244923 59.01813054 -12.37964909 58.1776856 -14.75 55.625 C-18.19886956 51.75748153 -18.65071901 47.24792808 -19.3125 42.25 C-20.26125 41.96125 -21.21 41.6725 -22.1875 41.375 C-25.3125 40.25 -25.3125 40.25 -27.3125 38.25 C-27.40337891 39.53197266 -27.40337891 39.53197266 -27.49609375 40.83984375 C-27.57988281 41.94457031 -27.66367187 43.04929687 -27.75 44.1875 C-27.83121094 45.28964844 -27.91242187 46.39179687 -27.99609375 47.52734375 C-28.3125 50.25 -28.3125 50.25 -29.3125 51.25 C-31.98308851 51.39115161 -34.63682238 51.29247107 -37.3125 51.25 C-37.498125 50.13625 -37.68375 49.0225 -37.875 47.875 C-38.349375 46.67875 -38.82375 45.4825 -39.3125 44.25 C-42.80276242 42.85961255 -42.80276242 42.85961255 -46.3125 42.25 C-46.6425 41.59 -46.9725 40.93 -47.3125 40.25 C-55.2325 40.25 -63.1525 40.25 -71.3125 40.25 C-71.3125 37.61 -71.3125 34.97 -71.3125 32.25 C-72.6325 32.25 -73.9525 32.25 -75.3125 32.25 Z " fill="#020202" transform="translate(83.3125,3.75)"/>
<path d="M0 0 C13.2 0 26.4 0 40 0 C40 9.9 40 19.8 40 30 C26.8 30 13.6 30 0 30 C0 20.1 0 10.2 0 0 Z " fill="#3188CF" transform="translate(64,94)"/>
<path d="M0 0 C3.96 0 7.92 0 12 0 C12.33 1.32 12.66 2.64 13 4 C14.32 4 15.64 4 17 4 C17.33 3.01 17.66 2.02 18 1 C19.32 1 20.64 1 22 1 C22.82347373 17.28648052 22.82347373 17.28648052 18 23 C13.11337141 26.98908457 8.92578079 27.70367229 2.65625 27.4453125 C-1.53960006 26.74189058 -4.17045411 25.14393988 -7 22 C-11.22680792 15.5916138 -10.27866269 8.44132584 -10 1 C-8.68 1 -7.36 1 -6 1 C-5.67 1.99 -5.34 2.98 -5 4 C-3.68 4 -2.36 4 -1 4 C-0.67 2.68 -0.34 1.36 0 0 Z " fill="#F9C59F" transform="translate(78,35)"/>
<path d="M0 0 C0.66209473 -0.00095673 1.32418945 -0.00191345 2.00634766 -0.00289917 C3.40852961 -0.00358076 4.8107147 -0.00172792 6.21289062 0.00244141 C8.36595713 0.00779004 10.51881502 0.0024958 12.671875 -0.00390625 C14.03125046 -0.00324546 15.3906258 -0.00196429 16.75 0 C18.61785156 0.00169189 18.61785156 0.00169189 20.5234375 0.00341797 C23.375 0.1328125 23.375 0.1328125 24.375 1.1328125 C24.47481214 3.8101263 24.51379875 6.45585425 24.5 9.1328125 C24.50580078 10.25816406 24.50580078 10.25816406 24.51171875 11.40625 C24.50161053 17.00620197 24.50161053 17.00620197 23.375 18.1328125 C21.16849344 18.23293651 18.95877614 18.2636243 16.75 18.265625 C16.08790527 18.26658173 15.42581055 18.26753845 14.74365234 18.26852417 C13.34147039 18.26920576 11.9392853 18.26735292 10.53710938 18.26318359 C8.38404287 18.25783496 6.23118498 18.2631292 4.078125 18.26953125 C2.71874954 18.26887046 1.3593742 18.26758929 0 18.265625 C-1.24523437 18.26449707 -2.49046875 18.26336914 -3.7734375 18.26220703 C-6.625 18.1328125 -6.625 18.1328125 -7.625 17.1328125 C-7.72481214 14.4554987 -7.76379875 11.80977075 -7.75 9.1328125 C-7.75386719 8.38257812 -7.75773437 7.63234375 -7.76171875 6.859375 C-7.74871783 -0.34313642 -7.00713641 0.00634704 0 0 Z " fill="#000000" transform="translate(75.625,105.8671875)"/>
<path d="M0 0 C1.05058594 -0.020625 2.10117188 -0.04125 3.18359375 -0.0625 C4.70919922 -0.07023438 4.70919922 -0.07023438 6.265625 -0.078125 C7.66216309 -0.09214355 7.66216309 -0.09214355 9.08691406 -0.10644531 C12.30485124 0.32426502 14.1400896 1.3436598 16.75 3.25 C18.75 6.25 18.75 6.25 18.75 16.25 C6.87 16.25 -5.01 16.25 -17.25 16.25 C-17.25 6.25 -17.25 6.25 -14.8125 3.1875 C-13.966875 2.548125 -13.12125 1.90875 -12.25 1.25 C-9.78423437 -1.21576563 -3.31043814 0.01601179 0 0 Z " fill="#2F84CA" transform="translate(83.25,7.75)"/>
<path d="M0 0 C11.88 0 23.76 0 36 0 C36 7.59 36 15.18 36 23 C34.68 23 33.36 23 32 23 C31.505 18.05 31.505 18.05 31 13 C30.34 13 29.68 13 29 13 C28.01 14.485 28.01 14.485 27 16 C26.01 15.67 25.02 15.34 24 15 C24 11.37 24 7.74 24 4 C22.68 4 21.36 4 20 4 C20 6.64 20 9.28 20 12 C13.4 12 6.8 12 0 12 C0 8.04 0 4.08 0 0 Z " fill="#338ED7" transform="translate(16,28)"/>
<path d="M0 0 C3.96 0 7.92 0 12 0 C12 7.92 12 15.84 12 24 C8.04 24 4.08 24 0 24 C0 16.08 0 8.16 0 0 Z " fill="#FEC9A3" transform="translate(108,100)"/>
<path d="M0 0 C0.13487595 2.77245014 0.23400807 5.53837088 0.3125 8.3125 C0.35439453 9.09818359 0.39628906 9.88386719 0.43945312 10.69335938 C0.48635823 12.89789948 0.47222441 14.84479311 0 17 C-2.33203125 18.85546875 -2.33203125 18.85546875 -5 20 C-6.75149165 21.58245275 -6.75149165 21.58245275 -8 23 C-16.51831088 16.75655967 -16.51831088 16.75655967 -17.5859375 12.86328125 C-17.29379542 8.82710779 -16.13634896 7.14933458 -13.375 4.125 C-9.01161962 1.37768643 -5.1696197 0 0 0 Z " fill="#DBDBD9" transform="translate(60,73)"/>
<path d="M0 0 C0.66 0 1.32 0 2 0 C2.33 2.31 2.66 4.62 3 7 C5.97 7.33 8.94 7.66 12 8 C12.10806144 10.91765891 12.18732877 13.83131125 12.25 16.75 C12.30027344 17.9875 12.30027344 17.9875 12.3515625 19.25 C12.45032598 25.37333584 12.45032598 25.37333584 10.14453125 28.58203125 C8 30 8 30 5.4375 29.9375 C2.76796378 28.9107553 1.70953254 28.27173806 0 26 C-0.34057617 23.27270508 -0.34057617 23.27270508 -0.29296875 20.01953125 C-0.28330078 18.85615234 -0.27363281 17.69277344 -0.26367188 16.49414062 C-0.2259668 14.67172852 -0.2259668 14.67172852 -0.1875 12.8125 C-0.17396484 11.58595703 -0.16042969 10.35941406 -0.14648438 9.09570312 C-0.11108741 6.06336336 -0.0617076 3.03190004 0 0 Z " fill="#FBC7A1" transform="translate(24,90)"/>
<path d="M0 0 C5.69792198 0.94965366 7.07276144 1.29717507 11 5 C12.65497356 8.30994713 12.10084335 11.99123 12.0625 15.625 C12.05798828 16.42679688 12.05347656 17.22859375 12.04882812 18.0546875 C12.03703168 20.03649006 12.01909605 22.01825433 12 24 C8.04 24 4.08 24 0 24 C0 16.08 0 8.16 0 0 Z " fill="#DDDDDB" transform="translate(108,72)"/>
<path d="M0 0 C1.27875 0.00257812 2.5575 0.00515625 3.875 0.0078125 C5.15375 0.00523438 6.4325 0.00265625 7.75 0 C10.875 0.1328125 10.875 0.1328125 11.875 1.1328125 C11.97409302 3.46441305 12.00470504 5.79911192 12 8.1328125 C12.00386719 10.0509375 12.00386719 10.0509375 12.0078125 12.0078125 C11.875 15.1328125 11.875 15.1328125 10.875 16.1328125 C8.54339945 16.23190552 6.20870058 16.26251754 3.875 16.2578125 C2.59625 16.26039062 1.3175 16.26296875 0 16.265625 C-3.125 16.1328125 -3.125 16.1328125 -4.125 15.1328125 C-4.22409302 12.80121195 -4.25470504 10.46651308 -4.25 8.1328125 C-4.25257812 6.8540625 -4.25515625 5.5753125 -4.2578125 4.2578125 C-4.08423261 0.17357989 -4.08423261 0.17357989 0 0 Z " fill="#FDC8A2" transform="translate(28.125,69.8671875)"/>
<path d="M0 0 C7.92 0 15.84 0 24 0 C24 3.3 24 6.6 24 10 C16.08 10 8.16 10 0 10 C0 6.7 0 3.4 0 0 Z " fill="#62A9E6" transform="translate(72,110)"/>
<path d="M0 0 C0 9.9 0 19.8 0 30 C-1.65 30 -3.3 30 -5 30 C-5 24.39 -5 18.78 -5 13 C-11.93 12.505 -11.93 12.505 -19 12 C-17.55633341 10.28774427 -16.1086158 8.57867476 -14.63671875 6.890625 C-13.26718835 5.30863762 -11.94056224 3.68964277 -10.625 2.0625 C-8 0 -8 0 0 0 Z " fill="#2C7CBE" transform="translate(104,94)"/>
<path d="M0 0 C2.97 1.98 2.97 1.98 6 4 C8.06319568 4.61313651 8.06319568 4.61313651 10 4.5 C10.928125 4.51546875 10.928125 4.51546875 11.875 4.53125 C14.86221237 3.91101099 14.86221237 3.91101099 20 0 C20 4.95 20 9.9 20 15 C13.4 15 6.8 15 0 15 C0 10.05 0 5.1 0 0 Z " fill="#DDDDDB" transform="translate(74,75)"/>
<path d="M0 0 C4.8270487 1.28721299 5.83922605 1.78563473 9 6 C9 9.3 9 12.6 9 16 C0.09 16 -8.82 16 -18 16 C-15.19288598 13.89466449 -12.437092 11.95853371 -9.5 10.0625 C-3.44864704 6.11956815 -3.44864704 6.11956815 0 0 Z " fill="#2C7BBC" transform="translate(93,8)"/>
<path d="M0 0 C6.6 0 13.2 0 20 0 C20 2.64 20 5.28 20 8 C13.4 8 6.8 8 0 8 C0 5.36 0 2.72 0 0 Z " fill="#D6D6D4" transform="translate(16,32)"/>
<path d="M0 0 C1.32 0 2.64 0 4 0 C4.82992569 16.41408594 4.82992569 16.41408594 0 22 C-2.31527228 23.85118652 -4.22304405 24.81722247 -7 26 C-7.66 25.67 -8.32 25.34 -9 25 C-8.65066406 24.40574219 -8.30132812 23.81148437 -7.94140625 23.19921875 C-4.7591912 17.40271939 -3.41463225 12.77014712 -3.23828125 6.15234375 C-3.12033203 5.08693359 -3.12033203 5.08693359 -3 4 C-2.34 3.67 -1.68 3.34 -1 3 C-0.67 2.01 -0.34 1.02 0 0 Z " fill="#F5B98E" transform="translate(96,36)"/>
<path d="M0 0 C5.28 0 10.56 0 16 0 C15.5154707 7.38907176 15.5154707 7.38907176 13.3125 10 C10.29654777 11.30419556 8.25769753 11.40721219 5 11 C2.6875 10 2.6875 10 1 8 C0.36556306 5.29697877 0.18296754 2.79025492 0 0 Z " fill="#F5BE97" transform="translate(76,65)"/>
<path d="M0 0 C11.88 0 23.76 0 36 0 C35.67 1.32 35.34 2.64 35 4 C23.78 4 12.56 4 1 4 C0.67 2.68 0.34 1.36 0 0 Z " fill="#3289D0" transform="translate(66,28)"/>
<path d="M0 0 C1.98 0 3.96 0 6 0 C6 6.27 6 12.54 6 19 C4.02 19 2.04 19 0 19 C0 12.73 0 6.46 0 0 Z " fill="#2C7CBD" transform="translate(98,71)"/>
<path d="M0 0 C0 6.27 0 12.54 0 19 C-1.98 19 -3.96 19 -6 19 C-6 13.06 -6 7.12 -6 1 C-2 0 -2 0 0 0 Z " fill="#2C7CBE" transform="translate(70,71)"/>
<path d="M0 0 C3.81360406 1.49820159 5.53926661 3.80001267 8 7 C6.52464063 9.00291212 5.04497707 11.00236777 3.5625 13 C3.14162109 13.57234375 2.72074219 14.1446875 2.28710938 14.734375 C1.21555864 16.17453919 0.11033324 17.58951996 -1 19 C-1.33 19 -1.66 19 -2 19 C-2.05428973 16.77110504 -2.09292338 14.54182529 -2.125 12.3125 C-2.15980469 10.45044922 -2.15980469 10.45044922 -2.1953125 8.55078125 C-2.01032021 5.18762143 -1.45767895 3.0014413 0 0 Z " fill="#F3AF7E" transform="translate(42,93)"/>
<path d="M0 0 C1.65 0 3.3 0 5 0 C6 1 6 1 6.1328125 4.125 C6.12894531 6.043125 6.12894531 6.043125 6.125 8 C6.12757812 9.27875 6.13015625 10.5575 6.1328125 11.875 C6 15 6 15 5 16 C3.35 16 1.7 16 0 16 C0 10.72 0 5.44 0 0 Z " fill="#FCBF92" transform="translate(34,70)"/>
<path d="M0 0 C6.6 0 13.2 0 20 0 C20 0.66 20 1.32 20 2 C17.22970414 2.50314563 14.4588348 3.00263838 11.6875 3.5 C10.50897461 3.71462891 10.50897461 3.71462891 9.30664062 3.93359375 C8.54931641 4.06894531 7.79199219 4.20429687 7.01171875 4.34375 C6.31522217 4.46943359 5.61872559 4.59511719 4.90112305 4.72460938 C3 5 3 5 0 5 C0 3.35 0 1.7 0 0 Z " fill="#DFDFDD" transform="translate(16,32)"/>
<path d="M0 0 C3.96 0 7.92 0 12 0 C12 1.32 12 2.64 12 4 C8.04 4 4.08 4 0 4 C0 2.68 0 1.36 0 0 Z " fill="#FEC093" transform="translate(108,100)"/>
<path d="M0 0 C0.33 0.99 0.66 1.98 1 3 C-2.63423209 5.32590854 -5.77088331 5.16265833 -10 5 C-10 3.68 -10 2.36 -10 1 C-6.59437148 0.22157062 -3.49234244 -0.09978121 0 0 Z " fill="#100C0A" transform="translate(90,45)"/>
<path d="M0 0 C1.21236328 0.02707031 1.21236328 0.02707031 2.44921875 0.0546875 C3.37154297 0.08949219 3.37154297 0.08949219 4.3125 0.125 C3.9825 1.445 3.6525 2.765 3.3125 4.125 C1.85457116 4.17899736 0.39607288 4.21779177 -1.0625 4.25 C-1.87460938 4.27320313 -2.68671875 4.29640625 -3.5234375 4.3203125 C-5.6875 4.125 -5.6875 4.125 -7.6875 2.125 C-4.48369983 -0.01086678 -3.66810033 -0.10632175 0 0 Z " fill="#2D7FC2" transform="translate(97.6875,27.875)"/>
<path d="M0 0 C2.64 0 5.28 0 8 0 C8 1.32 8 2.64 8 4 C5.36 4 2.72 4 0 4 C0 2.68 0 1.36 0 0 Z " fill="#F98500" transform="translate(30,90)"/>
<path d="M0 0 C2.64 0 5.28 0 8 0 C8 1.32 8 2.64 8 4 C5.36 4 2.72 4 0 4 C0 2.68 0 1.36 0 0 Z " fill="#F98500" transform="translate(30,62)"/>
<path d="M0 0 C1.98 0.99 1.98 0.99 4 2 C3.67 3.65 3.34 5.3 3 7 C2.01 7.33 1.02 7.66 0 8 C0 5.36 0 2.72 0 0 Z " fill="#ECAA7B" transform="translate(104,34)"/>
<path d="M0 0 C0.66 0 1.32 0 2 0 C2 2.64 2 5.28 2 8 C0.68 7.34 -0.64 6.68 -2 6 C-1.125 1.125 -1.125 1.125 0 0 Z " fill="#EDAB7B" transform="translate(62,34)"/>
</svg>
