<?xml version="1.0" encoding="UTF-8"?>
<svg version="1.1" xmlns="http://www.w3.org/2000/svg" width="128" height="128">
<path d="M0 0 C0.78890625 -0.00386719 1.5778125 -0.00773438 2.390625 -0.01171875 C3.21046875 -0.00011719 4.0303125 0.01148437 4.875 0.0234375 C6.10476562 0.00603516 6.10476562 0.00603516 7.359375 -0.01171875 C8.54273437 -0.00591797 8.54273437 -0.00591797 9.75 0 C10.46929687 0.00338379 11.18859375 0.00676758 11.9296875 0.01025391 C14.43496532 0.51017757 15.31154346 1.41232121 16.875 3.3984375 C17.70287039 6.21236059 18.26307675 9.02658281 18.8359375 11.90234375 C19.65564359 14.60737746 19.65564359 14.60737746 22.296875 15.71484375 C25.94406974 16.68190296 29.11545496 17.36964134 32.56640625 15.46484375 C33.14261719 15.09230469 33.71882813 14.71976563 34.3125 14.3359375 C36.95218345 12.74173043 38.03104288 12.38398909 41.25 12.0859375 C46.81137368 14.09953831 50.31551795 17.74314887 53.875 22.3984375 C55.1875 26.0234375 55.1875 26.0234375 54.875 29.3984375 C53.9717415 31.2665403 52.93477641 32.96515011 51.80859375 34.70703125 C49.90379616 38.15798254 50.59153454 41.32936776 51.55859375 44.9765625 C52.66606004 47.61779391 52.66606004 47.61779391 55.37109375 48.4375 C56.34175781 48.63085938 57.31242187 48.82421875 58.3125 49.0234375 C62.16656 49.81375074 64.39367877 50.28086864 66.875 53.3984375 C67.26318359 55.34375 67.26318359 55.34375 67.2734375 57.5234375 C67.27730469 58.31234375 67.28117187 59.10125 67.28515625 59.9140625 C67.27355469 60.73390625 67.26195313 61.55375 67.25 62.3984375 C67.26160156 63.21828125 67.27320312 64.038125 67.28515625 64.8828125 C67.28128906 65.67171875 67.27742188 66.460625 67.2734375 67.2734375 C67.27005371 67.99273437 67.26666992 68.71203125 67.26318359 69.453125 C66.76325993 71.95840282 65.86111629 72.83498096 63.875 74.3984375 C61.06107691 75.22630789 58.24685469 75.78651425 55.37109375 76.359375 C52.66606004 77.17908109 52.66606004 77.17908109 51.55859375 79.8203125 C50.59153454 83.46750724 49.90379616 86.63889246 51.80859375 90.08984375 C52.36740234 90.95416016 52.36740234 90.95416016 52.9375 91.8359375 C54.53170707 94.47562095 54.88944841 95.55448038 55.1875 98.7734375 C53.17389919 104.33481118 49.53028863 107.83895545 44.875 111.3984375 C41.25 112.7109375 41.25 112.7109375 37.875 112.3984375 C36.0068972 111.495179 34.30828739 110.45821391 32.56640625 109.33203125 C29.11545496 107.42723366 25.94406974 108.11497204 22.296875 109.08203125 C19.65564359 110.18949754 19.65564359 110.18949754 18.8359375 112.89453125 C18.64257812 113.86519531 18.44921875 114.83585937 18.25 115.8359375 C17.45968676 119.6899975 16.99256886 121.91711627 13.875 124.3984375 C11.9296875 124.78662109 11.9296875 124.78662109 9.75 124.796875 C8.96109375 124.80074219 8.1721875 124.80460937 7.359375 124.80859375 C6.12960938 124.79119141 6.12960938 124.79119141 4.875 124.7734375 C3.64523438 124.79083984 3.64523438 124.79083984 2.390625 124.80859375 C1.60171875 124.80472656 0.8128125 124.80085938 0 124.796875 C-0.71929687 124.79349121 -1.43859375 124.79010742 -2.1796875 124.78662109 C-4.68496532 124.28669743 -5.56154346 123.38455379 -7.125 121.3984375 C-7.95287039 118.58451441 -8.51307675 115.77029219 -9.0859375 112.89453125 C-9.91182119 110.15449461 -9.91182119 110.15449461 -12.7265625 109.05859375 C-13.91378906 108.73181641 -13.91378906 108.73181641 -15.125 108.3984375 C-15.13917969 109.13449219 -15.15335938 109.87054688 -15.16796875 110.62890625 C-15.39903887 115.35647591 -15.57780054 118.55276561 -18.1875 122.5859375 C-22.01571117 124.94802524 -24.74461506 125.31175663 -29.125 124.3984375 C-32 123.0234375 -32 123.0234375 -34.125 120.3984375 C-34.45550083 118.82647556 -34.71958959 117.239918 -34.9375 115.6484375 C-35.75496366 110.08151 -38.26761687 107.92909378 -42.34375 104.28125 C-44.96088974 101.51488738 -45.19803198 99.1230683 -45.125 95.3984375 C-44.795 94.4084375 -44.465 93.4184375 -44.125 92.3984375 C-44.888125 92.4603125 -45.65125 92.5221875 -46.4375 92.5859375 C-49.125 92.3984375 -49.125 92.3984375 -50.875 91.0859375 C-53.80343305 87.13255288 -53.20168575 83.07626824 -53.125 78.3984375 C-54.445 78.3984375 -55.765 78.3984375 -57.125 78.3984375 C-57.125 74.4384375 -57.125 70.4784375 -57.125 66.3984375 C-56.465 66.3984375 -55.805 66.3984375 -55.125 66.3984375 C-55.13660156 65.47160156 -55.14820313 64.54476562 -55.16015625 63.58984375 C-55.16917969 62.39230469 -55.17820313 61.19476563 -55.1875 59.9609375 C-55.19910156 58.76597656 -55.21070313 57.57101563 -55.22265625 56.33984375 C-55.125 53.3984375 -55.125 53.3984375 -54.125 52.3984375 C-53.8381854 49.13421415 -53.67612395 45.86979259 -53.50390625 42.59765625 C-53.15312547 39.63590926 -52.75632963 37.86004959 -51.125 35.3984375 C-48.16835481 33.9201149 -45.38270263 34.33810967 -42.125 34.3984375 C-42.640625 33.7178125 -43.15625 33.0371875 -43.6875 32.3359375 C-45.67269357 28.2792376 -45.56120701 26.70705853 -44.125 22.3984375 C-40.58064112 17.73798263 -37.05394142 14.09684733 -31.5 12.0859375 C-27.73976745 12.43410718 -25.91535494 13.4612729 -22.81640625 15.46484375 C-19.36545496 17.36964134 -16.19406974 16.68190296 -12.546875 15.71484375 C-9.90564359 14.60737746 -9.90564359 14.60737746 -9.0859375 11.90234375 C-8.79589844 10.44634766 -8.79589844 10.44634766 -8.5 8.9609375 C-7.36487734 3.42537181 -6.14348189 0.02890079 0 0 Z " fill="#F8C954" transform="translate(59.125,1.6015625)"/>
<path d="M0 0 C0.78890625 -0.00386719 1.5778125 -0.00773438 2.390625 -0.01171875 C3.21046875 -0.00011719 4.0303125 0.01148437 4.875 0.0234375 C6.10476562 0.00603516 6.10476562 0.00603516 7.359375 -0.01171875 C8.54273437 -0.00591797 8.54273437 -0.00591797 9.75 0 C10.46929687 0.00338379 11.18859375 0.00676758 11.9296875 0.01025391 C14.43496532 0.51017757 15.31154346 1.41232121 16.875 3.3984375 C17.70287039 6.21236059 18.26307675 9.02658281 18.8359375 11.90234375 C19.65564359 14.60737746 19.65564359 14.60737746 22.296875 15.71484375 C25.94406974 16.68190296 29.11545496 17.36964134 32.56640625 15.46484375 C33.14261719 15.09230469 33.71882813 14.71976563 34.3125 14.3359375 C36.95218345 12.74173043 38.03104288 12.38398909 41.25 12.0859375 C46.81137368 14.09953831 50.31551795 17.74314887 53.875 22.3984375 C55.1875 26.0234375 55.1875 26.0234375 54.875 29.3984375 C53.9717415 31.2665403 52.93477641 32.96515011 51.80859375 34.70703125 C49.90379616 38.15798254 50.59153454 41.32936776 51.55859375 44.9765625 C52.66606004 47.61779391 52.66606004 47.61779391 55.37109375 48.4375 C56.34175781 48.63085938 57.31242187 48.82421875 58.3125 49.0234375 C62.16656 49.81375074 64.39367877 50.28086864 66.875 53.3984375 C67.26318359 55.34375 67.26318359 55.34375 67.2734375 57.5234375 C67.27730469 58.31234375 67.28117187 59.10125 67.28515625 59.9140625 C67.27355469 60.73390625 67.26195313 61.55375 67.25 62.3984375 C67.26160156 63.21828125 67.27320312 64.038125 67.28515625 64.8828125 C67.28128906 65.67171875 67.27742188 66.460625 67.2734375 67.2734375 C67.27005371 67.99273437 67.26666992 68.71203125 67.26318359 69.453125 C66.76325993 71.95840282 65.86111629 72.83498096 63.875 74.3984375 C61.06107691 75.22630789 58.24685469 75.78651425 55.37109375 76.359375 C52.66606004 77.17908109 52.66606004 77.17908109 51.55859375 79.8203125 C50.59153454 83.46750724 49.90379616 86.63889246 51.80859375 90.08984375 C52.36740234 90.95416016 52.36740234 90.95416016 52.9375 91.8359375 C54.53170707 94.47562095 54.88944841 95.55448038 55.1875 98.7734375 C53.17389919 104.33481118 49.53028863 107.83895545 44.875 111.3984375 C41.25 112.7109375 41.25 112.7109375 37.875 112.3984375 C36.0068972 111.495179 34.30828739 110.45821391 32.56640625 109.33203125 C29.11545496 107.42723366 25.94406974 108.11497204 22.296875 109.08203125 C19.65564359 110.18949754 19.65564359 110.18949754 18.8359375 112.89453125 C18.64257812 113.86519531 18.44921875 114.83585937 18.25 115.8359375 C17.45968676 119.6899975 16.99256886 121.91711627 13.875 124.3984375 C11.9296875 124.78662109 11.9296875 124.78662109 9.75 124.796875 C8.96109375 124.80074219 8.1721875 124.80460937 7.359375 124.80859375 C6.12960938 124.79119141 6.12960938 124.79119141 4.875 124.7734375 C3.64523438 124.79083984 3.64523438 124.79083984 2.390625 124.80859375 C1.60171875 124.80472656 0.8128125 124.80085938 0 124.796875 C-0.71929687 124.79349121 -1.43859375 124.79010742 -2.1796875 124.78662109 C-4.68496532 124.28669743 -5.56154346 123.38455379 -7.125 121.3984375 C-7.95287039 118.58451441 -8.51307675 115.77029219 -9.0859375 112.89453125 C-9.91182119 110.15449461 -9.91182119 110.15449461 -12.7265625 109.05859375 C-13.91378906 108.73181641 -13.91378906 108.73181641 -15.125 108.3984375 C-15.13917969 109.13449219 -15.15335938 109.87054688 -15.16796875 110.62890625 C-15.39903887 115.35647591 -15.57780054 118.55276561 -18.1875 122.5859375 C-22.01571117 124.94802524 -24.74461506 125.31175663 -29.125 124.3984375 C-32 123.0234375 -32 123.0234375 -34.125 120.3984375 C-34.45550083 118.82647556 -34.71958959 117.239918 -34.9375 115.6484375 C-35.75496366 110.08151 -38.26761687 107.92909378 -42.34375 104.28125 C-44.96088974 101.51488738 -45.19803198 99.1230683 -45.125 95.3984375 C-44.795 94.4084375 -44.465 93.4184375 -44.125 92.3984375 C-44.888125 92.4603125 -45.65125 92.5221875 -46.4375 92.5859375 C-49.125 92.3984375 -49.125 92.3984375 -50.875 91.0859375 C-53.80343305 87.13255288 -53.20168575 83.07626824 -53.125 78.3984375 C-54.445 78.3984375 -55.765 78.3984375 -57.125 78.3984375 C-57.125 74.4384375 -57.125 70.4784375 -57.125 66.3984375 C-56.465 66.3984375 -55.805 66.3984375 -55.125 66.3984375 C-55.13660156 65.47160156 -55.14820313 64.54476562 -55.16015625 63.58984375 C-55.16917969 62.39230469 -55.17820313 61.19476563 -55.1875 59.9609375 C-55.19910156 58.76597656 -55.21070313 57.57101563 -55.22265625 56.33984375 C-55.125 53.3984375 -55.125 53.3984375 -54.125 52.3984375 C-53.8381854 49.13421415 -53.67612395 45.86979259 -53.50390625 42.59765625 C-53.15312547 39.63590926 -52.75632963 37.86004959 -51.125 35.3984375 C-48.16835481 33.9201149 -45.38270263 34.33810967 -42.125 34.3984375 C-42.640625 33.7178125 -43.15625 33.0371875 -43.6875 32.3359375 C-45.67269357 28.2792376 -45.56120701 26.70705853 -44.125 22.3984375 C-40.58064112 17.73798263 -37.05394142 14.09684733 -31.5 12.0859375 C-27.73976745 12.43410718 -25.91535494 13.4612729 -22.81640625 15.46484375 C-19.36545496 17.36964134 -16.19406974 16.68190296 -12.546875 15.71484375 C-9.90564359 14.60737746 -9.90564359 14.60737746 -9.0859375 11.90234375 C-8.79589844 10.44634766 -8.79589844 10.44634766 -8.5 8.9609375 C-7.36487734 3.42537181 -6.14348189 0.02890079 0 0 Z M-3.125 4.3984375 C-3.49625 5.9453125 -3.8675 7.4921875 -4.25 9.0859375 C-5.80705331 14.34564868 -7.59042548 16.40754792 -12.125 19.3984375 C-15.58287727 21.12737613 -19.34437568 20.89572029 -23.125 20.3984375 C-25.16549422 19.1279411 -27.17517465 17.80412554 -29.125 16.3984375 C-32.8782959 16.67645942 -34.8311341 18.6426903 -37.4375 21.2109375 C-38.15550781 21.89800781 -38.87351562 22.58507812 -39.61328125 23.29296875 C-41.33280631 25.23095214 -41.33280631 25.23095214 -41.04296875 27.34765625 C-40.74003906 28.02441406 -40.43710937 28.70117188 -40.125 29.3984375 C-39.7846875 30.29304688 -39.444375 31.18765625 -39.09375 32.109375 C-37.19281439 34.82125891 -37.19281439 34.82125891 -33.21875 35 C-31.68781112 35.03183928 -30.15619312 35.03877499 -28.625 35.0234375 C-20.72865029 35.0234375 -20.72865029 35.0234375 -18.38085938 36.48193359 C-17.125 38.3984375 -17.125 38.3984375 -17.125 45.3984375 C-24.715 45.7284375 -32.305 46.0584375 -40.125 46.3984375 C-40.125 50.0284375 -40.125 53.6584375 -40.125 57.3984375 C-39.135 57.3984375 -38.145 57.3984375 -37.125 57.3984375 C-36.795 55.0884375 -36.465 52.7784375 -36.125 50.3984375 C-29.855 50.3984375 -23.585 50.3984375 -17.125 50.3984375 C-17.13660156 51.97778076 -17.14820312 53.55712402 -17.16015625 55.18432617 C-17.19269491 61.04588922 -17.17285316 66.90630977 -17.13720703 72.76782227 C-17.12909765 75.30427518 -17.13518189 77.84081488 -17.15576172 80.37719727 C-17.18289176 84.02475944 -17.15892692 87.66896398 -17.125 91.31640625 C-17.1444165 92.44991013 -17.16383301 93.583414 -17.18383789 94.75126648 C-17.24948956 100.49849277 -17.24948956 100.49849277 -14.36303711 105.15322876 C-12.26342855 106.50050994 -12.26342855 106.50050994 -10.07788086 107.44258118 C-6.90769999 108.9942567 -5.69005523 111.33092925 -4.125 114.3984375 C-3.795 116.3784375 -3.465 118.3584375 -3.125 120.3984375 C2.155 120.3984375 7.435 120.3984375 12.875 120.3984375 C13.101875 119.2021875 13.32875 118.0059375 13.5625 116.7734375 C14.86992112 111.54375301 17.35473714 108.31036105 21.6875 105.0234375 C25.83132836 103.83948654 29.88590101 103.43804425 33.80859375 105.33203125 C34.40800781 105.70457031 35.00742188 106.07710938 35.625 106.4609375 C38.52358422 108.60963639 38.52358422 108.60963639 40.80859375 108.2578125 C43.4922495 107.14173639 45.12043995 105.62276633 47.1875 103.5859375 C47.90550781 102.89886719 48.62351562 102.21179688 49.36328125 101.50390625 C51.11423889 99.54509121 51.11423889 99.54509121 50.703125 97.30859375 C49.83673488 95.21647808 49.83673488 95.21647808 48.3125 92.6484375 C46.56094475 88.68839955 46.1164666 85.65986107 46.875 81.3984375 C49.28699133 76.57445485 52.1481911 73.95091431 56.875 71.3984375 C58.855 71.0684375 60.835 70.7384375 62.875 70.3984375 C62.875 65.1184375 62.875 59.8384375 62.875 54.3984375 C61.67875 54.1715625 60.4825 53.9446875 59.25 53.7109375 C54.1917971 52.44638677 50.49846977 50.08939424 47.734375 45.5078125 C46.24585792 41.85417967 46.28932738 38.26926229 46.875 34.3984375 C48.1454964 32.35794328 49.46931196 30.34826285 50.875 28.3984375 C50.59697808 24.6451416 48.6307472 22.6923034 46.0625 20.0859375 C45.03189453 19.00892578 45.03189453 19.00892578 43.98046875 17.91015625 C42.02165371 16.15919861 42.02165371 16.15919861 39.78515625 16.5703125 C37.69304058 17.43670262 37.69304058 17.43670262 35.125 18.9609375 C31.17379756 20.70858473 28.12805196 21.17094794 23.875 20.3984375 C19.99690734 18.34963383 17.01816565 16.25613567 14.875 12.3984375 C14.06360629 9.74482286 13.4637852 7.11590765 12.875 4.3984375 C7.595 4.3984375 2.315 4.3984375 -3.125 4.3984375 Z " fill="#0C0906" transform="translate(59.125,1.6015625)"/>
<path d="M0 0 C1.72265625 0.97265625 1.72265625 0.97265625 2.72265625 1.97265625 C4.40449573 2.20552633 6.09389785 2.38529791 7.78515625 2.53515625 C8.70425781 2.61894531 9.62335938 2.70273437 10.5703125 2.7890625 C11.63572266 2.87994141 11.63572266 2.87994141 12.72265625 2.97265625 C12.69945312 3.69710937 12.67625 4.4215625 12.65234375 5.16796875 C12.5501852 10.64074833 12.85012159 14.79564865 14.72265625 19.97265625 C14.87314005 21.65807486 14.99581611 23.34610035 15.09765625 25.03515625 C15.47066638 29.57231579 16.6106242 31.5777122 19.72265625 34.97265625 C22.35471718 40.65236668 22.31197067 46.8123726 22.72265625 52.97265625 C17.44265625 52.97265625 12.16265625 52.97265625 6.72265625 52.97265625 C6.39265625 51.98265625 6.06265625 50.99265625 5.72265625 49.97265625 C4.70945312 50.60494141 4.70945312 50.60494141 3.67578125 51.25 C2.78375 51.79785156 1.89171875 52.34570312 0.97265625 52.91015625 C0.0909375 53.45542969 -0.79078125 54.00070313 -1.69921875 54.5625 C-8.47786409 58.27021359 -16.76046095 57.54459298 -24.27734375 56.97265625 C-27.44427959 55.97095969 -29.49444395 54.82792279 -32.27734375 52.97265625 C-32.27734375 51.98265625 -32.27734375 50.99265625 -32.27734375 49.97265625 C-29.46276765 50.48439736 -26.86739265 51.11203963 -24.15234375 52.03515625 C-14.76518079 54.30624406 -8.35752514 53.13022445 0.19140625 48.67578125 C2.73422727 46.96487081 4.24548241 45.65267164 5.72265625 42.97265625 C5.39265625 41.98265625 5.06265625 40.99265625 4.72265625 39.97265625 C-2.53734375 39.64265625 -9.79734375 39.31265625 -17.27734375 38.97265625 C-17.60734375 40.29265625 -17.93734375 41.61265625 -18.27734375 42.97265625 C-23.60903487 46.70484003 -26.14173095 45.97265625 -33.27734375 45.97265625 C-33.27734375 36.73265625 -33.27734375 27.49265625 -33.27734375 17.97265625 C-23.15234375 17.97265625 -23.15234375 17.97265625 -17.27734375 21.97265625 C-17.27734375 22.96265625 -17.27734375 23.95265625 -17.27734375 24.97265625 C-15.95734375 24.97265625 -14.63734375 24.97265625 -13.27734375 24.97265625 C-13.27734375 23.32265625 -13.27734375 21.67265625 -13.27734375 19.97265625 C-11.95734375 19.97265625 -10.63734375 19.97265625 -9.27734375 19.97265625 C-9.27734375 17.33265625 -9.27734375 14.69265625 -9.27734375 11.97265625 C-10.13199219 11.98425781 -10.98664063 11.99585938 -11.8671875 12.0078125 C-12.97191406 12.01683594 -14.07664062 12.02585937 -15.21484375 12.03515625 C-16.31699219 12.04675781 -17.41914062 12.05835938 -18.5546875 12.0703125 C-21.27734375 11.97265625 -21.27734375 11.97265625 -22.27734375 10.97265625 C-22.40234375 7.47265625 -22.40234375 7.47265625 -22.27734375 3.97265625 C-20.46618419 2.16149669 -17.66456148 2.59066177 -15.21484375 2.41015625 C-14.11011719 2.32636719 -13.00539063 2.24257813 -11.8671875 2.15625 C-10.58521484 2.06537109 -10.58521484 2.06537109 -9.27734375 1.97265625 C-10.88911543 0.36088457 -12.61549319 0.76340771 -14.83984375 0.72265625 C-19.98047314 0.7520733 -23.56096003 2.02104919 -28.27734375 3.97265625 C-29.59734375 3.97265625 -30.91734375 3.97265625 -32.27734375 3.97265625 C-32.27734375 2.98265625 -32.27734375 1.99265625 -32.27734375 0.97265625 C-22.7102419 -5.40541165 -10.20253521 -4.75209904 0 0 Z " fill="#11100F" transform="translate(79.27734375,37.02734375)"/>
<path d="M0 0 C1.28583984 -0.02126953 1.28583984 -0.02126953 2.59765625 -0.04296875 C4.9375 0.1875 4.9375 0.1875 7.9375 2.1875 C5.23566945 3.53841528 2.81941794 3.52608058 -0.1875 3.75 C-1.28320312 3.83378906 -2.37890625 3.91757812 -3.5078125 4.00390625 C-4.35085937 4.06449219 -5.19390625 4.12507813 -6.0625 4.1875 C-6.0625 6.4975 -6.0625 8.8075 -6.0625 11.1875 C-2.1025 11.5175 1.8575 11.8475 5.9375 12.1875 C5.9375 14.8275 5.9375 17.4675 5.9375 20.1875 C4.6175 20.1875 3.2975 20.1875 1.9375 20.1875 C1.9375 21.8375 1.9375 23.4875 1.9375 25.1875 C0.6175 25.1875 -0.7025 25.1875 -2.0625 25.1875 C-2.0625 24.1975 -2.0625 23.2075 -2.0625 22.1875 C-2.84625 21.878125 -3.63 21.56875 -4.4375 21.25 C-7.0625 20.1875 -7.0625 20.1875 -9.0625 19.1875 C-12.0325 18.8575 -15.0025 18.5275 -18.0625 18.1875 C-18.0625 27.4275 -18.0625 36.6675 -18.0625 46.1875 C-9.81397021 45.50946947 -9.81397021 45.50946947 -3.0625 42.1875 C-2.7325 41.1975 -2.4025 40.2075 -2.0625 39.1875 C5.1975 39.1875 12.4575 39.1875 19.9375 39.1875 C20.9275 41.1675 20.9275 41.1675 21.9375 43.1875 C17.32796469 49.58418375 10.93790976 53.25080352 3.1640625 54.70703125 C-4.31737505 55.00321719 -13.43640144 53.33905977 -19.70239258 49.0703125 C-21.7599671 46.22198819 -21.5425798 43.28363858 -21.57421875 39.89453125 C-21.60114555 38.83548836 -21.60114555 38.83548836 -21.62861633 37.75505066 C-21.68273178 35.50342759 -21.71661722 33.25201657 -21.75 31 C-21.78317219 29.47197569 -21.81766177 27.94397937 -21.85351562 26.41601562 C-21.94093734 22.67314643 -22.00098807 18.93124353 -22.0625 15.1875 C-28.3325 15.1875 -34.6025 15.1875 -41.0625 15.1875 C-41.3925 17.4975 -41.7225 19.8075 -42.0625 22.1875 C-43.0525 22.1875 -44.0425 22.1875 -45.0625 22.1875 C-45.0625 18.5575 -45.0625 14.9275 -45.0625 11.1875 C-43.43699219 11.17332031 -41.81148437 11.15914062 -40.13671875 11.14453125 C-38.00778383 11.09763841 -35.87887843 11.04939099 -33.75 11 C-32.67814453 10.99419922 -31.60628906 10.98839844 -30.50195312 10.98242188 C-29.47392578 10.95341797 -28.44589844 10.92441406 -27.38671875 10.89453125 C-25.9649231 10.87096558 -25.9649231 10.87096558 -24.5144043 10.84692383 C-21.82150458 10.40743071 -21.82150458 10.40743071 -20.37597656 7.72631836 C-19.9425293 6.8885083 -19.50908203 6.05069824 -19.0625 5.1875 C-16.72265625 3.859375 -16.72265625 3.859375 -14.125 2.9375 C-13.27035156 2.62296875 -12.41570313 2.3084375 -11.53515625 1.984375 C-7.5716569 0.70703872 -4.18326419 0.031548 0 0 Z " fill="#ECEEEF" transform="translate(64.0625,36.8125)"/>
<path d="M0 0 C9.9 0 19.8 0 30 0 C30.06290476 7.24336708 30.12300851 14.48574559 30.15525055 21.72914886 C30.17109508 25.10218486 30.19226926 28.47499486 30.22631836 31.84790039 C30.26261749 35.71767249 30.2797075 39.58712026 30.29296875 43.45703125 C30.30845261 44.66647903 30.32393646 45.87592682 30.33988953 47.12202454 C30.34011612 48.24296005 30.34034271 49.36389557 30.34057617 50.51879883 C30.34723801 51.50697098 30.35389984 52.49514313 30.36076355 53.51325989 C30 56 30 56 28.63496399 57.81913757 C26.29883924 59.50641751 24.81288706 59.42193306 22 59 C20.36206055 57.94604492 20.36206055 57.94604492 19 56 C18.73846931 53.41225229 18.65041562 51.07100347 18.70703125 48.48828125 C18.71127609 47.76005661 18.71552094 47.03183197 18.71989441 46.28153992 C18.73667267 43.95814873 18.77432145 41.6356285 18.8125 39.3125 C18.82754803 37.73634066 18.84123623 36.16016771 18.85351562 34.58398438 C18.88657315 30.72232123 18.93834806 26.86130822 19 23 C16.03 22.01 13.06 21.02 10 20 C10 19.01 10 18.02 10 17 C11.32 16.67 12.64 16.34 14 16 C14 12.7 14 9.4 14 6 C7.07 5.505 7.07 5.505 0 5 C0 3.35 0 1.7 0 0 Z " fill="#F36A80" transform="translate(9,63)"/>
<path d="M0 0 C3.49971199 -0.1173794 6.99890955 -0.18763961 10.5 -0.25 C11.48226562 -0.28351563 12.46453125 -0.31703125 13.4765625 -0.3515625 C19.85948733 -0.43666816 24.71024121 0.25060722 30 4 C34.15135954 8.47069489 35.13132731 10.95894392 35 17 C32.69 17 30.38 17 28 17 C27.71125 16.05125 27.4225 15.1025 27.125 14.125 C26.23174891 10.94788422 26.23174891 10.94788422 24 9 C21.47962036 8.62864085 21.47962036 8.62864085 18.5546875 8.5859375 C16.94013672 8.52792969 16.94013672 8.52792969 15.29296875 8.46875 C14.16503906 8.4378125 13.03710938 8.406875 11.875 8.375 C10.17150391 8.31699219 10.17150391 8.31699219 8.43359375 8.2578125 C5.62256044 8.16332399 2.81153767 8.07776459 0 8 C0 5.36 0 2.72 0 0 Z " fill="#B9BFC5" transform="translate(62,65)"/>
<path d="M0 0 C1.12591553 0.00523682 2.25183105 0.01047363 3.41186523 0.01586914 C4.62680664 0.0190918 5.84174805 0.02231445 7.09350586 0.02563477 C8.37290039 0.03401367 9.65229492 0.04239258 10.97045898 0.05102539 C12.2537207 0.05553711 13.53698242 0.06004883 14.85913086 0.06469727 C18.04211921 0.07652994 21.22501661 0.09301471 24.40795898 0.11352539 C24.73795898 1.43352539 25.06795898 2.75352539 25.40795898 4.11352539 C17.81795898 4.44352539 10.22795898 4.77352539 2.40795898 5.11352539 C2.07795898 10.06352539 1.74795898 15.01352539 1.40795898 20.11352539 C-0.24204102 20.11352539 -1.89204102 20.11352539 -3.59204102 20.11352539 C-3.62092616 16.96771116 -3.63880025 13.8219307 -3.65454102 10.67602539 C-3.66291992 9.77819336 -3.67129883 8.88036133 -3.67993164 7.95532227 C-3.6831543 7.10131836 -3.68637695 6.24731445 -3.68969727 5.36743164 C-3.69755249 4.18129272 -3.69755249 4.18129272 -3.70556641 2.97119141 C-3.52438166 0.00638556 -2.98058501 0.13054272 0 0 Z " fill="#9EA5AF" transform="translate(13.592041015625,39.886474609375)"/>
<path d="M0 0 C2.85306644 -0.2338579 5.20377535 -0.41446017 8 0 C11.99650054 3.86758116 11.70301021 9.72587095 12 15 C9.69 14.34 7.38 13.68 5 13 C4.67 11.68 4.34 10.36 4 9 C2.68 8.67 1.36 8.34 0 8 C0 5.36 0 2.72 0 0 Z " fill="#ECEEF0" transform="translate(79,49)"/>
<path d="M0 0 C6.93 0 13.86 0 21 0 C20.67 0.99 20.34 1.98 20 3 C12.08 3.495 12.08 3.495 4 4 C3.67 6.31 3.34 8.62 3 11 C2.01 11 1.02 11 0 11 C0 7.37 0 3.74 0 0 Z " fill="#FCCD57" transform="translate(19,48)"/>
<path d="M0 0 C1.32 0 2.64 0 4 0 C4 6.6 4 13.2 4 20 C2.68 20 1.36 20 0 20 C0 13.4 0 6.8 0 0 Z " fill="#B3B8BE" transform="translate(49,59)"/>
<path d="M0 0 C0.66 0.33 1.32 0.66 2 1 C2 6.94 2 12.88 2 19 C-0.31 17.02 -2.62 15.04 -5 13 C-4.19595286 9.78381144 -3.29662577 7.23130815 -1.9375 4.25 C-1.57527344 3.45078125 -1.21304687 2.6515625 -0.83984375 1.828125 C-0.56269531 1.22484375 -0.28554688 0.6215625 0 0 Z " fill="#E3B84D" transform="translate(23,88)"/>
<path d="M0 0 C4.62 0 9.24 0 14 0 C14 1.32 14 2.64 14 4 C9.38 4 4.76 4 0 4 C0 2.68 0 1.36 0 0 Z " fill="#636C77" transform="translate(6,72)"/>
<path d="M0 0 C4.29 0 8.58 0 13 0 C13 1.32 13 2.64 13 4 C8.71 4 4.42 4 0 4 C0 2.68 0 1.36 0 0 Z " fill="#A9B0BB" transform="translate(26,55)"/>
<path d="M0 0 C0.99 0.33 1.98 0.66 3 1 C3 6.28 3 11.56 3 17 C2.01 17.33 1.02 17.66 0 18 C0 12.06 0 6.12 0 0 Z " fill="#989FA9" transform="translate(56,60)"/>
<path d="M0 0 C1.65 0 3.3 0 5 0 C5 2.97 5 5.94 5 9 C3.68 9.33 2.36 9.66 1 10 C0 9 0 9 -0.09765625 6.93359375 C-0.08605469 6.10988281 -0.07445312 5.28617187 -0.0625 4.4375 C-0.05347656 3.61121094 -0.04445313 2.78492187 -0.03515625 1.93359375 C-0.02355469 1.29550781 -0.01195312 0.65742187 0 0 Z " fill="#959BA5" transform="translate(10,80)"/>
<path d="M0 0 C1.65 0 3.3 0 5 0 C5.625 1.875 5.625 1.875 6 4 C5.34 4.66 4.68 5.32 4 6 C1.875 5.625 1.875 5.625 0 5 C0 3.35 0 1.7 0 0 Z " fill="#959BA5" transform="translate(72,42)"/>
<path d="M0 0 C0.66 0 1.32 0 2 0 C2 1.98 2 3.96 2 6 C1.34 6 0.68 6 0 6 C0 8.64 0 11.28 0 14 C-0.33 14 -0.66 14 -1 14 C-1.02685938 11.85423363 -1.04633088 9.70837355 -1.0625 7.5625 C-1.07410156 6.36753906 -1.08570313 5.17257813 -1.09765625 3.94140625 C-1 1 -1 1 0 0 Z " fill="#F3C552" transform="translate(5,54)"/>
<path d="M0 0 C1.32 0.33 2.64 0.66 4 1 C3.67 2.32 3.34 3.64 3 5 C2.01 5 1.02 5 0 5 C0 3.35 0 1.7 0 0 Z " fill="#291215" transform="translate(32,114)"/>
</svg>
