<?xml version="1.0" encoding="UTF-8"?>
<svg version="1.1" xmlns="http://www.w3.org/2000/svg" width="128" height="128">
<path d="M0 0 C1.37893181 -0.0131424 1.37893181 -0.0131424 2.78572083 -0.02655029 C5.81921834 -0.04852586 8.85125374 -0.03399783 11.88476562 -0.01708984 C13.99556762 -0.0204585 16.10636773 -0.02531153 18.21716309 -0.03158569 C22.6389413 -0.03895454 27.06021417 -0.02825076 31.48193359 -0.00488281 C37.14837619 0.02360455 42.81363472 0.00720071 48.48003387 -0.02274513 C52.83812371 -0.04081751 57.19593306 -0.03506026 61.55403137 -0.02210617 C63.64321533 -0.01877202 65.73242481 -0.02285955 67.82157898 -0.03450394 C70.74241531 -0.04721133 73.66133743 -0.0278367 76.58203125 0 C77.44451981 -0.01012115 78.30700836 -0.02024231 79.19563293 -0.03067017 C83.37153886 0.04301842 85.31586222 0.32050849 88.84161377 2.74295044 C91.29190116 6.39314139 91.34898157 8.38614668 91.19042969 12.75830078 C91.17010807 13.45387337 91.14978645 14.14944595 91.12884903 14.8660965 C91.04984467 17.12934802 90.92677877 19.38645107 90.79101562 21.64697266 C90.74861252 22.39377289 90.70620941 23.14057312 90.66252136 23.91000366 C90.32607709 29.56911242 89.87345143 35.21663082 89.40039062 40.86572266 C89.25293242 42.66214194 89.10557524 44.45856952 88.95831299 46.25500488 C88.65047599 49.98667633 88.33691911 53.71781838 88.02001953 57.44873047 C87.61648653 62.2127726 87.23454221 66.97828958 86.85760117 71.74449921 C86.56163445 75.44132708 86.25076352 79.13679329 85.93579865 82.83204651 C85.78849672 84.58895108 85.64656722 86.34631529 85.51030731 88.10411072 C85.31844345 90.55946462 85.10558676 93.01216906 84.88769531 95.46533203 C84.83662125 96.17819366 84.78554718 96.8910553 84.73292542 97.6255188 C84.17656592 103.48162775 82.40371574 109.06012757 78.13864517 113.28299141 C71.98776455 118.21184386 64.10706099 117.37164767 56.63476562 117.31103516 C55.16320394 117.31440978 53.69164499 117.31926776 52.22009277 117.32553101 C49.1469449 117.33287214 46.07452731 117.32228775 43.00146484 117.29882812 C39.08062349 117.27034029 35.16149372 117.2867594 31.24071503 117.31669044 C28.20525432 117.33483938 25.1701932 117.32897111 22.13471985 117.31605148 C20.68996473 117.31273833 19.24517221 117.31673028 17.80046082 117.32844925 C9.69406463 117.37978978 2.97445378 117.39981174 -3.20898438 111.64697266 C-7.11875817 106.51078397 -7.66435912 100.9083754 -7.20898438 94.64697266 C-8.85898437 94.64697266 -10.50898438 94.64697266 -12.20898438 94.64697266 C-12.20898438 96.95697266 -12.20898438 99.26697266 -12.20898438 101.64697266 C-14.14648437 102.20947266 -14.14648437 102.20947266 -16.20898438 102.64697266 C-17.87459837 100.98135866 -17.38014382 98.98734561 -17.39648438 96.70947266 C-17.41066406 95.81357422 -17.42484375 94.91767578 -17.43945312 93.99462891 C-17.20898438 91.64697266 -17.20898438 91.64697266 -15.20898438 89.64697266 C-11.58398437 89.52197266 -11.58398437 89.52197266 -8.20898438 89.64697266 C-8.20898438 88.65697266 -8.20898438 87.66697266 -8.20898438 86.64697266 C-9.32273437 86.68822266 -10.43648437 86.72947266 -11.58398438 86.77197266 C-15.20898438 86.64697266 -15.20898438 86.64697266 -17.20898438 84.64697266 C-17.40429688 82.26416016 -17.40429688 82.26416016 -17.33398438 79.52197266 C-17.3159375 78.61189453 -17.29789063 77.70181641 -17.27929688 76.76416016 C-17.25609375 76.06548828 -17.23289062 75.36681641 -17.20898438 74.64697266 C-15.55898437 74.64697266 -13.90898437 74.64697266 -12.20898438 74.64697266 C-12.20898438 76.95697266 -12.20898438 79.26697266 -12.20898438 81.64697266 C-10.88898437 81.64697266 -9.56898437 81.64697266 -8.20898438 81.64697266 C-8.53898437 80.65697266 -8.86898438 79.66697266 -9.20898438 78.64697266 C-9.43669061 76.80635189 -9.62135228 74.96027433 -9.78149414 73.11254883 C-9.88152237 71.97673874 -9.9815506 70.84092865 -10.08460999 69.67070007 C-10.2409214 67.82397453 -10.2409214 67.82397453 -10.40039062 65.93994141 C-10.5099559 64.66782303 -10.61952118 63.39570465 -10.73240662 62.08503723 C-10.96437398 59.38429465 -11.19342975 56.6833233 -11.4206543 53.98217773 C-11.70885242 50.56063005 -12.00568464 47.13989705 -12.30503941 43.71930981 C-12.5923301 40.41831786 -12.87082093 37.11659615 -13.15039062 33.81494141 C-13.25662247 32.60605759 -13.36285431 31.39717377 -13.4723053 30.1516571 C-13.76201757 26.65127203 -14.00195273 23.1531872 -14.20898438 19.64697266 C-14.28841278 18.38648102 -14.36784119 17.12598938 -14.44967651 15.82730103 C-14.4952066 14.58870331 -14.54073669 13.35010559 -14.58764648 12.07397461 C-14.63610214 10.9604512 -14.6845578 9.8469278 -14.73448181 8.69966125 C-14.20898438 5.64697266 -14.20898438 5.64697266 -12.26087952 2.78572083 C-8.08703037 -0.13928538 -4.98469775 -0.05849457 0 0 Z " fill="#E3E2FE" transform="translate(27.208984375,5.35302734375)"/>
<path d="M0 0 C1.25159912 0.00523682 2.50319824 0.01047363 3.79272461 0.01586914 C4.78942421 0.01799156 4.78942421 0.01799156 5.80625916 0.02015686 C7.93590735 0.02577021 10.06545175 0.03832485 12.19506836 0.05102539 C13.63582205 0.05603868 15.07657739 0.06060188 16.51733398 0.06469727 C20.05577938 0.07574394 23.59416375 0.09301747 27.13256836 0.11352539 C27.42131836 1.22727539 27.71006836 2.34102539 28.00756836 3.48852539 C28.82498165 7.11643631 28.82498165 7.11643631 31.13256836 9.11352539 C35.77079998 9.5918049 35.77079998 9.5918049 40.00756836 7.98852539 C41.52319175 5.4624864 41.7018379 3.00333518 42.13256836 0.11352539 C46.36839163 0.06413911 50.60406301 0.02781276 54.84008789 0.00366211 C56.28152383 -0.00640424 57.72293931 -0.02005841 59.16430664 -0.03735352 C61.23450769 -0.06157473 63.30443912 -0.07295102 65.37475586 -0.08178711 C67.24429932 -0.09749756 67.24429932 -0.09749756 69.15161133 -0.11352539 C72.13256836 0.11352539 72.13256836 0.11352539 74.13256836 2.11352539 C74.15966797 4.2734375 74.15966797 4.2734375 73.84741211 6.95336914 C73.73768066 7.94449707 73.62794922 8.935625 73.51489258 9.95678711 C73.38872559 10.99851074 73.26255859 12.04023438 73.13256836 13.11352539 C72.9645874 14.60456787 72.9645874 14.60456787 72.79321289 16.12573242 C72.43431231 19.31002059 72.06500195 22.49300134 71.69506836 25.67602539 C70.84998653 32.94880473 70.09020189 40.20340028 69.63256836 47.51196289 C69.55707764 48.69330811 69.48158691 49.87465332 69.40380859 51.09179688 C69.2671794 53.35600625 69.14627661 55.62123282 69.04296875 57.88720703 C68.98101318 58.90935303 68.91905762 59.93149902 68.85522461 60.98461914 C68.78960327 62.32931274 68.78960327 62.32931274 68.72265625 63.70117188 C67.95566979 66.83670899 66.59707608 68.08710792 64.13256836 70.11352539 C57.12077891 72.52276261 49.45999751 72.36863898 42.13256836 72.11352539 C42.13256836 74.09352539 42.13256836 76.07352539 42.13256836 78.11352539 C41.14256836 78.44352539 40.15256836 78.77352539 39.13256836 79.11352539 C39.13256836 81.09352539 39.13256836 83.07352539 39.13256836 85.11352539 C36.49256836 85.11352539 33.85256836 85.11352539 31.13256836 85.11352539 C31.13256836 83.13352539 31.13256836 81.15352539 31.13256836 79.11352539 C30.47256836 79.11352539 29.81256836 79.11352539 29.13256836 79.11352539 C28.80256836 77.13352539 28.47256836 75.15352539 28.13256836 73.11352539 C27.55289307 73.0686499 26.97321777 73.02377441 26.37597656 72.97753906 C23.73108723 72.76526059 21.08827055 72.53333451 18.44506836 72.30102539 C17.07705078 72.19564453 17.07705078 72.19564453 15.68139648 72.08813477 C9.55427991 71.53112417 5.60124808 70.58220511 1.13256836 66.11352539 C0.91670927 63.07607958 0.80934422 60.09251823 0.75756836 57.05102539 C0.41931839 45.46571725 -0.96530712 34.08835807 -2.49584961 22.61328125 C-4.481049 7.52261865 -4.481049 7.52261865 -3.86743164 1.11352539 C-2.86743164 0.11352539 -2.86743164 0.11352539 0 0 Z " fill="#7979F6" transform="translate(30.867431640625,17.886474609375)"/>
<path d="M0 0 C4.47915328 -0.02886338 8.95828291 -0.04675187 13.4375 -0.0625 C14.71689453 -0.07087891 15.99628906 -0.07925781 17.31445312 -0.08789062 C19.13686523 -0.09272461 19.13686523 -0.09272461 20.99609375 -0.09765625 C22.12200928 -0.10289307 23.2479248 -0.10812988 24.40795898 -0.11352539 C27 0 27 0 28 1 C29.01829919 6.98491729 29.2623944 13.13115947 29.5625 19.1875 C29.6049585 20.02958008 29.64741699 20.87166016 29.69116211 21.73925781 C30.15060263 31.82291424 30.09408204 41.90861616 30 52 C30.99 52.495 30.99 52.495 32 53 C28.37 53 24.74 53 21 53 C21 54.98 21 56.96 21 59 C19.515 59.495 19.515 59.495 18 60 C18 61.98 18 63.96 18 66 C15.36 66 12.72 66 10 66 C10 64.02 10 62.04 10 60 C9.34 60 8.68 60 8 60 C7.67 58.02 7.34 56.04 7 54 C2.71 53.67 -1.58 53.34 -6 53 C-4.515 52.505 -4.515 52.505 -3 52 C-3.0163147 50.92625122 -3.0163147 50.92625122 -3.03295898 49.83081055 C-3.10822247 40.63647947 -2.70877246 31.49902904 -2.20043945 22.32104492 C-2.06064489 19.77876326 -1.92948217 17.23612546 -1.79882812 14.69335938 C-1.71145036 13.07288893 -1.62357862 11.45244503 -1.53515625 9.83203125 C-1.49656998 9.07380569 -1.4579837 8.31558014 -1.41822815 7.53437805 C-1.11477012 2.22954025 -1.11477012 2.22954025 0 0 Z " fill="#A1A1F8" transform="translate(52,37)"/>
<path d="M0 0 C1.875 0.3125 1.875 0.3125 4 1 C9.88484311 9.82726467 5.47613376 28.86828395 4.609375 39.21875 C4.4619168 41.01516929 4.31455962 42.81159687 4.16729736 44.60803223 C3.85946036 48.33970367 3.54590348 52.07084572 3.22900391 55.80175781 C2.8254709 60.56579995 2.44352658 65.33131692 2.06658554 70.09752655 C1.77061883 73.79435442 1.45974789 77.48982064 1.14478302 81.18507385 C0.99748109 82.94197843 0.8555516 84.69934263 0.71929169 86.45713806 C0.52742783 88.91249196 0.31457114 91.3651964 0.09667969 93.81835938 C0.04560562 94.53122101 -0.00546844 95.24408264 -0.05809021 95.97854614 C-0.61444971 101.83465509 -2.38729989 107.41315492 -6.65237045 111.63601875 C-12.80325108 116.5648712 -20.68395464 115.72467502 -28.15625 115.6640625 C-29.62781168 115.66743712 -31.09937063 115.67229511 -32.57092285 115.67855835 C-35.64407073 115.68589949 -38.71648832 115.67531509 -41.78955078 115.65185547 C-45.71039213 115.62336764 -49.6295219 115.63978674 -53.5503006 115.66971779 C-56.5857613 115.68786673 -59.62082242 115.68199846 -62.65629578 115.66907883 C-64.1010509 115.66576568 -65.54584342 115.66975762 -66.99055481 115.68147659 C-80.50373604 115.76706011 -80.50373604 115.76706011 -86.68518066 111.3633728 C-88 110 -88 110 -89 107 C-88.30336746 107.16134933 -87.60673492 107.32269867 -86.88899231 107.48893738 C-83.79815241 108.03570683 -80.91452572 108.14849978 -77.77612305 108.17700195 C-76.54101486 108.18983719 -75.30590668 108.20267242 -74.03337097 108.21589661 C-72.69282435 108.22406513 -71.35227315 108.23150865 -70.01171875 108.23828125 C-68.99099746 108.24439454 -68.99099746 108.24439454 -67.94965553 108.25063133 C-64.3483575 108.27143377 -60.74709692 108.28576104 -57.14575195 108.29516602 C-53.44373985 108.30622437 -49.74232977 108.34063348 -46.0405302 108.38033772 C-43.17760669 108.40658809 -40.31482501 108.41486518 -37.45179176 108.41844749 C-36.08793886 108.42329099 -34.72409134 108.43484063 -33.36035728 108.45348549 C-24.71690807 108.56432449 -17.66010476 108.50476793 -11.125 102.1875 C-8.11083271 96.32661915 -7.5561774 90.13258627 -7.03857422 83.66821289 C-6.9602536 82.76010864 -6.88193298 81.85200439 -6.80123901 80.91638184 C-6.54580106 77.93565835 -6.3001833 74.95421362 -6.0546875 71.97265625 C-5.87879072 69.8975264 -5.70227831 67.82244866 -5.525177 65.74742126 C-5.06203092 60.30147891 -4.6072254 54.8548713 -4.1541748 49.40808105 C-3.68986643 43.84389227 -3.21764362 38.28037581 -2.74609375 32.71679688 C-1.82299812 21.81184009 -0.90871561 10.90616383 0 0 Z " fill="#D1D1F7" transform="translate(112,7)"/>
<path d="M0 0 C4.875 0.875 4.875 0.875 6 2 C5.94540492 3.59572528 5.81445534 5.18893586 5.65234375 6.77734375 C5.55163574 7.77749512 5.45092773 8.77764648 5.34716797 9.80810547 C4.77568646 15.06235951 4.17264604 20.31261315 3.5625 25.5625 C2.71741817 32.83527934 1.95763353 40.08987489 1.5 47.3984375 C1.42450928 48.57978271 1.34901855 49.76112793 1.27124023 50.97827148 C1.13461104 53.24248086 1.01370825 55.50770743 0.91040039 57.77368164 C0.84844482 58.79582764 0.78648926 59.81797363 0.72265625 60.87109375 C0.65703491 62.21578735 0.65703491 62.21578735 0.59008789 63.58764648 C-0.17641983 66.72122646 -1.53742416 67.97501177 -4 70 C-7.94429379 71.27923042 -11.88178053 71.0807494 -16 71 C-16 69.02 -16 67.04 -16 65 C-14.906875 64.7525 -13.81375 64.505 -12.6875 64.25 C-8.76758718 62.92121599 -7.99201758 62.44530633 -6 59 C-5.56313396 56.59632477 -5.56313396 56.59632477 -5.62890625 53.9765625 C-5.61408203 52.96924072 -5.59925781 51.96191895 -5.58398438 50.92407227 C-5.57689453 49.83537842 -5.56980469 48.74668457 -5.5625 47.625 C-5.34100552 37.1481613 -4.43371291 26.92842565 -3 16.5625 C-2.82154541 15.25941895 -2.64309082 13.95633789 -2.45922852 12.61376953 C-1.16279572 3.48838715 -1.16279572 3.48838715 0 0 Z " fill="#6060EF" transform="translate(99,18)"/>
<path d="M0 0 C4.56454251 0.54339792 7.9728176 1.79463821 12 4 C12 5.32 12 6.64 12 8 C13.32 8 14.64 8 16 8 C17.59412284 11.18824568 17.10174735 14.62896662 17.0625 18.125 C17.05798828 18.87910156 17.05347656 19.63320312 17.04882812 20.41015625 C17.03703499 22.27347127 17.01909942 24.13674555 17 26 C16.01 26.33 15.02 26.66 14 27 C14 28.98 14 30.96 14 33 C11.36 33 8.72 33 6 33 C6 31.02 6 29.04 6 27 C5.34 27 4.68 27 4 27 C4 21.06 4 15.12 4 9 C5.32 8.67 6.64 8.34 8 8 C8 7.34 8 6.68 8 6 C7.05125 5.690625 6.1025 5.38125 5.125 5.0625 C2 4 2 4 0 3 C0 2.01 0 1.02 0 0 Z " fill="#2A2A2C" transform="translate(56,70)"/>
<path d="M0 0 C2.4375 1.5625 2.4375 1.5625 4 4 C4.56288002 7.94016013 4.60396028 10.05782196 2.4375 13.4375 C-0.96719488 15.61999672 -3.03430012 15.63734462 -7 15 C-9.96135546 12.41830549 -10.86756104 10.81118865 -11.5 6.9375 C-11 4 -11 4 -9.4375 1.625 C-6.06489221 -0.62340519 -3.97487617 -0.56783945 0 0 Z " fill="#F4B83D" transform="translate(69,13)"/>
<path d="M0 0 C0.88494141 -0.020625 1.76988281 -0.04125 2.68164062 -0.0625 C3.95104492 -0.07023438 3.95104492 -0.07023438 5.24609375 -0.078125 C6.02525146 -0.0874707 6.80440918 -0.09681641 7.60717773 -0.10644531 C8.25243408 0.01118164 8.89769043 0.12880859 9.5625 0.25 C10.2225 1.24 10.8825 2.23 11.5625 3.25 C9.5625 5.25 9.5625 5.25 7.59130859 5.47705078 C6.80578613 5.46657715 6.02026367 5.45610352 5.2109375 5.4453125 C3.93476562 5.43564453 3.93476562 5.43564453 2.6328125 5.42578125 C1.29863281 5.40064453 1.29863281 5.40064453 -0.0625 5.375 C-1.40828125 5.36146484 -1.40828125 5.36146484 -2.78125 5.34765625 C-5.00026586 5.3240497 -7.21875077 5.2911231 -9.4375 5.25 C-10 3.3125 -10 3.3125 -10.4375 1.25 C-8.18895286 -0.99854714 -3.01949156 0.01751699 0 0 Z " fill="#EFEEFF" transform="translate(38.4375,8.75)"/>
<path d="M0 0 C2.01822917 0.06510417 4.03645833 0.13020833 6.0546875 0.1953125 C6.0546875 1.8453125 6.0546875 3.4953125 6.0546875 5.1953125 C4.4046875 5.1953125 2.7546875 5.1953125 1.0546875 5.1953125 C1.0546875 7.5053125 1.0546875 9.8153125 1.0546875 12.1953125 C-0.8828125 12.7578125 -0.8828125 12.7578125 -2.9453125 13.1953125 C-4.61092649 11.52969851 -4.11647195 9.53568545 -4.1328125 7.2578125 C-4.14699219 6.36191406 -4.16117188 5.46601562 -4.17578125 4.54296875 C-3.8804008 1.53409336 -3.10782535 0.31203066 0 0 Z " fill="#EF5543" transform="translate(13.9453125,94.8046875)"/>
<path d="M0 0 C0.99 0.33 1.98 0.66 3 1 C4.25841946 7.74153283 5.26404456 14.13484138 5 21 C3.68 21 2.36 21 1 21 C0.07907719 16.34462644 -0.12205997 11.85314567 -0.0625 7.125 C-0.05798828 6.43664063 -0.05347656 5.74828125 -0.04882812 5.0390625 C-0.03716336 3.35933665 -0.01923271 1.67965625 0 0 Z " fill="#9B9BF8" transform="translate(33,41)"/>
<path d="M0 0 C1.65 0 3.3 0 5 0 C5 2.31 5 4.62 5 7 C6.32 7 7.64 7 9 7 C9 8.65 9 10.3 9 12 C5.625 12.125 5.625 12.125 2 12 C0 10 0 10 -0.1953125 7.6171875 C-0.17210937 6.71226563 -0.14890625 5.80734375 -0.125 4.875 C-0.10695313 3.96492188 -0.08890625 3.05484375 -0.0703125 2.1171875 C-0.04710937 1.41851562 -0.02390625 0.71984375 0 0 Z " fill="#00C079" transform="translate(10,80)"/>
<path d="M0 0 C5.28 0.33 10.56 0.66 16 1 C16 2.65 16 4.3 16 6 C5.1005291 6.57142857 5.1005291 6.57142857 1 3 C0.67 2.01 0.34 1.02 0 0 Z " fill="#6363EF" transform="translate(33,83)"/>
<path d="M0 0 C4.56454251 0.54339792 7.9728176 1.79463821 12 4 C12 5.32 12 6.64 12 8 C9.69 8.33 7.38 8.66 5 9 C5.99 8.67 6.98 8.34 8 8 C8 7.34 8 6.68 8 6 C7.05125 5.690625 6.1025 5.38125 5.125 5.0625 C2 4 2 4 0 3 C0 2.01 0 1.02 0 0 Z " fill="#4F4E58" transform="translate(56,70)"/>
<path d="M0 0 C2.64 0 5.28 0 8 0 C8 1.98 8 3.96 8 6 C5.36 6 2.72 6 0 6 C0 4.02 0 2.04 0 0 Z " fill="#504F50" transform="translate(62,97)"/>
<path d="M0 0 C1.66611905 -0.042721 3.33382885 -0.04063832 5 0 C6 1 6 1 6.0625 3.5625 C6.041875 4.366875 6.02125 5.17125 6 6 C3.625 6.625 3.625 6.625 1 7 C0.34 6.34 -0.32 5.68 -1 5 C-0.625 2.375 -0.625 2.375 0 0 Z " fill="#E4E1F6" transform="translate(63,17)"/>
<path d="M0 0 C1.2065625 0.0309375 1.2065625 0.0309375 2.4375 0.0625 C3 2 3 2 3.4375 4.0625 C2.4375 5.0625 2.4375 5.0625 -0.125 5.125 C-1.3315625 5.0940625 -1.3315625 5.0940625 -2.5625 5.0625 C-3.125 3.125 -3.125 3.125 -3.5625 1.0625 C-2.5625 0.0625 -2.5625 0.0625 0 0 Z " fill="#EEEDFF" transform="translate(54.5625,8.9375)"/>
<path d="M0 0 C1.32 0 2.64 0 4 0 C4 1.98 4 3.96 4 6 C2.68 6 1.36 6 0 6 C0 4.02 0 2.04 0 0 Z " fill="#F0EFFF" transform="translate(20,40)"/>
</svg>
