<?xml version="1.0" encoding="UTF-8"?>
<svg version="1.1" xmlns="http://www.w3.org/2000/svg" width="128" height="128">
<path d="M0 0 C0.79899719 0.00202423 1.59799438 0.00404846 2.42120361 0.00613403 C3.67722382 0.00350555 3.67722382 0.00350555 4.95861816 0.00082397 C7.74043825 -0.00359545 10.52219532 -0.00065624 13.30401611 0.00271606 C15.22833264 0.00204305 17.15264909 0.00107305 19.07696533 -0.00018311 C23.11554776 -0.0016602 27.15410812 0.00049485 31.19268799 0.00515747 C36.38170122 0.01085476 41.57066274 0.00757582 46.75967407 0.00158501 C50.73492831 -0.00202029 54.7101702 -0.00088216 58.6854248 0.0017128 C60.59928392 0.00238215 62.51314413 0.00155335 64.42700195 -0.00076675 C67.09697461 -0.00329277 69.76686232 0.00054658 72.43682861 0.00613403 C73.23582581 0.0041098 74.034823 0.00208557 74.85803223 0 C80.31475362 0.02126607 80.31475362 0.02126607 81.42901611 1.13552856 C81.52235317 2.73163838 81.54646984 4.33186285 81.5425415 5.93069458 C81.54242821 7.46216881 81.54242821 7.46216881 81.54231262 9.02458191 C81.53715134 10.13498337 81.53199005 11.24538483 81.52667236 12.38943481 C81.52525742 13.52001816 81.52384247 14.6506015 81.52238464 15.81544495 C81.5167663 19.44299922 81.50421069 23.0704928 81.49151611 26.69802856 C81.48650348 29.15050163 81.48194016 31.60297567 81.47784424 34.05545044 C81.46679092 40.08216402 81.45003495 46.10884196 81.42901611 52.13552856 C82.32733154 52.12505493 83.22564697 52.1145813 84.15118408 52.10379028 C87.47966059 52.06973386 90.80795234 52.04464238 94.13653564 52.02566528 C95.57797158 52.01559894 97.01938707 52.00194476 98.46075439 51.98464966 C100.53095545 51.96042845 102.60088688 51.94905215 104.67120361 51.94021606 C106.54074707 51.92450562 106.54074707 51.92450562 108.44805908 51.90847778 C111.42901611 52.13552856 111.42901611 52.13552856 113.42901611 54.13552856 C113.6829834 56.79226685 113.6829834 56.79226685 113.68780518 60.20584106 C113.6941095 61.48056274 113.70041382 62.75528442 113.70690918 64.06863403 C113.7033295 65.46593361 113.69922757 66.86323193 113.69464111 68.26052856 C113.69598782 69.68777533 113.69792841 71.11502165 113.70043945 72.54226685 C113.70339045 75.53498701 113.69909394 78.52758788 113.6897583 81.52029419 C113.67836367 85.3606923 113.68492328 89.20081088 113.69690323 93.04119873 C113.70412254 95.98882156 113.7018336 98.93637788 113.69664764 101.88400269 C113.69531134 103.3002221 113.69695821 104.7164475 113.70160675 106.13265991 C113.70667286 108.11017749 113.69758519 110.08771618 113.68780518 112.06521606 C113.68621399 113.19169556 113.6846228 114.31817505 113.6829834 115.47879028 C113.42901611 118.13552856 113.42901611 118.13552856 111.42901611 120.13552856 C108.62042236 120.38949585 108.62042236 120.38949585 104.99151611 120.39431763 C104.33119385 120.39782227 103.67087158 120.4013269 102.99053955 120.40493774 C100.80325879 120.41375538 98.61630029 120.40790599 96.42901611 120.40115356 C94.9120884 120.40250021 93.3951611 120.40444074 91.87823486 120.4069519 C88.69720353 120.4099032 85.51628442 120.4056054 82.33526611 120.39627075 C78.2527371 120.38487613 74.17047102 120.39143559 70.08795166 120.40341568 C66.95503754 120.41063417 63.822186 120.40834642 60.68927002 120.4031601 C59.18373585 120.40182356 57.67819604 120.40347144 56.17266846 120.4081192 C54.07046399 120.41318435 51.96868853 120.40547484 49.86651611 120.39431763 C48.66897705 120.39272644 47.47143799 120.39113525 46.23760986 120.38949585 C43.42901611 120.13552856 43.42901611 120.13552856 41.42901611 118.13552856 C41.30401611 115.01052856 41.30401611 115.01052856 41.42901611 112.13552856 C40.84241714 112.13774918 40.25581818 112.13996979 39.65144348 112.14225769 C33.56876227 112.16431066 27.48609234 112.17943521 21.40338135 112.19046021 C19.1305902 112.19550182 16.85780232 112.20233494 14.58502197 112.21096802 C11.3259806 112.22304117 8.06698195 112.22875844 4.80792236 112.23318481 C3.78501602 112.2383461 2.76210968 112.24350739 1.70820618 112.24882507 C0.76730637 112.2489006 -0.17359344 112.24897614 -1.14300537 112.24905396 C-1.97573471 112.25127457 -2.80846405 112.25349518 -3.66642761 112.25578308 C-5.57098389 112.13552856 -5.57098389 112.13552856 -6.57098389 111.13552856 C-6.6686859 109.70839236 -6.69730084 108.27645427 -6.69796753 106.84597778 C-6.70078735 105.92049133 -6.70360718 104.99500488 -6.70651245 104.04147339 C-6.7034761 102.50635101 -6.7034761 102.50635101 -6.70037842 100.94021606 C-6.70213074 99.86878357 -6.70388306 98.79735107 -6.70568848 97.69345093 C-6.71010942 94.13246059 -6.70716815 90.57151945 -6.70379639 87.01052856 C-6.70446936 84.54812612 -6.70543932 82.08572375 -6.70669556 79.62332153 C-6.70817286 74.45485809 -6.70601693 69.28641189 -6.70135498 64.11795044 C-6.69565768 57.47612129 -6.69893651 50.83433255 -6.70492744 44.19250488 C-6.70853218 39.10549614 -6.70739487 34.01849706 -6.70479965 28.93148804 C-6.70413014 26.48174027 -6.70495964 24.03199164 -6.70727921 21.58224487 C-6.7098043 18.16508646 -6.70596715 14.74799449 -6.70037842 11.33084106 C-6.70240265 10.30742615 -6.70442688 9.28401123 -6.70651245 8.22958374 C-6.70369263 7.30409729 -6.7008728 6.37861084 -6.69796753 5.42507935 C-6.6975905 4.61612213 -6.69721348 3.80716492 -6.69682503 2.97369385 C-6.41942125 -1.07835131 -3.3537466 0.0130703 0 0 Z " fill="#020203" transform="translate(10.57098388671875,3.864471435546875)"/>
<path d="M0 0 C1.8569751 -0.00472824 1.8569751 -0.00472824 3.75146484 -0.009552 C5.11295609 -0.00776222 6.47444701 -0.00571127 7.8359375 -0.00341797 C9.22216814 -0.00409106 10.60839867 -0.00506113 11.99462891 -0.00631714 C14.90333172 -0.00779387 17.81200387 -0.00564037 20.72070312 -0.00097656 C24.45690348 0.00472073 28.19303202 0.00144159 31.92922974 -0.00454903 C34.79273016 -0.00815532 37.65621343 -0.00701574 40.51971436 -0.00442123 C41.89768482 -0.00375215 43.27565682 -0.00457973 44.65362549 -0.00690079 C46.57637504 -0.00942839 48.49913002 -0.0048957 50.421875 0 C52.06615479 0.00119339 52.06615479 0.00119339 53.74365234 0.00241089 C56.2109375 0.12939453 56.2109375 0.12939453 57.2109375 1.12939453 C57.30993311 2.93448826 57.33892901 4.74346381 57.34033203 6.55126953 C57.34348419 7.70916992 57.34663635 8.86707031 57.34988403 10.06005859 C57.34684769 11.95062988 57.34684769 11.95062988 57.34375 13.87939453 C57.34470673 15.16297852 57.34566345 16.4465625 57.34664917 17.76904297 C57.34812581 20.48943277 57.34597269 23.20978978 57.34130859 25.93017578 C57.33561131 29.42424122 57.33889049 32.91822986 57.34488106 36.41229248 C57.34935504 39.73466606 57.34622635 43.05701877 57.34375 46.37939453 C57.34577423 47.63977539 57.34779846 48.90015625 57.34988403 50.19873047 C57.34515579 51.93558105 57.34515579 51.93558105 57.34033203 53.70751953 C57.33953644 54.73264648 57.33874084 55.75777344 57.33792114 56.81396484 C57.2109375 59.12939453 57.2109375 59.12939453 56.2109375 60.12939453 C54.28331933 60.22860316 52.35204396 60.25738818 50.421875 60.25878906 C49.1838916 60.26194122 47.9459082 60.26509338 46.67041016 60.26834106 C45.30891891 60.26655128 43.94742799 60.26450033 42.5859375 60.26220703 C41.19970686 60.26288012 39.81347633 60.26385019 38.42724609 60.2651062 C35.51854328 60.26658293 32.60987113 60.26442943 29.70117188 60.25976562 C25.96497152 60.25406834 22.22884298 60.25734748 18.49264526 60.26333809 C15.62914484 60.26694438 12.76566157 60.2658048 9.90216064 60.2632103 C8.52419018 60.26254122 7.14621818 60.2633688 5.76824951 60.26568985 C3.84549996 60.26821745 1.92274498 60.26368477 0 60.25878906 C-1.64427979 60.25759567 -1.64427979 60.25759567 -3.32177734 60.25637817 C-5.7890625 60.12939453 -5.7890625 60.12939453 -6.7890625 59.12939453 C-6.88805811 57.3243008 -6.91705401 55.51532525 -6.91845703 53.70751953 C-6.92160919 52.54961914 -6.92476135 51.39171875 -6.92800903 50.19873047 C-6.9259848 48.93834961 -6.92396057 47.67796875 -6.921875 46.37939453 C-6.92331009 44.45401855 -6.92331009 44.45401855 -6.92477417 42.48974609 C-6.92625081 39.7693563 -6.92409769 37.04899928 -6.91943359 34.32861328 C-6.91373631 30.83454784 -6.91701549 27.3405592 -6.92300606 23.84649658 C-6.92748004 20.524123 -6.92435135 17.2017703 -6.921875 13.87939453 C-6.92389923 12.61901367 -6.92592346 11.35863281 -6.92800903 10.06005859 C-6.92485687 8.9021582 -6.92170471 7.74425781 -6.91845703 6.55126953 C-6.91726364 5.0135791 -6.91726364 5.0135791 -6.91604614 3.44482422 C-6.66785717 -1.08067289 -3.91929956 0.00284456 0 0 Z " fill="#FCC43F" transform="translate(62.7890625,59.87060546875)"/>
<path d="M0 0 C26.4 0 52.8 0 80 0 C80 11.22 80 22.44 80 34 C77.69 34 75.38 34 73 34 C72.79246094 33.31035156 72.58492188 32.62070312 72.37109375 31.91015625 C69.04157813 21.75443705 64.96484735 15.2681533 55.5 9.9375 C46.7938292 5.68125417 37.36501789 5.50367193 28.0625 8.125 C18.9084354 11.82448099 12.76377984 18.55798588 8.359375 27.23046875 C6.69057918 31.2775549 6.50103793 35.03607031 6.5625 39.375 C6.57007324 40.12450928 6.57764648 40.87401855 6.58544922 41.64624023 C6.75997486 47.51195792 7.75404903 52.02963757 11 57 C11.4125 57.69351563 11.825 58.38703125 12.25 59.1015625 C16.95831198 66.24428579 24.66276715 71.1283763 33 73 C36.66138544 73.43284807 40.32178569 73.75129512 44 74 C44 76.64 44 79.28 44 82 C29.48 82 14.96 82 0 82 C0 54.94 0 27.88 0 0 Z " fill="#E7E7E8" transform="translate(8,22)"/>
<path d="M0 0 C4.11857909 2.41512266 7.01828895 4.54280303 8.9375 9.05859375 C9.29196133 10.72089518 9.62830702 12.38728032 9.9375 14.05859375 C10.78054687 13.20394531 11.62359375 12.34929687 12.4921875 11.46875 C13.59882593 10.35273328 14.70560402 9.23685503 15.8125 8.12109375 C16.36808594 7.55712891 16.92367187 6.99316406 17.49609375 6.41210938 C22.64644213 1.2307348 22.64644213 1.2307348 26.75 0.68359375 C29.9375 1.05859375 29.9375 1.05859375 32.8125 3.18359375 C34.9375 6.05859375 34.9375 6.05859375 35.6875 8.87109375 C34.53602245 13.76487334 31.41649197 16.55876949 27.9375 20.05859375 C27.34324219 20.66703125 26.74898437 21.27546875 26.13671875 21.90234375 C24.75240633 23.30317542 23.34718166 24.68329457 21.9375 26.05859375 C23.42136148 29.49245121 25.41139556 31.75572709 28 34.43359375 C31.12264863 37.88494223 33.16405034 40.1877614 32.9375 45.05859375 C31.81731101 48.41916071 30.99215901 49.02215441 27.9375 51.05859375 C24.51619324 51.61717445 22.09895772 51.85683774 19.15283203 49.83203125 C17.33718789 48.14712977 15.66237975 46.39465497 14 44.55859375 C13.41154297 43.93855469 12.82308594 43.31851563 12.21679688 42.6796875 C10.77393008 41.15470634 9.35340672 39.608639 7.9375 38.05859375 C4.8821333 39.90252006 4.8821333 39.90252006 3.48828125 43.0078125 C2.65396591 46.11430577 0.71551629 47.06949018 -1.875 48.87109375 C-2.74769531 49.49628906 -3.62039062 50.12148437 -4.51953125 50.765625 C-7.0625 52.05859375 -7.0625 52.05859375 -9.2109375 51.90234375 C-12.21916926 50.53150396 -13.9963617 48.59699224 -16.0625 46.05859375 C-15.75002959 42.45375221 -13.82230234 39.86091455 -11.8125 36.93359375 C-11.22984375 36.06476563 -10.6471875 35.1959375 -10.046875 34.30078125 C-7.85646603 31.82579159 -6.18822798 31.01786889 -3.0625 30.05859375 C-3.0625 29.39859375 -3.0625 28.73859375 -3.0625 28.05859375 C-3.65417969 27.97222656 -4.24585937 27.88585937 -4.85546875 27.796875 C-11.34642298 26.64269227 -14.44416682 24.67438719 -18.375 19.24609375 C-19.47548019 15.74456588 -19.29555933 12.72927825 -19.0625 9.05859375 C-18.4025 8.06859375 -17.7425 7.07859375 -17.0625 6.05859375 C-13.23466185 7.61808337 -10.95155687 10.16953688 -8.0625 13.05859375 C-7.4025 13.05859375 -6.7425 13.05859375 -6.0625 13.05859375 C-6.42951012 9.75550271 -7.19357802 8.93375754 -9.6875 6.55859375 C-12.0625 4.05859375 -12.0625 4.05859375 -12.0625 1.80859375 C-9.71105169 -2.30644079 -3.81366184 -1.7407055 0 0 Z " fill="#100E08" transform="translate(80.0625,63.94140625)"/>
<path d="M0 0 C26.4 0 52.8 0 80 0 C80 3.3 80 6.6 80 10 C53.6 10 27.2 10 0 10 C0 6.7 0 3.4 0 0 Z " fill="#73717A" transform="translate(8,8)"/>
<path d="M0 0 C6.05254725 3.98683146 10.38697852 9.20363162 13 16 C13 17.32 13 18.64 13 20 C11.02 20 9.04 20 7 20 C6.505 18.824375 6.01 17.64875 5.5 16.4375 C2.43330554 10.33662022 -2.11002055 6.23091717 -8.375 3.5625 C-15.45303437 2.46418432 -21.70761829 1.94655829 -28.11328125 5.59765625 C-32.84252928 9.11277021 -37.73881476 14.11446889 -39 20 C-39.78823109 28.39320139 -38.53852859 35.04302598 -33.3125 41.75 C-27.29776306 48.22286187 -20.59264977 49.64784222 -12 50 C-12 51.98 -12 53.96 -12 56 C-21.40997367 56.44809398 -28.68995213 54.78620608 -36.14453125 48.8046875 C-42.62128417 42.50519308 -46.2278358 34.92445974 -46.5 25.875 C-46.34926387 17.6221968 -43.51230727 11.0792835 -38.13671875 4.8359375 C-27.1336846 -5.52764176 -13.40114041 -6.96859301 0 0 Z " fill="#72707A" transform="translate(64,36)"/>
<path d="M0 0 C4.36708021 2.46757784 7.28240817 6.1817143 9.75 10.5 C9.75 11.16 9.75 11.82 9.75 12.5 C8.90695313 12.54898438 8.06390625 12.59796875 7.1953125 12.6484375 C6.09960938 12.72320312 5.00390625 12.79796875 3.875 12.875 C2.23917969 12.97941406 2.23917969 12.97941406 0.5703125 13.0859375 C-2.38046474 13.23253491 -2.38046474 13.23253491 -4.25 15.5 C-12.21440956 19.00434021 -20.69707783 19.16928701 -29.25 19.5 C-29.22119175 13.27741706 -28.08296922 9.03816527 -24.04296875 4.23046875 C-17.39463354 -2.18611622 -8.52107828 -3.64259835 0 0 Z " fill="#55A0F9" transform="translate(57.25,43.5)"/>
<path d="M0 0 C0 6.27 0 12.54 0 19 C-12.58356164 19 -12.58356164 19 -18.57421875 13.57421875 C-21.34823973 10.49815538 -22.35539497 8.01012182 -23 4 C-22.0821875 3.87882812 -21.164375 3.75765625 -20.21875 3.6328125 C-13.84460954 2.76239416 -6.33040185 0 0 0 Z " fill="#345B79" transform="translate(52,63)"/>
<path d="M0 0 C3.62113142 0.24689532 5.53324973 0.59632409 8.3125 3 C11.02509695 7.82239459 11.62038477 12.57015965 10.25 17.9375 C9 20 9 20 6 22 C3.25 21.3125 3.25 21.3125 0 20 C-1.8253125 19.3503125 -1.8253125 19.3503125 -3.6875 18.6875 C-7.30777269 16.84321014 -8.53474996 15.75470323 -10 12 C-9.6875 9.6875 -9.6875 9.6875 -9 8 C-7.948125 9.2684375 -7.948125 9.2684375 -6.875 10.5625 C-4.22279034 13.33130223 -4.22279034 13.33130223 -0.8125 13.0625 C2.04930731 12.25634186 2.04930731 12.25634186 3.4375 10.1875 C4.10358303 7.5971771 4.00349419 6.47013954 3 4 C1.51199628 1.7927642 1.51199628 1.7927642 0 0 Z " fill="#CCCBCE" transform="translate(75,68)"/>
<path d="M0 0 C0.73347656 0.2475 1.46695313 0.495 2.22265625 0.75 C2.92163086 3.0144043 2.92163086 3.0144043 3.22265625 5.75 C1.95922852 7.69458008 1.95922852 7.69458008 0.0390625 9.51953125 C-0.64091797 10.18017578 -1.32089844 10.84082031 -2.02148438 11.52148438 C-2.74529297 12.19501953 -3.46910156 12.86855469 -4.21484375 13.5625 C-4.93478516 14.25537109 -5.65472656 14.94824219 -6.39648438 15.66210938 C-8.17742371 17.37228291 -9.97080477 19.06695799 -11.77734375 20.75 C-13.75734375 19.1 -15.73734375 17.45 -17.77734375 15.75 C-14.37102522 11.64494946 -10.86002066 7.64509707 -7.21484375 3.75 C-6.13009766 2.574375 -6.13009766 2.574375 -5.0234375 1.375 C-2.77734375 -0.25 -2.77734375 -0.25 0 0 Z " fill="#88C03C" transform="translate(107.77734375,69.25)"/>
<path d="M0 0 C14.52 0 29.04 0 44 0 C44 1.32 44 2.64 44 4 C29.48 4 14.96 4 0 4 C0 2.68 0 1.36 0 0 Z " fill="#787680" transform="translate(8,108)"/>
<path d="M0 0 C2.35539693 1.97527523 4.68097428 3.98220855 7 6 C7.99 6.845625 8.98 7.69125 10 8.5625 C12 11 12 11 11.8125 13.8125 C11.544375 14.534375 11.27625 15.25625 11 16 C8.8125 16.8125 8.8125 16.8125 6 17 C3.625 14.9375 3.625 14.9375 1 12 C-0.25537391 10.87828803 -1.52664588 9.77413728 -2.8125 8.6875 C-3.41707031 8.17574219 -4.02164063 7.66398437 -4.64453125 7.13671875 C-5.09183594 6.76160156 -5.53914063 6.38648437 -6 6 C-5.66015625 4.078125 -5.66015625 4.078125 -5 2 C-2.4375 0.75 -2.4375 0.75 0 0 Z " fill="#CDCCCF" transform="translate(97,94)"/>
<path d="M0 0 C0.99 0.99 1.98 1.98 3 3 C2.30132812 3.66386719 1.60265625 4.32773438 0.8828125 5.01171875 C-0.02726562 5.89472656 -0.93734375 6.77773437 -1.875 7.6875 C-2.77992187 8.55761719 -3.68484375 9.42773438 -4.6171875 10.32421875 C-6.92739773 12.91847122 -7.79419607 14.81323248 -9 18 C-12.125 20.3125 -12.125 20.3125 -15 22 C-16.32 21.34 -17.64 20.68 -19 20 C-17.75425722 16.55025076 -16.51402437 13.7002484 -14 11 C-13.23945312 10.72800781 -12.47890625 10.45601562 -11.6953125 10.17578125 C-8.44131201 8.75628249 -6.63410667 6.93115622 -4.1875 4.375 C-3.39730469 3.55773437 -2.60710937 2.74046875 -1.79296875 1.8984375 C-1.20128906 1.27195312 -0.60960938 0.64546875 0 0 Z " fill="#DFDFE0" transform="translate(88,89)"/>
</svg>
