<?xml version="1.0" encoding="UTF-8"?>
<svg version="1.1" xmlns="http://www.w3.org/2000/svg" width="128" height="128">
<path d="M0 0 C1.97338867 -0.38095093 1.97338867 -0.38095093 4.41796875 -0.38818359 C5.33231689 -0.39764008 6.24666504 -0.40709656 7.1887207 -0.4168396 C8.17831787 -0.41076691 9.16791504 -0.40469421 10.1875 -0.3984375 C11.20094482 -0.40130768 12.21438965 -0.40417786 13.25854492 -0.40713501 C15.40381427 -0.40917887 17.54910211 -0.40362661 19.69433594 -0.39111328 C22.98675016 -0.37506459 26.27793667 -0.39095155 29.5703125 -0.41015625 C31.65104439 -0.40817388 33.73177551 -0.40433032 35.8125 -0.3984375 C36.80209717 -0.40451019 37.79169434 -0.41058289 38.8112793 -0.4168396 C40.18280151 -0.40265488 40.18280151 -0.40265488 41.58203125 -0.38818359 C42.79209839 -0.38460342 42.79209839 -0.38460342 44.02661133 -0.38095093 C44.67782959 -0.25523712 45.32904785 -0.12952332 46 0 C48.13604308 3.20406462 48.24208908 3.99600747 48.1953125 7.66796875 C48.18886719 8.56064453 48.18242188 9.45332031 48.17578125 10.37304688 C48.15064453 11.76620117 48.15064453 11.76620117 48.125 13.1875 C48.11597656 14.12787109 48.10695313 15.06824219 48.09765625 16.03710938 C48.07409056 18.35832968 48.04119116 20.67903644 48 23 C48.78375 22.95875 49.5675 22.9175 50.375 22.875 C53 23 53 23 55 25 C55.36669128 27.99568127 55.14424447 30.99009881 55 34 C54.98195313 34.72445312 54.96390625 35.44890625 54.9453125 36.1953125 C54.70113667 39.97285616 54.38394683 41.64558754 51.5625 44.25 C48.09134167 47.97514552 48.16469652 51.19065885 47.5234375 56.12109375 C46.81046594 60.04243735 45.5158969 61.950428 43 65 C42.13375 66.175625 42.13375 66.175625 41.25 67.375 C40.8375 67.91125 40.425 68.4475 40 69 C41.0828125 69.37125 41.0828125 69.37125 42.1875 69.75 C53.86719972 74.94097765 58.61047815 87.79512256 63.14160156 98.90234375 C64.00199341 101.00487128 64.88578097 103.09635775 65.7734375 105.1875 C66.32935258 106.52032198 66.88408705 107.85363715 67.4375 109.1875 C68.17806641 110.97220703 68.17806641 110.97220703 68.93359375 112.79296875 C69.92855669 115.78514667 70.24056091 117.88444287 70 121 C69.35160156 120.83757812 68.70320313 120.67515625 68.03515625 120.5078125 C64.14340471 119.8566829 60.37536078 119.85471917 56.4375 119.875 C55.68275391 119.87113281 54.92800781 119.86726563 54.15039062 119.86328125 C49.9956122 119.84360638 49.9956122 119.84360638 45.92602539 120.56689453 C43.17363185 121.18582547 41.48919626 120.17545379 39 119 C39 119.66 39 120.32 39 121 C37.68 121 36.36 121 35 121 C35 120.34 35 119.68 35 119 C31.27056178 119.13935544 27.54152904 119.28762301 23.8125 119.4375 C22.75740234 119.47681641 21.70230469 119.51613281 20.61523438 119.55664062 C19.59365234 119.59853516 18.57207031 119.64042969 17.51953125 119.68359375 C16.58214111 119.72025146 15.64475098 119.75690918 14.67895508 119.79467773 C12.04885018 119.99625599 9.57233586 120.42678321 7 121 C7 120.34 7 119.68 7 119 C6.360625 119.37125 5.72125 119.7425 5.0625 120.125 C0.70379439 121.37034446 -2.71975923 120.21226863 -7 119 C-7.144375 120.299375 -7.28875 121.59875 -7.4375 122.9375 C-7.875 126.875 -7.875 126.875 -9 128 C-11.49238569 128.12653198 -13.94470441 128.18519825 -16.4375 128.1875 C-17.13166016 128.19974609 -17.82582031 128.21199219 -18.54101562 128.22460938 C-20.36220901 128.22989842 -22.1828692 128.12169207 -24 128 C-26 126 -26 126 -26.1953125 123.6171875 C-26.17210938 122.71226563 -26.14890625 121.80734375 -26.125 120.875 C-26.10695313 119.96492188 -26.08890625 119.05484375 -26.0703125 118.1171875 C-26.04710938 117.41851562 -26.02390625 116.71984375 -26 116 C-25.34 116 -24.68 116 -24 116 C-24 114.68 -24 113.36 -24 112 C-24.66 112 -25.32 112 -26 112 C-26 110.35 -26 108.7 -26 107 C-26.94875 107.04125 -27.8975 107.0825 -28.875 107.125 C-32 107 -32 107 -34 105 C-34.58951471 101.31736262 -34.55603506 97.59910653 -34.625 93.875 C-34.71201172 92.34359375 -34.71201172 92.34359375 -34.80078125 90.78125 C-34.87542324 86.31421412 -34.84445614 83.21569729 -32.24511719 79.47363281 C-30.25423458 77.43052443 -28.34455174 75.62434163 -26 74 C-25.34 74 -24.68 74 -24 74 C-23.2865627 59.71842853 -23.2865627 59.71842853 -28.375 46.875 C-32.29031164 42.88208759 -36.11279031 41.7463726 -41.50390625 40.70703125 C-45.51675044 39.57037272 -46.80137768 37.4445083 -49 34 C-50.49341703 31.01316593 -50.13175178 28.25600226 -50.125 24.9375 C-50.12757812 23.66777344 -50.13015625 22.39804687 -50.1328125 21.08984375 C-50 18 -50 18 -49 17 C-35.659601 15.92216644 -35.659601 15.92216644 -31.3125 18.75 C-30.549375 19.4925 -29.78625 20.235 -29 21 C-28.4225 21.556875 -27.845 22.11375 -27.25 22.6875 C-25.96683783 25.06135002 -25.78460614 26.49162139 -25.4375 29.125 C-24.35975743 34.90475219 -20.5653083 37.85760366 -16.3125 41.640625 C-12.46144491 45.56974202 -11.76015142 49.27753878 -11.69140625 54.66796875 C-11.66626953 55.72564453 -11.64113281 56.78332031 -11.61523438 57.87304688 C-11.57989265 60.09433971 -11.54868528 62.31570194 -11.52148438 64.53710938 C-11.49505859 65.59091797 -11.46863281 66.64472656 -11.44140625 67.73046875 C-11.42795166 68.69364014 -11.41449707 69.65681152 -11.40063477 70.64916992 C-11.20232056 71.81283081 -11.20232056 71.81283081 -11 73 C-10.01 73.66 -9.02 74.32 -8 75 C-7.01 76.485 -7.01 76.485 -6 78 C-5.278125 77.2575 -4.55625 76.515 -3.8125 75.75 C3.09090909 69 3.09090909 69 6 69 C5.59007812 68.49210937 5.18015625 67.98421875 4.7578125 67.4609375 C0.55977086 62.09788909 -1.79882276 57.80793314 -2.3125 50.9375 C-2.63029345 46.89058529 -2.63029345 46.89058529 -5.5 44.5 C-8.77446799 41.22553201 -8.8901071 38.41141486 -9 34 C-9.05800781 32.78957031 -9.05800781 32.78957031 -9.1171875 31.5546875 C-9.24819555 27.02763146 -9.24819555 27.02763146 -9 25 C-7 23 -7 23 -4.375 22.875 C-3.59125 22.91625 -2.8075 22.9575 -2 23 C-2.020625 22.278125 -2.04125 21.55625 -2.0625 20.8125 C-2 18 -2 18 -1.4375 15.25 C-1.293125 14.5075 -1.14875 13.765 -1 13 C-1.495 12.505 -1.495 12.505 -2 12 C-2.16796875 10.0390625 -2.16796875 10.0390625 -2.1875 7.625 C-2.20167969 6.83351563 -2.21585938 6.04203125 -2.23046875 5.2265625 C-2 3 -2 3 0 0 Z " fill="#0B0807" transform="translate(54,0)"/>
<path d="M0 0 C13.2 0 26.4 0 40 0 C40.06892738 7.29609125 40.1286467 14.59104944 40.16479492 21.88720703 C40.17986662 24.3683658 40.20032746 26.84949799 40.22631836 29.33056641 C40.26277167 32.90013189 40.27974292 36.46934461 40.29296875 40.0390625 C40.30845261 41.14553131 40.32393646 42.25200012 40.33988953 43.39199829 C40.34130122 49.87518459 39.91424601 54.52873744 35.58984375 59.6796875 C30.65837282 63.24713456 25.83816894 63.49197646 19.9375 63.5625 C19.16978271 63.57716309 18.40206543 63.59182617 17.61108398 63.60693359 C11.98736076 63.50658553 8.64204696 62.17769754 4 59 C-0.28043874 54.29151739 -0.19158324 49.4870147 -0.31640625 43.39453125 C-0.33718735 42.55532639 -0.35796844 41.71612152 -0.37937927 40.85148621 C-0.44474018 38.17190706 -0.50369714 35.49223031 -0.5625 32.8125 C-0.60569802 30.99543263 -0.64931273 29.17837512 -0.69335938 27.36132812 C-0.8004078 22.90765201 -0.90171319 18.45387774 -1 14 C-1.66 13.67 -2.32 13.34 -3 13 C-2.67 11.35 -2.34 9.7 -2 8 C-1.34 8 -0.68 8 0 8 C0 5.36 0 2.72 0 0 Z " fill="#D0C4BF" transform="translate(57,4)"/>
<path d="M0 0 C0.02578125 0.95261719 0.0515625 1.90523438 0.078125 2.88671875 C0.13484375 4.14097656 0.1915625 5.39523438 0.25 6.6875 C0.29640625 7.92886719 0.3428125 9.17023438 0.390625 10.44921875 C1.09212452 14.53680249 1.91504703 16.24410868 5 19 C8.02477546 19.81332156 8.02477546 19.81332156 11.25 19.8125 C12.32765625 19.86019531 13.4053125 19.90789062 14.515625 19.95703125 C15.33546875 19.97121094 16.1553125 19.98539063 17 20 C16.67 19.01 16.34 18.02 16 17 C14.95199219 16.92652344 14.95199219 16.92652344 13.8828125 16.8515625 C12.97273438 16.77679688 12.06265625 16.70203125 11.125 16.625 C10.22007813 16.55539063 9.31515625 16.48578125 8.3828125 16.4140625 C6 16 6 16 4 14 C3.875 10.875 3.875 10.875 4 8 C4.598125 8.309375 5.19625 8.61875 5.8125 8.9375 C11.15255096 11.53123904 16.64314255 11.95277142 22.3671875 10.328125 C24.26809541 9.61105653 26.13790457 8.81255073 28 8 C28.3125 10.8125 28.3125 10.8125 28 14 C25.5625 15.6875 25.5625 15.6875 23 17 C22.67 17.99 22.34 18.98 22 20 C27.31411494 18.07608351 27.31411494 18.07608351 31 14 C31.29452584 11.61322924 31.4928217 9.21373906 31.625 6.8125 C31.69976562 5.54019531 31.77453125 4.26789063 31.8515625 2.95703125 C31.90054688 1.98121094 31.94953125 1.00539063 32 0 C34.46948242 0.89379883 34.46948242 0.89379883 37 3 C37.74299532 6.22072872 37.58005243 9.40947722 37.48828125 12.69921875 C37.48120651 13.64940384 37.47413177 14.59958893 37.46684265 15.5785675 C37.4388367 18.61567676 37.37608644 21.65094735 37.3125 24.6875 C37.28742516 26.7454161 37.26461058 28.80336107 37.24414062 30.86132812 C37.18898955 35.90826134 37.10267382 40.95381888 37 46 C35.35 46 33.7 46 32 46 C32 46.66 32 47.32 32 48 C30.68 48 29.36 48 28 48 C28 47.34 28 46.68 28 46 C24.27056178 46.13935544 20.54152904 46.28762301 16.8125 46.4375 C15.75740234 46.47681641 14.70230469 46.51613281 13.61523438 46.55664062 C12.59365234 46.59853516 11.57207031 46.64042969 10.51953125 46.68359375 C9.11344604 46.73858032 9.11344604 46.73858032 7.67895508 46.79467773 C5.04885018 46.99625599 2.57233586 47.42678321 0 48 C0 47.34 0 46.68 0 46 C-1.65 46 -3.3 46 -5 46 C-5.09878601 39.93111949 -5.17142949 33.86270561 -5.21972656 27.79321289 C-5.23985731 25.72802582 -5.26716445 23.66289584 -5.30175781 21.59790039 C-5.35021162 18.63152999 -5.37295385 15.66591228 -5.390625 12.69921875 C-5.41127014 11.7741301 -5.43191528 10.84904144 -5.45318604 9.8959198 C-5.45543511 3.48892966 -5.45543511 3.48892966 -3.03808594 0.89379883 C-1 0 -1 0 0 0 Z " fill="#9E4732" transform="translate(61,73)"/>
<path d="M0 0 C0.02578125 0.95261719 0.0515625 1.90523438 0.078125 2.88671875 C0.13484375 4.14097656 0.1915625 5.39523438 0.25 6.6875 C0.29640625 7.92886719 0.3428125 9.17023438 0.390625 10.44921875 C1.09212452 14.53680249 1.91504703 16.24410868 5 19 C8.02477546 19.81332156 8.02477546 19.81332156 11.25 19.8125 C12.32765625 19.86019531 13.4053125 19.90789062 14.515625 19.95703125 C15.33546875 19.97121094 16.1553125 19.98539063 17 20 C16.67 19.01 16.34 18.02 16 17 C14.95199219 16.92652344 14.95199219 16.92652344 13.8828125 16.8515625 C12.97273438 16.77679688 12.06265625 16.70203125 11.125 16.625 C10.22007813 16.55539063 9.31515625 16.48578125 8.3828125 16.4140625 C6 16 6 16 4 14 C3.875 10.875 3.875 10.875 4 8 C4.598125 8.309375 5.19625 8.61875 5.8125 8.9375 C11.15255096 11.53123904 16.64314255 11.95277142 22.3671875 10.328125 C24.26809541 9.61105653 26.13790457 8.81255073 28 8 C28.3125 10.8125 28.3125 10.8125 28 14 C25.5625 15.6875 25.5625 15.6875 23 17 C22.67 17.99 22.34 18.98 22 20 C25.465 19.505 25.465 19.505 29 19 C29 22.63 29 26.26 29 30 C28.18732666 30.02505615 27.37465332 30.0501123 26.53735352 30.07592773 C22.87889248 30.19149118 19.22071472 30.31439584 15.5625 30.4375 C14.28310547 30.47681641 13.00371094 30.51613281 11.68554688 30.55664062 C10.47060547 30.59853516 9.25566406 30.64042969 8.00390625 30.68359375 C6.87799072 30.72025146 5.7520752 30.75690918 4.59204102 30.79467773 C2.07146559 30.71218045 2.07146559 30.71218045 1 32 C0.76472227 34.34987262 0.58613583 36.70556039 0.4375 39.0625 C0.35371094 40.35285156 0.26992188 41.64320312 0.18359375 42.97265625 C0.12300781 43.97167969 0.06242187 44.97070312 0 46 C-1.65 46 -3.3 46 -5 46 C-5.09878601 39.93111949 -5.17142949 33.86270561 -5.21972656 27.79321289 C-5.23985731 25.72802582 -5.26716445 23.66289584 -5.30175781 21.59790039 C-5.35021162 18.63152999 -5.37295385 15.66591228 -5.390625 12.69921875 C-5.41127014 11.7741301 -5.43191528 10.84904144 -5.45318604 9.8959198 C-5.45543511 3.48892966 -5.45543511 3.48892966 -3.03808594 0.89379883 C-1 0 -1 0 0 0 Z " fill="#CC664D" transform="translate(61,73)"/>
<path d="M0 0 C1.87171875 -0.00386719 1.87171875 -0.00386719 3.78125 -0.0078125 C5.74578125 0.00378906 5.74578125 0.00378906 7.75 0.015625 C9.0596875 0.00789063 10.369375 0.00015625 11.71875 -0.0078125 C12.9665625 -0.00523438 14.214375 -0.00265625 15.5 0 C16.64984375 0.00225586 17.7996875 0.00451172 18.984375 0.00683594 C21.75 0.265625 21.75 0.265625 23.75 2.265625 C24.015625 5.015625 24.015625 5.015625 24 8.265625 C24.00773437 9.874375 24.00773437 9.874375 24.015625 11.515625 C23.75 14.265625 23.75 14.265625 21.75 16.265625 C18.984375 16.52441406 18.984375 16.52441406 15.5 16.53125 C13.62828125 16.53511719 13.62828125 16.53511719 11.71875 16.5390625 C9.75421875 16.52746094 9.75421875 16.52746094 7.75 16.515625 C6.4403125 16.52335937 5.130625 16.53109375 3.78125 16.5390625 C2.5334375 16.53648438 1.285625 16.53390625 0 16.53125 C-1.72476563 16.52786621 -1.72476563 16.52786621 -3.484375 16.52441406 C-6.25 16.265625 -6.25 16.265625 -8.25 14.265625 C-8.515625 11.515625 -8.515625 11.515625 -8.5 8.265625 C-8.50515625 7.193125 -8.5103125 6.120625 -8.515625 5.015625 C-7.98052187 -0.52426618 -4.75618961 0.00933109 0 0 Z " fill="#0E0908" transform="translate(69.25,29.734375)"/>
<path d="M0 0 C2.64 0 5.28 0 8 0 C8.07616325 7.29566754 8.1286476 14.59123224 8.16479492 21.88720703 C8.17986662 24.3683658 8.20032746 26.84949799 8.22631836 29.33056641 C8.26277167 32.90013189 8.27974292 36.46934461 8.29296875 40.0390625 C8.30845261 41.14553131 8.32393646 42.25200012 8.33988953 43.39199829 C8.34130122 49.87518459 7.91424601 54.52873744 3.58984375 59.6796875 C-3.55293798 64.8468062 -12.62122087 63.40282592 -21 63 C-21 62.67 -21 62.34 -21 62 C-20.02417969 61.93941406 -19.04835938 61.87882812 -18.04296875 61.81640625 C-16.77066406 61.73261719 -15.49835938 61.64882812 -14.1875 61.5625 C-12.92292969 61.48128906 -11.65835938 61.40007812 -10.35546875 61.31640625 C-7.00818107 61.12815453 -7.00818107 61.12815453 -4 60 C-1.50400774 55.25847837 -1.27199131 50.10843033 -0.66015625 44.86328125 C0 42 0 42 3 40 C3.40319167 37.13948767 3.40319167 37.13948767 3.25 33.9375 C3.23453125 32.85339844 3.2190625 31.76929687 3.203125 30.65234375 C3.29549888 28.07848292 3.29549888 28.07848292 2 27 C0.00217874 26.84174742 -2.00088834 26.74880829 -4.00390625 26.68359375 C-5.21884766 26.64169922 -6.43378906 26.59980469 -7.68554688 26.55664062 C-8.96494141 26.51732422 -10.24433594 26.47800781 -11.5625 26.4375 C-12.84576172 26.39431641 -14.12902344 26.35113281 -15.45117188 26.30664062 C-18.63399853 26.200152 -21.81690674 26.09814038 -25 26 C-25 25.67 -25 25.34 -25 25 C-16.75 25 -8.5 25 0 25 C0 16.75 0 8.5 0 0 Z " fill="#A99E9D" transform="translate(89,4)"/>
<path d="M0 0 C7.91478869 7.91478869 19 27.27768582 19 39 C12.73 39 6.46 39 0 39 C0 26.13 0 13.26 0 0 Z " fill="#CFC3BF" transform="translate(101,80)"/>
<path d="M0 0 C1.32 0 2.64 0 4 0 C4 15.18 4 30.36 4 46 C0.7 46 -2.6 46 -6 46 C-6.2165625 44.4221875 -6.2165625 44.4221875 -6.4375 42.8125 C-6.90328012 39.17392613 -6.90328012 39.17392613 -7.6875 36.375 C-8.09757924 33.2583978 -7.60227712 31.69473879 -6 29 C-4.35 28.34 -2.7 27.68 -1 27 C-0.67 18.09 -0.34 9.18 0 0 Z " fill="#F89726" transform="translate(38,78)"/>
<path d="M0 0 C7.92 0 15.84 0 24 0 C24 3.96 24 7.92 24 12 C16.08 12 8.16 12 0 12 C0 8.04 0 4.08 0 0 Z " fill="#D2694F" transform="translate(65,107)"/>
<path d="M0 0 C0 12.87 0 25.74 0 39 C-2.31 39 -4.62 39 -7 39 C-7.1494808 34.73174836 -7.25773491 30.46492329 -7.32958984 26.19482422 C-7.35957254 24.7456607 -7.40037521 23.29667572 -7.45263672 21.84814453 C-7.96288696 7.3310248 -7.96288696 7.3310248 -2.39697266 1.1875 C-1 0 -1 0 0 0 Z " fill="#E0D8D4" transform="translate(53,80)"/>
<path d="M0 0 C1.87171875 -0.00386719 1.87171875 -0.00386719 3.78125 -0.0078125 C5.74578125 0.00378906 5.74578125 0.00378906 7.75 0.015625 C9.0596875 0.00789063 10.369375 0.00015625 11.71875 -0.0078125 C12.9665625 -0.00523438 14.214375 -0.00265625 15.5 0 C16.64984375 0.00225586 17.7996875 0.00451172 18.984375 0.00683594 C21.75 0.265625 21.75 0.265625 23.75 2.265625 C23.89507695 5.01048093 23.93652423 7.65043043 23.875 10.390625 C23.86597656 11.14472656 23.85695312 11.89882812 23.84765625 12.67578125 C23.8240687 14.53919754 23.78819719 16.40245093 23.75 18.265625 C22.43 18.265625 21.11 18.265625 19.75 18.265625 C19.75 13.645625 19.75 9.025625 19.75 4.265625 C11.83 4.265625 3.91 4.265625 -4.25 4.265625 C-3.92 8.555625 -3.59 12.845625 -3.25 17.265625 C-4.9 17.595625 -6.55 17.925625 -8.25 18.265625 C-8.30382106 15.64035311 -8.34358313 13.01617787 -8.375 10.390625 C-8.39175781 9.64425781 -8.40851562 8.89789063 -8.42578125 8.12890625 C-8.4433959 6.17368039 -8.35320189 4.21820479 -8.25 2.265625 C-5.49055395 -0.49382105 -3.85763302 0.00756823 0 0 Z " fill="#0C0604" transform="translate(69.25,102.734375)"/>
<path d="M0 0 C6.24037253 -0.4992298 10.01009196 -0.24142184 15 4 C16.26237731 6.52475462 16.09856404 8.31200466 16.0625 11.125 C16.05347656 12.03507812 16.04445313 12.94515625 16.03515625 13.8828125 C16.02355469 14.58148438 16.01195313 15.28015625 16 16 C7.05635068 16.62518714 7.05635068 16.62518714 2.9375 14.1875 C0.09301508 10.97598477 -0.12235172 8.44226867 -0.0625 4.3125 C-0.05347656 3.50425781 -0.04445313 2.69601563 -0.03515625 1.86328125 C-0.02355469 1.24839844 -0.01195312 0.63351563 0 0 Z " fill="#DE3A51" transform="translate(8,21)"/>
<path d="M0 0 C0.91644287 0.00523682 1.83288574 0.01047363 2.77709961 0.01586914 C3.76645508 0.0190918 4.75581055 0.02231445 5.77514648 0.02563477 C6.81606445 0.03401367 7.85698242 0.04239258 8.92944336 0.05102539 C10.49662109 0.05779297 10.49662109 0.05779297 12.09545898 0.06469727 C14.68600996 0.07652627 17.27644895 0.0930085 19.86694336 0.11352539 C20.19694336 1.10352539 20.52694336 2.09352539 20.86694336 3.11352539 C18.82620031 6.68482572 17.309412 8.8185463 13.86694336 11.11352539 C9.12654249 11.80449908 5.11036826 11.78704721 0.86694336 9.48852539 C-1.40176152 6.79443834 -2.2836573 4.51112276 -3.13305664 1.11352539 C-2.13305664 0.11352539 -2.13305664 0.11352539 0 0 Z " fill="#E68B7A" transform="translate(68.133056640625,69.886474609375)"/>
<path d="M0 0 C8.25 0 16.5 0 25 0 C25 2.64 25 5.28 25 8 C16.75 8 8.5 8 0 8 C0 5.36 0 2.72 0 0 Z " fill="#A24934" transform="translate(65,34)"/>
<path d="M0 0 C3.15069422 1.36689554 5.00891774 2.85657885 7.1875 5.5 C7.95126953 6.41265625 7.95126953 6.41265625 8.73046875 7.34375 C11.12863901 10.47243982 11.11813188 12.55494222 11.09765625 16.4453125 C11.09443359 17.52167969 11.09121094 18.59804688 11.08789062 19.70703125 C11.07951172 20.83496094 11.07113281 21.96289062 11.0625 23.125 C11.05798828 24.26066406 11.05347656 25.39632812 11.04882812 26.56640625 C11.03701615 29.37765638 11.02054507 32.1888023 11 35 C9.68 35 8.36 35 7 35 C7.00112793 34.34515625 7.00225586 33.6903125 7.00341797 33.015625 C6.99121051 30.00940634 6.93343327 27.00566147 6.875 24 C6.87757812 22.97003906 6.88015625 21.94007812 6.8828125 20.87890625 C6.71589274 14.32730581 5.80698971 10.56410287 1.28173828 5.71875 C0 4 0 4 0 0 Z " fill="#ADA1A1" transform="translate(27,39)"/>
<path d="M0 0 C0.598125 0.309375 1.19625 0.61875 1.8125 0.9375 C7.15255096 3.53123904 12.64314255 3.95277142 18.3671875 2.328125 C20.26809541 1.61105653 22.13790457 0.81255073 24 0 C24.375 2.75 24.375 2.75 24 6 C21.07590542 8.58408358 19.08772024 9.8791422 15.1875 10.3125 C13 10 13 10 12 9 C9.45243896 8.71693766 6.90489978 8.55184214 4.34765625 8.37890625 C2 8 2 8 0 6 C-0.125 2.875 -0.125 2.875 0 0 Z " fill="#E8DFDB" transform="translate(65,81)"/>
<path d="M0 0 C0 4.62 0 9.24 0 14 C-3.3 14 -6.6 14 -10 14 C-10.71245634 7.112922 -10.71245634 7.112922 -8.8046875 4.1328125 C-5.66204063 0.83224367 -4.80205109 0 0 0 Z " fill="#E5A92B" transform="translate(34,78)"/>
<path d="M0 0 C2.43938372 3.65907558 3.9595942 7.44480457 5.625 11.5 C5.94984375 12.27214844 6.2746875 13.04429688 6.609375 13.83984375 C6.91617188 14.58363281 7.22296875 15.32742187 7.5390625 16.09375 C7.81959473 16.77115234 8.10012695 17.44855469 8.38916016 18.14648438 C9 20 9 20 9 23 C6.03 23 3.06 23 0 23 C0 15.41 0 7.82 0 0 Z " fill="#F2E9E5" transform="translate(102,96)"/>
<path d="M0 0 C3.3 0 6.6 0 10 0 C10 2.64 10 5.28 10 8 C6.7 8 3.4 8 0 8 C0 5.36 0 2.72 0 0 Z " fill="#9F2637" transform="translate(24,95)"/>
<path d="M0 0 C4.39928768 1.17314338 6.68212226 2.0264953 9 6 C9.29296875 8.578125 9.29296875 8.578125 9.1875 11.25 C9.16042969 12.14203125 9.13335937 13.0340625 9.10546875 13.953125 C9.07066406 14.62859375 9.03585938 15.3040625 9 16 C7.35 16 5.7 16 4 16 C3.96261719 15.26394531 3.92523437 14.52789062 3.88671875 13.76953125 C3.47015527 6.39587342 3.47015527 6.39587342 0 0 Z " fill="#A82739" transform="translate(15,21)"/>
<path d="M0 0 C0 2.97 0 5.94 0 9 C-1.32 9 -2.64 9 -4 9 C-4.368 3.48 -4.368 3.48 -2.5625 1.125 C-1 0 -1 0 0 0 Z " fill="#FCC739" transform="translate(29,82)"/>
<path d="M0 0 C1.32 0 2.64 0 4 0 C4 2.31 4 4.62 4 7 C2.68 7 1.36 7 0 7 C0 4.69 0 2.38 0 0 Z " fill="#E03A51" transform="translate(25,96)"/>
</svg>
