<?xml version="1.0" encoding="UTF-8"?>
<svg version="1.1" xmlns="http://www.w3.org/2000/svg" width="209" height="209">
<path d="M0 0 C68.97 0 137.94 0 209 0 C209 68.97 209 137.94 209 209 C140.03 209 71.06 209 0 209 C0 140.03 0 71.06 0 0 Z " fill="#FBFEFD" transform="translate(0,0)"/>
<path d="M0 0 C0.33 0 0.66 0 1 0 C1 33.66 1 67.32 1 102 C-32 102 -65 102 -99 102 C-97.06692503 100.71128335 -95.1095313 99.45797557 -93.125 98.25 C-88.631324 95.01455328 -85.03610205 91.63981325 -84 86 C-83.31935444 79.50768847 -84.63269945 73.8235139 -86.44140625 67.6015625 C-87 65 -87 65 -86 62 C-85.79842285 62.58491211 -85.5968457 63.16982422 -85.38916016 63.77246094 C-84.47060571 66.43262838 -83.54784791 69.09131912 -82.625 71.75 C-82.30789062 72.67039062 -81.99078125 73.59078125 -81.6640625 74.5390625 C-81.2 75.87324219 -81.2 75.87324219 -80.7265625 77.234375 C-80.30238037 78.45979004 -80.30238037 78.45979004 -79.86962891 79.70996094 C-78.31464388 84.29797572 -78.31464388 84.29797572 -74.6875 87.125 C-73.800625 87.41375 -72.91375 87.7025 -72 88 C-71.236875 88.37125 -70.47375 88.7425 -69.6875 89.125 C-63.15289814 91.25254479 -58.03933858 90.14705393 -52.04296875 87.1953125 C-46.5612513 83.98803613 -43.89594313 79.98718884 -42 74 C-41.03863993 67.49323367 -42.22121686 62.37959328 -46 57 C-48.20615714 54.51512065 -50.52949918 52.22067489 -53 50 C-52.505 49.01 -52.505 49.01 -52 48 C-51.32453125 48.62648437 -50.6490625 49.25296875 -49.953125 49.8984375 C-49.06109375 50.71570313 -48.1690625 51.53296875 -47.25 52.375 C-46.36828125 53.18710938 -45.4865625 53.99921875 -44.578125 54.8359375 C-39.44104264 59.1479733 -35.66164851 59.44564315 -29.04296875 59.30859375 C-23.81827762 58.77874702 -19.99424784 57.19367262 -16.4375 53.28125 C-11.48469984 46.63999525 -11.17297265 40.13564111 -12 32 C-13.62430112 27.15745741 -16.04651859 24.64176633 -20.25 21.8125 C-27.191996 18.81237382 -34.72625557 17.01681095 -42 15 C-38.00514845 13.81688027 -35.43267937 14.42532943 -31.375 15.4375 C-24.22293962 17.0508026 -17.83093718 18.25242177 -10.75 15.9375 C-4.72988586 11.69605595 -1.47072177 7.20653669 0 0 Z " fill="#029FFC" transform="translate(208,107)"/>
<path d="M0 0 C33.33 0 66.66 0 101 0 C101 33.33 101 66.66 101 101 C99.78307651 98.56615302 98.60515298 96.11159421 97.5 93.625 C94.58961758 88.69973744 90.34339226 85.87875958 85 84 C80.54806809 83.75208436 76.3876195 84.27062949 72 85 C70.56263175 85.18850731 69.12516174 85.37624423 67.6875 85.5625 C66.3571875 85.7790625 66.3571875 85.7790625 65 86 C68.10074606 83.93283596 70.86837971 82.91923047 74.375 81.6875 C80.41570884 79.39619665 84.21861574 77.72997427 87.08203125 71.734375 C89.06127832 65.83874542 89.25359544 59.09160727 86.90234375 53.29296875 C83.31226961 47.52012954 79.3433613 44.62876049 73 42.25 C65.50079116 41.3125989 61.1496365 42.80922454 55 47 C52.53626367 49.12209863 52.53626367 49.12209863 51 51 C50.01 50.505 50.01 50.505 49 50 C49.56589844 49.32453125 50.13179687 48.6490625 50.71484375 47.953125 C51.44832031 47.06109375 52.18179688 46.1690625 52.9375 45.25 C53.66839844 44.36828125 54.39929688 43.4865625 55.15234375 42.578125 C58.54386219 37.84577368 58.66281459 32.67593341 58 27 C56.15634929 21.10031773 53.05625567 17.43825385 48 14 C42.86892333 11.55107705 37.58456286 11.41694613 32 12 C27.26451435 13.69762693 24.15770173 16.09442155 21 20 C19.46200515 23.26636039 18.18483378 26.59112069 17 30 C16.67 30 16.34 30 16 30 C16.03480469 28.98679687 16.06960937 27.97359375 16.10546875 26.9296875 C16.13362595 25.5781417 16.16092403 24.22657781 16.1875 22.875 C16.21263672 22.20984375 16.23777344 21.5446875 16.26367188 20.859375 C16.353485 14.75208226 14.6122345 10.98074524 10.8125 6.3125 C7.32032844 3.44115894 4.2877173 2.38079032 0 1 C0 0.67 0 0.34 0 0 Z " fill="#029FFC" transform="translate(108,0)"/>
<path d="M0 0 C1.32 1.65 2.64 3.3 4 5 C5.17446849 6.11995729 6.38053273 7.20837542 7.625 8.25 C8.21539062 8.75015625 8.80578125 9.2503125 9.4140625 9.765625 C14.1166934 13.42580077 20.33148109 12.3742204 26 12 C29.24221814 11.33008963 32.37046265 10.51427065 35.5390625 9.55859375 C38 9 38 9 41 10 C40.18378174 10.24121582 40.18378174 10.24121582 39.35107422 10.48730469 C36.85582106 11.2311586 34.36551205 11.99043034 31.875 12.75 C31.0190625 13.00265625 30.163125 13.2553125 29.28125 13.515625 C22.79061439 15.51274365 17.99569834 17.53163626 13.625 22.9375 C10.6063888 28.82252351 11.05140171 36.13022153 12.58984375 42.40625 C14.58481343 47.18682251 17.90425206 50.28072117 22.30859375 52.921875 C27.52867285 55.01293716 32.51750668 55.02584447 38 54 C41.44029519 52.44648369 44.14458415 50.44831841 47 48 C47.62132812 47.50113281 48.24265625 47.00226563 48.8828125 46.48828125 C50.27943927 45.35473999 51.64415538 44.18201839 53 43 C51.58782791 46.17032634 49.86350624 48.40874862 47.5 50.9375 C43.02546955 55.99809161 41.51440269 59.83348065 41.68359375 66.58984375 C42.39393023 72.0006784 44.51903705 76.47901103 48.3125 80.375 C54.07719069 83.86062693 59.18549449 85.99756069 66 85 C68.75780472 84.18452011 71.35910593 83.1301387 74 82 C74.99 81.67 75.98 81.34 77 81 C78.55031981 78.43944499 79.52515563 75.71042298 80.5078125 72.890625 C80.77207031 72.13652344 81.03632812 71.38242188 81.30859375 70.60546875 C81.57800781 69.82816406 81.84742187 69.05085938 82.125 68.25 C82.54072266 67.06083984 82.54072266 67.06083984 82.96484375 65.84765625 C83.64560644 63.89926649 84.32312401 61.94974342 85 60 C85.89234771 63.20158476 85.94877919 65.029273 85.0625 68.25 C83.33590291 75.46386454 83.17025388 81.32882934 87 88 C90.47121112 91.72833786 94.0684901 94.50560306 99 96 C99 96.33 99 96.66 99 97 C66.33 97 33.66 97 0 97 C0 64.99 0 32.98 0 0 Z " fill="#029FFC" transform="translate(0,112)"/>
<path d="M0 0 C32.34 0 64.68 0 98 0 C96 2 96 2 92.6875 3.625 C88.29389109 6.13432057 85.77332068 9.25795049 84 14 C83.2580836 19.30933927 83.67801427 24.27452197 85.0625 29.4375 C85.96596256 32.87065774 86.00132764 33.81395751 85 37 C84.67386719 35.97519531 84.34773438 34.95039062 84.01171875 33.89453125 C83.57063753 32.53374877 83.12921307 31.17307751 82.6875 29.8125 C82.47416016 29.13896484 82.26082031 28.46542969 82.04101562 27.77148438 C79.77131629 20.75385404 79.77131629 20.75385404 74.87109375 15.41796875 C68.09747631 11.993106 62.19926152 10.37010891 54.76953125 12.69921875 C49.0420561 15.24595723 45.77533627 18.87202658 42.6875 24.3125 C41.25099746 29.92791904 41.17236086 35.79690053 43.75 41.11328125 C46.04669936 44.57986185 48.89775301 47.55328829 51.74609375 50.5703125 C53.96198173 52.9590167 55.99497671 55.43320481 58 58 C54.43255038 56.50215434 52.31491237 54.43441784 49.6875 51.625 C44.5251238 46.33505273 39.48691055 42.54941762 31.9375 41.625 C25.47697109 42.24028847 20.03588964 44.91321312 15.5 49.5625 C11.50082022 56.06116715 11.28127897 61.38519617 12 69 C13.24817613 73.76100716 15.19558206 76.82799687 19.4375 79.375 C22.27071279 80.66734267 25.07379134 81.93592413 28 83 C28 83.33 28 83.66 28 84 C27.29875 83.96519531 26.5975 83.93039063 25.875 83.89453125 C18.05669207 83.67145453 12.33397914 84.25872826 6.1875 89.3125 C3.93798508 92.07618976 2.43705006 94.74772881 1 98 C0.67 98 0.34 98 0 98 C0 65.66 0 33.32 0 0 Z " fill="#029FFC" transform="translate(0,0)"/>
<path d="M0 0 C4.62 0 9.24 0 14 0 C14.11337546 8.82375051 14.20492987 17.64701005 14.25906086 26.47132683 C14.28505314 30.56970353 14.32025821 34.66755214 14.37719727 38.765625 C14.43189176 42.72735846 14.46149834 46.68858695 14.47438622 50.6506691 C14.48355958 52.15525375 14.50147193 53.65981363 14.52865028 55.16418076 C14.69900612 64.99277209 14.06686893 73.1541096 7.38398743 80.86447144 C1.44853575 86.80598502 -6.85980595 89.17239758 -15.0625 89.5625 C-22.71064486 89.28438564 -28.2795785 86.27627105 -34.0625 81.4375 C-35.94477133 79.06948123 -36.4126958 77.86386483 -37 75 C-35.3790787 73.82767315 -33.75313167 72.6622923 -32.125 71.5 C-30.76761719 70.52546875 -30.76761719 70.52546875 -29.3828125 69.53125 C-27 68 -27 68 -25 68 C-23.66666667 69.33333333 -22.33333333 70.66666667 -21 72 C-16.14790867 73.61736378 -12.37133344 73.62098118 -7.6875 71.5 C-6.800625 71.005 -5.91375 70.51 -5 70 C-4.34 70 -3.68 70 -3 70 C-1.36429553 65.67698308 -0.73585701 62.05727436 -0.68115234 57.44384766 C-0.66128265 56.16297272 -0.64141296 54.88209778 -0.62094116 53.56240845 C-0.60906748 52.17962822 -0.59740447 50.79684616 -0.5859375 49.4140625 C-0.56721021 47.98773091 -0.54763565 46.56141021 -0.5272522 45.13510132 C-0.47608959 41.39681444 -0.43637945 37.6584917 -0.39910889 33.92004395 C-0.35896922 30.09895066 -0.30792252 26.27800449 -0.2578125 22.45703125 C-0.16124128 14.9714478 -0.07778611 7.48580654 0 0 Z " fill="#039FFB" transform="translate(105,60)"/>
<path d="M0 0 C4.62 0 9.24 0 14 0 C14.11337546 8.82375051 14.20492987 17.64701005 14.25906086 26.47132683 C14.28505314 30.56970353 14.32025821 34.66755214 14.37719727 38.765625 C14.43189176 42.72735846 14.46149834 46.68858695 14.47438622 50.6506691 C14.48355958 52.15525375 14.50147193 53.65981363 14.52865028 55.16418076 C14.68202216 64.01289129 14.38175431 71.5900654 9 79 C7.08919274 80.9704567 5.26477198 82.41992652 3 84 C2.01 83.01 1.02 82.02 0 81 C0.495 79.515 0.495 79.515 1 78 C3.31 78 5.62 78 8 78 C8.144375 77.360625 8.28875 76.72125 8.4375 76.0625 C9 74 9 74 10 73 C10.79300571 68.45349702 11.14039656 64.03184457 11.20532227 59.42211914 C11.22526749 58.16134048 11.24521271 56.90056183 11.26576233 55.60157776 C11.28273998 54.24610513 11.29961903 52.89063125 11.31640625 51.53515625 C11.33700759 50.13267957 11.35800483 48.73020865 11.37937927 47.32774353 C11.43427193 43.65685732 11.48382423 39.98591816 11.53222656 36.31494141 C11.58268293 32.56082511 11.63824233 28.80678462 11.69335938 25.05273438 C11.80053895 17.70188732 11.90207118 10.35097674 12 3 C8.7 2.67 5.4 2.34 2 2 C2.01110306 2.74422714 2.02220612 3.48845428 2.03364563 4.25523376 C2.13422469 11.30137651 2.2101547 18.34726668 2.25906086 25.39392757 C2.28505057 29.01594337 2.32024951 32.63736137 2.37719727 36.2590332 C2.43190307 39.7604152 2.46150026 43.2612257 2.47438622 46.7630024 C2.4879926 48.73549903 2.52696387 50.70776873 2.56648254 52.67991638 C2.56880009 60.17024142 1.93429566 66.08808131 -3 72 C-7.93671635 75.13291615 -13.24220212 75.90295405 -19 75 C-19.66 74.34 -20.32 73.68 -21 73 C-20.34773438 73.03480469 -19.69546875 73.06960937 -19.0234375 73.10546875 C-13.45972652 73.27779608 -9.89576543 72.93745926 -5 70 C-4.34 70 -3.68 70 -3 70 C-1.36429553 65.67698308 -0.73585701 62.05727436 -0.68115234 57.44384766 C-0.66128265 56.16297272 -0.64141296 54.88209778 -0.62094116 53.56240845 C-0.60906748 52.17962822 -0.59740447 50.79684616 -0.5859375 49.4140625 C-0.56721021 47.98773091 -0.54763565 46.56141021 -0.5272522 45.13510132 C-0.47608959 41.39681444 -0.43637945 37.6584917 -0.39910889 33.92004395 C-0.35896922 30.09895066 -0.30792252 26.27800449 -0.2578125 22.45703125 C-0.16124128 14.9714478 -0.07778611 7.48580654 0 0 Z " fill="#169AE4" transform="translate(105,60)"/>
<path d="M0 0 C5.94 0 11.88 0 18 0 C18 24.09 18 48.18 18 73 C16.515 73.495 16.515 73.495 15 74 C14.67 75.65 14.34 77.3 14 79 C13.34 79 12.68 79 12 79 C12.4844458 77.84443604 12.9688916 76.68887207 13.46801758 75.49829102 C15.78161372 68.51262624 15.48144836 61.3010892 15.51171875 54.02734375 C15.52859116 52.49319546 15.5467448 50.95906078 15.56611633 49.42494202 C15.61334481 45.41541803 15.64332879 41.40594924 15.66955566 37.39624023 C15.69949934 33.2933462 15.74598172 29.19064186 15.79101562 25.08789062 C15.87673938 17.05867191 15.9426896 9.02947184 16 1 C11.38 1 6.76 1 2 1 C2.01571045 2.91780273 2.0314209 4.83560547 2.04760742 6.81152344 C2.09599371 13.14979982 2.1304592 19.48803247 2.15543652 25.82644272 C2.17108879 29.66923087 2.19231873 33.5118191 2.22631836 37.35449219 C2.25892795 41.06329563 2.27685631 44.77190684 2.28463173 48.48084259 C2.29017241 49.89543941 2.30099212 51.31002578 2.31719017 52.72454071 C2.33898301 54.70655548 2.34022556 56.6887639 2.34057617 58.67089844 C2.34723801 59.79896912 2.35389984 60.92703979 2.36076355 62.08929443 C2 65 2 65 -1 69 C-0.67 46.23 -0.34 23.46 0 0 Z " fill="#AFE9FE" transform="translate(103,59)"/>
<path d="M0 0 C4.62 0 9.24 0 14 0 C14 0.66 14 1.32 14 2 C10.04 2 6.08 2 2 2 C2.02618408 3.80073975 2.05236816 5.60147949 2.0793457 7.45678711 C2.16028016 13.43576016 2.21756218 19.41457685 2.25906086 25.39392757 C2.28505057 29.01594337 2.32024951 32.63736137 2.37719727 36.2590332 C2.43190307 39.7604152 2.46150026 43.2612257 2.47438622 46.7630024 C2.4879926 48.73549903 2.52696387 50.70776873 2.56648254 52.67991638 C2.56880009 60.17024142 1.93429566 66.08808131 -3 72 C-7.93671635 75.13291615 -13.24220212 75.90295405 -19 75 C-19.66 74.34 -20.32 73.68 -21 73 C-20.34773438 73.03480469 -19.69546875 73.06960937 -19.0234375 73.10546875 C-13.45972652 73.27779608 -9.89576543 72.93745926 -5 70 C-4.34 70 -3.68 70 -3 70 C-1.36429553 65.67698308 -0.73585701 62.05727436 -0.68115234 57.44384766 C-0.66128265 56.16297272 -0.64141296 54.88209778 -0.62094116 53.56240845 C-0.60906748 52.17962822 -0.59740447 50.79684616 -0.5859375 49.4140625 C-0.56721021 47.98773091 -0.54763565 46.56141021 -0.5272522 45.13510132 C-0.47608959 41.39681444 -0.43637945 37.6584917 -0.39910889 33.92004395 C-0.35896922 30.09895066 -0.30792252 26.27800449 -0.2578125 22.45703125 C-0.16124128 14.9714478 -0.07778611 7.48580654 0 0 Z " fill="#2297D7" transform="translate(105,60)"/>
<path d="M0 0 C2.01822917 0.06510417 4.03645833 0.13020833 6.0546875 0.1953125 C4.0546875 2.1953125 4.0546875 2.1953125 0.7421875 3.8203125 C-3.65142141 6.32963307 -6.17199182 9.45326299 -7.9453125 14.1953125 C-8.6872289 19.50465177 -8.26729823 24.46983447 -6.8828125 29.6328125 C-5.97934994 33.06597024 -5.94398486 34.00927001 -6.9453125 37.1953125 C-7.43451172 35.65810547 -7.43451172 35.65810547 -7.93359375 34.08984375 C-8.37467497 32.72906127 -8.81609943 31.36839001 -9.2578125 30.0078125 C-9.57782227 28.99750977 -9.57782227 28.99750977 -9.90429688 27.96679688 C-12.15895156 20.94918888 -12.15895156 20.94918888 -17.07421875 15.6484375 C-23.06897033 12.68474009 -28.25376617 11.35192316 -34.9453125 11.1953125 C-34.9453125 10.8653125 -34.9453125 10.5353125 -34.9453125 10.1953125 C-32.57023395 10.16811694 -30.19547286 10.14838003 -27.8203125 10.1328125 C-26.82257813 10.12024414 -26.82257813 10.12024414 -25.8046875 10.10742188 C-21.73849896 10.08748958 -17.9333033 10.40641089 -13.9453125 11.1953125 C-13.0790625 9.9578125 -13.0790625 9.9578125 -12.1953125 8.6953125 C-11.4528125 7.8703125 -10.7103125 7.0453125 -9.9453125 6.1953125 C-8.6253125 6.1953125 -7.3053125 6.1953125 -5.9453125 6.1953125 C-5.5121875 5.2671875 -5.5121875 5.2671875 -5.0703125 4.3203125 C-2.93932448 0.2951129 -2.93932448 0.2951129 0 0 Z " fill="#189DE8" transform="translate(91.9453125,-0.1953125)"/>
<path d="M0 0 C2.11926394 2.11926394 2.5506111 3.20061699 3.4375 5.9921875 C3.69273438 6.77980469 3.94796875 7.56742188 4.2109375 8.37890625 C4.60152344 9.61447266 4.60152344 9.61447266 5 10.875 C5.51801884 12.49829667 6.03876528 14.12072596 6.5625 15.7421875 C6.90474609 16.82282471 6.90474609 16.82282471 7.25390625 17.92529297 C8.73879308 22.39828005 8.73879308 22.39828005 12.3125 25.125 C13.6428125 25.558125 13.6428125 25.558125 15 26 C15.763125 26.37125 16.52625 26.7425 17.3125 27.125 C23.14347569 29.0234572 27.44736108 28.45934509 32.875 25.9375 C33.61492187 25.55464844 34.35484375 25.17179687 35.1171875 24.77734375 C35.73851562 24.52082031 36.35984375 24.26429688 37 24 C37.66 24.33 38.32 24.66 39 25 C36.375 28.875 36.375 28.875 33 30 C30.21554845 30.14880933 27.47257615 30.23107 24.6875 30.25 C23.94048828 30.270625 23.19347656 30.29125 22.42382812 30.3125 C16.66472101 30.35295027 12.5374606 29.28371454 8.125 25.3125 C7.568125 24.6628125 7.568125 24.6628125 7 24 C6.75765625 24.54269531 6.5153125 25.08539063 6.265625 25.64453125 C4.29838821 29.84382517 2.84403565 32.30917504 -1 35 C-2.26847685 37.58498512 -2.26847685 37.58498512 -3 40 C-5.97 40 -8.94 40 -12 40 C-10.06692503 38.71128335 -8.1095313 37.45797557 -6.125 36.25 C-1.631324 33.01455328 1.96389795 29.63981325 3 24 C3.67764133 17.53634422 2.39007097 11.81442098 0.65625 5.6015625 C0 3 0 3 0 0 Z " fill="#4BA0CE" transform="translate(121,169)"/>
<path d="M0 0 C0.95878077 2.87634231 1.02922013 4.30953619 0.875 7.25 C0.86089658 16.00822463 4.9421029 20.42259969 10.74609375 26.5703125 C12.96198173 28.9590167 14.99497671 31.43320481 17 34 C13.43255038 32.50215434 11.31491237 30.43441784 8.6875 27.625 C3.5251238 22.33505273 -1.51308945 18.54941762 -9.0625 17.625 C-15.52302891 18.24028847 -20.96411036 20.91321312 -25.5 25.5625 C-25.995 26.366875 -26.49 27.17125 -27 28 C-27.53560547 28.86625 -27.53560547 28.86625 -28.08203125 29.75 C-29.30066665 32.73695314 -29.22841201 35.22032835 -29.1875 38.4375 C-29.18105469 39.54996094 -29.17460937 40.66242188 -29.16796875 41.80859375 C-29.01836796 44.65100884 -28.64625807 47.23401547 -28 50 C-30 49 -30 49 -31.125 46.5 C-32.88662544 39.45349826 -32.58905108 33.7008298 -29.328125 27.14453125 C-26.31504966 22.27930077 -22.95784095 18.84962909 -17.6875 16.5625 C-11.72830642 15.65347047 -5.84187236 15.32130104 0 17 C-0.32484375 16.4328125 -0.6496875 15.865625 -0.984375 15.28125 C-2.08329872 12.81289826 -2.26838334 11.18396781 -2.25 8.5 C-2.25515625 7.7471875 -2.2603125 6.994375 -2.265625 6.21875 C-1.97250404 3.7703279 -1.21816769 2.12695946 0 0 Z " fill="#53A2CA" transform="translate(41,24)"/>
<path d="M0 0 C0.886875 0.66 1.77375 1.32 2.6875 2 C9.99147681 6.13793848 18.87471047 4.46666671 26.625 2.4375 C27.58664063 2.14746094 28.54828125 1.85742188 29.5390625 1.55859375 C32 1 32 1 35 2 C34.18378174 2.24121582 34.18378174 2.24121582 33.35107422 2.48730469 C30.85582106 3.2311586 28.36551205 3.99043034 25.875 4.75 C25.0190625 5.00265625 24.163125 5.2553125 23.28125 5.515625 C16.79061439 7.51274365 11.99569834 9.53163626 7.625 14.9375 C4.23404691 21.42392894 5.42354807 30.1046249 7 37 C4.33295413 34.80113378 3.10245758 33.67490405 2.57421875 30.1953125 C2.61160156 29.18210938 2.64898437 28.16890625 2.6875 27.125 C2.72230469 26.06539062 2.75710938 25.00578125 2.79296875 23.9140625 C3.00770046 20.89161237 3.40579582 17.97102089 4 15 C4 13.68 4 12.36 4 11 C5 8.75 5 8.75 6 7 C5.38125 6.773125 4.7625 6.54625 4.125 6.3125 C1.38589791 4.62070165 0.94975528 3.00755839 0 0 Z " fill="#179CE7" transform="translate(6,120)"/>
<path d="M0 0 C0.99 0.33 1.98 0.66 3 1 C3 6.28 3 11.56 3 17 C2.34 17 1.68 17 1 17 C0.67 18.65 0.34 20.3 0 22 C-0.66 22 -1.32 22 -2 22 C-2.28875 22.639375 -2.5775 23.27875 -2.875 23.9375 C-4 26 -4 26 -6 27 C-5.32453125 27.08636719 -4.6490625 27.17273438 -3.953125 27.26171875 C3.44027986 28.42628686 3.44027986 28.42628686 6.5 31.5625 C6.995 32.366875 7.49 33.17125 8 34 C8.66 34.33 9.32 34.66 10 35 C12.06085642 39.12171284 13.42161769 42.36220546 13 47 C12.7525 46.484375 12.505 45.96875 12.25 45.4375 C11.8375 44.633125 11.425 43.82875 11 43 C10.505 41.88625 10.01 40.7725 9.5 39.625 C6.58961758 34.69973744 2.34339226 31.87875958 -3 30 C-7.45193191 29.75208436 -11.6123805 30.27062949 -16 31 C-17.43736825 31.18850731 -18.87483826 31.37624423 -20.3125 31.5625 C-21.199375 31.706875 -22.08625 31.85125 -23 32 C-19.89925394 29.93283596 -17.13162029 28.91923047 -13.625 27.6875 C-7.58019405 25.39464257 -3.89846616 23.72314036 -0.89453125 17.83203125 C0.23676811 14.25040665 0.21731789 10.89796922 0.125 7.1875 C0.11597656 6.49462891 0.10695312 5.80175781 0.09765625 5.08789062 C0.07426157 3.39177605 0.03839641 1.69584129 0 0 Z " fill="#2899D6" transform="translate(196,54)"/>
<path d="M0 0 C0.66 0 1.32 0 2 0 C2.06952485 8.40583263 2.12282366 16.81154502 2.15543652 25.21759415 C2.17108945 29.12091481 2.19232061 33.02403869 2.22631836 36.92724609 C2.25892557 40.69440392 2.27685582 44.46137252 2.28463173 48.22866058 C2.29017284 49.66558562 2.30099336 51.10250035 2.31719017 52.53934479 C2.33897989 54.55249422 2.34022554 56.56583424 2.34057617 58.57910156 C2.34723801 59.72493713 2.35389984 60.87077271 2.36076355 62.05133057 C2 65 2 65 -1 69 C-0.67 46.23 -0.34 23.46 0 0 Z " fill="#C3F5FE" transform="translate(103,59)"/>
<path d="M0 0 C0.4125 0.37511719 0.825 0.75023437 1.25 1.13671875 C3.13178006 2.80427832 5.05236596 4.40986667 7 6 C7.60199219 6.49886719 8.20398438 6.99773437 8.82421875 7.51171875 C14.5312017 11.68726812 20.09738453 12.0363176 27 11 C29.99178955 9.94296394 32.26623991 8.67063117 35 7 C35.66 6.67 36.32 6.34 37 6 C36.09981094 9.02790866 35.41077505 10.67703003 32.8984375 12.65234375 C29.19531125 14.37414773 26.38096738 14.32969574 22.3125 14.25 C21.63638672 14.24484375 20.96027344 14.2396875 20.26367188 14.234375 C15.31105473 14.15552736 15.31105473 14.15552736 13 13 C13.33 13.99 13.66 14.98 14 16 C14.51765298 22.34124904 14.56930669 27.49731886 11 33 C10.34 33 9.68 33 9 33 C9.33 32.030625 9.66 31.06125 10 30.0625 C11.9062425 23.21107767 11.84226858 17.2157375 8.35546875 10.921875 C6.3522178 8.08153071 3.9636827 5.76971336 1.390625 3.4453125 C0 2 0 2 0 0 Z " fill="#339DD5" transform="translate(155,155)"/>
<path d="M0 0 C0 3 0 3 -1.42578125 4.578125 C-2.04839844 5.12984375 -2.67101563 5.6815625 -3.3125 6.25 C-7.87868061 10.66828812 -10.08212703 14.97828648 -10.4375 21.375 C-10.27995779 26.47761707 -8.34616278 30.54323296 -6 35 C-5.67 35.66 -5.34 36.32 -5 37 C-8.70196942 35.76601019 -9.31217164 34.10573384 -11.1328125 30.7890625 C-13.75317557 25.38308823 -13.61213852 20.14248481 -12 14.5 C-11.67 13.675 -11.34 12.85 -11 12 C-11.99 12.66 -12.98 13.32 -14 14 C-20.80710627 14.69979597 -27.22505347 14.95996334 -33 11 C-33 10.34 -33 9.68 -33 9 C-33.99 8.67 -34.98 8.34 -36 8 C-35.67 7.34 -35.34 6.68 -35 6 C-34.57332031 6.3609375 -34.14664063 6.721875 -33.70703125 7.09375 C-28.36721544 11.05732462 -23.78906636 11.81461849 -17.19140625 11.5546875 C-9.93886281 10.29414751 -4.81544336 5.281454 0 0 Z " fill="#299BDB" transform="translate(52,155)"/>
<path d="M0 0 C1.38232443 1.62626404 2.71937515 3.2925002 4 5 C2.4221875 4.6596875 2.4221875 4.6596875 0.8125 4.3125 C-2.91935012 3.7406155 -2.91935012 3.7406155 -5.9375 5.0625 C-8.34303885 6.89609346 -8.34303885 6.89609346 -8.3125 10.1875 C-8.209375 11.115625 -8.10625 12.04375 -8 13 C-7.4225 13.28875 -6.845 13.5775 -6.25 13.875 C-4.87436883 14.56281558 -3.51433155 15.28470219 -2.1875 16.0625 C6.83772316 19.93045278 17.7806873 18.1969426 27 16 C20.85123713 20.8368501 14.7505075 21.51755276 7.0703125 21.3828125 C-0.14603041 20.48306491 -6.48597104 16.67893966 -11 11 C-11.62109375 8.84765625 -11.62109375 8.84765625 -12 7 C-10.3790787 5.82767315 -8.75313167 4.6622923 -7.125 3.5 C-6.22007813 2.8503125 -5.31515625 2.200625 -4.3828125 1.53125 C-2 0 -2 0 0 0 Z " fill="#2E9BD7" transform="translate(80,128)"/>
<path d="M0 0 C0.89234771 3.20158476 0.94877919 5.029273 0.0625 8.25 C-1.66409709 15.46386454 -1.82974612 21.32882934 2 28 C5.47121112 31.72833786 9.0684901 34.50560306 14 36 C14 36.33 14 36.66 14 37 C10.95015631 37.2877211 8.04013734 37.43430533 5 37 C3.1875 34.8125 3.1875 34.8125 2 32 C1.319375 31.21625 0.63875 30.4325 -0.0625 29.625 C-2.43101017 26.41605074 -3.0922215 23.85805861 -4 20 C-4.78375 20.515625 -5.5675 21.03125 -6.375 21.5625 C-7.24125 22.036875 -8.1075 22.51125 -9 23 C-9.66 22.67 -10.32 22.34 -11 22 C-10.01 21.67 -9.02 21.34 -8 21 C-6.44968019 18.43944499 -5.47484437 15.71042298 -4.4921875 12.890625 C-4.09580078 11.75947266 -4.09580078 11.75947266 -3.69140625 10.60546875 C-3.28728516 9.43951172 -3.28728516 9.43951172 -2.875 8.25 C-2.59785156 7.45722656 -2.32070312 6.66445312 -2.03515625 5.84765625 C-1.35439356 3.89926649 -0.67687599 1.94974342 0 0 Z " fill="#429FD1" transform="translate(85,172)"/>
<path d="M0 0 C2.26410645 1.72578743 3.72775891 3.29645254 5.234375 5.703125 C5.234375 6.363125 5.234375 7.023125 5.234375 7.703125 C1.41273593 6.14616093 -0.95180995 3.66903816 -3.765625 0.703125 C-5.72212041 -1.25337041 -9.35137279 -0.48186629 -12.015625 -0.484375 C-12.68464844 -0.49662109 -13.35367188 -0.50886719 -14.04296875 -0.52148438 C-18.15301674 -0.5335965 -21.00807193 0.17912564 -24.765625 1.703125 C-27.66015625 1.6796875 -27.66015625 1.6796875 -30.578125 1.328125 C-31.55394531 1.21726562 -32.52976563 1.10640625 -33.53515625 0.9921875 C-34.63923828 0.84910156 -34.63923828 0.84910156 -35.765625 0.703125 C-32.5567919 -1.43609706 -30.71278653 -1.79660805 -26.953125 -2.359375 C-25.93605469 -2.51535156 -24.91898438 -2.67132813 -23.87109375 -2.83203125 C-22.33388672 -3.06212891 -22.33388672 -3.06212891 -20.765625 -3.296875 C-19.71503906 -3.4721875 -18.66445312 -3.6475 -17.58203125 -3.828125 C-10.17066716 -5.06163913 -6.30333823 -3.87596574 0 0 Z " fill="#D9F1F4" transform="translate(200.765625,87.296875)"/>
<path d="M0 0 C1.32 0.33 2.64 0.66 4 1 C4.86603643 4.75513397 5.16336696 8.27336758 5.1875 12.125 C5.20167969 13.15882812 5.21585938 14.19265625 5.23046875 15.2578125 C5 18 5 18 3 21 C4.65 21 6.3 21 8 21 C5.69733517 22.77128064 3.37217566 24.41000773 0.9375 26 C-1.35468555 27.56063697 -3.1618589 28.957621 -5 31 C-5.66 30.67 -6.32 30.34 -7 30 C-6.43410156 29.32453125 -5.86820313 28.6490625 -5.28515625 27.953125 C-4.55167969 27.06109375 -3.81820312 26.1690625 -3.0625 25.25 C-2.33160156 24.36828125 -1.60070312 23.4865625 -0.84765625 22.578125 C2.60221637 17.76434925 2.414965 12.75160784 2 7 C1.49043803 4.57182642 0.80179953 2.35528611 0 0 Z " fill="#219BDE" transform="translate(164,20)"/>
<path d="M0 0 C4.36598726 0.4851097 8.58702592 1.10584756 12.875 2.0625 C19.53029301 3.43662829 26.37922259 3.76554064 33 2 C31.875 3.5 31.875 3.5 30 5 C26.8125 5.1875 26.8125 5.1875 24 5 C24 5.99 24 6.98 24 8 C26.33214148 9.20628008 28.49642139 10.1654738 31 11 C31 13.31 31 15.62 31 18 C30.608125 17.443125 30.21625 16.88625 29.8125 16.3125 C22.0116145 6.35964608 11.76413278 4.14602697 0 1 C0 0.67 0 0.34 0 0 Z " fill="#4CA2D1" transform="translate(166,121)"/>
<path d="M0 0 C0.66 0.33 1.32 0.66 2 1 C-2.51327434 5.7640118 -2.51327434 5.7640118 -5.0625 7 C-7.79798453 8.41186299 -9.08733349 10.59550495 -11 13 C-14.98226851 16.96279531 -18.42525139 19.64030522 -24 21 C-13.89681857 8.89051304 -13.89681857 8.89051304 -7 5 C-5.32576317 3.67618483 -3.65788785 2.34423339 -2 1 C-1.34 0.67 -0.68 0.34 0 0 Z " fill="#D4E7ED" transform="translate(168,43)"/>
<path d="M0 0 C2.17634383 1.08817191 4.35010667 2.17940249 6.515625 3.2890625 C12.35817879 6.14356735 16.50072678 7.94344289 23 7 C25.45164034 6.04306941 27.77993714 4.98668758 30.1171875 3.77734375 C30.73851562 3.52082031 31.35984375 3.26429688 32 3 C32.66 3.33 33.32 3.66 34 4 C31.375 7.875 31.375 7.875 28 9 C25.21554845 9.14880933 22.47257615 9.23107 19.6875 9.25 C18.94048828 9.270625 18.19347656 9.29125 17.42382812 9.3125 C11.69364572 9.35274711 7.51442333 8.262981 3.125 4.3125 C2.75375 3.879375 2.3825 3.44625 2 3 C1.01 3.495 1.01 3.495 0 4 C0 2.68 0 1.36 0 0 Z " fill="#239BE2" transform="translate(126,190)"/>
<path d="M0 0 C3.67910599 3.43383226 5.75783442 5.87119559 6.3359375 10.953125 C6.417394 17.82805379 6.24442918 23.36963476 2 29 C-1.1875 32 -1.1875 32 -4 32 C-3.67 30.68 -3.34 29.36 -3 28 C-1.68 28 -0.36 28 1 28 C1 27.01 1 26.02 1 25 C1.66 25 2.32 25 3 25 C3.37079973 14.30360861 3.37079973 14.30360861 1 4 C0.65864073 2.66869885 0.32074044 1.33641852 0 0 Z " fill="#CEF8FE" transform="translate(191,48)"/>
<path d="M0 0 C4.82389282 2.54594343 7.60806409 5.49451536 10.25 10.25 C12.11127249 17.07466581 11.37825467 22.84675041 8 29 C5.8125 31.4375 5.8125 31.4375 4 33 C4.50603992 30.83125748 4.99983813 29.00032373 6 27 C6.66 27 7.32 27 8 27 C8.02705308 24.58325776 8.04686438 22.1668206 8.0625 19.75 C8.07087891 19.06808594 8.07925781 18.38617188 8.08789062 17.68359375 C8.10428392 14.30657446 8.05628768 11.22708361 7 8 C5.68 7.67 4.36 7.34 3 7 C2.87625 6.360625 2.7525 5.72125 2.625 5.0625 C2.315625 4.0415625 2.315625 4.0415625 2 3 C1.34 2.67 0.68 2.34 0 2 C0 1.34 0 0.68 0 0 Z " fill="#C8F6FD" transform="translate(156,14)"/>
<path d="M0 0 C0.99 0.495 0.99 0.495 2 1 C2.309375 2.155 2.61875 3.31 2.9375 4.5 C3.288125 5.655 3.63875 6.81 4 8 C4.99 8.33 5.98 8.66 7 9 C7.3721042 10.32303717 7.70630173 11.65737935 8 13 C8.66 13.33 9.32 13.66 10 14 C10 14.66 10 15.32 10 16 C15.61 16.66 21.22 17.32 27 18 C23.22584 20.51610666 20.36184681 20.71109099 16 20 C11.00783207 18.25610926 7.07240792 16.17964872 3.5 12.25 C1.65132747 8.24454284 0.73205885 4.334559 0 0 Z " fill="#D0F9FE" transform="translate(125,178)"/>
<path d="M0 0 C2.5 2.1875 2.5 2.1875 4 4 C0 4 0 4 -1.625 2.5625 C-2.305625 1.7890625 -2.305625 1.7890625 -3 1 C-8.61733066 -1.80866533 -17.007832 0.23908978 -23 1 C-23.33 1.99 -23.66 2.98 -24 4 C-25.32 3.67 -26.64 3.34 -28 3 C-19.68782973 -4.12471738 -9.79027401 -5.39141817 0 0 Z " fill="#CCF6FC" transform="translate(116,3)"/>
<path d="M0 0 C0.72703125 0.433125 1.4540625 0.86625 2.203125 1.3125 C12.03598551 6.75839198 19.45376971 7.36148485 30.25 4.5 C31.83813965 4.01548282 33.42356471 3.5213408 35 3 C35 3.99 35 4.98 35 6 C30.48746299 8.56234401 26.45997305 8.38430888 21.375 8.375 C20.0305481 8.37258301 20.0305481 8.37258301 18.65893555 8.37011719 C12.49514715 8.2558381 6.02121414 8.01697131 1 4 C0.26171875 1.859375 0.26171875 1.859375 0 0 Z " fill="#C9F7FE" transform="translate(72,142)"/>
<path d="M0 0 C0.61875 0.59748047 0.61875 0.59748047 1.25 1.20703125 C5.60271464 5.2002583 9.37029996 7.22219999 15 9 C15 9.33 15 9.66 15 10 C14.29875 9.96519531 13.5975 9.93039063 12.875 9.89453125 C4.77548927 9.66343108 -0.8411922 11.12231244 -8 15 C-8 13.68 -8 12.36 -8 11 C-3.37802694 8.78145293 -0.23175837 7.61718841 5 8 C5 7.34 5 6.68 5 6 C4.360625 5.7525 3.72125 5.505 3.0625 5.25 C1 4 1 4 0.37109375 1.921875 C0.18740234 0.97054687 0.18740234 0.97054687 0 0 Z " fill="#3698D0" transform="translate(13,74)"/>
<path d="M0 0 C7.24914676 -0.61433447 7.24914676 -0.61433447 10.75 2.25 C11.86375 3.61125 11.86375 3.61125 13 5 C13.7425 5.53625 14.485 6.0725 15.25 6.625 C18.1528509 10.56458336 17.83531325 15.22408423 18 20 C18.66 20 19.32 20 20 20 C19.01 23.3 18.02 26.6 17 30 C16.67 30 16.34 30 16 30 C16.03480469 28.98679687 16.06960937 27.97359375 16.10546875 26.9296875 C16.13362595 25.5781417 16.16092403 24.22657781 16.1875 22.875 C16.21263672 22.20984375 16.23777344 21.5446875 16.26367188 20.859375 C16.353485 14.75208226 14.6122345 10.98074524 10.8125 6.3125 C7.32032844 3.44115894 4.2877173 2.38079032 0 1 C0 0.67 0 0.34 0 0 Z " fill="#319CD9" transform="translate(108,0)"/>
<path d="M0 0 C1.0209375 0.2165625 1.0209375 0.2165625 2.0625 0.4375 C1.52625 0.829375 0.99 1.22125 0.4375 1.625 C-0.34625 2.223125 -1.13 2.82125 -1.9375 3.4375 C-3.4534375 4.5821875 -3.4534375 4.5821875 -5 5.75 C-9.04020096 9.44635407 -10.77011514 11.97942228 -11.1484375 17.53515625 C-11.20605379 22.64572145 -11.09070456 27.44338024 -9.9375 32.4375 C-11.9375 31.4375 -11.9375 31.4375 -13.0625 28.9375 C-14.82358697 21.89315214 -14.5234476 16.14748825 -11.2734375 9.58984375 C-8.50167493 5.12422628 -5.39466119 0.80346018 0 0 Z " fill="#37A0DC" transform="translate(22.9375,41.5625)"/>
<path d="M0 0 C3.09909622 6.04481077 4.3065568 12.42705119 2.3984375 19.10546875 C0.50291451 23.74854275 0.50291451 23.74854275 -2 25 C-2.04254356 23.00045254 -2.04080783 20.99958364 -2 19 C-1.67 18.67 -1.34 18.34 -1 18 C-0.84417697 16.65984779 -0.74955858 15.31241097 -0.68359375 13.96484375 C-0.62075195 12.75151367 -0.62075195 12.75151367 -0.55664062 11.51367188 C-0.51732422 10.66353516 -0.47800781 9.81339844 -0.4375 8.9375 C-0.39431641 8.08349609 -0.35113281 7.22949219 -0.30664062 6.34960938 C-0.20023298 4.23327963 -0.09958269 2.11666187 0 0 Z " fill="#E5FCFE" transform="translate(122,176)"/>
<path d="M0 0 C1.89698812 0.95694766 3.73855239 2.02229609 5.56640625 3.10546875 C2.56640625 4.10546875 2.56640625 4.10546875 -0.37109375 2.66796875 C-1.38171875 2.15234375 -2.39234375 1.63671875 -3.43359375 1.10546875 C-4.75359375 1.10546875 -6.07359375 1.10546875 -7.43359375 1.10546875 C-7.76359375 2.09546875 -8.09359375 3.08546875 -8.43359375 4.10546875 C-11.07359375 3.44546875 -13.71359375 2.78546875 -16.43359375 2.10546875 C-16.76359375 3.09546875 -17.09359375 4.08546875 -17.43359375 5.10546875 C-18.75359375 4.77546875 -20.07359375 4.44546875 -21.43359375 4.10546875 C-14.67280139 -0.55196599 -8.09384737 -2.97510602 0 0 Z " fill="#CEF7FE" transform="translate(69.43359375,11.89453125)"/>
<path d="M0 0 C0.66 0.33 1.32 0.66 2 1 C1.0409375 2.1446875 1.0409375 2.1446875 0.0625 3.3125 C-3.06481493 7.38748613 -3.13645452 10.36937367 -3.125 15.375 C-3.12757812 16.49648437 -3.13015625 17.61796875 -3.1328125 18.7734375 C-3.01470948 21.64264622 -2.65782328 24.21208229 -2 27 C-4.59203413 24.84338662 -5.88336867 23.68298514 -6.4609375 20.30078125 C-6.05922503 6.33214323 -6.05922503 6.33214323 -4 2 C-2.046875 0.6953125 -2.046875 0.6953125 0 0 Z " fill="#1D99E0" transform="translate(15,130)"/>
<path d="M0 0 C0.33 0 0.66 0 1 0 C1.13277344 1.12019531 1.26554687 2.24039063 1.40234375 3.39453125 C1.58056569 4.86720729 1.75896011 6.33986247 1.9375 7.8125 C2.02451172 8.55048828 2.11152344 9.28847656 2.20117188 10.04882812 C2.58216546 13.16733121 3.00369374 16.01108122 4 19 C4.99 19.33 5.98 19.66 7 20 C7.6875 22.0625 7.6875 22.0625 8 24 C8.66 24 9.32 24 10 24 C9.67 24.66 9.34 25.32 9 26 C3.60793545 22.20104543 0.8108481 18.39488071 -1 12 C-1.48076151 7.70700282 -1.36834337 4.1050301 0 0 Z " fill="#CFFBFE" transform="translate(42,169)"/>
<path d="M0 0 C0.33 0 0.66 0 1 0 C1 5.28 1 10.56 1 16 C0.01 16 -0.98 16 -2 16 C-2 15.01 -2 14.02 -2 13 C-2.99 13 -3.98 13 -5 13 C-5.33 13.99 -5.66 14.98 -6 16 C-6.99 15.67 -7.98 15.34 -9 15 C-8.51789063 14.50371094 -8.03578125 14.00742188 -7.5390625 13.49609375 C-3.46037634 9.10942517 -1.10854041 5.91221552 0 0 Z " fill="#159CEA" transform="translate(208,107)"/>
<path d="M0 0 C0.33 0.99 0.66 1.98 1 3 C0.21625 3.268125 -0.5675 3.53625 -1.375 3.8125 C-4.28114923 4.84814432 -4.28114923 4.84814432 -6 8 C-8.80435411 8.05632424 -11.35146678 7.95814702 -14.125 7.6875 C-14.87910156 7.62626953 -15.63320312 7.56503906 -16.41015625 7.50195312 C-18.27463438 7.3485467 -20.13752498 7.17606541 -22 7 C-22 6.67 -22 6.34 -22 6 C-21.31035156 5.90203125 -20.62070312 5.8040625 -19.91015625 5.703125 C-14.06636144 4.77324819 -9.08559278 3.43481451 -3.77734375 0.8046875 C-2 0 -2 0 0 0 Z " fill="#169BE9" transform="translate(81,192)"/>
<path d="M0 0 C4.72040995 6.15705645 4.69004957 11.30191457 4 19 C2.96753894 22.04328042 1.72127545 24.25671726 0 27 C-0.625 25.125 -0.625 25.125 -1 23 C-0.34 22.34 0.32 21.68 1 21 C1.2821482 17.67740753 1.2821482 17.67740753 1.1875 13.9375 C1.18105469 12.66777344 1.17460937 11.39804688 1.16796875 10.08984375 C1.35188498 7.12932447 1.35188498 7.12932447 0 6 C-0.04080783 4.00041636 -0.04254356 1.99954746 0 0 Z " fill="#CCF8FE" transform="translate(193,133)"/>
<path d="M0 0 C2.35119399 3.52679099 2.21443452 5.02879485 2.125 9.1875 C2.10695313 10.27417969 2.08890625 11.36085938 2.0703125 12.48046875 C2.03550781 13.72763672 2.03550781 13.72763672 2 15 C2.66 14.01 3.32 13.02 4 12 C3.67 14.31 3.34 16.62 3 19 C2.34 19 1.68 19 1 19 C0.67 20.98 0.34 22.96 0 25 C-0.33 25 -0.66 25 -1 25 C-0.67 16.75 -0.34 8.5 0 0 Z " fill="#BBE7EF" transform="translate(123,12)"/>
<path d="M0 0 C0.66 0.33 1.32 0.66 2 1 C2.054138 3.24973447 2.09285491 5.49984383 2.125 7.75 C2.14820313 9.00296875 2.17140625 10.2559375 2.1953125 11.546875 C1.9210173 16.3964141 0.53753494 18.78405915 -3 22 C-3.66 21.67 -4.32 21.34 -5 21 C-4.0409375 19.4221875 -4.0409375 19.4221875 -3.0625 17.8125 C-0.18359537 12.16659162 -0.18994582 6.23022305 0 0 Z " fill="#289EDE" transform="translate(197,139)"/>
<path d="M0 0 C0 3 0 3 -1.20703125 4.4296875 C-2.00173828 5.14511719 -2.00173828 5.14511719 -2.8125 5.875 C-5.45311554 8.37924572 -7.23000776 10.7971569 -9 14 C-10.5625 16.3125 -10.5625 16.3125 -12 18 C-12.66 18 -13.32 18 -14 18 C-14.103125 18.639375 -14.20625 19.27875 -14.3125 19.9375 C-14.539375 20.618125 -14.76625 21.29875 -15 22 C-15.99 22.33 -16.98 22.66 -18 23 C-16.7252061 18.32575571 -14.05842702 15.92513212 -10.6640625 12.69140625 C-8.67106282 10.66565775 -7.43971765 8.44126037 -6 6 C-4.0760699 3.90660456 -2.05760991 1.96616058 0 0 Z " fill="#CEE9EF" transform="translate(61,146)"/>
<path d="M0 0 C1 3 1 3 0.1796875 4.90234375 C-2.46796051 9.03235755 -4.88353334 12.17728 -9 15 C-9.99 14.01 -10.98 13.02 -12 12 C-11.67 11.01 -11.34 10.02 -11 9 C-8.69 9 -6.38 9 -4 9 C-3.896875 8.443125 -3.79375 7.88625 -3.6875 7.3125 C-2.86866423 4.55823422 -1.54146219 2.41272343 0 0 Z " fill="#149EEC" transform="translate(117,129)"/>
<path d="M0 0 C3.44164469 1.52961986 6.09151758 3.62729066 9 6 C9.66 6.33 10.32 6.66 11 7 C12.03515625 8.77734375 12.03515625 8.77734375 13.0625 10.9375 C13.40410156 11.64777344 13.74570312 12.35804687 14.09765625 13.08984375 C14.39542969 13.72019531 14.69320312 14.35054687 15 15 C15.33 15.66 15.66 16.32 16 17 C15.401875 16.690625 14.80375 16.38125 14.1875 16.0625 C11.91043228 14.89790296 11.91043228 14.89790296 9 14 C8 11 8 11 8 9 C6.71623781 7.59875064 5.37326156 6.25115819 4 4.9375 C2.65037105 3.64176248 1.31266275 2.33317311 0 1 C0 0.67 0 0.34 0 0 Z " fill="#E2F6F9" transform="translate(48,47)"/>
<path d="M0 0 C0.83144531 0.2165625 0.83144531 0.2165625 1.6796875 0.4375 C2.40414062 0.623125 3.12859375 0.80875 3.875 1 C4.59429687 1.185625 5.31359375 1.37125 6.0546875 1.5625 C7.99289317 2.07313965 7.99289317 2.07313965 10 2 C10 2.66 10 3.32 10 4 C13.96 4 17.92 4 22 4 C17.72499106 6.85000596 14.01926063 6.6218553 9 6 C1.7480315 3.49606299 1.7480315 3.49606299 0 0 Z " fill="#C4F0F9" transform="translate(90,203)"/>
<path d="M0 0 C2.25 -0.3125 2.25 -0.3125 5 0 C7.1875 2.4375 7.1875 2.4375 9 5 C9.66 5.33 10.32 5.66 11 6 C13.06085642 10.12171284 14.42161769 13.36220546 14 18 C13.7525 17.484375 13.505 16.96875 13.25 16.4375 C12.63125 15.2309375 12.63125 15.2309375 12 14 C11.46375 12.865625 10.9275 11.73125 10.375 10.5625 C8.23371475 6.75395448 5.40055338 5.07000391 1.609375 3.04296875 C1.07828125 2.69878906 0.5471875 2.35460937 0 2 C0 1.34 0 0.68 0 0 Z " fill="#2A9CDE" transform="translate(195,83)"/>
<path d="M0 0 C6.62584216 3.57481207 11.42908351 6.9856362 16 13 C15.67 13.66 15.34 14.32 15 15 C14.113125 14.071875 13.22625 13.14375 12.3125 12.1875 C9.73603346 9.59890892 7.16671824 7.83336319 4 6 C1.6875 3.9375 1.6875 3.9375 0 2 C0 1.34 0 0.68 0 0 Z " fill="#D4EBF1" transform="translate(147,147)"/>
<path d="M0 0 C0.33 0.66 0.66 1.32 1 2 C0.55527344 3.04220703 0.55527344 3.04220703 0.1015625 4.10546875 C-1.32865572 7.86359534 -1.45393724 11.3245993 -1.625 15.3125 C-1.66367188 16.05306641 -1.70234375 16.79363281 -1.7421875 17.55664062 C-1.83581705 19.37071309 -1.91896851 21.18532116 -2 23 C-5.25112888 18.12330668 -4.58869134 12.70209171 -4 7 C-2.95696356 4.20194137 -1.79935421 2.41788221 0 0 Z " fill="#CBF7FD" transform="translate(15,132)"/>
<path d="M0 0 C2 3 2 3 1.8125 5.3125 C0.87281219 8.42069813 -0.4707351 11.14093953 -2 14 C-2.33 14 -2.66 14 -3 14 C-3.08082094 12.04233719 -3.13910778 10.08373272 -3.1875 8.125 C-3.22230469 7.03445312 -3.25710937 5.94390625 -3.29296875 4.8203125 C-3.19628906 3.88960938 -3.09960938 2.95890625 -3 2 C-2.01 1.34 -1.02 0.68 0 0 Z " fill="#179DEB" transform="translate(3,84)"/>
<path d="M0 0 C0.33 0.66 0.66 1.32 1 2 C-4.73307692 7.93076923 -4.73307692 7.93076923 -9.57421875 8.1953125 C-10.9454488 8.1820639 -12.31660985 8.15828025 -13.6875 8.125 C-14.7403418 8.11146484 -14.7403418 8.11146484 -15.81445312 8.09765625 C-17.54311525 8.07413704 -19.27160145 8.03826713 -21 8 C-21 7.67 -21 7.34 -21 7 C-17.04 7 -13.08 7 -9 7 C-9 6.34 -9 5.68 -9 5 C-8.43410156 4.72285156 -7.86820313 4.44570312 -7.28515625 4.16015625 C-6.55167969 3.79792969 -5.81820312 3.43570313 -5.0625 3.0625 C-4.33160156 2.70285156 -3.60070312 2.34320313 -2.84765625 1.97265625 C-1.03750973 1.13628173 -1.03750973 1.13628173 0 0 Z " fill="#1D99E2" transform="translate(191,161)"/>
<path d="M0 0 C2.35500948 0.11517421 4.70849073 0.24187978 7.0625 0.375 C8.37347656 0.44460937 9.68445313 0.51421875 11.03515625 0.5859375 C14.98136957 0.99805436 18.24117073 1.79756567 22 3 C18.14970719 4.31953769 14.42158762 3.93235488 10.4375 3.625 C9.42913086 3.55925781 9.42913086 3.55925781 8.40039062 3.4921875 C5.40539487 3.27804679 2.86183508 2.95394503 0 2 C0 1.34 0 0.68 0 0 Z " fill="#B3DAE7" transform="translate(17,83)"/>
<path d="M0 0 C0 0.33 0 0.66 0 1 C-1.28583984 1.12955078 -1.28583984 1.12955078 -2.59765625 1.26171875 C-11.17984796 2.3163511 -15.85188575 3.85188575 -22 10 C-22 8.68 -22 7.36 -22 6 C-21.34 6 -20.68 6 -20 6 C-20 5.34 -20 4.68 -20 4 C-14.39628303 -1.60371697 -7.46143857 -0.36796135 0 0 Z " fill="#289AD8" transform="translate(150,10)"/>
<path d="M0 0 C6.90968491 -0.90126325 11.55662346 1.85085285 17 6 C20 9.46956522 20 9.46956522 20 12 C16.16076124 10.43586569 13.90063768 7.90063768 11 5 C7.38302222 2.40319544 4.41321031 1.51316399 0 1 C0 0.67 0 0.34 0 0 Z " fill="#BDF0FC" transform="translate(186,83)"/>
<path d="M0 0 C-3.12352227 1.00465729 -6.24904853 2.00292927 -9.375 3 C-10.26445312 3.28617187 -11.15390625 3.57234375 -12.0703125 3.8671875 C-13.34648437 4.27324219 -13.34648437 4.27324219 -14.6484375 4.6875 C-15.43395996 4.93886719 -16.21948242 5.19023438 -17.02880859 5.44921875 C-19 6 -19 6 -21 6 C-21 5.34 -21 4.68 -21 4 C-22.32 3.67 -23.64 3.34 -25 3 C-24.0821875 2.87882812 -23.164375 2.75765625 -22.21875 2.6328125 C-14.19705381 1.57713528 -14.19705381 1.57713528 -6.3125 -0.1875 C-3 -1 -3 -1 0 0 Z " fill="#6AA5C3" transform="translate(41,122)"/>
<path d="M0 0 C1.32 0 2.64 0 4 0 C4.61875 1.546875 4.61875 1.546875 5.25 3.125 C6.79110368 6.74548759 8.73093228 9.7920077 11 13 C7.91140053 11.64664405 5.992036 10.19113751 3.8125 7.625 C3.30332031 7.03976563 2.79414062 6.45453125 2.26953125 5.8515625 C0.92440727 3.88975091 0.42485598 2.323911 0 0 Z " fill="#D8FBFD" transform="translate(0,110)"/>
<path d="M0 0 C0.33 0 0.66 0 1 0 C1.04898438 1.04800781 1.09796875 2.09601563 1.1484375 3.17578125 C1.22348143 4.55471354 1.29902857 5.9336185 1.375 7.3125 C1.4059375 8.00279297 1.436875 8.69308594 1.46875 9.40429688 C1.68124919 13.06990789 1.91933861 14.87900792 4 18 C3.67 18.99 3.34 19.98 3 21 C-0.95419059 14.6389108 -1.72223101 9.33338607 -0.5 2 C-0.335 1.34 -0.17 0.68 0 0 Z " fill="#CDF8FE" transform="translate(84,180)"/>
<path d="M0 0 C2.9020017 2.9020017 3.15390251 5.43737436 3.1875 9.375 C3.15792434 13.00097564 2.68823667 15.72904145 1 19 C-0.26582219 15.13276369 -0.1118765 11.26848738 -0.0625 7.25 C-0.05798828 6.55261719 -0.05347656 5.85523438 -0.04882812 5.13671875 C-0.0371002 3.42444197 -0.01916653 1.71220967 0 0 Z " fill="#CBF9FE" transform="translate(164,167)"/>
<path d="M0 0 C0.33 0.66 0.66 1.32 1 2 C2.65 2 4.3 2 6 2 C3.69733517 3.77128064 1.37217566 5.41000773 -1.0625 7 C-3.35468555 8.56063697 -5.1618589 9.957621 -7 12 C-7.66 11.67 -8.32 11.34 -9 11 C-6.03 7.37 -3.06 3.74 0 0 Z " fill="#449BC6" transform="translate(166,39)"/>
<path d="M0 0 C0.33 0 0.66 0 1 0 C2.21786614 6.98795036 3.29411026 13.94110263 4 21 C1.98358478 17.97537718 1.04718982 15.442992 -0.0625 12 C-0.40410156 10.948125 -0.74570313 9.89625 -1.09765625 8.8125 C-1.39542969 7.884375 -1.69320312 6.95625 -2 6 C-2.33 5.01 -2.66 4.02 -3 3 C-2.34 3 -1.68 3 -1 3 C-0.67 2.01 -0.34 1.02 0 0 Z " fill="#579FC1" transform="translate(82,16)"/>
<path d="M0 0 C5.03858199 0.10652393 9.47477002 2.33545973 14 4.375 C12.25 5 12.25 5 10 5.375 C8.65358123 4.7351729 7.32138077 4.0650544 6 3.375 C3.18503259 2.92224722 3.18503259 2.92224722 0.25 2.75 C-1.22726563 2.63785156 -1.22726563 2.63785156 -2.734375 2.5234375 C-3.48203125 2.47445312 -4.2296875 2.42546875 -5 2.375 C-3 0.375 -3 0.375 0 0 Z " fill="#BBF0FD" transform="translate(175,40.625)"/>
<path d="M0 0 C-2.20825321 2.20825321 -4.60077349 3.47207088 -7.3125 4.98046875 C-9.16756559 6.10123754 -10.59625699 7.34853764 -12 9 C-11.66666667 7.66666667 -11.33333333 6.33333333 -11 5 C-10.855625 4.278125 -10.71125 3.55625 -10.5625 2.8125 C-10.376875 2.214375 -10.19125 1.61625 -10 1 C-6.78548731 -0.60725635 -3.56387464 -0.05748185 0 0 Z " fill="#289CE2" transform="translate(98,0)"/>
<path d="M0 0 C1.2062252 3.61867559 1.10816918 6.92506251 1.0625 10.6875 C1.05798828 11.38939453 1.05347656 12.09128906 1.04882812 12.81445312 C1.03706927 14.54300538 1.01913454 16.27151365 1 18 C0.01 17.67 -0.98 17.34 -2 17 C-1.34 17 -0.68 17 0 17 C-0.32484375 16.4328125 -0.6496875 15.865625 -0.984375 15.28125 C-2.08329872 12.81289826 -2.26838334 11.18396781 -2.25 8.5 C-2.25515625 7.7471875 -2.2603125 6.994375 -2.265625 6.21875 C-1.97250404 3.7703279 -1.21816769 2.12695946 0 0 Z " fill="#259ADA" transform="translate(41,24)"/>
<path d="M0 0 C0.33 0 0.66 0 1 0 C1 2.64 1 5.28 1 8 C0.01 8.33 -0.98 8.66 -2 9 C-2.33 10.65 -2.66 12.3 -3 14 C-3.66 14 -4.32 14 -5 14 C-3.45730076 9.27934033 -1.92205381 4.58335908 0 0 Z " fill="#D0F7FE" transform="translate(120,124)"/>
<path d="M0 0 C1.08491275 3.70047761 1.00339952 6.96058731 0.83984375 10.78125 C1.02112886 13.29271195 1.84467818 14.79143298 3 17 C2.625 19.25 2.625 19.25 2 21 C-2.00114599 15.16499543 -1.49330372 8.86830564 -1 2 C-0.67 1.34 -0.34 0.68 0 0 Z " fill="#C9F8FE" transform="translate(12,54)"/>
<path d="M0 0 C0.515625 0.268125 1.03125 0.53625 1.5625 0.8125 C4.66401415 2.32349407 7.82262806 3.65572726 11 5 C11 5.33 11 5.66 11 6 C9.54207116 6.05399736 8.08357288 6.09279177 6.625 6.125 C5.81289062 6.14820313 5.00078125 6.17140625 4.1640625 6.1953125 C2 6 2 6 0 4 C0 2.68 0 1.36 0 0 Z " fill="#229BDF" transform="translate(88,203)"/>
<path d="M0 0 C0 3 0 3 -1.4609375 4.75390625 C-2.09257813 5.35074219 -2.72421875 5.94757813 -3.375 6.5625 C-4.00148438 7.16191406 -4.62796875 7.76132813 -5.2734375 8.37890625 C-5.84320313 8.91386719 -6.41296875 9.44882813 -7 10 C-7.66 10.66 -8.32 11.32 -9 12 C-11.125 11.625 -11.125 11.625 -13 11 C-12.39671875 10.54109375 -11.7934375 10.0821875 -11.171875 9.609375 C-9.97304688 8.68898437 -9.97304688 8.68898437 -8.75 7.75 C-7.96109375 7.14671875 -7.1721875 6.5434375 -6.359375 5.921875 C-4.08368843 4.06817005 -2.03628442 2.11101046 0 0 Z " fill="#559BBC" transform="translate(52,155)"/>
<path d="M0 0 C1.485 0.99 1.485 0.99 3 2 C3 2.66 3 3.32 3 4 C3.99 4.33 4.98 4.66 6 5 C6.6875 7.0625 6.6875 7.0625 7 9 C7.66 9 8.32 9 9 9 C8.67 9.66 8.34 10.32 8 11 C2.25 6.375 2.25 6.375 0 3 C0 2.01 0 1.02 0 0 Z " fill="#C2F1FC" transform="translate(43,184)"/>
<path d="M0 0 C0.33 0 0.66 0 1 0 C1.55353075 11.52164009 1.55353075 11.52164009 -2 17 C-2.66 17 -3.32 17 -4 17 C-3.79503906 16.443125 -3.59007812 15.88625 -3.37890625 15.3125 C-1.56121505 10.16382446 -0.49429453 5.43723984 0 0 Z " fill="#249BE1" transform="translate(168,171)"/>
<path d="M0 0 C1.0209375 0.2165625 1.0209375 0.2165625 2.0625 0.4375 C1.52625 0.829375 0.99 1.22125 0.4375 1.625 C-5.88182353 6.40558229 -5.88182353 6.40558229 -10.9375 12.4375 C-10.7885603 7.52248978 -8.17400892 5.04101469 -4.79296875 1.8203125 C-2.9375 0.4375 -2.9375 0.4375 0 0 Z " fill="#2F9CD6" transform="translate(22.9375,41.5625)"/>
<path d="M0 0 C-1.28716647 1.00578589 -2.57988658 2.00446798 -3.875 3 C-4.95394531 3.8353125 -4.95394531 3.8353125 -6.0546875 4.6875 C-8 6 -8 6 -10 6 C-10.33 6.99 -10.66 7.98 -11 9 C-10.67 7.35 -10.34 5.7 -10 4 C-8.68 3.67 -7.36 3.34 -6 3 C-6 2.01 -6 1.02 -6 0 C-3 -1 -3 -1 0 0 Z " fill="#CDF8FE" transform="translate(78,129)"/>
<path d="M0 0 C-4 2 -8 4 -12 6 C-12 4.68 -12 3.36 -12 2 C-7.8794254 0.00214565 -4.54805635 -0.17835515 0 0 Z " fill="#2C9FDF" transform="translate(17,83)"/>
<path d="M0 0 C0.33 0 0.66 0 1 0 C1.66 4.95 2.32 9.9 3 15 C-1 11 -1 11 -1.3125 7.5 C-1.0753065 4.84343277 -0.80835637 2.52611366 0 0 Z " fill="#38A4E0" transform="translate(10,142)"/>
<path d="M0 0 C0.99 0.33 1.98 0.66 3 1 C3 6.28 3 11.56 3 17 C2.67 17 2.34 17 2 17 C1.34 11.39 0.68 5.78 0 0 Z " fill="#1F99DC" transform="translate(196,54)"/>
<path d="M0 0 C5.70709064 0.46588495 9.15939723 1.93757784 14 5 C13.67 6.32 13.34 7.64 13 9 C12.34644531 8.38511719 12.34644531 8.38511719 11.6796875 7.7578125 C7.95637366 4.38909998 4.99214035 2.21759521 0 1 C0 0.67 0 0.34 0 0 Z " fill="#2A9CD8" transform="translate(150,11)"/>
<path d="M0 0 C2.64 0 5.28 0 8 0 C5.62463329 1.58357781 3.23494336 3.11593693 0.8125 4.625 C0.09707031 5.07101563 -0.61835937 5.51703125 -1.35546875 5.9765625 C-2.16951172 6.48316406 -2.16951172 6.48316406 -3 7 C-1.125 2.25 -1.125 2.25 0 0 Z " fill="#219BDD" transform="translate(49,11)"/>
<path d="M0 0 C0.99 0 1.98 0 3 0 C2.42415568 2.38564077 1.77772405 4.66682784 1 7 C0.01 7 -0.98 7 -2 7 C-2.33 7.99 -2.66 8.98 -3 10 C-3 8.68 -3 7.36 -3 6 C-2.34 6 -1.68 6 -1 6 C-1.0309375 4.7934375 -1.0309375 4.7934375 -1.0625 3.5625 C-1 1 -1 1 0 0 Z " fill="#DDEAED" transform="translate(87,165)"/>
<path d="M0 0 C-2.51830747 3.12270126 -3.7261549 3.94523098 -7.75 4.75 C-9.35875 4.87375 -9.35875 4.87375 -11 5 C-8.10998474 1.78887193 -4.47884754 -2.23942377 0 0 Z " fill="#CBF5FD" transform="translate(27,127)"/>
<path d="M0 0 C3.80635497 3.20760251 7.54563567 6.40746109 11 10 C10.01 10.33 9.02 10.66 8 11 C6.84852339 9.73427767 5.70400686 8.46222094 4.5625 7.1875 C3.92441406 6.47980469 3.28632813 5.77210938 2.62890625 5.04296875 C1 3 1 3 0 0 Z " fill="#629FBA" transform="translate(155,155)"/>
<path d="M0 0 C0 0.99 0 1.98 0 3 C-3.13498292 4.85776765 -5.37471432 5.20140476 -9 5 C-8.34 4.67 -7.68 4.34 -7 4 C-7 3.34 -7 2.68 -7 2 C-2.25 0 -2.25 0 0 0 Z " fill="#D9F8FD" transform="translate(107,145)"/>
<path d="M0 0 C1.65 0 3.3 0 5 0 C2.94766315 2.2477975 1.99332739 3.0022242 -1 4 C-2.72795352 4.06802967 -4.45835365 4.08495645 -6.1875 4.0625 C-7.53908203 4.04896484 -7.53908203 4.04896484 -8.91796875 4.03515625 C-9.60503906 4.02355469 -10.29210937 4.01195313 -11 4 C-11 3.67 -11 3.34 -11 3 C-5.555 2.505 -5.555 2.505 0 2 C0 1.34 0 0.68 0 0 Z " fill="#CCF8FE" transform="translate(195,121)"/>
<path d="M0 0 C0.66 0 1.32 0 2 0 C2.25 2.75 2.25 2.75 2 6 C0 8.375 0 8.375 -2 10 C-1.46274105 6.62294375 -0.88935377 3.303314 0 0 Z " fill="#D2F7FE" transform="translate(205,108)"/>
<path d="M0 0 C1.65 0 3.3 0 5 0 C5.33 0.99 5.66 1.98 6 3 C8.00016466 4.20882096 8.00016466 4.20882096 10 5 C9.01 5.495 9.01 5.495 8 6 C1.29411765 2.58823529 1.29411765 2.58823529 0 0 Z " fill="#CBF5FE" transform="translate(15,76)"/>
<path d="M0 0 C0.33 0 0.66 0 1 0 C1.3690205 10.55808656 1.3690205 10.55808656 -1 15 C-1.99 14.67 -2.98 14.34 -4 14 C-3.525625 13.175 -3.05125 12.35 -2.5625 11.5 C-0.76430401 7.47204099 -0.3765745 4.36826421 0 0 Z " fill="#3CA3E1" transform="translate(197,61)"/>
<path d="M0 0 C0.33 0 0.66 0 1 0 C1.37952295 6.19887485 0.8352113 10.4477112 -2 16 C-3.3721192 12.29527816 -2.4863484 10.55072117 -1 7 C-0.6186926 4.67402489 -0.27539746 2.34087842 0 0 Z " fill="#BCF4FE" transform="translate(124,184)"/>
<path d="M0 0 C3.96 0.33 7.92 0.66 12 1 C8.91111478 3.05925681 8.29064073 3.2390374 4.8125 3.125 C2.9253125 3.063125 2.9253125 3.063125 1 3 C0.67 2.01 0.34 1.02 0 0 Z " fill="#B9EEFD" transform="translate(140,195)"/>
<path d="M0 0 C0.99 0.33 1.98 0.66 3 1 C0.36 3.64 -2.28 6.28 -5 9 C-5.33 8.01 -5.66 7.02 -6 6 C-5.34 6 -4.68 6 -4 6 C-3.34 4.68 -2.68 3.36 -2 2 C-1.34 2 -0.68 2 0 2 C0 1.34 0 0.68 0 0 Z " fill="#E7FBFE" transform="translate(54,150)"/>
<path d="M0 0 C-0.33 0.99 -0.66 1.98 -1 3 C-2.92578125 3.765625 -2.92578125 3.765625 -5.3125 4.25 C-6.48232422 4.50523438 -6.48232422 4.50523438 -7.67578125 4.765625 C-10.07651867 5.00771617 -11.71809588 4.7310448 -14 4 C-12.0429132 3.32968281 -10.08428887 2.66385317 -8.125 2 C-7.03445312 1.62875 -5.94390625 1.2575 -4.8203125 0.875 C-2 0 -2 0 0 0 Z " fill="#639CBE" transform="translate(187,81)"/>
<path d="M0 0 C0.33 0.99 0.66 1.98 1 3 C1.66 3 2.32 3 3 3 C2.01 6.3 1.02 9.6 0 13 C-0.33 13 -0.66 13 -1 13 C-0.67 8.71 -0.34 4.42 0 0 Z " fill="#4399C6" transform="translate(125,17)"/>
<path d="M0 0 C0.33 0.66 0.66 1.32 1 2 C0.67 2.66 0.34 3.32 0 4 C-2.97 4 -5.94 4 -9 4 C-6.01353231 2.00902154 -3.40312738 1.05875074 0 0 Z " fill="#1B99E4" transform="translate(118,205)"/>
<path d="M0 0 C2.0625 0.4375 2.0625 0.4375 4 1 C2.0373772 3.04795423 0.5722693 3.94976638 -2.26953125 4.19921875 C-4.51954383 4.18858877 -6.75385562 4.12958525 -9 4 C-9 3.67 -9 3.34 -9 3 C-8.43410156 2.86722656 -7.86820313 2.73445313 -7.28515625 2.59765625 C-6.18494141 2.33275391 -6.18494141 2.33275391 -5.0625 2.0625 C-4.33160156 1.88847656 -3.60070312 1.71445313 -2.84765625 1.53515625 C-1.00030102 1.16112431 -1.00030102 1.16112431 0 0 Z " fill="#0C9BF1" transform="translate(199,123)"/>
<path d="M0 0 C0.66 0.33 1.32 0.66 2 1 C-0.25 3.5625 -0.25 3.5625 -3 6 C-5.3125 5.8125 -5.3125 5.8125 -7 5 C-2.25 1.125 -2.25 1.125 0 0 Z " fill="#D2F8FC" transform="translate(168,43)"/>
<path d="M0 0 C1 2 1 2 0.44140625 3.9453125 C0.15136719 4.66460938 -0.13867188 5.38390625 -0.4375 6.125 C-0.72496094 6.84945313 -1.01242188 7.57390625 -1.30859375 8.3203125 C-1.53675781 8.87460937 -1.76492187 9.42890625 -2 10 C-2.99 9.34 -3.98 8.68 -5 8 C-4.34 8 -3.68 8 -3 8 C-3 5.69 -3 3.38 -3 1 C-2.01 0.67 -1.02 0.34 0 0 Z " fill="#1898E3" transform="translate(84,10)"/>
<path d="M0 0 C0.33 0.66 0.66 1.32 1 2 C-0.43775696 5.21783702 -2.04417512 8.06626269 -4 11 C-4.66 11 -5.32 11 -6 11 C-4.54955729 6.89041233 -2.48889248 3.56741255 0 0 Z " fill="#C5F7FE" transform="translate(81,182)"/>
<path d="M0 0 C1.65 0 3.3 0 5 0 C3.37660195 1.70884005 1.70680947 3.37446717 0 5 C-0.66 5 -1.32 5 -2 5 C-1.34 3.35 -0.68 1.7 0 0 Z " fill="#CCF5FD" transform="translate(187,160)"/>
<path d="M0 0 C0.33 1.32 0.66 2.64 1 4 C-0.96466413 5.06775224 -2.96855359 6.06553465 -5 7 C-5.66 6.67 -6.32 6.34 -7 6 C-4.69 4.02 -2.38 2.04 0 0 Z " fill="#D3F9FD" transform="translate(114,138)"/>
<path d="M0 0 C1 3 1 3 0.00390625 5.04296875 C-0.47175781 5.75066406 -0.94742188 6.45835937 -1.4375 7.1875 C-1.91058594 7.90292969 -2.38367188 8.61835938 -2.87109375 9.35546875 C-3.24363281 9.89816406 -3.61617188 10.44085938 -4 11 C-4.33 10.34 -4.66 9.68 -5 9 C-4.00390625 6.8359375 -4.00390625 6.8359375 -2.5625 4.375 C-2.08941406 3.55773437 -1.61632812 2.74046875 -1.12890625 1.8984375 C-0.75636719 1.27195313 -0.38382812 0.64546875 0 0 Z " fill="#2C98D5" transform="translate(117,129)"/>
<path d="M0 0 C2.26171875 0.4609375 2.26171875 0.4609375 4.6875 1.375 C5.49574219 1.67148438 6.30398437 1.96796875 7.13671875 2.2734375 C7.75160156 2.51320313 8.36648437 2.75296875 9 3 C4.47907032 4.45606519 1.48351204 3.27032841 -3 2 C-2.01 1.34 -1.02 0.68 0 0 Z " fill="#DEF8FD" transform="translate(173,120)"/>
<path d="M0 0 C0.99 0.33 1.98 0.66 3 1 C-2.75 6 -2.75 6 -5 6 C-5 5.01 -5 4.02 -5 3 C-4.360625 2.87625 -3.72125 2.7525 -3.0625 2.625 C-2.0415625 2.315625 -2.0415625 2.315625 -1 2 C-0.67 1.34 -0.34 0.68 0 0 Z " fill="#CDF8FE" transform="translate(117,201)"/>
<path d="M0 0 C4.20626034 1.50223584 5.73900021 4.28550034 8 8 C4.82461668 7.65978036 3.97723135 6.97533396 1.75 4.5625 C0 2 0 2 0 0 Z " fill="#E4FAFD" transform="translate(151,153)"/>
<path d="M0 0 C0.33 1.32 0.66 2.64 1 4 C0.01 4 -0.98 4 -2 4 C-2.33 4.99 -2.66 5.98 -3 7 C-3.99 6.67 -4.98 6.34 -6 6 C-4.02 4.02 -2.04 2.04 0 0 Z " fill="#2D9EDF" transform="translate(205,116)"/>
<path d="M0 0 C3.125 -0.1875 3.125 -0.1875 6 0 C3.6875 2.0625 3.6875 2.0625 1 4 C0.01 3.67 -0.98 3.34 -2 3 C-1.34 2.01 -0.68 1.02 0 0 Z " fill="#CDF7FD" transform="translate(154,192)"/>
<path d="M0 0 C1.98 0 3.96 0 6 0 C3.47211993 2.79872437 1.79588866 4.45773019 -2 5 C-1.34 3.35 -0.68 1.7 0 0 Z " fill="#C6F2FB" transform="translate(40,161)"/>
<path d="M0 0 C3.68754757 0.49831724 5.60490662 1.10067643 8 4 C6.02 4 4.04 4 2 4 C1.34 2.68 0.68 1.36 0 0 Z " fill="#CDF7FE" transform="translate(183,127)"/>
<path d="M0 0 C1.32 0 2.64 0 4 0 C4 2.31 4 4.62 4 7 C1.49962266 4.82575883 0.56371414 3.26954202 0 0 Z " fill="#C4F1F8" transform="translate(0,110)"/>
<path d="M0 0 C2.64 0 5.28 0 8 0 C8.66 1.32 9.32 2.64 10 4 C6.7 3.01 3.4 2.02 0 1 C0 0.67 0 0.34 0 0 Z " fill="#0A9CEC" transform="translate(150,10)"/>
</svg>
