<?xml version="1.0" encoding="UTF-8"?>
<svg version="1.1" xmlns="http://www.w3.org/2000/svg" width="128" height="128">
<path d="M0 0 C14.66593153 10.19568513 25.60840641 23.74932626 29.74780273 41.46484375 C31.85368154 54.22278914 31.54749005 68.90444137 26.125 80.75 C25.650625 81.81992188 25.17625 82.88984375 24.6875 83.9921875 C16.66496296 100.38439059 3.29215507 111.57260053 -13.875 117.75 C-31.23317223 122.75820291 -49.46602108 120.56251208 -65.5 112.6875 C-81.30701489 103.64665855 -91.62444043 89.50093308 -96.98828125 72.1484375 C-100.07127114 59.13867917 -99.45543482 42.94059274 -93.875 30.75 C-93.1634375 29.14511719 -93.1634375 29.14511719 -92.4375 27.5078125 C-84.89523746 12.09693952 -72.63455422 0.5722872 -56.375 -5.1875 C-37.73814183 -11.3787986 -16.99837717 -10.14228624 0 0 Z " fill="#1877F2" transform="translate(97.875,8.25)"/>
<path d="M0 0 C1.28390625 -0.00257812 2.5678125 -0.00515625 3.890625 -0.0078125 C7.75 0.125 7.75 0.125 14.75 1.125 C14.75 6.405 14.75 11.685 14.75 17.125 C11.78776042 17.28776042 8.82552083 17.45052083 5.86328125 17.61328125 C2.48492769 18.16856897 0.50080954 19.1176525 -2.25 21.125 C-3.83482571 24.29465142 -3.62852823 27.76244541 -3.8125 31.25 C-3.956875 33.84875 -4.10125 36.4475 -4.25 39.125 C1.69 39.125 7.63 39.125 13.75 39.125 C13.440625 41.703125 13.13125 44.28125 12.8125 46.9375 C12.71718994 47.74550049 12.62187988 48.55350098 12.52368164 49.38598633 C12.14999197 52.43478917 11.72382819 55.20351544 10.75 58.125 C5.8 58.125 0.85 58.125 -4.25 58.125 C-4.25 72.975 -4.25 87.825 -4.25 103.125 C-10.85 103.125 -17.45 103.125 -24.25 103.125 C-24.25 88.275 -24.25 73.425 -24.25 58.125 C-29.53 58.125 -34.81 58.125 -40.25 58.125 C-40.25 51.855 -40.25 45.585 -40.25 39.125 C-34.97 39.125 -29.69 39.125 -24.25 39.125 C-24.30220703 36.9903125 -24.30220703 36.9903125 -24.35546875 34.8125 C-24.38362451 32.91667855 -24.41092274 31.02084423 -24.4375 29.125 C-24.47520508 27.72314453 -24.47520508 27.72314453 -24.51367188 26.29296875 C-24.59053913 18.96495692 -23.8136874 13.17370935 -18.9375 7.375 C-12.55607447 2.03241119 -8.31269608 -0.01655916 0 0 Z " fill="#FDFDFE" transform="translate(78.25,24.875)"/>
</svg>
