<?xml version="1.0" encoding="UTF-8"?>
<svg version="1.1" xmlns="http://www.w3.org/2000/svg" width="128" height="128">
<path d="M0 0 C0.79406754 -0.0065712 1.58813507 -0.0131424 2.40626526 -0.01991272 C5.03109847 -0.03960202 7.65587448 -0.05130049 10.28076172 -0.0612793 C11.63009104 -0.06739259 11.63009104 -0.06739259 13.00667953 -0.07362938 C17.77088947 -0.09447461 22.53507076 -0.10878127 27.29931641 -0.11816406 C32.20168863 -0.12920658 37.10360423 -0.16358594 42.00581551 -0.20333576 C45.79099323 -0.22958069 49.57606362 -0.23786302 53.36132431 -0.24144554 C55.16729683 -0.24629359 56.97326514 -0.25785631 58.7791481 -0.27648354 C70.03530101 -0.38534282 78.73257856 -0.01828999 88.39794922 6.36450195 C95.2301702 13.51450065 97.22805484 20.52068597 97.26245117 30.18334961 C97.26902237 30.98717072 97.27559357 31.79099182 97.28236389 32.61917114 C97.30205462 35.27646995 97.31375194 37.93371227 97.32373047 40.59106445 C97.327806 41.50164989 97.33188152 42.41223534 97.33608055 43.35041428 C97.35692631 48.17297894 97.37123279 52.9955153 97.38061523 57.81811523 C97.39165832 62.78101907 97.42603821 67.74347194 97.46578693 72.70621681 C97.49202927 76.53771759 97.50031396 80.36911231 97.50389671 84.20069504 C97.50874536 86.02899587 97.52030983 87.85729252 97.53893471 89.68550491 C97.64706892 101.00629699 97.31721379 109.76890132 90.89794922 119.48950195 C83.49812234 126.56044763 76.15577403 128.32287577 66.14916992 128.33813477 C65.36470993 128.34309967 64.58024994 128.34806458 63.77201843 128.35317993 C61.18508006 128.36774507 58.59820306 128.37459498 56.01123047 128.38012695 C54.20387268 128.38588412 52.39651489 128.39164178 50.5891571 128.3973999 C46.80056475 128.40789459 43.01199351 128.41374692 39.22338867 128.41723633 C34.38950831 128.42271037 29.55591113 128.44672154 24.72211933 128.47520828 C20.98755604 128.49391557 17.25305977 128.49904461 13.5184536 128.5005722 C11.73761641 128.50358226 9.95677994 128.51155455 8.17598915 128.52475739 C-15.31702177 128.68646896 -15.31702177 128.68646896 -24.22314453 120.2121582 C-29.81950816 113.47842737 -31.06097509 105.74603014 -31.09155273 97.26245117 C-31.09812393 96.46838364 -31.10469513 95.6743161 -31.11146545 94.85618591 C-31.13115475 92.23135271 -31.14285322 89.60657669 -31.15283203 86.98168945 C-31.15690756 86.08213657 -31.16098309 85.18258369 -31.16518211 84.25577164 C-31.18602734 79.4915617 -31.20033401 74.72738041 -31.2097168 69.96313477 C-31.22075932 65.06076255 -31.25513867 60.15884694 -31.2948885 55.25663567 C-31.32113342 51.47145794 -31.32941575 47.68638756 -31.33299828 43.90112686 C-31.33784632 42.09515434 -31.34940904 40.28918603 -31.36803627 38.48330307 C-31.47705924 27.21022475 -31.03882609 18.60601934 -24.78955078 8.86450195 C-17.56200004 2.10831322 -9.62736348 0.03470023 0 0 Z " fill="#F86753" transform="translate(30.91455078125,-0.177001953125)"/>
<path d="M0 0 C0.79406754 -0.0065712 1.58813507 -0.0131424 2.40626526 -0.01991272 C5.03109847 -0.03960202 7.65587448 -0.05130049 10.28076172 -0.0612793 C11.63009104 -0.06739259 11.63009104 -0.06739259 13.00667953 -0.07362938 C17.77088947 -0.09447461 22.53507076 -0.10878127 27.29931641 -0.11816406 C32.20168863 -0.12920658 37.10360423 -0.16358594 42.00581551 -0.20333576 C45.79099323 -0.22958069 49.57606362 -0.23786302 53.36132431 -0.24144554 C55.16729683 -0.24629359 56.97326514 -0.25785631 58.7791481 -0.27648354 C70.03530101 -0.38534282 78.73257856 -0.01828999 88.39794922 6.36450195 C95.2301702 13.51450065 97.22805484 20.52068597 97.26245117 30.18334961 C97.26902237 30.98717072 97.27559357 31.79099182 97.28236389 32.61917114 C97.30205462 35.27646995 97.31375194 37.93371227 97.32373047 40.59106445 C97.327806 41.50164989 97.33188152 42.41223534 97.33608055 43.35041428 C97.35692631 48.17297894 97.37123279 52.9955153 97.38061523 57.81811523 C97.39165832 62.78101907 97.42603821 67.74347194 97.46578693 72.70621681 C97.49202927 76.53771759 97.50031396 80.36911231 97.50389671 84.20069504 C97.50874536 86.02899587 97.52030983 87.85729252 97.53893471 89.68550491 C97.64706892 101.00629699 97.31721379 109.76890132 90.89794922 119.48950195 C83.49812234 126.56044763 76.15577403 128.32287577 66.14916992 128.33813477 C65.36470993 128.34309967 64.58024994 128.34806458 63.77201843 128.35317993 C61.18508006 128.36774507 58.59820306 128.37459498 56.01123047 128.38012695 C54.20387268 128.38588412 52.39651489 128.39164178 50.5891571 128.3973999 C46.80056475 128.40789459 43.01199351 128.41374692 39.22338867 128.41723633 C34.38950831 128.42271037 29.55591113 128.44672154 24.72211933 128.47520828 C20.98755604 128.49391557 17.25305977 128.49904461 13.5184536 128.5005722 C11.73761641 128.50358226 9.95677994 128.51155455 8.17598915 128.52475739 C-15.31702177 128.68646896 -15.31702177 128.68646896 -24.22314453 120.2121582 C-29.81950816 113.47842737 -31.06097509 105.74603014 -31.09155273 97.26245117 C-31.09812393 96.46838364 -31.10469513 95.6743161 -31.11146545 94.85618591 C-31.13115475 92.23135271 -31.14285322 89.60657669 -31.15283203 86.98168945 C-31.15690756 86.08213657 -31.16098309 85.18258369 -31.16518211 84.25577164 C-31.18602734 79.4915617 -31.20033401 74.72738041 -31.2097168 69.96313477 C-31.22075932 65.06076255 -31.25513867 60.15884694 -31.2948885 55.25663567 C-31.32113342 51.47145794 -31.32941575 47.68638756 -31.33299828 43.90112686 C-31.33784632 42.09515434 -31.34940904 40.28918603 -31.36803627 38.48330307 C-31.47705924 27.21022475 -31.03882609 18.60601934 -24.78955078 8.86450195 C-17.56200004 2.10831322 -9.62736348 0.03470023 0 0 Z M-8.91455078 27.17700195 C-12.10180175 32.29798141 -14.02122442 37.16022827 -14.10742188 43.22412109 C-14.1234848 44.25271744 -14.13954773 45.28131378 -14.15609741 46.34107971 C-14.20073963 51.0600612 -14.24164187 55.77890317 -14.26464844 60.49804688 C-14.28116722 62.97991337 -14.30840268 65.46173309 -14.34667969 67.94335938 C-14.40173505 71.53320857 -14.42337081 75.12194237 -14.43798828 78.7121582 C-14.46065765 79.81044449 -14.48332703 80.90873077 -14.50668335 82.04029846 C-14.48408545 90.37097713 -12.66804099 97.0641574 -6.95370483 103.32557678 C0.47702104 110.50457036 8.25790105 111.63604844 18.19873047 111.57543945 C19.24892868 111.57830963 20.29912689 111.58117981 21.38114929 111.58413696 C23.59403017 111.58617013 25.80692932 111.5806928 28.01977539 111.56811523 C31.37736993 111.55210011 34.73375192 111.56796513 38.09130859 111.5871582 C40.25211851 111.5851747 42.41292767 111.5813288 44.57373047 111.57543945 C45.56367508 111.58151215 46.55361969 111.58758484 47.57356262 111.59384155 C57.24571836 111.49800336 66.26632516 110.14704945 73.42919922 103.2043457 C79.9764548 95.19013427 80.24398355 85.78327023 80.28857422 75.88012695 C80.29427429 74.89131531 80.29997437 73.90250366 80.30584717 72.88372803 C80.31526844 70.79594991 80.32181969 68.70815712 80.32568359 66.62036133 C80.33537438 63.45147304 80.36641951 60.2832379 80.39794922 57.11450195 C80.40448184 55.07804744 80.40973129 53.04158832 80.41357422 51.00512695 C80.43209442 49.60148895 80.43209442 49.60148895 80.45098877 48.16949463 C80.41994239 38.85037161 78.65055955 30.74158623 72.12451172 23.8684082 C66.88901936 19.52555726 60.0716775 17.07813614 53.3137207 17 C52.34518661 16.98716476 51.37665253 16.97432953 50.37876892 16.96110535 C49.33193436 16.95371841 48.28509979 16.94633148 47.20654297 16.9387207 C45.58378197 16.92661308 45.58378197 16.92661308 43.92823792 16.91426086 C41.63422242 16.90042079 39.34018635 16.8896983 37.04614258 16.88183594 C33.56079195 16.86468814 30.07640602 16.82080775 26.59130859 16.77661133 C24.35889367 16.76647834 22.1264707 16.75796414 19.89404297 16.7512207 C18.86137802 16.73371262 17.82871307 16.71620453 16.76475525 16.69816589 C6.88697837 16.72733824 -2.30280444 19.45743641 -8.91455078 27.17700195 Z " fill="#F16F5F" transform="translate(30.91455078125,-0.177001953125)"/>
<path d="M0 0 C0.96845856 -0.01283524 1.93691711 -0.02567047 2.9347229 -0.03889465 C3.97639618 -0.04628159 5.01806946 -0.05366852 6.09130859 -0.0612793 C7.17173431 -0.06935104 8.25216003 -0.07742279 9.36532593 -0.08573914 C11.6533651 -0.09956549 13.94142477 -0.11029411 16.22949219 -0.11816406 C18.55898114 -0.12966731 20.88844408 -0.15009262 23.21777344 -0.1796875 C26.59246651 -0.22255975 29.96637627 -0.23856247 33.34130859 -0.2487793 C34.37083649 -0.26628738 35.40036438 -0.28379547 36.46109009 -0.30183411 C45.69785505 -0.2744657 53.77523224 2.06914117 60.64599609 8.4699707 C66.96215731 15.81082829 67.27617286 24.05606436 67.31787109 33.3059082 C67.32357117 34.29139145 67.32927124 35.27687469 67.33514404 36.29222107 C67.34457723 38.37758314 67.35112133 40.46296001 67.35498047 42.54833984 C67.36463785 45.70413047 67.39565765 48.85925596 67.42724609 52.01489258 C67.57182239 78.96941996 67.57182239 78.96941996 59.14599609 87.5559082 C53.05388617 92.41788055 45.89974836 94.26268678 38.20776367 94.35400391 C37.2594014 94.36683914 36.31103912 94.37967438 35.3339386 94.39289856 C34.31930038 94.40028549 33.30466217 94.40767242 32.25927734 94.4152832 C30.67405525 94.42739082 30.67405525 94.42739082 29.05680847 94.43974304 C26.8218244 94.45355443 24.5868195 94.46428971 22.35180664 94.47216797 C20.07765476 94.48367897 17.80352971 94.50411664 15.52954102 94.53369141 C12.23093438 94.57656778 8.93312879 94.59256558 5.63427734 94.6027832 C4.12750175 94.62904533 4.12750175 94.62904533 2.59028625 94.65583801 C-6.89341302 94.62706036 -14.51128548 92.19890529 -21.31494141 85.4465332 C-26.52763095 77.91277045 -27.48387857 71.04594031 -27.41650391 62.02075195 C-27.42033081 60.87844116 -27.42415771 59.73613037 -27.42810059 58.5592041 C-27.43081004 56.15558994 -27.42351704 53.7519458 -27.40673828 51.34838867 C-27.38531663 47.68772086 -27.40657493 44.0290156 -27.43212891 40.3684082 C-27.42948546 38.02335183 -27.42436014 35.67829666 -27.41650391 33.33325195 C-27.42460083 32.24862671 -27.43269775 31.16400146 -27.44104004 30.04650879 C-27.32787586 20.78982342 -24.89896479 13.5755664 -18.59619141 6.6809082 C-13.28709831 2.01423961 -6.95949003 0.0806767 0 0 Z M-13.82275391 14.05200195 C-18.61937828 21.31961464 -19.04133556 28.49765805 -19.05322266 36.9777832 C-19.05655106 37.81359421 -19.05987946 38.64940521 -19.06330872 39.51054382 C-19.06835307 41.27297417 -19.07071781 43.035414 -19.07055664 44.79785156 C-19.07273849 47.47062212 -19.09090798 50.14297639 -19.10986328 52.81567383 C-19.11279879 54.53637556 -19.11478253 56.25707923 -19.11572266 57.9777832 C-19.12290817 58.7655867 -19.13009369 59.5533902 -19.13749695 60.36506653 C-19.10436677 68.55722162 -18.25787578 75.73730927 -12.45556641 81.8059082 C-6.45491235 87.04528525 2.68721026 86.34057033 10.23193359 86.38012695 C11.0885257 86.38582703 11.9451178 86.3915271 12.82766724 86.3973999 C14.63119286 86.40680021 16.43473528 86.41336398 18.23828125 86.41723633 C20.97475507 86.42694875 23.71047904 86.45802198 26.44677734 86.48950195 C28.20849169 86.49603298 29.97021134 86.50128306 31.73193359 86.50512695 C32.94174393 86.52364716 32.94174393 86.52364716 34.17599487 86.5425415 C41.36469321 86.51479562 47.38969439 84.89277525 53.48974609 81.05200195 C59.05714026 74.95437978 59.57065569 67.42023254 59.51318359 59.4621582 C59.51605377 58.56637558 59.51892395 57.67059296 59.5218811 56.74766541 C59.52390909 54.8661129 59.51846852 52.98453869 59.50585938 51.10302734 C59.48980654 48.25024433 59.5057416 45.39888189 59.52490234 42.54614258 C59.52291932 40.70564471 59.51907442 38.86514771 59.51318359 37.0246582 C59.51925629 36.18580582 59.52532898 35.34695343 59.53158569 34.48268127 C59.44778408 27.2951533 58.27327003 19.71045563 53.98974609 13.73950195 C47.70309603 8.13618342 40.03790395 7.72308384 31.92724609 7.77856445 C30.98469971 7.77569427 30.04215332 7.7728241 29.07104492 7.76986694 C27.09113967 7.76783818 25.11121383 7.77328423 23.13134766 7.78588867 C20.1227482 7.80195921 17.1154919 7.78599911 14.10693359 7.7668457 C12.17203483 7.76882835 10.2371369 7.77267246 8.30224609 7.77856445 C7.41448486 7.77249176 6.52672363 7.76641907 5.61206055 7.76016235 C-1.37298208 7.83776476 -8.95751191 8.51865041 -13.82275391 14.05200195 Z " fill="#FEFCFC" transform="translate(43.88525390625,16.822998046875)"/>
<path d="M0 0 C5.33040577 5.33040577 7.85606505 10.96740443 8 18.5 C7.89481005 26.44768514 5.41578753 32.08421247 -0.25 37.75 C-7.47221565 42.8298955 -14.58332673 43.68752692 -23.25 42.75 C-30.25375967 40.47563798 -34.50350697 35.92864261 -38.25 29.75 C-38.80880859 28.84314453 -38.80880859 28.84314453 -39.37890625 27.91796875 C-41.71994931 22.09160597 -41.26997695 14.65867951 -39.22265625 8.8203125 C-35.67313554 2.35054899 -30.39523886 -2.59254163 -23.2734375 -4.88671875 C-14.48680872 -6.4642409 -7.28906753 -5.04627752 0 0 Z " fill="#FEFAF9" transform="translate(80.25,45.25)"/>
<path d="M0 0 C3.91311929 2.20350406 6.00067032 4.14739741 7.8125 8.375 C8.54584651 13.93621107 8.53696491 18.68458187 6.3125 23.875 C2.12101345 28.06648655 -1.92115007 30.10147501 -7.8125 30.8125 C-12.94477809 30.14720469 -16.02520715 28.66294613 -19.5 24.8125 C-23.09017189 19.62669615 -22.77660413 14.54848851 -22.1875 8.375 C-20.2046377 4.33845889 -18.02170139 1.7249944 -14.1875 -0.625 C-9.11211603 -2.31679466 -4.86785564 -2.18871867 0 0 Z " fill="#FC5B46" transform="translate(71.1875,49.625)"/>
<path d="M0 0 C1.8125 1.1875 1.8125 1.1875 3 3 C3.42822025 5.85480169 3.40659584 7.34492892 1.875 9.8125 C-0.83445834 11.52849028 -2.86295684 11.333728 -6 11 C-8 9 -8 9 -8.3125 6.0625 C-8 3 -8 3 -6.8125 1.125 C-4.34492892 -0.40659584 -2.85480169 -0.42822025 0 0 Z " fill="#FDF6F8" transform="translate(92,33)"/>
</svg>
