<?xml version="1.0" encoding="UTF-8"?>
<svg version="1.1" xmlns="http://www.w3.org/2000/svg" width="128" height="128">
<path d="M0 0 C12.03035732 7.29062694 20.24754898 17.37940117 24 31 C24.3283021 34.04605377 24.37007747 37.06318653 24.375 40.125 C24.39949219 40.90359375 24.42398438 41.6821875 24.44921875 42.484375 C24.50649716 54.20735637 19.3948185 63.79249546 13.3125 73.5 C12.66547119 74.55445312 12.01844238 75.60890625 11.35180664 76.6953125 C9.96772914 78.95077285 8.5798352 81.20340605 7.18652344 83.453125 C4.91361067 87.13032471 2.67700452 90.82893009 0.4453125 94.53125 C-0.31415773 95.78974447 -1.07367887 97.04820823 -1.83325195 98.30664062 C-2.20423004 98.92128174 -2.57520813 99.53592285 -2.95742798 100.16918945 C-3.50443863 101.07544067 -3.50443863 101.07544067 -4.0625 102 C-4.59464615 102.8820813 -4.59464615 102.8820813 -5.13754272 103.78198242 C-6.80420056 106.54126956 -8.48119493 109.29321103 -10.17626953 112.03515625 C-11.35001909 113.94332421 -12.49907806 115.86701812 -13.61669922 117.80859375 C-17.14281299 123.67743874 -17.14281299 123.67743874 -21 125.12890625 C-25.89213937 123.28798401 -27.50616557 119.35188703 -30 114.9375 C-31.14443139 112.99994101 -32.28896623 111.06244313 -33.43359375 109.125 C-34.01995605 108.114375 -34.60631836 107.10375 -35.21044922 106.0625 C-37.51960992 102.11077943 -39.90743974 98.21023977 -42.30151367 94.30957031 C-44.06306249 91.43658262 -45.81036662 88.5553492 -47.5546875 85.671875 C-49.82824086 81.9173596 -52.12641214 78.17978726 -54.4453125 74.453125 C-55.52613029 72.69797124 -56.60686335 70.94276529 -57.6875 69.1875 C-58.42722046 68.01562134 -58.42722046 68.01562134 -59.18188477 66.82006836 C-64.29402588 58.45939149 -66.56708392 50.35418461 -66.4375 40.5625 C-66.42847656 39.73556641 -66.41945313 38.90863281 -66.41015625 38.05664062 C-66.07944987 26.34412283 -61.71216088 17.77684857 -54 9 C-48.97994372 4.27781792 -43.38381745 0.60538778 -37 -2 C-36.13117187 -2.35707031 -35.26234375 -2.71414063 -34.3671875 -3.08203125 C-23.68802308 -5.99340438 -9.68698586 -5.48465707 0 0 Z M-38.5234375 27.046875 C-42.56478872 32.39257767 -43.91407418 38.39549218 -43 45 C-41.61167726 51.51636171 -38.287971 56.00229393 -33 60 C-27.24056295 63.24832249 -21.38909208 63.93510407 -14.96484375 62.56640625 C-8.74438875 60.6367468 -4.10070212 56.72464914 -0.8984375 51.046875 C1.65197756 44.9926187 1.8800347 39.19945968 -0.0625 32.9375 C-2.56698339 26.99227775 -6.99227775 22.56698339 -12.9375 20.0625 C-22.79265262 17.00531393 -31.56078712 19.48015907 -38.5234375 27.046875 Z " fill="#E50027" transform="translate(85,4)"/>
<path d="M0 0 C0 7.59 0 15.18 0 23 C-4.95 24.485 -4.95 24.485 -10 26 C-15.21704422 29.07113631 -18.86900769 33.12590903 -20.6015625 38.96484375 C-21.85301337 45.35705851 -21.37527851 51.31771295 -18 57 C-12.59725312 63.47811376 -8.61368292 64.41589512 0 67 C0 87.13 0 107.26 0 128 C-4 127 -4 127 -5.57714844 125.00415039 C-6.0827832 124.12750732 -6.58841797 123.25086426 -7.109375 122.34765625 C-7.69138672 121.35596436 -8.27339844 120.36427246 -8.87304688 119.3425293 C-9.49244141 118.26011963 -10.11183594 117.17770996 -10.75 116.0625 C-11.74416923 114.3634707 -12.73838451 112.66446666 -13.73510742 110.9669342 C-14.42810061 109.78607735 -15.11964622 108.6043699 -15.80981445 107.42185974 C-20.22123172 99.87465493 -24.84895941 92.46218714 -29.45605469 85.03344727 C-40.44905492 67.25441624 -48.42949321 53.13964647 -44.37890625 31.71484375 C-40.34394499 19.25129676 -31.27606882 9.67039115 -19.8125 3.6875 C-18.54884697 3.10904979 -17.27851806 2.54480748 -16 2 C-15.05125 1.5875 -14.1025 1.175 -13.125 0.75 C-10 0 -10 0 0 0 Z " fill="#FD003A" transform="translate(64,0)"/>
</svg>
