<?xml version="1.0" encoding="UTF-8"?>
<svg version="1.1" xmlns="http://www.w3.org/2000/svg" width="128" height="128">
<path d="M0 0 C0.85207031 0.32742187 1.70414062 0.65484375 2.58203125 0.9921875 C16.84636987 7.14719345 26.40698003 19.98075232 32.703125 33.65625 C37.86040532 46.95333421 38.26103807 63.7886246 33.25390625 77.1875 C25.96278346 93.54142029 14.71451157 106.0228415 -2 113 C-2.76054688 113.32097656 -3.52109375 113.64195313 -4.3046875 113.97265625 C-19.22157904 119.0958698 -36.79797095 117.00742874 -50.875 110.71484375 C-64.67313221 103.83494172 -75.09169906 92.1539517 -81 78 C-81.48146484 76.85917969 -81.48146484 76.85917969 -81.97265625 75.6953125 C-86.61337175 62.18327575 -85.60899908 45.01956408 -80 32 C-79.67257813 31.14792969 -79.34515625 30.29585937 -79.0078125 29.41796875 C-72.85280655 15.15363013 -60.01924768 5.59301997 -46.34375 -0.703125 C-31.87200808 -6.31599686 -14.26250164 -6.14447289 0 0 Z " fill="#FE5953" transform="translate(88,8)"/>
<path d="M0 0 C3.09148427 1.58801884 5.4101661 3.92882599 7.85888672 6.34741211 C8.40812805 6.88429657 8.95736938 7.42118103 9.52325439 7.97433472 C10.68033324 9.11186873 11.83330633 10.2535921 12.98242188 11.39916992 C14.74026057 13.1429226 16.52295025 14.85825577 18.30810547 16.57397461 C19.43083356 17.68430361 20.55198194 18.79623271 21.67138672 19.90991211 C22.20568298 20.41749054 22.73997925 20.92506897 23.29046631 21.44802856 C26.04293057 24.25216762 26.97192436 25.75557814 27.37402344 29.71313477 C25.4814761 46.45983463 16.40394035 60.33462972 3.56201172 70.83959961 C-5.45843253 77.48377432 -17.53842087 83.53453955 -29.00048828 82.02709961 C-32.1578628 79.86157202 -34.70062512 77.16510226 -37.34033203 74.40600586 C-38.10728897 73.63151596 -38.87424591 72.85702606 -39.66444397 72.05906677 C-42.10581709 69.58518499 -44.52149852 67.08776812 -46.93798828 64.58959961 C-48.5907225 62.91032584 -50.24500269 61.23257212 -51.90087891 59.55639648 C-54.9093166 56.49762093 -57.91490634 53.43637124 -60.89868164 50.35351562 C-61.79966835 49.42418968 -61.79966835 49.42418968 -62.71885681 48.47608948 C-64.00048828 47.02709961 -64.00048828 47.02709961 -64.00048828 46.02709961 C-42.88048828 45.69709961 -21.76048828 45.36709961 -0.00048828 45.02709961 C0.32951172 31.16709961 0.65951172 17.30709961 0.99951172 3.02709961 C-6.49415885 7.40822724 -6.49415885 7.40822724 -13.98657227 11.79150391 C-15.9975076 12.96586836 -18.01275078 14.13287396 -20.03125 15.29418945 C-21.90185504 16.38591405 -23.75562648 17.50753826 -25.58300781 18.67016602 C-26.35112793 19.14502441 -27.11924805 19.61988281 -27.91064453 20.10913086 C-28.56299072 20.5304126 -29.21533691 20.95169434 -29.88745117 21.38574219 C-33.85476932 22.58991836 -37.14628063 20.46139215 -40.66943359 18.67016602 C-43.53634833 17.00823987 -46.39784426 15.33842824 -49.25048828 13.65209961 C-50.75869141 12.78584961 -50.75869141 12.78584961 -52.29736328 11.90209961 C-53.25642578 11.33749023 -54.21548828 10.77288086 -55.20361328 10.19116211 C-56.07663086 9.68020996 -56.94964844 9.16925781 -57.84912109 8.64282227 C-60.1316601 6.92858678 -60.97823215 5.65830419 -62.00048828 3.02709961 C-57.95002791 3.60951577 -55.16710568 4.90499326 -51.69189453 7.03881836 C-50.69738281 7.63114258 -49.70287109 8.2234668 -48.67822266 8.83374023 C-46.59905167 10.08906416 -44.52609841 11.35474371 -42.45947266 12.63061523 C-41.46367188 13.21907227 -40.46787109 13.8075293 -39.44189453 14.41381836 C-38.54156494 14.96255615 -37.64123535 15.51129395 -36.71362305 16.07666016 C-33.04346365 17.36235533 -31.50179706 16.61806735 -28.00048828 15.02709961 C-25.92698136 13.90913126 -23.883447 12.73437658 -21.86767578 11.51538086 C-20.72076262 10.83336633 -19.57362046 10.1517368 -18.42626953 9.47045898 C-16.64150415 8.40201627 -14.8592897 7.32976806 -13.08105469 6.25048828 C-11.34978009 5.20293653 -9.60883985 4.17141146 -7.86767578 3.14038086 C-6.32249268 2.20899292 -6.32249268 2.20899292 -4.74609375 1.25878906 C-2.00048828 0.02709961 -2.00048828 0.02709961 0 0 Z " fill="#DB3A3C" transform="translate(97.00048828125,41.972900390625)"/>
<path d="M0 0 C3.93573629 1.45524925 7.42256713 3.31211329 11.03515625 5.44140625 C12.17404297 6.10720703 13.31292969 6.77300781 14.48632812 7.45898438 C16.28001258 8.51294933 18.07272273 9.5685317 19.86450195 10.62573242 C21.6064156 11.65183029 23.35199255 12.67170128 25.09765625 13.69140625 C26.13414307 14.30185791 27.17062988 14.91230957 28.23852539 15.54125977 C31.47290477 17.33132989 31.47290477 17.33132989 35 18 C37.7687634 16.90850185 37.7687634 16.90850185 40.6484375 15.17578125 C41.73640625 14.55896484 42.824375 13.94214844 43.9453125 13.30664062 C45.07710937 12.64857422 46.20890625 11.99050781 47.375 11.3125 C49.06109375 10.3544043 49.06109375 10.3544043 50.78125 9.37695312 C55.02353975 6.95242937 59.20907472 4.5406739 63.24462891 1.78198242 C66 0 66 0 68 0 C68.07410727 5.64165361 68.12858167 11.28302447 68.16479492 16.92504883 C68.1798898 18.84469538 68.20036773 20.7643074 68.22631836 22.68383789 C68.26267109 25.44165564 68.27971912 28.1990178 68.29296875 30.95703125 C68.30845261 31.81649857 68.32393646 32.67596588 68.33988953 33.56147766 C68.34011612 34.36208115 68.34034271 35.16268463 68.34057617 35.98754883 C68.35056892 37.04344963 68.35056892 37.04344963 68.36076355 38.12068176 C67.86604807 40.69779308 67.16210976 41.51386895 65 43 C62.30566406 43.38095093 62.30566406 43.38095093 59.015625 43.38818359 C57.78424805 43.39764008 56.55287109 43.40709656 55.28417969 43.4168396 C53.93944986 43.41146989 52.59472296 43.40531694 51.25 43.3984375 C49.8714177 43.40045847 48.49283645 43.4033701 47.11425781 43.40713501 C44.22580786 43.41155735 41.33763633 43.40513058 38.44921875 43.39111328 C34.74670246 43.37402099 31.04483854 43.38386272 27.34234619 43.40183067 C24.49588098 43.41267121 21.64957045 43.40922103 18.80310059 43.4014473 C17.43794681 43.39944601 16.07277898 43.40190208 14.7076416 43.40888596 C12.7998888 43.4165039 10.89208676 43.40283406 8.984375 43.38818359 C7.35580566 43.38460342 7.35580566 43.38460342 5.69433594 43.38095093 C3 43 3 43 1.14726257 41.72651672 C-0.24456797 39.63194939 -0.36425531 38.48964437 -0.34057617 35.98754883 C-0.34034958 35.18694534 -0.34012299 34.38634186 -0.33988953 33.56147766 C-0.32440567 32.70201035 -0.30892181 31.84254303 -0.29296875 30.95703125 C-0.28872391 30.0734343 -0.28447906 29.18983734 -0.28010559 28.27946472 C-0.26331043 25.45683339 -0.22565697 22.63491559 -0.1875 19.8125 C-0.17245423 17.89909885 -0.15876564 15.98568651 -0.14648438 14.07226562 C-0.11340419 9.38123541 -0.0616163 4.69073869 0 0 Z " fill="#FEFBFB" transform="translate(30,45)"/>
<path d="M0 0 C20.46 0 40.92 0 62 0 C62 0.99 62 1.98 62 3 C58.08918659 5.2665807 54.17474591 7.52671408 50.25683594 9.78100586 C48.92509477 10.54845816 47.59435388 11.31764898 46.26464844 12.08862305 C44.35092612 13.19780964 42.4336695 14.30065224 40.515625 15.40234375 C39.62789398 15.91957253 39.62789398 15.91957253 38.722229 16.44725037 C32.75074013 19.86056474 32.75074013 19.86056474 30 20 C27.34619141 18.8918457 27.34619141 18.8918457 24.3515625 17.17578125 C23.26359375 16.55896484 22.175625 15.94214844 21.0546875 15.30664062 C19.92289063 14.64857422 18.79109375 13.99050781 17.625 13.3125 C16.5009375 12.67376953 15.376875 12.03503906 14.21875 11.37695312 C9.02227877 8.40710225 3.95365581 5.35592479 -1 2 C-0.67 1.34 -0.34 0.68 0 0 Z " fill="#FEFBFB" transform="translate(33,40)"/>
<path d="M0 0 C0.53898926 0.22921143 1.07797852 0.45842285 1.63330078 0.69458008 C-1.47793533 4.11172279 -4.73696406 6.26445162 -8.74169922 8.55004883 C-9.34804199 8.89715408 -9.95438477 9.24425934 -10.57910156 9.60188293 C-11.85482893 10.33016195 -13.13237355 11.05526595 -14.41162109 11.77734375 C-16.36517248 12.88121738 -18.31152067 13.99703935 -20.25732422 15.11450195 C-31.53818788 21.53648203 -31.53818788 21.53648203 -34.36669922 21.69458008 C-38.76517802 19.91610794 -42.81205827 17.41892219 -46.92919922 15.06958008 C-48.07839844 14.43922852 -49.22759766 13.80887695 -50.41162109 13.15942383 C-51.51183594 12.53938477 -52.61205078 11.9193457 -53.74560547 11.28051758 C-54.75179932 10.71381348 -55.75799316 10.14710937 -56.79467773 9.56323242 C-59.57646518 7.54217868 -60.8300254 5.73918652 -62.36669922 2.69458008 C-58.31623885 3.27699624 -55.53331661 4.57247373 -52.05810547 6.70629883 C-51.06359375 7.29862305 -50.06908203 7.89094727 -49.04443359 8.5012207 C-46.96526261 9.75654463 -44.89230934 11.02222417 -42.82568359 12.2980957 C-41.82988281 12.88655273 -40.83408203 13.47500977 -39.80810547 14.08129883 C-38.90777588 14.63003662 -38.00744629 15.17877441 -37.07983398 15.74414062 C-33.40967459 17.0298358 -31.868008 16.28554782 -28.36669922 14.69458008 C-26.29319229 13.57661173 -24.24965794 12.40185705 -22.23388672 11.18286133 C-21.08697356 10.5008468 -19.93983139 9.81921727 -18.79248047 9.13793945 C-17.00771509 8.06949674 -15.22550063 6.99724853 -13.44726562 5.91796875 C-11.71599102 4.870417 -9.97505079 3.83889193 -8.23388672 2.80786133 C-6.68870361 1.87647339 -6.68870361 1.87647339 -5.11230469 0.92626953 C-2.36669922 -0.30541992 -2.36669922 -0.30541992 0 0 Z " fill="#DE4849" transform="translate(97.36669921875,42.305419921875)"/>
</svg>
