<?xml version="1.0" encoding="UTF-8"?>
<svg version="1.1" xmlns="http://www.w3.org/2000/svg" width="128" height="128">
<path d="M0 0 C2.89013672 2.12963867 2.89013672 2.12963867 5.6796875 4.91796875 C6.17792023 5.41283279 6.67615295 5.90769684 7.18948364 6.41755676 C8.23357369 7.46194437 9.27027185 8.51376918 10.29980469 9.57250977 C11.87253849 11.18497631 13.4725933 12.76596408 15.078125 14.34570312 C16.09290838 15.36804517 17.10598999 16.39207979 18.1171875 17.41796875 C19.03097168 18.34375732 19.94475586 19.2695459 20.88623047 20.22338867 C23.23513478 23.308869 23.82068016 25.15851907 24 29 C22.57682109 33.18058805 20.54645672 35.46556852 17.3125 38.3125 C14.67075791 40.88117263 13.4393257 42.53225743 13.1875 46.25 C14.02035961 55.85238136 21.07904147 64.73701992 28 71 C31.21403659 73.25563411 34.51651689 75.19309125 38 77 C38.6703125 77.36996094 39.340625 77.73992187 40.03125 78.12109375 C43.69685977 79.75752668 47.10926552 79.9758938 51 79 C53.28397081 77.14585395 55.13347714 75.11549481 57.08984375 72.921875 C59.97591711 70.01809567 61.95519394 69.45790257 66 69 C72.24984762 70.78447908 76.26154568 75.70347517 80.72167969 80.16577148 C82.2440352 81.68156092 83.78875214 83.17172628 85.3359375 84.66210938 C86.3139662 85.63133522 87.29057801 86.60199334 88.265625 87.57421875 C89.15024414 88.44651123 90.03486328 89.31880371 90.94628906 90.2175293 C93.41571157 93.56322691 93.8191319 95.881609 94 100 C91.84818285 105.59472459 86.20451483 111.07202701 81.09765625 114.14453125 C69.53492696 119.28071078 57.52687705 116.96848615 46 113 C17.68276546 101.7010377 -6.80875389 78.01926641 -18.90234375 50.01953125 C-23.43124503 37.56102347 -26.80148054 24.59692104 -21 12 C-18.90779125 9.06383265 -16.55721213 6.53380515 -14 4 C-13.2575 3.195625 -12.515 2.39125 -11.75 1.5625 C-8.00946068 -1.77726725 -4.60837099 -1.0930386 0 0 Z " fill="#FC4654" transform="translate(29,6)"/>
<path d="M0 0 C0.33 0 0.66 0 1 0 C1.04125 1.258125 1.0825 2.51625 1.125 3.8125 C2.25665216 13.68732778 8.78358869 22.46965596 16 29 C19.21403659 31.25563411 22.51651689 33.19309125 26 35 C26.66 35.36996094 27.32 35.73992187 28 36.12109375 C30.29813836 37.13101783 32.25504746 37.40485713 34.75 37.625 C35.54921875 37.69976562 36.3484375 37.77453125 37.171875 37.8515625 C37.77515625 37.90054688 38.3784375 37.94953125 39 38 C36.40282674 41.1480888 34.88093623 42.82726741 30.8125 43.625 C19.36404172 41.74820356 10.06937356 33.97014557 3.125 25.0625 C-1.23847706 18.96277028 -5.21680586 12.82232338 -4 5 C-2.0625 2.125 -2.0625 2.125 0 0 Z " fill="#E6404D" transform="translate(41,48)"/>
<path d="M0 0 C2.79833984 2.13549805 2.79833984 2.13549805 5.4609375 4.76171875 C5.93697418 5.23060013 6.41301086 5.69948151 6.9034729 6.18257141 C7.8993834 7.17074667 8.88902874 8.16527307 9.87255859 9.16577148 C11.37330891 10.6857872 12.90116389 12.17411556 14.43359375 13.66210938 C15.40281579 14.63104108 16.37032507 15.60168974 17.3359375 16.57421875 C18.20782715 17.44651123 19.0797168 18.31880371 19.97802734 19.2175293 C22.41489812 22.5709483 22.83939866 24.88962817 23 29 C21.41161066 32.57387602 20.28365642 33.81089572 17 36 C17.2784375 34.081875 17.2784375 34.081875 17.5625 32.125 C17.54432148 26.30787314 14.66546208 23.61935785 10.72265625 19.6328125 C9.82417969 18.76398438 8.92570312 17.89515625 8 17 C7.01650685 16.00036241 6.03610129 14.99767897 5.05859375 13.9921875 C-0.67210295 7.23357609 -0.67210295 7.23357609 -8.26171875 3.8046875 C-9.06222656 3.82789062 -9.86273438 3.85109375 -10.6875 3.875 C-11.49574219 3.89304687 -12.30398437 3.91109375 -13.13671875 3.9296875 C-13.75160156 3.95289062 -14.36648437 3.97609375 -15 4 C-9.68202447 -1.60543367 -7.41673768 -2.76083426 0 0 Z " fill="#E6404D" transform="translate(100,77)"/>
<path d="M0 0 C2.89013672 2.12963867 2.89013672 2.12963867 5.6796875 4.91796875 C6.17792023 5.41283279 6.67615295 5.90769684 7.18948364 6.41755676 C8.23357369 7.46194437 9.27027185 8.51376918 10.29980469 9.57250977 C11.87253849 11.18497631 13.4725933 12.76596408 15.078125 14.34570312 C16.09290838 15.36804517 17.10598999 16.39207979 18.1171875 17.41796875 C19.03097168 18.34375732 19.94475586 19.2695459 20.88623047 20.22338867 C23.24172523 23.31752611 23.85846671 25.14140756 24 29 C22.5625 32.375 22.5625 32.375 21 35 C20.34 35 19.68 35 19 35 C18.9175 33.9275 18.835 32.855 18.75 31.75 C17.93299965 27.66499825 17.0438363 26.65108323 14 24 C14 23.34 14 22.68 14 22 C13.34 22 12.68 22 12 22 C10.51953125 20.49609375 10.51953125 20.49609375 8.8125 18.4375 C0.26328853 8.12402902 0.26328853 8.12402902 -12 4 C-11.1875 2.0625 -11.1875 2.0625 -10 0 C-6.14861893 -1.28379369 -3.94488556 -0.9356695 0 0 Z " fill="#E6404D" transform="translate(29,6)"/>
</svg>
