<?xml version="1.0" encoding="UTF-8"?>
<svg version="1.1" xmlns="http://www.w3.org/2000/svg" width="128" height="128">
<path d="M0 0 C0.89162842 0.37125 0.89162842 0.37125 1.80126953 0.75 C19.98742322 8.48459847 30.65878444 20.14562913 38.95703125 38.1015625 C43.77060527 51.47861091 44.66432909 69.81512587 39 83 C38.62875 83.89162842 38.62875 83.89162842 38.25 84.80126953 C30.51540153 102.98742322 18.85437087 113.65878444 0.8984375 121.95703125 C-6.65158145 124.67381704 -13.88495504 125.36092032 -21.875 125.3125 C-22.84880615 125.30686035 -23.8226123 125.3012207 -24.82592773 125.29541016 C-33.04257349 125.15627339 -39.79907179 124.18635669 -47.15234375 120.359375 C-54.45280325 116.39198805 -54.45280325 116.39198805 -62.4375 116.875 C-64.29823514 117.56589426 -66.15186853 118.27606615 -68 119 C-70.55903941 119.75033563 -73.11702657 120.47994695 -75.6875 121.1875 C-77.79185653 121.79100504 -79.89609165 122.39493439 -82 123 C-80.95235898 117.76179488 -79.64072375 112.89787078 -77.8125 107.875 C-75.79292748 101.82390346 -75.45444576 98.18310576 -78.3125 92.296875 C-78.828125 91.29140625 -79.34375 90.2859375 -79.875 89.25 C-86.87955936 75.54396318 -88.54194923 59.25878309 -85 44.125 C-84.39928283 42.39237595 -83.72384729 40.68490128 -83 39 C-82.7525 38.40558105 -82.505 37.81116211 -82.25 37.19873047 C-74.51540153 19.01257678 -62.85437087 8.34121556 -44.8984375 0.04296875 C-31.52138909 -4.77060527 -13.18487413 -5.66432909 0 0 Z " fill="#4CAF50" transform="translate(86,3)"/>
<path d="M0 0 C3.46350632 2.82830728 5.06081194 5.77715488 6.75 9.875 C7.17796875 10.88304687 7.6059375 11.89109375 8.046875 12.9296875 C9.06137145 16.19769654 9.36344578 18.60154597 9 22 C7.87109375 23.7578125 7.87109375 23.7578125 6.4375 25.125 C5.633125 26.07375 4.82875 27.0225 4 28 C4.73556436 35.47573574 12.3659474 41.67660148 17.6953125 46.234375 C21.67745374 49.28510015 25.50601846 51.65586921 30.51953125 52.34765625 C33.12233469 52.23446477 33.12233469 52.23446477 34.80859375 50.21484375 C35.89488417 48.69612117 36.97821967 47.17528071 38.05859375 45.65234375 C40 44 40 44 42.79296875 44.03125 C46.46725301 45.14114342 49.52888307 46.68457723 52.875 48.5625 C54.02742188 49.20316406 55.17984375 49.84382813 56.3671875 50.50390625 C57.67042969 51.24447266 57.67042969 51.24447266 59 52 C59.48101682 55.92830399 59.81067358 59.47453897 57.91015625 63.05078125 C53.56119716 68.43795338 48.92653945 70.58192294 42.0625 71.5625 C26.2295722 70.96707366 10.54391359 59.93143875 0 49 C-9.00181015 38.93661197 -17.03185489 28.81332929 -16.35546875 14.6640625 C-15.53497639 8.51487799 -12.5116575 5.0489234 -8 1 C-5.15916359 -0.42041821 -3.14522722 -0.31452272 0 0 Z " fill="#F6F8F6" transform="translate(43,29)"/>
</svg>
